<svg xmlns="http://www.w3.org/2000/svg" viewBox="0 0 90 90"><defs><style>.cls-1{fill:#87613e;}.cls-1,.cls-2{fill-rule:evenodd;}.cls-2{fill:#a67c52;}.cls-3{fill:#4d4d4f;}.cls-4{fill:#ffa7ca;}</style></defs><title>rabbit</title><g id="rabbit"><path class="cls-1" d="M20,78.59c-3.89.64-9.23-2-9.88-5.86s2.11-8.2,6.62-8.2Z"/><path class="cls-1" d="M50.7,5C48,4.88,48,8.91,47.86,12.36c-.27,6.64,1.8,15.06,1.8,15.06L62.14,28s-4.34-11.88-6.68-17.78C54.74,8.39,53.17,5.12,50.7,5Z"/><path class="cls-2" d="M78.49,42.61C78.49,37.3,66,25.16,61,25.16,56,17.94,42.16,5.22,33.52,5.22c-3.25,0-5,.5-5,2.49,0,11.49,15,19.17,15,22.44a17.91,17.91,0,0,1-5,12.46c-2.62,2.61-8.73,1.23-17.49,10-4.69,4.68-5,12.89-5,15C16,85.8,35.95,85,46,85c11,0,15.82-1,15.82-2.49,0-4.06-5.78-2.79-5.83-5,0-1.19.16-5,2.5-5C62,72.53,62.78,85,68.49,85c1.13,0,5-.25,5-2.49,0-3.57-1.91-2.31-5-12.46-.75-2.48-2.5-7.46-2.5-10V57.57C66,52.1,78.49,51.86,78.49,42.61Z"/><ellipse class="cls-3" cx="66" cy="37.63" rx="2.5" ry="2.49"/><ellipse class="cls-4" cx="78.33" cy="42.61" rx="1.67" ry="2.49"/></g></svg>