<?xml version="1.0" encoding="UTF-8"?>
<!DOCTYPE svg PUBLIC "-//W3C//DTD SVG 1.1//EN" "http://www.w3.org/Graphics/SVG/1.1/DTD/svg11.dtd">
<svg version="1.1" xmlns="http://www.w3.org/2000/svg" xmlns:xlink="http://www.w3.org/1999/xlink" x="0" y="0" width="850" height="250" viewBox="0, 0, 850, 250">
  <g id="text">
    <path d="M167.09,80.126 L143.749,201.664 L105.782,120.255 L92.437,164.333 L70.845,163.558 L23.545,100.482 L54.304,78.627 L77.979,124.401 L89.515,87.126 L105.558,76.214 L129.398,115.335 L136.703,70.723 z" fill="#00D1D4"/>
    <path d="M128.69,57.774 L126.835,69.106 L123.891,87.081 L114.097,71.009 L108.626,62.032 L99.933,67.945 L83.891,78.857 L80.997,80.825 L79.962,84.169 L75.645,98.12 L63.186,74.032 L57.897,63.806 L48.512,70.474 L17.752,92.33 L9.389,98.273 L15.544,106.481 L62.845,169.556 L65.711,173.379 L70.486,173.55 L92.078,174.326 L99.776,174.602 L102.008,167.23 L107.774,148.185 L134.686,205.89 L147.743,233.887 L153.569,203.549 L176.911,82.011 L178.599,73.219 L170.046,70.572 L139.659,61.169 z M136.703,70.722 L167.09,80.125 L143.749,201.663 L105.782,120.254 L92.437,164.332 L70.845,163.557 L23.544,100.482 L54.304,78.626 L77.979,124.4 L89.515,87.126 L105.558,76.213 L129.398,115.334 z" fill="#FFFFFF"/>
    <path d="M203.617,170.782 L169.338,173.782 L169.338,89.28 L199.304,89.28 z" fill="#00D1D4"/>
    <path d="M208.789,79.28 L199.304,79.28 L169.338,79.28 L169.338,86.115 L165.285,93.449 L159.338,173.782 L154.2,185.145 L170.21,183.744 L204.49,180.744 L214.115,179.902 L213.604,170.254 L209.29,88.752 z M199.304,89.28 L203.618,170.782 L169.338,173.782 L169.338,89.28 z" fill="#FFFFFF"/>
    <path d="M239.533,164.066 L209.681,161.454 L215.435,40.997 L249.56,49.455 z" fill="#00D1D4"/>
    <path d="M206.027,28.363 L205.446,40.52 L205.951,157.781 L205.951,167.528 L208.809,171.416 L238.661,174.028 L248.623,174.9 L249.495,164.937 L259.522,50.326 L260.267,41.806 L251.965,39.749 L217.84,31.291 z M215.435,40.997 L249.56,49.455 L239.533,164.066 L209.681,161.454 z" fill="#FFFFFF"/>
    <g>
      <path d="M311.237,133.386 L313.408,108.568 C312.492,104.732 309.398,102.552 307.514,101.554 C305.629,100.556 301.689,99.343 299.047,99.073 C291.286,98.282 288.307,96.446 280.431,100.267 C275.084,102.861 270.645,111.15 269.95,119.088 C269.299,126.53 268.125,143.019 276.486,147.974 C280.559,150.389 289.227,152.221 294.142,151.312 C302.567,149.753 302.567,149.753 304.284,147.449 C308.852,141.32 310.905,137.181 311.237,133.386 M337.617,164.066 L308.25,167.528 L308.916,159.92 C305.542,162.291 302.029,164.178 298.38,165.581 C294.729,166.983 289.817,167.415 283.643,166.875 C277.524,166.339 271.647,164.298 266.014,160.749 C260.38,157.202 255.943,152.05 252.701,145.294 C249.459,138.54 248.205,118.839 251.474,109.606 C254.731,100.407 251.85,105.807 255.303,99.36 C258.756,92.913 263.725,87.863 270.211,84.208 C276.696,80.554 284.377,79.115 293.253,79.891 C298.765,80.373 303.177,81.371 306.49,82.882 C309.801,84.394 312.698,86.203 315.181,88.309 L318.277,52.916 L347.473,34.924 z" fill="#00D1D4"/>
      <path d="M291.201,141.549 C287.628,141.549 283.047,140.238 281.584,139.372 C281.49,139.288 278.459,136.569 279.912,119.96 C280.405,114.331 283.563,109.909 284.802,109.261 C287.54,107.932 288.648,107.932 289.243,107.932 C290.204,107.932 291.474,108.124 293.082,108.368 C294.501,108.582 296.11,108.826 298.033,109.022 C299.4,109.161 302.03,109.98 302.842,110.395 C302.972,110.464 303.088,110.534 303.192,110.603 L301.275,132.514 C301.18,133.606 300.327,135.888 296.904,140.605 C295.752,140.844 294.068,141.155 292.322,141.479 C292.259,141.49 291.907,141.549 291.201,141.549 M358.938,16.112 L342.227,26.411 L313.031,44.403 L308.753,47.039 L308.315,52.045 L306.55,72.224 C302.995,71.102 298.89,70.346 294.124,69.929 C292.288,69.768 290.462,69.687 288.697,69.687 C280.015,69.687 272.144,71.641 265.303,75.495 C257.165,80.08 250.836,86.521 246.488,94.639 L246.418,94.77 C244.353,98.624 248.036,99.338 247.618,101.631 C247.465,102.467 248.52,112.961 244.284,113.448 C242.777,126.978 244.951,136.193 246.284,145.831 C250.339,154.28 253.46,164.662 260.686,169.212 C267.649,173.598 275.08,176.164 282.771,176.837 C284.767,177.011 286.694,177.1 288.498,177.1 C291.789,177.1 294.752,176.818 297.45,176.243 L297.217,178.897 L309.421,177.459 L338.788,173.997 L346.962,173.034 L347.588,164.827 L357.444,35.685 z M291.201,151.549 C292.269,151.549 293.265,151.474 294.142,151.312 C302.567,149.753 302.567,149.753 304.284,147.448 C308.852,141.32 310.905,137.181 311.237,133.386 L313.409,108.568 C312.493,104.732 309.398,102.552 307.514,101.554 C305.629,100.556 301.689,99.342 299.047,99.073 C294.908,98.652 292.129,97.932 289.243,97.932 C286.716,97.932 284.107,98.483 280.431,100.267 C275.084,102.861 270.645,111.15 269.951,119.088 C269.3,126.53 268.125,143.019 276.486,147.974 C279.832,149.958 286.281,151.549 291.201,151.549 M347.473,34.924 L337.617,164.066 L308.25,167.528 L308.916,159.92 C305.542,162.291 302.03,164.178 298.38,165.581 C295.744,166.593 292.45,167.1 288.498,167.1 C286.977,167.1 285.359,167.025 283.643,166.875 C277.524,166.339 271.647,164.298 266.014,160.749 C260.38,157.202 255.943,152.05 252.701,145.294 C249.459,138.54 248.205,118.839 251.474,109.606 C254.731,100.407 251.85,105.807 255.303,99.36 C258.756,92.913 263.725,87.862 270.211,84.208 C275.56,81.194 281.722,79.687 288.697,79.687 C290.179,79.687 291.698,79.755 293.253,79.891 C298.765,80.373 303.177,81.371 306.49,82.882 C309.801,84.394 312.699,86.203 315.181,88.309 L318.277,52.916 L347.473,34.924" fill="#FFFFFF"/>
      <path d="M426.772,168.483 C423.672,169.977 423.397,171.417 417.948,172.799 C412.496,174.182 407.28,174.875 402.3,174.875 C380.772,174.875 365.867,163.811 365.867,142.782 L370.01,109.63 L347.473,113.13 L347.728,98.037 L396.827,63.302 L399.976,63.561 L397.117,90.782 L428.531,85.532 L428.531,109.63 L399.976,109.63 L399.976,136.691 C399.976,139.845 400.169,142.391 400.557,144.328 C400.943,146.265 402.037,147.884 403.835,149.184 C405.633,150.484 408.359,151.134 412.012,151.134 C416.771,151.134 419.024,149.142 426.772,145.158 z" fill="#FFC40A"/>
      <path d="M394.022,53.037 L391.052,55.138 L345.617,89.873 L342.697,97.505 L342.284,113.115 L343.779,123.824 L349.008,123.012 L358.443,121.546 L355.945,141.542 L355.867,142.159 L355.867,142.782 C355.867,168.352 374.093,184.874 402.3,184.874 C408.083,184.874 414.175,184.073 420.406,182.492 C425.329,181.243 427.73,179.76 429.949,178.223 C430.55,177.807 430.774,177.655 431.114,177.491 L436.772,174.764 L436.772,168.483 L436.772,145.158 L436.772,128.77 L422.199,136.265 C420.324,137.229 418.795,138.06 417.445,138.794 C413.433,140.975 412.984,141.134 412.013,141.134 C411.197,141.134 410.595,141.086 410.168,141.029 C410.065,140.07 409.976,138.668 409.976,136.691 L409.976,119.63 L428.531,119.63 L438.531,119.63 L438.531,109.63 L438.531,85.532 L438.531,73.722 L426.883,75.668 L408.436,78.751 L409.921,64.605 L410.99,54.434 L400.797,53.595 L397.648,53.335 z M396.828,63.302 L399.976,63.561 L397.117,90.782 L428.531,85.532 L428.531,109.63 L399.976,109.63 L399.976,136.691 C399.976,139.845 400.169,142.391 400.557,144.328 C400.944,146.265 402.037,147.884 403.836,149.183 C405.634,150.484 408.36,151.134 412.013,151.134 C416.772,151.134 419.024,149.142 426.772,145.158 L426.772,168.483 C423.673,169.977 423.397,171.416 417.948,172.799 C412.496,174.182 407.281,174.874 402.3,174.874 C380.773,174.874 365.867,163.811 365.867,142.782 L370.01,109.63 L347.473,113.13 L347.728,98.037 L396.828,63.302" fill="#FFFFFF"/>
      <path d="M521.617,173.38 L485.867,173.38 L491.734,129.552 C491.734,129.22 491.747,128.902 491.775,128.597 C491.803,128.294 491.817,127.643 491.817,126.647 C491.817,122.608 490.959,118.9 489.244,115.524 C487.528,112.149 484.263,110.46 479.449,110.46 C475.685,110.46 470.357,111.971 466.867,113.531 C463.247,115.15 459.218,118.463 456.617,122.281 L452.117,173.38 L431.388,173.38 L431.388,58.331 L466.117,58.331 L459.117,101.031 C464.042,95.775 471.065,92.157 475.88,90.248 C480.694,88.338 485.812,87.384 491.236,87.384 C511.49,87.384 521.617,98.756 521.617,121.5 z" fill="#FFC40A"/>
      <path d="M477.891,48.331 L472.004,48.331 L466.118,48.331 L448.752,48.331 L431.388,48.331 L426.388,48.331 L421.388,48.331 L421.411,76.583 L423.618,118.955 L422.952,140.115 L428.532,139.115 L431.388,170.115 L416.496,183.38 L426.388,183.38 L431.388,183.38 L441.752,183.38 L452.118,183.38 L456.697,183.38 L461.276,183.38 L461.677,178.818 L462.079,174.257 L464.198,150.199 L466.317,126.141 C467.071,125.339 467.899,124.617 468.703,124.02 C469.508,123.425 470.288,122.956 470.95,122.661 C472.284,122.064 473.923,121.514 475.472,121.113 C477.022,120.712 478.48,120.46 479.45,120.46 C479.704,120.46 479.922,120.469 480.107,120.483 C480.29,120.497 480.442,120.516 480.562,120.536 C480.984,121.455 481.298,122.416 481.506,123.431 C481.714,124.445 481.818,125.514 481.818,126.646 C481.818,127.008 481.816,127.272 481.813,127.461 C481.81,127.651 481.807,127.764 481.805,127.823 C481.791,127.978 481.78,128.137 481.771,128.298 C481.761,128.458 481.753,128.623 481.747,128.789 L478.852,150.421 L475.956,172.053 L475.198,177.717 L474.44,183.38 L480.154,183.38 L485.868,183.38 L503.743,183.38 L521.618,183.38 L526.618,183.38 L531.618,183.38 L531.618,178.38 L531.618,173.38 L531.618,147.44 L531.618,121.5 C531.618,114.578 530.765,108.405 529.074,103.019 C527.382,97.634 524.85,93.036 521.491,89.263 C517.981,85.321 513.681,82.352 508.627,80.367 C503.573,78.383 497.764,77.384 491.237,77.384 C487.973,77.384 484.772,77.671 481.653,78.243 C478.535,78.815 475.498,79.67 472.567,80.806 L474.277,70.377 L475.986,59.949 L476.938,54.14 z M466.118,58.331 L459.118,101.031 C464.042,95.774 471.066,92.157 475.88,90.248 C480.695,88.338 485.813,87.384 491.237,87.384 C511.491,87.384 521.618,98.756 521.618,121.5 L521.618,173.38 L485.868,173.38 L491.735,129.552 C491.735,129.22 491.747,128.902 491.776,128.597 C491.803,128.293 491.818,127.643 491.818,126.646 C491.818,122.607 490.959,118.899 489.245,115.523 C487.529,112.148 484.264,110.46 479.45,110.46 C475.686,110.46 470.358,111.971 466.868,113.531 C463.247,115.15 459.218,118.463 456.618,122.281 L452.118,173.38 L431.388,173.38 L431.388,58.331 L466.118,58.331" fill="#FFFFFF"/>
      <path d="M560.1,69.372 C560.1,72.858 558.855,75.819 556.365,78.254 C553.874,80.689 550.913,81.906 547.483,81.906 C545.159,81.906 543.042,81.353 541.132,80.246 C539.224,79.14 537.715,77.631 536.609,75.722 C535.501,73.813 534.949,71.696 534.949,69.372 C534.949,65.941 536.165,62.98 538.601,60.49 C541.036,58 543.996,56.755 547.483,56.755 C550.913,56.755 553.874,58 556.365,60.49 C558.855,62.98 560.1,65.941 560.1,69.372 M562.507,173.381 L532.541,173.381 L527.118,87.385 L562.507,88.879 z" fill="#FFC40A"/>
      <path d="M547.482,46.754 C541.307,46.754 535.763,49.087 531.45,53.499 C527.196,57.847 524.948,63.337 524.948,69.371 C524.948,72.168 525.419,74.836 526.352,77.343 L516.437,76.924 L517.137,88.013 L519.867,96.531 L525.117,127.281 L522.136,167.28 L522.56,174.009 L523.151,183.38 L532.541,183.38 L562.506,183.38 L572.506,183.38 L572.506,173.38 L572.506,88.878 L572.506,79.292 L567.924,79.098 C569.359,76.128 570.099,72.849 570.099,69.371 C570.099,63.295 567.794,57.778 563.435,53.419 C559.075,49.059 553.558,46.754 547.482,46.754 M527.117,87.384 L562.506,88.878 L562.506,173.38 L532.541,173.38 L527.117,87.384 M547.482,56.754 C550.913,56.754 553.874,57.999 556.364,60.489 C558.854,62.98 560.099,65.941 560.099,69.371 C560.099,72.858 558.854,75.818 556.364,78.253 C553.874,80.689 550.913,81.905 547.482,81.905 C545.158,81.905 543.042,81.353 541.131,80.245 C539.223,79.139 537.714,77.63 536.608,75.721 C535.501,73.812 534.948,71.695 534.948,69.371 C534.948,65.941 536.165,62.98 538.6,60.489 C541.035,57.999 543.996,56.754 547.482,56.754" fill="#FFFFFF"/>
      <path d="M645.617,169.104 L622.284,174.88 L627.939,129.309 C627.939,124.66 627.178,120.607 625.656,117.148 C624.134,113.69 620.801,111.96 615.654,111.96 C613.219,111.96 611.074,112.416 609.221,113.33 C607.366,114.243 605.706,115.419 604.24,116.857 C602.773,118.297 601.543,119.68 600.547,121.008 C599.551,122.336 598.526,123.747 597.475,125.241 L597.475,165.565 L582.617,169.104 L567.593,90.378 L597.475,90.378 L597.475,102.497 C602.179,97.462 606.896,93.934 611.629,91.914 C616.359,89.894 622.511,86.637 628.617,84.782 C647.95,78.908 657.822,82.716 657.822,106.954 z" fill="#FFC40A"/>
      <path d="M641.967,72.352 L641.967,82.352 L641.967,72.352 L641.965,72.352 C637.364,72.352 632.048,73.289 625.711,75.214 C620.743,76.723 616.074,78.885 611.954,80.793 C610.415,81.506 608.961,82.179 607.702,82.716 C607.627,82.749 607.551,82.781 607.476,82.814 L607.476,80.378 L597.476,80.378 L567.925,79.098 L562.507,82.352 L564.617,91.782 L569.617,170.115 L572.507,183.38 L584.935,178.832 L599.792,175.293 L607.476,173.463 L607.476,165.565 L607.476,128.455 C607.836,127.961 608.194,127.478 608.547,127.008 C609.237,126.088 610.144,125.074 611.244,123.995 C611.953,123.299 612.737,122.745 613.638,122.301 C614.092,122.078 614.788,121.96 615.655,121.96 C616.17,121.96 616.561,121.991 616.843,122.028 C617.521,123.905 617.887,126.154 617.934,128.732 L612.361,173.648 L610.57,188.081 L624.687,184.587 L648.021,178.811 L652.086,183.38 L655.43,171.031 L667.635,108.881 L667.822,107.927 L667.822,106.954 C667.822,95.936 666.012,88.125 662.125,82.371 C659.038,77.8 653.035,72.352 641.967,72.352 M641.965,82.352 C652.484,82.351 657.822,89.126 657.822,106.954 L645.617,169.104 L622.284,174.88 L627.94,129.309 C627.94,124.66 627.178,120.607 625.656,117.148 C624.134,113.69 620.801,111.96 615.655,111.96 C613.219,111.96 611.074,112.416 609.221,113.33 C607.366,114.243 605.706,115.419 604.24,116.857 C602.774,118.297 601.543,119.68 600.547,121.008 C599.551,122.336 598.527,123.747 597.476,125.241 L597.476,165.565 L582.617,169.104 L567.593,90.378 L597.476,90.378 L597.476,102.497 C602.179,97.462 606.897,93.934 611.629,91.914 C616.36,89.894 622.511,86.637 628.617,84.782 C633.731,83.228 638.184,82.352 641.965,82.352" fill="#FFFFFF"/>
      <path d="M762.691,173.38 L721.302,169.113 L692.3,133.287 L686.973,173.38 L662.086,173.38 L662.086,58.331 L701.973,56.754 L694.503,110.094 L720.617,73.781 L757.794,88.878 L712.388,119.088 z" fill="#FFC40A"/>
      <path d="M713.537,46.29 L701.578,46.763 L661.69,48.34 L652.086,48.72 L652.086,74.193 L657.822,89.449 L660.951,118.956 L654.951,137.116 L652.086,183.381 L662.086,183.381 L686.974,183.381 L695.732,183.381 L696.887,174.698 L699.152,157.645 L713.53,175.406 L716.144,178.636 L720.277,179.061 L761.666,183.328 L782.085,184.128 L770.026,166.584 L727.707,120.908 L763.333,97.205 L779.078,86.729 L761.556,79.614 L724.38,64.517 L717.092,61.558 L712.499,67.944 L710.021,71.389 L711.877,58.142 z M701.974,56.755 L694.503,110.095 L720.617,73.782 L757.794,88.879 L712.389,119.089 L762.691,173.381 L721.303,169.114 L692.301,133.288 L686.974,173.381 L662.086,173.381 L662.086,58.332 z" fill="#FFFFFF"/>
      <path d="M815.869,147.98 C815.869,155.728 813.032,162.022 807.36,166.864 C801.687,171.707 793.263,174.127 782.085,174.127 C775.831,174.127 770.269,173.56 765.4,172.426 C760.53,171.292 771.155,174.529 765.4,172.426 L743.573,137.035 C748.608,139.913 758.87,151.383 762.578,152.877 C766.285,154.372 770.352,155.119 774.78,155.119 C782.251,155.119 785.986,153.072 785.986,148.976 C785.986,147.593 785.446,146.361 784.368,145.282 C783.288,144.203 781.406,142.986 778.723,141.63 C776.038,140.274 772.456,138.656 767.973,136.774 C762.439,134.339 757.735,131.075 753.862,126.979 C749.988,122.884 748.052,117.876 748.052,111.955 C748.052,107.75 749.339,103.709 751.911,99.835 C754.485,95.962 758.372,92.794 763.574,90.331 C768.775,87.869 775.056,86.637 782.417,86.637 C784.187,86.637 786.442,86.762 789.182,87.011 C791.921,87.26 795.379,87.911 799.557,88.961 C803.735,90.013 807.706,91.507 811.47,93.444 L822.573,126.539 C820.802,125.488 808.218,112.176 807.028,111.457 C805.838,110.738 804.248,109.935 802.256,109.049 C800.264,108.165 797.925,107.376 795.241,106.684 C792.557,105.992 789.805,105.646 786.982,105.646 C783.551,105.646 781.199,106.31 779.927,107.638 C778.653,108.966 778.017,110.294 778.017,111.623 C778.017,113.006 778.681,114.293 780.01,115.482 C781.338,116.673 784.298,118.153 788.891,119.923 C795.532,122.469 800.845,125.084 804.829,127.768 C808.813,130.452 811.648,133.399 813.337,136.608 C815.024,139.818 815.869,143.609 815.869,147.98" fill="#FFC40A"/>
      <path d="M782.417,76.637 C773.602,76.637 765.822,78.203 759.296,81.292 C752.453,84.532 761.377,83.487 757.794,88.878 C754.123,94.407 738.052,105.767 738.052,111.954 C738.052,116.089 731.944,112.293 733.284,115.856 L721.074,119.606 L735.062,142.284 L762.691,173.38 L752.284,177.449 L755.424,177.196 C756.348,178.795 757.522,179.871 758.708,180.624 L759.076,181.22 L760.501,181.553 C761.258,181.87 761.965,182.09 762.551,182.273 C764.427,182.857 765.65,183.154 767.133,183.154 L768.313,183.154 C772.562,183.801 777.173,184.127 782.085,184.127 C795.658,184.127 806.347,180.878 813.854,174.47 C821.714,167.759 825.869,158.599 825.869,147.98 C825.869,145.033 825.569,142.23 824.974,139.589 L840.611,148.865 L832.054,123.358 L820.95,90.263 L819.658,86.411 L816.045,84.552 C811.622,82.276 806.896,80.497 801.999,79.264 C797.266,78.074 793.37,77.35 790.088,77.052 C787.019,76.773 784.509,76.637 782.417,76.637 M764.129,172.177 C764.253,172.177 764.636,172.247 765.4,172.426 C766.88,172.966 767.276,173.154 767.133,173.154 C766.806,173.154 763.667,172.177 764.129,172.177 M782.417,86.637 C784.188,86.637 786.442,86.762 789.183,87.011 C791.921,87.26 795.379,87.91 799.558,88.961 C803.735,90.013 807.706,91.507 811.47,93.444 L822.573,126.538 C820.802,125.488 808.218,112.176 807.028,111.456 C805.838,110.738 804.248,109.935 802.256,109.049 C800.264,108.164 797.925,107.376 795.241,106.683 C792.557,105.992 789.805,105.646 786.982,105.646 C783.551,105.646 781.199,106.31 779.927,107.638 C778.653,108.966 778.018,110.294 778.018,111.622 C778.018,113.006 778.682,114.293 780.01,115.482 C781.338,116.673 784.298,118.153 788.892,119.923 C795.532,122.469 800.845,125.084 804.829,127.767 C808.813,130.452 811.648,133.399 813.337,136.608 C815.024,139.818 815.869,143.609 815.869,147.98 C815.869,155.728 813.032,162.022 807.36,166.864 C801.688,171.707 793.263,174.127 782.085,174.127 C775.831,174.127 770.27,173.559 765.4,172.426 L743.573,137.034 C748.608,139.912 758.87,151.383 762.578,152.877 C766.285,154.371 770.353,155.118 774.78,155.118 C782.251,155.118 785.986,153.072 785.986,148.976 C785.986,147.593 785.446,146.361 784.368,145.282 C783.288,144.203 781.406,142.986 778.724,141.63 C776.038,140.274 772.456,138.656 767.974,136.774 C762.439,134.339 757.735,131.075 753.862,126.979 C749.988,122.884 748.052,117.876 748.052,111.954 C748.052,107.749 749.339,103.709 751.911,99.835 C754.485,95.962 758.372,92.794 763.574,90.331 C768.775,87.869 775.057,86.637 782.417,86.637" fill="#FFFFFF"/>
      <path d="M192.218,40.232 C192.45,44.181 190.754,48.068 187.735,50.624 C185.411,52.591 182.707,53.573 179.624,53.573 C177.3,53.573 175.183,53.021 173.274,51.913 C171.365,50.807 169.857,49.298 168.75,47.389 C167.643,45.48 167.09,43.363 167.09,41.039 C167.09,37.671 168.262,34.756 170.61,32.295 C172.926,29.866 176.178,28.443 179.535,28.422 C183.004,28.4 185.994,29.646 188.506,32.157 C190.799,34.45 192.036,37.142 192.218,40.232" fill="#00D1D4"/>
      <path d="M179.624,18.422 L179.47,18.422 C173.428,18.461 167.56,21.002 163.372,25.395 C159.262,29.705 157.09,35.115 157.09,41.039 C157.09,45.139 158.103,48.964 160.1,52.407 C162.085,55.832 164.831,58.578 168.26,60.565 C171.7,62.561 175.524,63.573 179.624,63.573 C185.047,63.573 190.086,61.735 194.195,58.257 C199.623,53.662 202.616,46.704 202.201,39.645 C201.876,34.129 199.586,29.095 195.577,25.086 C191.217,20.727 185.701,18.422 179.624,18.422 M179.624,28.422 C183.055,28.422 186.016,29.667 188.506,32.157 C190.799,34.45 192.036,37.142 192.218,40.232 C192.45,44.181 190.753,48.068 187.734,50.624 C185.411,52.591 182.707,53.573 179.624,53.573 C177.3,53.573 175.183,53.021 173.274,51.913 C171.365,50.807 169.856,49.298 168.75,47.389 C167.643,45.48 167.09,43.363 167.09,41.039 C167.09,37.672 168.262,34.756 170.609,32.295 C172.926,29.866 176.178,28.443 179.535,28.422 C179.564,28.422 179.594,28.422 179.624,28.422" fill="#FFFFFF"/>
    </g>
  </g>
</svg>
