<?xml version="1.0" encoding="UTF-8"?>
<!DOCTYPE svg PUBLIC "-//W3C//DTD SVG 1.1//EN" "http://www.w3.org/Graphics/SVG/1.1/DTD/svg11.dtd">
<svg version="1.1" xmlns="http://www.w3.org/2000/svg" xmlns:xlink="http://www.w3.org/1999/xlink" x="0" y="0" width="500" height="500" viewBox="0, 0, 500, 500">
  <defs>
    <linearGradient id="Gradient_1" gradientUnits="userSpaceOnUse" x1="251.113" y1="591.356" x2="251.113" y2="-61.82">
      <stop offset="0.113" stop-color="#078CEF"/>
      <stop offset="0.986" stop-color="#09F2F5"/>
    </linearGradient>
  </defs>
  <g id="Layer_3">
    <g>
      <path d="M59.326,12.721 L441.674,12.721 C467.413,12.721 488.279,33.587 488.279,59.326 L488.279,441.674 C488.279,467.413 467.413,488.279 441.674,488.279 L59.326,488.279 C33.587,488.279 12.721,467.413 12.721,441.674 L12.721,59.326 C12.721,33.587 33.587,12.721 59.326,12.721 z" fill="url(#Gradient_1)"/>
      <path d="M59.326,12.721 L441.674,12.721 C467.413,12.721 488.279,33.587 488.279,59.326 L488.279,441.674 C488.279,467.413 467.413,488.279 441.674,488.279 L59.326,488.279 C33.587,488.279 12.721,467.413 12.721,441.674 L12.721,59.326 C12.721,33.587 33.587,12.721 59.326,12.721 z" fill-opacity="0" stroke="#FFFFFF" stroke-width="16"/>
    </g>
    <g>
      <path d="M134,419.5 C134,419.5 134,96.5 134,96.5 C134,96.5 367,96.5 367,96.5 C367,96.5 367,363.5 367,363.5 C367,363.5 313.5,419.5 313.5,419.5 C313.5,419.5 134,419.5 134,419.5 z" fill="#FFFFFF"/>
      <path d="M134,419.5 C134,419.5 134,96.5 134,96.5 C134,96.5 367,96.5 367,96.5 C367,96.5 367,363.5 367,363.5 C367,363.5 313.5,419.5 313.5,419.5 C313.5,419.5 134,419.5 134,419.5 z" fill-opacity="0" stroke="#001156" stroke-width="12" stroke-linecap="round" stroke-linejoin="round"/>
    </g>
    <g>
      <path d="M313.5,419.5 C313.5,419.5 313.5,364.5 313.5,364.5 C313.5,364.5 367,363.5 367,363.5 C367,363.5 313.5,419.5 313.5,419.5 z" fill="#00EFF2"/>
      <path d="M313.5,419.5 C313.5,419.5 313.5,364.5 313.5,364.5 C313.5,364.5 367,363.5 367,363.5 C367,363.5 313.5,419.5 313.5,419.5 z" fill-opacity="0" stroke="#001156" stroke-width="12" stroke-linejoin="round"/>
    </g>
    <path d="M181,163.5 L320,163.5" fill-opacity="0" stroke="#CBCBCB" stroke-width="12" stroke-linecap="round"/>
    <path d="M181,210.5 L320,210.5" fill-opacity="0" stroke="#CBCBCB" stroke-width="12" stroke-linecap="round"/>
    <path d="M181,258 L320,258" fill-opacity="0" stroke="#CBCBCB" stroke-width="12" stroke-linecap="round"/>
    <g>
      <path d="M352.5,145.5 C352.5,145.5 392.5,181.5 392.5,181.5 C392.5,181.5 393.5,178.833 415.5,158.5 C437.5,138.167 388.167,110.833 377.5,122.5 C366.833,134.167 354.5,145.5 352.5,145.5 z" fill="#FF6E67"/>
      <path d="M352.5,145.5 C352.5,145.5 392.5,181.5 392.5,181.5 C392.5,181.5 393.5,178.833 415.5,158.5 C437.5,138.167 388.167,110.833 377.5,122.5 C366.833,134.167 354.5,145.5 352.5,145.5 z" fill-opacity="0" stroke="#001156" stroke-width="8" stroke-linecap="round" stroke-linejoin="round"/>
    </g>
    <g>
      <path d="M352.5,145.5 C352.5,145.5 340.833,156.833 340.833,156.833 C340.833,156.833 381.5,192.5 381.5,192.5 C381.5,192.5 392.5,181.5 392.5,181.5 C392.5,181.5 352.5,145.5 352.5,145.5 z" fill="#FFFFFF"/>
      <path d="M352.5,145.5 C352.5,145.5 340.833,156.833 340.833,156.833 C340.833,156.833 381.5,192.5 381.5,192.5 C381.5,192.5 392.5,181.5 392.5,181.5 C392.5,181.5 352.5,145.5 352.5,145.5 z" fill-opacity="0" stroke="#001156" stroke-width="8" stroke-linejoin="round"/>
    </g>
    <g>
      <path d="M340.833,160.833 C340.833,160.833 181,324.5 181,324.5 C181,324.5 207.5,335.5 207.5,335.5 C207.5,335.5 222.5,363.5 222.5,363.5 C222.5,363.5 381.5,192.5 381.5,192.5 C381.5,192.5 340.833,160.833 340.833,160.833 z" fill="#0085CF"/>
      <path d="M340.833,160.833 C340.833,160.833 181,324.5 181,324.5 C181,324.5 207.5,335.5 207.5,335.5 C207.5,335.5 222.5,363.5 222.5,363.5 C222.5,363.5 381.5,192.5 381.5,192.5 C381.5,192.5 340.833,160.833 340.833,160.833 z" fill-opacity="0" stroke="#001156" stroke-width="8" stroke-linejoin="round"/>
    </g>
    <g>
      <path d="M165.5,379.833 C165.5,379.833 181,324.5 181,324.5 C181,324.5 207.5,334.833 207.5,334.833 C207.5,334.833 222.5,362.833 222.5,362.833 C222.5,362.833 165.5,379.833 165.5,379.833 z" fill="#FFAE67"/>
      <path d="M165.5,379.833 C165.5,379.833 181,324.5 181,324.5 C181,324.5 207.5,334.833 207.5,334.833 C207.5,334.833 222.5,362.833 222.5,362.833 C222.5,362.833 165.5,379.833 165.5,379.833 z" fill-opacity="0" stroke="#001156" stroke-width="8" stroke-linejoin="round"/>
    </g>
    <path d="M207.5,334.833 L287.5,253.5" fill-opacity="0" stroke="#001156" stroke-width="8" stroke-linecap="round"/>
    <path d="M320,222.167 L358.833,181.5" fill-opacity="0" stroke="#001156" stroke-width="8" stroke-linecap="round"/>
    <path d="M594.833,242.167 L595.5,242.167" fill-opacity="0" stroke="#001156" stroke-width="8"/>
    <g>
      <path d="M165.5,379.833 C165.5,379.833 171.5,358.833 171.5,358.833 C171.5,358.833 184.167,372.167 184.167,372.167 C184.167,372.167 165.5,379.833 165.5,379.833 z" fill="#001156"/>
      <path d="M165.5,379.833 C165.5,379.833 171.5,358.833 171.5,358.833 C171.5,358.833 184.167,372.167 184.167,372.167 C184.167,372.167 165.5,379.833 165.5,379.833 z" fill-opacity="0" stroke="#001156" stroke-width="8"/>
    </g>
    <path d="M578.833,282.833" fill-opacity="0" stroke="#001156" stroke-width="8"/>
  </g>
</svg>
