<?xml version="1.0" encoding="UTF-8"?>
<!DOCTYPE svg PUBLIC "-//W3C//DTD SVG 1.1//EN" "http://www.w3.org/Graphics/SVG/1.1/DTD/svg11.dtd">
<svg version="1.1" xmlns="http://www.w3.org/2000/svg" xmlns:xlink="http://www.w3.org/1999/xlink" x="0" y="0" width="500" height="500" viewBox="0, 0, 500, 500">
  <defs>
    <linearGradient id="Gradient_1" gradientUnits="userSpaceOnUse" x1="251.113" y1="591.356" x2="251.113" y2="-61.82">
      <stop offset="0.113" stop-color="#078CEF"/>
      <stop offset="0.986" stop-color="#09F2F5"/>
    </linearGradient>
  </defs>
  <g id="Layer_3">
    <g>
      <path d="M59.326,12.721 L441.674,12.721 C467.413,12.721 488.279,33.587 488.279,59.326 L488.279,441.674 C488.279,467.413 467.413,488.279 441.674,488.279 L59.326,488.279 C33.587,488.279 12.721,467.413 12.721,441.674 L12.721,59.326 C12.721,33.587 33.587,12.721 59.326,12.721 z" fill="url(#Gradient_1)"/>
      <path d="M59.326,12.721 L441.674,12.721 C467.413,12.721 488.279,33.587 488.279,59.326 L488.279,441.674 C488.279,467.413 467.413,488.279 441.674,488.279 L59.326,488.279 C33.587,488.279 12.721,467.413 12.721,441.674 L12.721,59.326 C12.721,33.587 33.587,12.721 59.326,12.721 z" fill-opacity="0" stroke="#FFFFFF" stroke-width="16"/>
    </g>
    <g>
      <g>
        <path d="M167.5,340.5 C113.376,340.5 69.5,337.519 69.5,284.5 C69.5,231.481 113.376,188.5 167.5,188.5 C221.624,188.5 265.5,231.481 265.5,284.5 C265.5,337.519 221.624,340.5 167.5,340.5 z" fill="#FFFFFF" fill-opacity="0.759"/>
        <path d="M167.5,340.5 C113.376,340.5 69.5,337.519 69.5,284.5 C69.5,231.481 113.376,188.5 167.5,188.5 C221.624,188.5 265.5,231.481 265.5,284.5 C265.5,337.519 221.624,340.5 167.5,340.5 z" fill-opacity="0" stroke="#FFFFFF" stroke-width="16"/>
      </g>
      <g>
        <path d="M321.5,344.5 C267.376,344.5 229.5,334.519 229.5,281.5 C229.5,228.481 296.376,178.5 350.5,178.5 C404.624,178.5 443.5,228.481 443.5,281.5 C443.5,334.519 375.624,344.5 321.5,344.5 z" fill="#FFFFFF" fill-opacity="0.759"/>
        <path d="M321.5,344.5 C267.376,344.5 229.5,334.519 229.5,281.5 C229.5,228.481 296.376,178.5 350.5,178.5 C404.624,178.5 443.5,228.481 443.5,281.5 C443.5,334.519 375.624,344.5 321.5,344.5 z" fill-opacity="0" stroke="#FFFFFF" stroke-width="16"/>
      </g>
      <g>
        <path d="M263,344.5 C196.45,344.5 142.5,288.312 142.5,219 C142.5,149.688 196.45,93.5 263,93.5 C329.55,93.5 383.5,149.688 383.5,219 C383.5,288.312 329.55,344.5 263,344.5 z" fill="#FFFFFF" fill-opacity="0.759"/>
        <path d="M263,344.5 C196.45,344.5 142.5,288.312 142.5,219 C142.5,149.688 196.45,93.5 263,93.5 C329.55,93.5 383.5,149.688 383.5,219 C383.5,288.312 329.55,344.5 263,344.5 z" fill-opacity="0" stroke="#FFFFFF" stroke-width="16"/>
      </g>
      <path d="M182.5,313.881 L97.5,394.5" fill-opacity="0" stroke="#0A6DE6" stroke-width="16" stroke-linecap="round"/>
      <path d="M274.5,281.072 L169.5,380.5" fill-opacity="0" stroke="#0A6DE6" stroke-width="16" stroke-linecap="round"/>
      <path d="M333,281.072 L180,422.5" fill-opacity="0" stroke="#0A6DE6" stroke-width="16" stroke-linecap="round"/>
      <path d="M364.517,313.881 L283,394.5" fill-opacity="0" stroke="#0A6DE6" stroke-width="16" stroke-linecap="round"/>
    </g>
  </g>
</svg>
