<?xml version="1.0" encoding="UTF-8"?>
<!DOCTYPE svg PUBLIC "-//W3C//DTD SVG 1.1//EN" "http://www.w3.org/Graphics/SVG/1.1/DTD/svg11.dtd">
<svg version="1.1" xmlns="http://www.w3.org/2000/svg" xmlns:xlink="http://www.w3.org/1999/xlink" x="0" y="0" width="500" height="500" viewBox="0, 0, 500, 500">
  <defs>
    <radialGradient id="Gradient_1" gradientUnits="userSpaceOnUse" cx="220.759" cy="253.089" r="245.833">
      <stop offset="0.027" stop-color="#EDBCFF"/>
      <stop offset="1" stop-color="#CEBCFF"/>
    </radialGradient>
  </defs>
  <g id="Layer_3">
    <g>
      <path d="M59.326,12.721 L441.674,12.721 C467.413,12.721 488.279,33.587 488.279,59.326 L488.279,441.674 C488.279,467.413 467.413,488.279 441.674,488.279 L59.326,488.279 C33.587,488.279 12.721,467.413 12.721,441.674 L12.721,59.326 C12.721,33.587 33.587,12.721 59.326,12.721 z" fill="url(#Gradient_1)"/>
      <path d="M59.326,12.721 L441.674,12.721 C467.413,12.721 488.279,33.587 488.279,59.326 L488.279,441.674 C488.279,467.413 467.413,488.279 441.674,488.279 L59.326,488.279 C33.587,488.279 12.721,467.413 12.721,441.674 L12.721,59.326 C12.721,33.587 33.587,12.721 59.326,12.721 z" fill-opacity="0" stroke="#B8B8B8" stroke-width="16"/>
    </g>
  </g>
  <g id="Layer_1">
    <path d="M43.5,235.5 L43.5,235.5" fill-opacity="0" stroke="#383838" stroke-width="1" stroke-linecap="round" stroke-linejoin="round"/>
    <path d="M293.959,52.213 L393.842,52.213 C410.443,52.213 423.9,63.732 423.9,77.941 L423.9,186.486 C423.9,200.695 410.443,212.213 393.842,212.213 L293.959,212.213 C277.358,212.213 263.9,200.695 263.9,186.486 L263.9,77.941 C263.9,63.732 277.358,52.213 293.959,52.213 z" fill="#FFFFFF"/>
    <path d="M115.158,52.213 L215.041,52.213 C231.642,52.213 245.1,63.732 245.1,77.941 L245.1,186.486 C245.1,200.695 231.642,212.213 215.041,212.213 L115.158,212.213 C98.557,212.213 85.1,200.695 85.1,186.486 L85.1,77.941 C85.1,63.732 98.557,52.213 115.158,52.213 z" fill="#FFFFFF"/>
    <g>
      <path d="M140.301,117.774 C128.827,117.774 119.526,108.655 119.526,97.406 C119.526,86.157 128.827,77.038 140.301,77.038 C151.775,77.038 161.077,86.157 161.077,97.406 C161.077,108.655 151.775,117.774 140.301,117.774 z" fill="#30B5FF"/>
      <path d="M140.301,117.774 C128.827,117.774 119.526,108.655 119.526,97.406 C119.526,86.157 128.827,77.038 140.301,77.038 C151.775,77.038 161.077,86.157 161.077,97.406 C161.077,108.655 151.775,117.774 140.301,117.774 z" fill-opacity="0" stroke="#006CAA" stroke-width="4"/>
    </g>
    <g>
      <path d="M199.853,144.423 C188.378,144.423 179.077,135.304 179.077,124.055 C179.077,112.806 188.378,103.686 199.853,103.686 C211.327,103.686 220.628,112.806 220.628,124.055 C220.628,135.304 211.327,144.423 199.853,144.423 z" fill="#9F2DCF"/>
      <path d="M199.853,144.423 C188.378,144.423 179.077,135.304 179.077,124.055 C179.077,112.806 188.378,103.686 199.853,103.686 C211.327,103.686 220.628,112.806 220.628,124.055 C220.628,135.304 211.327,144.423 199.853,144.423 z" fill-opacity="0" stroke="#400D56" stroke-width="4"/>
    </g>
    <g>
      <path d="M386.605,129.577 C375.131,129.577 365.83,120.458 365.83,109.209 C365.83,97.96 375.131,88.841 386.605,88.841 C398.079,88.841 407.381,97.96 407.381,109.209 C407.381,120.458 398.079,129.577 386.605,129.577 z" fill="#9F2DCF"/>
      <path d="M386.605,129.577 C375.131,129.577 365.83,120.458 365.83,109.209 C365.83,97.96 375.131,88.841 386.605,88.841 C398.079,88.841 407.381,97.96 407.381,109.209 C407.381,120.458 398.079,129.577 386.605,129.577 z" fill-opacity="0" stroke="#400D56" stroke-width="4"/>
    </g>
    <g>
      <path d="M132.895,185.159 C121.421,185.159 112.119,176.04 112.119,164.791 C112.119,153.542 121.421,144.423 132.895,144.423 C144.369,144.423 153.67,153.542 153.67,164.791 C153.67,176.04 144.369,185.159 132.895,185.159 z" fill="#9F2DCF"/>
      <path d="M132.895,185.159 C121.421,185.159 112.119,176.04 112.119,164.791 C112.119,153.542 121.421,144.423 132.895,144.423 C144.369,144.423 153.67,153.542 153.67,164.791 C153.67,176.04 144.369,185.159 132.895,185.159 z" fill-opacity="0" stroke="#400D56" stroke-width="4"/>
    </g>
    <text transform="matrix(1, 0, 0, 1, 249.425, 434.713)">
      <tspan x="-110.01" y="20" font-family="Arial-BoldMT" font-size="60" fill="#000000">2D dots</tspan>
    </text>
    <path d="M293.959,224 L393.842,224 C410.443,224 423.9,235.518 423.9,249.727 L423.9,358.273 C423.9,372.482 410.443,384 393.842,384 L293.959,384 C277.358,384 263.9,372.482 263.9,358.273 L263.9,249.727 C263.9,235.518 277.358,224 293.959,224 z" fill="#FFFFFF"/>
    <path d="M115.158,224 L215.041,224 C231.642,224 245.1,235.518 245.1,249.727 L245.1,358.273 C245.1,372.482 231.642,384 215.041,384 L115.158,384 C98.557,384 85.1,372.482 85.1,358.273 L85.1,249.727 C85.1,235.518 98.557,224 115.158,224 z" fill="#FFFFFF"/>
    <g>
      <path d="M308.605,368.364 C297.131,368.364 287.83,359.245 287.83,347.995 C287.83,336.746 297.131,327.627 308.605,327.627 C320.079,327.627 329.381,336.746 329.381,347.995 C329.381,359.245 320.079,368.364 308.605,368.364 z" fill="#9F2DCF"/>
      <path d="M308.605,368.364 C297.131,368.364 287.83,359.245 287.83,347.995 C287.83,336.746 297.131,327.627 308.605,327.627 C320.079,327.627 329.381,336.746 329.381,347.995 C329.381,359.245 320.079,368.364 308.605,368.364 z" fill-opacity="0" stroke="#400D56" stroke-width="4"/>
    </g>
  </g>
</svg>
