<?xml version="1.0" encoding="UTF-8"?>
<!DOCTYPE svg PUBLIC "-//W3C//DTD SVG 1.1//EN" "http://www.w3.org/Graphics/SVG/1.1/DTD/svg11.dtd">
<svg version="1.1" xmlns="http://www.w3.org/2000/svg" xmlns:xlink="http://www.w3.org/1999/xlink" x="0" y="0" width="500" height="500" viewBox="0, 0, 500, 500">
  <g id="outline_box">
    <g>
      <path d="M58.826,12.221 L441.174,12.221 C466.913,12.221 487.779,33.087 487.779,58.826 L487.779,441.174 C487.779,466.913 466.913,487.779 441.174,487.779 L58.826,487.779 C33.087,487.779 12.221,466.913 12.221,441.174 L12.221,58.826 C12.221,33.087 33.087,12.221 58.826,12.221 z" fill="#FFFFFF"/>
      <path d="M58.826,12.221 L441.174,12.221 C466.913,12.221 487.779,33.087 487.779,58.826 L487.779,441.174 C487.779,466.913 466.913,487.779 441.174,487.779 L58.826,487.779 C33.087,487.779 12.221,466.913 12.221,441.174 L12.221,58.826 C12.221,33.087 33.087,12.221 58.826,12.221 z" fill-opacity="0" stroke="#CBCBCB" stroke-width="10"/>
    </g>
  </g>
  <g id="svg">
    <g>
      <g id="box_jxgBoard1P2" display="none">
        <path d="M87,333 C87,335.209 85.209,337 83,337 C80.791,337 79,335.209 79,333 C79,330.791 80.791,329 83,329 C85.209,329 87,330.791 87,333 z" fill="#FF0000"/>
        <path d="M87,333 C87,335.209 85.209,337 83,337 C80.791,337 79,335.209 79,333 C79,330.791 80.791,329 83,329 C85.209,329 87,330.791 87,333 z" fill-opacity="0" stroke="#0000FF" stroke-width="2"/>
      </g>
      <g id="box_jxgBoard1P3" display="none">
        <path d="M129,333 C129,335.209 127.209,337 125,337 C122.791,337 121,335.209 121,333 C121,330.791 122.791,329 125,329 C127.209,329 129,330.791 129,333 z" fill="#FF0000"/>
        <path d="M129,333 C129,335.209 127.209,337 125,337 C122.791,337 121,335.209 121,333 C121,330.791 122.791,329 125,329 C127.209,329 129,330.791 129,333 z" fill-opacity="0" stroke="#0000FF" stroke-width="2"/>
      </g>
      <g id="box_jxgBoard1P17" display="none">
        <path d="M87,333 C87,335.209 85.209,337 83,337 C80.791,337 79,335.209 79,333 C79,330.791 80.791,329 83,329 C85.209,329 87,330.791 87,333 z" fill="#FF0000"/>
        <path d="M87,333 C87,335.209 85.209,337 83,337 C80.791,337 79,335.209 79,333 C79,330.791 80.791,329 83,329 C85.209,329 87,330.791 87,333 z" fill-opacity="0" stroke="#0000FF" stroke-width="2"/>
      </g>
      <g id="box_jxgBoard1P18" display="none">
        <path d="M87,292 C87,294.209 85.209,296 83,296 C80.791,296 79,294.209 79,292 C79,289.791 80.791,288 83,288 C85.209,288 87,289.791 87,292 z" fill="#FF0000"/>
        <path d="M87,292 C87,294.209 85.209,296 83,296 C80.791,296 79,294.209 79,292 C79,289.791 80.791,288 83,288 C85.209,288 87,289.791 87,292 z" fill-opacity="0" stroke="#0000FF" stroke-width="2"/>
      </g>
      <g id="box_jxgBoard1P34" display="none">
        <path d="M87,333 C87,335.209 85.209,337 83,337 C80.791,337 79,335.209 79,333 C79,330.791 80.791,329 83,329 C85.209,329 87,330.791 87,333 z" fill="#FF0000"/>
        <path d="M87,333 C87,335.209 85.209,337 83,337 C80.791,337 79,335.209 79,333 C79,330.791 80.791,329 83,329 C85.209,329 87,330.791 87,333 z" fill-opacity="0" stroke="#0000FF" stroke-width="2"/>
      </g>
      <g id="box_jxgBoard1P35" display="none">
        <path d="M129,333 C129,335.209 127.209,337 125,337 C122.791,337 121,335.209 121,333 C121,330.791 122.791,329 125,329 C127.209,329 129,330.791 129,333 z" fill="#FF0000"/>
        <path d="M129,333 C129,335.209 127.209,337 125,337 C122.791,337 121,335.209 121,333 C121,330.791 122.791,329 125,329 C127.209,329 129,330.791 129,333 z" fill-opacity="0" stroke="#0000FF" stroke-width="2"/>
      </g>
      <g id="box_jxgBoard1P41" display="none">
        <path d="M87,333 C87,335.209 85.209,337 83,337 C80.791,337 79,335.209 79,333 C79,330.791 80.791,329 83,329 C85.209,329 87,330.791 87,333 z" fill="#FF0000"/>
        <path d="M87,333 C87,335.209 85.209,337 83,337 C80.791,337 79,335.209 79,333 C79,330.791 80.791,329 83,329 C85.209,329 87,330.791 87,333 z" fill-opacity="0" stroke="#0000FF" stroke-width="2"/>
      </g>
      <g id="box_jxgBoard1P42" display="none">
        <path d="M87,333 C87,335.209 85.209,337 83,337 C80.791,337 79,335.209 79,333 C79,330.791 80.791,329 83,329 C85.209,329 87,330.791 87,333 z" fill="#FF0000"/>
        <path d="M87,333 C87,335.209 85.209,337 83,337 C80.791,337 79,335.209 79,333 C79,330.791 80.791,329 83,329 C85.209,329 87,330.791 87,333 z" fill-opacity="0" stroke="#0000FF" stroke-width="2"/>
      </g>
    </g>
    <g>
      <g>
        <path d="M4,333.333 L488,333.333" fill-opacity="0" stroke="#666666" stroke-width="1" id="box_jxgBoard1L4"/>
        <path d="M484,329.333 L492,333.333 L484,337.333 z" fill="#666666"/>
      </g>
      <g id="box_jxgBoard1L4_ticks_1">
        <path d="M92,333 L92,338 M100,333 L100,338 M108,333 L108,338 M117,333 L117,338 M125,333 L125,353 M133,333 L133,338 M142,333 L142,338 M150,333 L150,338 M158,333 L158,338 M167,333 L167,353 M175,333 L175,338 M183,333 L183,338 M192,333 L192,338 M200,333 L200,338 M208,333 L208,353 M217,333 L217,338 M225,333 L225,338 M233,333 L233,338 M242,333 L242,338 M250,333 L250,353 M258,333 L258,338 M267,333 L267,338 M275,333 L275,338 M283,333 L283,338 M292,333 L292,353 M300,333 L300,338 M308,333 L308,338 M317,333 L317,338 M325,333 L325,338 M333,333 L333,353 M342,333 L342,338 M350,333 L350,338 M358,333 L358,338 M367,333 L367,338 M375,333 L375,353 M383,333 L383,338 M392,333 L392,338 M400,333 L400,338 M408,333 L408,338 M417,333 L417,353 M425,333 L425,338 M433,333 L433,338 M442,333 L442,338 M450,333 L450,338 M458,333 L458,353 M467,333 L467,338 M475,333 L475,338 M483,333 L483,338 M492,333 L492,338 M75,333 L75,338 M67,333 L67,338 M58,333 L58,338 M50,333 L50,338 M42,333 L42,353 M33,333 L33,338 M25,333 L25,338 M17,333 L17,338 M8,333 L8,338 M-0,333 L-0,353" fill="#000000"/>
        <path d="M92,333 L92,338 M100,333 L100,338 M108,333 L108,338 M117,333 L117,338 M125,333 L125,353 M133,333 L133,338 M142,333 L142,338 M150,333 L150,338 M158,333 L158,338 M167,333 L167,353 M175,333 L175,338 M183,333 L183,338 M192,333 L192,338 M200,333 L200,338 M208,333 L208,353 M217,333 L217,338 M225,333 L225,338 M233,333 L233,338 M242,333 L242,338 M250,333 L250,353 M258,333 L258,338 M267,333 L267,338 M275,333 L275,338 M283,333 L283,338 M292,333 L292,353 M300,333 L300,338 M308,333 L308,338 M317,333 L317,338 M325,333 L325,338 M333,333 L333,353 M342,333 L342,338 M350,333 L350,338 M358,333 L358,338 M367,333 L367,338 M375,333 L375,353 M383,333 L383,338 M392,333 L392,338 M400,333 L400,338 M408,333 L408,338 M417,333 L417,353 M425,333 L425,338 M433,333 L433,338 M442,333 L442,338 M450,333 L450,338 M458,333 L458,353 M467,333 L467,338 M475,333 L475,338 M483,333 L483,338 M492,333 L492,338 M75,333 L75,338 M67,333 L67,338 M58,333 L58,338 M50,333 L50,338 M42,333 L42,353 M33,333 L33,338 M25,333 L25,338 M17,333 L17,338 M8,333 L8,338 M-0,333 L-0,353" fill-opacity="0" stroke="#666666" stroke-width="1" stroke-opacity="0.25" stroke-linecap="round" stroke-linejoin="round"/>
      </g>
      <g>
        <path d="M83.333,496 L83.333,12" fill-opacity="0" stroke="#666666" stroke-width="1" id="box_jxgBoard1L19"/>
        <path d="M79.333,16 L83.333,8 L87.333,16 z" fill="#666666"/>
      </g>
      <g id="box_jxgBoard1L19_ticks_1">
        <path d="M83,325 L88,325 M83,317 L88,317 M83,308 L88,308 M83,300 L88,300 M83,292 L103,292 M83,283 L88,283 M83,275 L88,275 M83,267 L88,267 M83,258 L88,258 M83,250 L103,250 M83,242 L88,242 M83,233 L88,233 M83,225 L88,225 M83,217 L88,217 M83,208 L103,208 M83,200 L88,200 M83,192 L88,192 M83,183 L88,183 M83,175 L88,175 M83,167 L103,167 M83,158 L88,158 M83,150 L88,150 M83,142 L88,142 M83,133 L88,133 M83,125 L103,125 M83,117 L88,117 M83,108 L88,108 M83,100 L88,100 M83,92 L88,92 M83,83 L103,83 M83,75 L88,75 M83,67 L88,67 M83,58 L88,58 M83,50 L88,50 M83,42 L103,42 M83,33 L88,33 M83,25 L88,25 M83,17 L88,17 M83,8 L88,8 M83,342 L88,342 M83,350 L88,350 M83,358 L88,358 M83,367 L88,367 M83,375 L103,375 M83,383 L88,383 M83,392 L88,392 M83,400 L88,400 M83,408 L88,408 M83,417 L103,417 M83,425 L88,425 M83,433 L88,433 M83,442 L88,442 M83,450 L88,450 M83,458 L103,458 M83,467 L88,467 M83,475 L88,475 M83,483 L88,483 M83,492 L88,492 M83,500 L103,500" fill="#000000"/>
        <path d="M83,325 L88,325 M83,317 L88,317 M83,308 L88,308 M83,300 L88,300 M83,292 L103,292 M83,283 L88,283 M83,275 L88,275 M83,267 L88,267 M83,258 L88,258 M83,250 L103,250 M83,242 L88,242 M83,233 L88,233 M83,225 L88,225 M83,217 L88,217 M83,208 L103,208 M83,200 L88,200 M83,192 L88,192 M83,183 L88,183 M83,175 L88,175 M83,167 L103,167 M83,158 L88,158 M83,150 L88,150 M83,142 L88,142 M83,133 L88,133 M83,125 L103,125 M83,117 L88,117 M83,108 L88,108 M83,100 L88,100 M83,92 L88,92 M83,83 L103,83 M83,75 L88,75 M83,67 L88,67 M83,58 L88,58 M83,50 L88,50 M83,42 L103,42 M83,33 L88,33 M83,25 L88,25 M83,17 L88,17 M83,8 L88,8 M83,342 L88,342 M83,350 L88,350 M83,358 L88,358 M83,367 L88,367 M83,375 L103,375 M83,383 L88,383 M83,392 L88,392 M83,400 L88,400 M83,408 L88,408 M83,417 L103,417 M83,425 L88,425 M83,433 L88,433 M83,442 L88,442 M83,450 L88,450 M83,458 L103,458 M83,467 L88,467 M83,475 L88,475 M83,483 L88,483 M83,492 L88,492 M83,500 L103,500" fill-opacity="0" stroke="#666666" stroke-width="1" stroke-opacity="0.25" stroke-linecap="round" stroke-linejoin="round"/>
      </g>
    </g>
    <path d="M0,284.108 L0.702,284.682 L1.404,285.233 L2.106,285.763 L2.808,286.271 L3.51,286.757 L4.211,287.221 L4.913,287.662 L5.615,288.08 L6.317,288.477 L7.019,288.85 L7.721,289.2 L8.423,289.528 L9.125,289.832 L9.827,290.114 L10.529,290.372 L11.23,290.607 L11.932,290.818 L12.634,291.006 L13.336,291.171 L14.038,291.312 L14.74,291.43 L15.442,291.524 L16.144,291.594 L16.846,291.641 L17.548,291.664 L18.25,291.663 L18.951,291.639 L19.653,291.592 L20.355,291.52 L21.057,291.425 L21.759,291.306 L22.461,291.164 L23.163,290.999 L23.865,290.81 L24.567,290.597 L25.269,290.361 L25.97,290.102 L26.672,289.82 L27.374,289.514 L28.076,289.186 L28.778,288.834 L29.48,288.46 L30.182,288.063 L30.884,287.643 L31.586,287.201 L32.288,286.737 L32.99,286.25 L33.691,285.741 L34.393,285.21 L35.095,284.657 L35.797,284.083 L36.499,283.487 L37.201,282.87 L37.903,282.232 L38.605,281.572 L39.307,280.892 L40.009,280.192 L40.695,279.487 L41.359,278.787 L42.007,278.085 L42.641,277.384 L43.266,276.676 L43.877,275.97 L44.472,275.268 L45.059,274.562 L45.631,273.861 L46.196,273.157 L46.753,272.452 L47.302,271.744 L47.844,271.036 L48.378,270.327 L48.904,269.619 L49.423,268.911 L49.934,268.204 L50.438,267.5 L50.934,266.797 L51.43,266.086 L51.918,265.378 L52.399,264.673 L52.872,263.973 L53.345,263.265 L53.81,262.562 L54.276,261.851 L54.733,261.146 L55.191,260.435 L55.641,259.729 L56.091,259.018 L56.534,258.312 L56.976,257.602 L57.411,256.897 L57.846,256.188 L58.273,255.486 L58.701,254.779 L59.128,254.067 L59.547,253.363 L59.967,252.655 L60.387,251.942 L60.799,251.237 L61.211,250.529 L61.623,249.816 L62.027,249.113 L62.431,248.406 L62.836,247.695 L63.232,246.994 L63.629,246.289 L64.026,245.581 L64.423,244.87 L64.812,244.169 L65.201,243.465 L65.59,242.757 L65.979,242.047 L66.368,241.334 L66.75,240.632 L67.131,239.927 L67.513,239.22 L67.894,238.51 L68.275,237.798 L68.649,237.097 L69.023,236.394 L69.397,235.689 L69.771,234.982 L70.145,234.272 L70.518,233.561 L70.892,232.847 L71.259,232.146 L71.625,231.444 L71.991,230.739 L72.357,230.033 L72.723,229.325 L73.09,228.615 L73.456,227.904 L73.822,227.191 L74.188,226.477 L74.547,225.776 L74.905,225.075 L75.264,224.371 L75.623,223.667 L75.981,222.962 L76.34,222.255 L76.698,221.547 L77.057,220.839 L77.415,220.129 L77.774,219.419 L78.133,218.708 L78.491,217.996 L78.85,217.283 L79.208,216.57 L79.567,215.856 L79.926,215.141 L80.284,214.426 L80.635,213.726 L80.986,213.025 L81.337,212.325 L81.688,211.623 L82.039,210.922 L82.39,210.22 L82.741,209.518 L83.092,208.817 L83.443,208.115 L83.794,207.413 L84.145,206.711 L84.496,206.009 L84.846,205.308 L85.197,204.606 L85.548,203.905 L85.899,203.205 L86.25,202.504 L86.609,201.789 L86.967,201.074 L87.326,200.36 L87.685,199.647 L88.043,198.934 L88.402,198.221 L88.76,197.51 L89.119,196.799 L89.478,196.089 L89.836,195.38 L90.195,194.673 L90.553,193.966 L90.912,193.26 L91.27,192.555 L91.629,191.851 L91.988,191.149 L92.346,190.448 L92.712,189.733 L93.079,189.02 L93.445,188.308 L93.811,187.598 L94.177,186.89 L94.543,186.183 L94.91,185.477 L95.276,184.774 L95.642,184.072 L96.016,183.358 L96.39,182.646 L96.764,181.935 L97.137,181.227 L97.511,180.521 L97.885,179.818 L98.259,179.116 L98.64,178.403 L99.022,177.692 L99.403,176.984 L99.785,176.279 L100.166,175.576 L100.548,174.876 L100.937,174.164 L101.326,173.456 L101.715,172.751 L102.104,172.049 L102.501,171.336 L102.898,170.627 L103.294,169.921 L103.691,169.218 L104.095,168.506 L104.5,167.798 L104.904,167.093 L105.309,166.392 L105.721,165.682 L106.133,164.977 L106.544,164.275 L106.964,163.565 L107.384,162.859 L107.803,162.158 L108.231,161.45 L108.658,160.746 L109.093,160.034 L109.528,159.328 L109.962,158.627 L110.405,157.92 L110.847,157.218 L111.298,156.51 L111.748,155.808 L112.206,155.1 L112.663,154.399 L113.129,153.693 L113.602,152.982 L114.075,152.279 L114.555,151.571 L115.036,150.871 L115.524,150.168 L116.02,149.462 L116.524,148.753 L117.035,148.043 L117.546,147.342 L118.065,146.639 L118.591,145.937 L119.125,145.234 L119.667,144.531 L120.216,143.83 L120.781,143.121 L121.353,142.415 L121.933,141.712 L122.528,141.004 L123.131,140.3 L123.749,139.594 L124.382,138.886 L125.023,138.186 L125.687,137.478 L126.366,136.773 L127.06,136.071 L127.762,135.382 L128.464,134.714 L129.166,134.067 L129.868,133.441 L130.569,132.836 L131.271,132.252 L131.973,131.69 L132.675,131.15 L133.377,130.632 L134.079,130.135 L134.781,129.661 L135.483,129.21 L136.185,128.78 L136.887,128.374 L137.589,127.99 L138.29,127.628 L138.992,127.29 L139.694,126.975 L140.396,126.683 L141.098,126.413 L141.8,126.168 L142.502,125.945 L143.204,125.746 L143.906,125.57 L144.608,125.418 L145.309,125.289 L146.011,125.184 L146.713,125.103 L147.415,125.045 L148.117,125.011 L148.819,125 L149.521,125.013 L150.223,125.05 L150.925,125.11 L151.627,125.194 L152.328,125.301 L153.03,125.433 L153.732,125.587 L154.434,125.765 L155.136,125.967 L155.838,126.192 L156.54,126.44 L157.242,126.711 L157.944,127.006 L158.646,127.324 L159.348,127.664 L160.049,128.028 L160.751,128.414 L161.453,128.823 L162.155,129.255 L162.857,129.709 L163.559,130.185 L164.261,130.684 L164.963,131.204 L165.665,131.747 L166.367,132.311 L167.068,132.896 L167.77,133.504 L168.472,134.132 L169.174,134.781 L169.876,135.452 L170.578,136.143 L171.272,136.846 L171.951,137.554 L172.607,138.255 L173.248,138.957 L173.874,139.658 L174.492,140.366 L175.095,141.07 L175.682,141.77 L176.262,142.475 L176.834,143.182 L177.391,143.882 L177.94,144.584 L178.482,145.287 L179.016,145.991 L179.543,146.695 L180.061,147.398 L180.573,148.1 L181.076,148.8 L181.58,149.509 L182.076,150.216 L182.564,150.919 L183.044,151.62 L183.525,152.328 L183.998,153.032 L184.471,153.744 L184.937,154.45 L185.394,155.152 L185.852,155.86 L186.302,156.562 L186.752,157.271 L187.195,157.973 L187.637,158.681 L188.072,159.382 L188.507,160.089 L188.942,160.8 L189.369,161.505 L189.796,162.214 L190.216,162.915 L190.636,163.621 L191.055,164.332 L191.467,165.034 L191.879,165.74 L192.291,166.45 L192.696,167.151 L193.1,167.856 L193.504,168.565 L193.909,169.278 L194.305,169.98 L194.702,170.686 L195.099,171.396 L195.496,172.109 L195.885,172.811 L196.274,173.517 L196.663,174.225 L197.052,174.937 L197.433,175.637 L197.815,176.34 L198.196,177.046 L198.578,177.755 L198.959,178.466 L199.341,179.179 L199.715,179.881 L200.089,180.585 L200.462,181.291 L200.836,181.999 L201.21,182.709 L201.584,183.422 L201.958,184.136 L202.324,184.838 L202.69,185.542 L203.056,186.247 L203.423,186.954 L203.789,187.663 L204.155,188.373 L204.521,189.085 L204.887,189.798 L205.254,190.513 L205.612,191.214 L205.971,191.917 L206.329,192.621 L206.688,193.325 L207.047,194.031 L207.405,194.738 L207.764,195.447 L208.122,196.156 L208.481,196.865 L208.839,197.576 L209.198,198.288 L209.557,199 L209.915,199.713 L210.274,200.427 L210.632,201.141 L210.991,201.856 L211.342,202.556 L211.693,203.256 L212.044,203.957 L212.395,204.658 L212.746,205.359 L213.097,206.061 L213.448,206.763 L213.799,207.464 L214.149,208.166 L214.5,208.868 L214.851,209.57 L215.202,210.272 L215.553,210.973 L215.904,211.675 L216.255,212.376 L216.606,213.077 L216.957,213.778 L217.308,214.478 L217.667,215.193 L218.025,215.907 L218.384,216.621 L218.742,217.334 L219.101,218.047 L219.46,218.759 L219.818,219.47 L220.177,220.18 L220.535,220.89 L220.894,221.598 L221.252,222.306 L221.611,223.012 L221.97,223.718 L222.328,224.422 L222.687,225.125 L223.045,225.827 L223.404,226.527 L223.77,227.241 L224.136,227.954 L224.503,228.665 L224.869,229.375 L225.235,230.082 L225.601,230.789 L225.967,231.493 L226.334,232.196 L226.7,232.897 L227.074,233.61 L227.448,234.321 L227.821,235.031 L228.195,235.738 L228.569,236.443 L228.943,237.146 L229.317,237.846 L229.698,238.558 L230.08,239.268 L230.461,239.975 L230.843,240.68 L231.224,241.381 L231.613,242.094 L232.002,242.804 L232.391,243.511 L232.78,244.215 L233.17,244.916 L233.566,245.627 L233.963,246.335 L234.36,247.04 L234.756,247.74 L235.161,248.451 L235.565,249.158 L235.97,249.861 L236.382,250.574 L236.794,251.282 L237.206,251.986 L237.625,252.698 L238.045,253.407 L238.464,254.11 L238.892,254.822 L239.319,255.528 L239.746,256.23 L240.181,256.939 L240.616,257.643 L241.058,258.354 L241.501,259.059 L241.951,259.77 L242.401,260.475 L242.859,261.186 L243.317,261.891 L243.782,262.601 L244.247,263.304 L244.72,264.011 L245.193,264.711 L245.674,265.416 L246.162,266.123 L246.658,266.834 L247.154,267.536 L247.658,268.24 L248.169,268.946 L248.688,269.654 L249.214,270.362 L249.748,271.07 L250.29,271.778 L250.839,272.484 L251.396,273.19 L251.961,273.893 L252.533,274.593 L253.12,275.299 L253.716,276 L254.326,276.706 L254.951,277.413 L255.585,278.114 L256.233,278.814 L256.905,279.521 L257.591,280.226 L258.293,280.925 L258.995,281.604 L259.697,282.263 L260.399,282.9 L261.101,283.516 L261.803,284.111 L262.505,284.684 L263.206,285.236 L263.908,285.766 L264.61,286.273 L265.312,286.759 L266.014,287.223 L266.716,287.664 L267.418,288.082 L268.12,288.478 L268.822,288.852 L269.524,289.202 L270.226,289.529 L270.927,289.834 L271.629,290.115 L272.331,290.373 L273.033,290.608 L273.735,290.819 L274.437,291.007 L275.139,291.172 L275.841,291.313 L276.543,291.43 L277.245,291.524 L277.946,291.594 L278.648,291.641 L279.35,291.664 L280.052,291.663 L280.754,291.639 L281.456,291.591 L282.158,291.52 L282.86,291.425 L283.562,291.306 L284.264,291.164 L284.966,290.998 L285.667,290.809 L286.369,290.596 L287.071,290.36 L287.773,290.101 L288.475,289.818 L289.177,289.513 L289.879,289.184 L290.581,288.833 L291.283,288.458 L291.985,288.061 L292.686,287.641 L293.388,287.199 L294.09,286.734 L294.792,286.247 L295.494,285.738 L296.196,285.207 L296.898,284.655 L297.6,284.08 L298.302,283.484 L299.004,282.867 L299.706,282.229 L300.407,281.569 L301.109,280.889 L301.811,280.188 L302.498,279.483 L303.162,278.783 L303.81,278.082 L304.443,277.381 L305.069,276.672 L305.679,275.966 L306.274,275.264 L306.862,274.558 L307.434,273.857 L307.999,273.153 L308.556,272.447 L309.105,271.74 L309.647,271.032 L310.181,270.323 L310.707,269.614 L311.226,268.906 L311.737,268.2 L312.241,267.495 L312.737,266.792 L313.232,266.081 L313.721,265.373 L314.201,264.669 L314.674,263.968 L315.147,263.26 L315.613,262.557 L316.078,261.846 L316.536,261.141 L316.994,260.43 L317.444,259.724 L317.894,259.013 L318.336,258.307 L318.779,257.596 L319.214,256.892 L319.649,256.183 L320.076,255.48 L320.503,254.773 L320.93,254.061 L321.35,253.358 L321.77,252.649 L322.189,251.936 L322.601,251.232 L323.013,250.523 L323.425,249.811 L323.83,249.107 L324.234,248.4 L324.638,247.689 L325.035,246.988 L325.432,246.283 L325.829,245.575 L326.225,244.864 L326.614,244.163 L327.003,243.459 L327.393,242.751 L327.782,242.041 L328.171,241.328 L328.552,240.626 L328.934,239.921 L329.315,239.214 L329.697,238.504 L330.078,237.792 L330.452,237.091 L330.826,236.388 L331.2,235.683 L331.573,234.976 L331.947,234.266 L332.321,233.555 L332.695,232.841 L333.061,232.14 L333.427,231.437 L333.794,230.733 L334.16,230.026 L334.526,229.318 L334.892,228.609 L335.258,227.897 L335.625,227.185 L335.991,226.471 L336.349,225.77 L336.708,225.068 L337.067,224.365 L337.425,223.661 L337.784,222.955 L338.142,222.249 L338.501,221.541 L338.86,220.832 L339.218,220.123 L339.577,219.412 L339.935,218.701 L340.294,217.989 L340.652,217.277 L341.011,216.563 L341.37,215.849 L341.728,215.135 L342.087,214.42 L342.438,213.72 L342.789,213.019 L343.14,212.318 L343.491,211.617 L343.842,210.915 L344.193,210.214 L344.543,209.512 L344.894,208.81 L345.245,208.108 L345.596,207.406 L345.947,206.704 L346.298,206.003 L346.649,205.301 L347,204.6 L347.351,203.899 L347.702,203.198 L348.053,202.498 L348.412,201.782 L348.77,201.068 L349.129,200.354 L349.487,199.64 L349.846,198.927 L350.204,198.215 L350.563,197.503 L350.922,196.793 L351.28,196.083 L351.639,195.374 L351.997,194.666 L352.356,193.959 L352.715,193.253 L353.073,192.548 L353.432,191.845 L353.79,191.143 L354.149,190.441 L354.515,189.727 L354.881,189.014 L355.247,188.302 L355.614,187.592 L355.98,186.883 L356.346,186.176 L356.712,185.471 L357.079,184.768 L357.445,184.066 L357.819,183.352 L358.192,182.639 L358.566,181.929 L358.94,181.221 L359.314,180.515 L359.688,179.812 L360.062,179.11 L360.443,178.397 L360.825,177.686 L361.206,176.978 L361.588,176.273 L361.969,175.57 L362.35,174.87 L362.74,174.158 L363.129,173.45 L363.518,172.745 L363.907,172.043 L364.304,171.33 L364.7,170.621 L365.097,169.915 L365.494,169.213 L365.898,168.5 L366.302,167.792 L366.707,167.087 L367.111,166.387 L367.523,165.677 L367.935,164.971 L368.347,164.269 L368.767,163.559 L369.186,162.854 L369.606,162.153 L370.033,161.444 L370.461,160.74 L370.895,160.029 L371.33,159.323 L371.765,158.622 L372.208,157.915 L372.65,157.213 L373.1,156.505 L373.55,155.803 L374.008,155.095 L374.466,154.394 L374.931,153.688 L375.404,152.977 L375.877,152.274 L376.358,151.566 L376.846,150.855 L377.335,150.152 L377.831,149.446 L378.334,148.738 L378.845,148.028 L379.356,147.327 L379.875,146.625 L380.402,145.922 L380.936,145.219 L381.477,144.517 L382.027,143.816 L382.591,143.108 L383.163,142.402 L383.743,141.699 L384.338,140.991 L384.941,140.288 L385.559,139.582 L386.192,138.874 L386.841,138.166 L387.505,137.459 L388.184,136.754 L388.878,136.053 L389.58,135.365 L390.282,134.697 L390.984,134.05 L391.685,133.424 L392.387,132.82 L393.089,132.237 L393.791,131.676 L394.493,131.136 L395.195,130.618 L395.897,130.123 L396.599,129.649 L397.301,129.198 L398.003,128.769 L398.705,128.363 L399.406,127.98 L400.108,127.619 L400.81,127.281 L401.512,126.967 L402.214,126.675 L402.916,126.407 L403.618,126.161 L404.32,125.94 L405.022,125.741 L405.724,125.566 L406.425,125.414 L407.127,125.286 L407.829,125.182 L408.531,125.101 L409.233,125.044 L409.935,125.01 L410.637,125 L411.339,125.014 L412.041,125.051 L412.743,125.112 L413.445,125.197 L414.146,125.305 L414.848,125.436 L415.55,125.592 L416.252,125.77 L416.954,125.972 L417.656,126.198 L418.358,126.447 L419.06,126.719 L419.762,127.014 L420.464,127.332 L421.165,127.674 L421.867,128.038 L422.569,128.425 L423.271,128.834 L423.973,129.266 L424.675,129.721 L425.377,130.198 L426.079,130.697 L426.781,131.218 L427.483,131.761 L428.185,132.326 L428.886,132.912 L429.588,133.52 L430.29,134.149 L430.992,134.799 L431.694,135.47 L432.396,136.161 L433.09,136.865 L433.769,137.573 L434.425,138.275 L435.066,138.978 L435.692,139.679 L436.31,140.387 L436.913,141.092 L437.5,141.793 L438.08,142.497 L438.652,143.205 L439.209,143.906 L439.758,144.608 L440.3,145.312 L440.834,146.016 L441.36,146.72 L441.879,147.423 L442.39,148.125 L442.894,148.826 L443.398,149.535 L443.893,150.242 L444.382,150.946 L444.862,151.647 L445.343,152.356 L445.816,153.06 L446.281,153.76 L446.747,154.467 L447.205,155.169 L447.662,155.877 L448.112,156.579 L448.563,157.288 L449.005,157.99 L449.448,158.699 L449.883,159.4 L450.317,160.107 L450.752,160.818 L451.18,161.523 L451.607,162.232 L452.026,162.934 L452.446,163.64 L452.866,164.35 L453.278,165.052 L453.69,165.759 L454.102,166.469 L454.506,167.17 L454.91,167.875 L455.315,168.584 L455.719,169.297 L456.116,170 L456.512,170.706 L456.909,171.416 L457.306,172.129 L457.695,172.831 L458.084,173.537 L458.473,174.245 L458.862,174.957 L459.244,175.657 L459.625,176.36 L460.007,177.066 L460.388,177.775 L460.77,178.486 L461.151,179.199 L461.525,179.901 L461.899,180.605 L462.273,181.311 L462.646,182.02 L463.02,182.73 L463.394,183.443 L463.768,184.157 L464.134,184.859 L464.5,185.563 L464.867,186.268 L465.233,186.975 L465.599,187.684 L465.965,188.394 L466.331,189.106 L466.698,189.82 L467.064,190.535 L467.422,191.236 L467.781,191.938 L468.14,192.642 L468.498,193.347 L468.857,194.053 L469.215,194.76 L469.574,195.468 L469.933,196.177 L470.291,196.887 L470.65,197.598 L471.008,198.309 L471.367,199.022 L471.725,199.735 L472.084,200.448 L472.443,201.163 L472.801,201.877 L473.152,202.577 L473.503,203.278 L473.854,203.979 L474.205,204.68 L474.556,205.381 L474.907,206.083 L475.258,206.784 L475.609,207.486 L475.96,208.188 L476.311,208.89 L476.662,209.592 L477.013,210.294 L477.364,210.995 L477.715,211.697 L478.065,212.398 L478.416,213.099 L478.767,213.799 L479.118,214.5 L479.477,215.215 L479.836,215.929 L480.194,216.643 L480.553,217.356 L480.911,218.069 L481.27,218.781 L481.628,219.492 L481.987,220.202 L482.346,220.911 L482.704,221.62 L483.063,222.327 L483.421,223.034 L483.78,223.739 L484.138,224.443 L484.497,225.146 L484.856,225.848 L485.214,226.549 L485.58,227.263 L485.947,227.975 L486.313,228.686 L486.679,229.396 L487.045,230.104 L487.411,230.81 L487.778,231.514 L488.144,232.217 L488.51,232.917 L488.884,233.631 L489.258,234.342 L489.632,235.051 L490.005,235.759 L490.379,236.464 L490.753,237.166 L491.127,237.867 L491.508,238.579 L491.89,239.288 L492.271,239.995 L492.653,240.7 L493.034,241.401 L493.423,242.114 L493.813,242.824 L494.202,243.531 L494.591,244.235 L494.98,244.936 L495.377,245.647 L495.773,246.355 L496.17,247.059 L496.567,247.76 L496.971,248.47 L497.375,249.177 L497.78,249.88 L498.192,250.592 L498.604,251.3 L499.016,252.004 L499.435,252.717 L499.855,253.425 L500,253.668" fill-opacity="0" stroke="#CCCCCC" stroke-width="3" stroke-linecap="round" stroke-linejoin="round" id="box_jxgBoard1G32"/>
    <g>
      <path d="M-1,0 L-1,0" fill-opacity="0" stroke="#0000FF" stroke-width="2" id="box_jxgBoard1L36" display="none"/>
      <path d="M-1,0 L-1,0" fill-opacity="0" stroke="#0000FF" stroke-width="2" id="box_jxgBoard1L43" display="none"/>
      <path d="M-1,0 L-1,0" fill-opacity="0" stroke="#CCCCCC" stroke-width="1" id="box_jxgBoard1L50" display="none"/>
      <path d="M167,133 L333,232" fill-opacity="0" stroke="#3344AA" stroke-width="12" id="box_jxgBoard1L51"/>
      <g display="none">
        <path d="M333,139 L333,226" fill-opacity="0" stroke="#888888" stroke-width="2" id="box_jxgBoard1L55"/>
        <path d="M334.5,140.5 L333,137.5 L331.5,140.5 z" fill="#888888"/>
        <path d="M334.5,224.5 L333,227.5 L331.5,224.5 z" fill="#888888"/>
      </g>
      <g display="none">
        <path d="M327,133 L173,133" fill-opacity="0" stroke="#888888" stroke-width="2" id="box_jxgBoard1L57"/>
        <path d="M325.5,134.5 L328.5,133 L325.5,131.5 z" fill="#888888"/>
        <path d="M174.5,134.5 L171.5,133 L174.5,131.5 z" fill="#888888"/>
      </g>
    </g>
    <g>
      <text transform="matrix(1, 0, 0, 1, 132.837, 346.033)" id="box_jxgBoard1L4_ticks_15Label1">
        <tspan x="-3.837" y="3.5" font-family="ArialMT" font-size="12" fill="#000000">1</tspan>
      </text>
      <text transform="matrix(1, 0, 0, 1, 174.504, 346.033)" id="box_jxgBoard1L4_ticks_110Label2">
        <tspan x="-3.837" y="3.5" font-family="ArialMT" font-size="12" fill="#000000">2</tspan>
      </text>
      <text transform="matrix(1, 0, 0, 1, 216.17, 346.033)" id="box_jxgBoard1L4_ticks_115Label3">
        <tspan x="-3.837" y="3.5" font-family="ArialMT" font-size="12" fill="#000000">3</tspan>
      </text>
      <text transform="matrix(1, 0, 0, 1, 257.837, 346.033)" id="box_jxgBoard1L4_ticks_120Label4">
        <tspan x="-3.837" y="3.5" font-family="ArialMT" font-size="12" fill="#000000">4</tspan>
      </text>
      <text transform="matrix(1, 0, 0, 1, 299.504, 346.033)" id="box_jxgBoard1L4_ticks_125Label5">
        <tspan x="-3.837" y="3.5" font-family="ArialMT" font-size="12" fill="#000000">5</tspan>
      </text>
      <text transform="matrix(1, 0, 0, 1, 341.17, 346.033)" id="box_jxgBoard1L4_ticks_130Label6">
        <tspan x="-3.837" y="3.5" font-family="ArialMT" font-size="12" fill="#000000">6</tspan>
      </text>
      <text transform="matrix(1, 0, 0, 1, 382.837, 346.033)" id="box_jxgBoard1L4_ticks_135Label7">
        <tspan x="-3.837" y="3.5" font-family="ArialMT" font-size="12" fill="#000000">7</tspan>
      </text>
      <text transform="matrix(1, 0, 0, 1, 424.504, 346.033)" id="box_jxgBoard1L4_ticks_140Label8">
        <tspan x="-3.837" y="3.5" font-family="ArialMT" font-size="12" fill="#000000">8</tspan>
      </text>
      <text transform="matrix(1, 0, 0, 1, 466.17, 346.033)" id="box_jxgBoard1L4_ticks_145Label9">
        <tspan x="-3.837" y="3.5" font-family="ArialMT" font-size="12" fill="#000000">9</tspan>
      </text>
      <text transform="matrix(1, 0, 0, 1, 53.007, 346.033)" id="box_jxgBoard1L4_ticks_154Label10">
        <tspan x="-7.341" y="3.5" font-family="ArialMT" font-size="12" fill="#000000">−1</tspan>
      </text>
      <text transform="matrix(1, 0, 0, 1, 91.17, 304.367)" id="box_jxgBoard1L19_ticks_15Label1">
        <tspan x="-3.837" y="3.5" font-family="ArialMT" font-size="12" fill="#000000">1</tspan>
      </text>
      <text transform="matrix(1, 0, 0, 1, 91.17, 262.7)" id="box_jxgBoard1L19_ticks_110Label2">
        <tspan x="-3.837" y="3.5" font-family="ArialMT" font-size="12" fill="#000000">2</tspan>
      </text>
      <text transform="matrix(1, 0, 0, 1, 91.17, 221.033)" id="box_jxgBoard1L19_ticks_115Label3">
        <tspan x="-3.837" y="3.5" font-family="ArialMT" font-size="12" fill="#000000">3</tspan>
      </text>
      <text transform="matrix(1, 0, 0, 1, 91.17, 179.367)" id="box_jxgBoard1L19_ticks_120Label4">
        <tspan x="-3.837" y="3.5" font-family="ArialMT" font-size="12" fill="#000000">4</tspan>
      </text>
      <text transform="matrix(1, 0, 0, 1, 91.17, 137.7)" id="box_jxgBoard1L19_ticks_125Label5">
        <tspan x="-3.837" y="3.5" font-family="ArialMT" font-size="12" fill="#000000">5</tspan>
      </text>
      <text transform="matrix(1, 0, 0, 1, 91.17, 96.033)" id="box_jxgBoard1L19_ticks_130Label6">
        <tspan x="-3.837" y="3.5" font-family="ArialMT" font-size="12" fill="#000000">6</tspan>
      </text>
      <text transform="matrix(1, 0, 0, 1, 91.17, 54.367)" id="box_jxgBoard1L19_ticks_135Label7">
        <tspan x="-3.837" y="3.5" font-family="ArialMT" font-size="12" fill="#000000">7</tspan>
      </text>
      <text transform="matrix(1, 0, 0, 1, 94.674, 387.7)" id="box_jxgBoard1L19_ticks_144Label8">
        <tspan x="-7.341" y="3.5" font-family="ArialMT" font-size="12" fill="#000000">−1</tspan>
      </text>
      <text transform="matrix(1, 0, 0, 1, 94.674, 429.367)" id="box_jxgBoard1L19_ticks_149Label9">
        <tspan x="-7.341" y="3.5" font-family="ArialMT" font-size="12" fill="#000000">−2</tspan>
      </text>
      <text transform="matrix(1, 0, 0, 1, 94.674, 471.033)" id="box_jxgBoard1L19_ticks_154Label10">
        <tspan x="-7.341" y="3.5" font-family="ArialMT" font-size="12" fill="#000000">−3</tspan>
      </text>
      <g id="box_jxgBoard1P37">
        <path d="M173.667,333.333 C173.667,337.199 170.533,340.333 166.667,340.333 C162.801,340.333 159.667,337.199 159.667,333.333 C159.667,329.467 162.801,326.333 166.667,326.333 C170.533,326.333 173.667,329.467 173.667,333.333 z" fill="#008000"/>
        <path d="M173.667,333.333 C173.667,337.199 170.533,340.333 166.667,340.333 C162.801,340.333 159.667,337.199 159.667,333.333 C159.667,329.467 162.801,326.333 166.667,326.333 C170.533,326.333 173.667,329.467 173.667,333.333 z" fill-opacity="0" stroke="#008000" stroke-width="2"/>
      </g>
      <g id="box_jxgBoard1P39">
        <path d="M340.333,333.333 C340.333,337.199 337.199,340.333 333.333,340.333 C329.467,340.333 326.333,337.199 326.333,333.333 C326.333,329.467 329.467,326.333 333.333,326.333 C337.199,326.333 340.333,329.467 340.333,333.333 z" fill="#FF0000"/>
        <path d="M340.333,333.333 C340.333,337.199 337.199,340.333 333.333,340.333 C329.467,340.333 326.333,337.199 326.333,333.333 C326.333,329.467 329.467,326.333 333.333,326.333 C337.199,326.333 340.333,329.467 340.333,333.333 z" fill-opacity="0" stroke="#FF0000" stroke-width="2"/>
      </g>
      <g id="box_jxgBoard1P44" display="none">
        <path d="M255,333 C255,335.761 252.761,338 250,338 C247.239,338 245,335.761 245,333 C245,330.239 247.239,328 250,328 C252.761,328 255,330.239 255,333 z" fill="#3344AA"/>
        <path d="M255,333 C255,335.761 252.761,338 250,338 C247.239,338 245,335.761 245,333 C245,330.239 247.239,328 250,328 C252.761,328 255,330.239 255,333 z" fill-opacity="0" stroke="#3344AA" stroke-width="2"/>
      </g>
      <g id="box_jxgBoard1P46">
        <path d="M179.667,132.559 C179.667,139.738 173.846,145.559 166.667,145.559 C159.487,145.559 153.667,139.738 153.667,132.559 C153.667,125.379 159.487,119.559 166.667,119.559 C173.846,119.559 179.667,125.379 179.667,132.559 z" fill="#3344AA"/>
        <path d="M179.667,132.559 C179.667,139.738 173.846,145.559 166.667,145.559 C159.487,145.559 153.667,139.738 153.667,132.559 C153.667,125.379 159.487,119.559 166.667,119.559 C173.846,119.559 179.667,125.379 179.667,132.559 z" fill-opacity="0" stroke="#3344AA" stroke-width="2"/>
      </g>
      <g id="box_jxgBoard1P48">
        <path d="M346.333,231.618 C346.333,238.798 340.513,244.618 333.333,244.618 C326.154,244.618 320.333,238.798 320.333,231.618 C320.333,224.438 326.154,218.618 333.333,218.618 C340.513,218.618 346.333,224.438 346.333,231.618 z" fill="#3344AA"/>
        <path d="M346.333,231.618 C346.333,238.798 340.513,244.618 333.333,244.618 C326.154,244.618 320.333,238.798 320.333,231.618 C320.333,224.438 326.154,218.618 333.333,218.618 C340.513,218.618 346.333,224.438 346.333,231.618 z" fill-opacity="0" stroke="#3344AA" stroke-width="2"/>
      </g>
      <g id="box_jxgBoard1P53" display="none">
        <path d="M87,333 C87,335.209 85.209,337 83,337 C80.791,337 79,335.209 79,333 C79,330.791 80.791,329 83,329 C85.209,329 87,330.791 87,333 z" fill="#FF0000"/>
        <path d="M87,333 C87,335.209 85.209,337 83,337 C80.791,337 79,335.209 79,333 C79,330.791 80.791,329 83,329 C85.209,329 87,330.791 87,333 z" fill-opacity="0" stroke="#FF0000" stroke-width="2"/>
      </g>
    </g>
  </g>
  <g id="text">
    <text transform="matrix(1, 0, 0, 1, 250, 434.279)">
      <tspan x="-141.709" y="5.5" font-family="Arial-BoldMT" font-size="60" fill="#000000">chain rule</tspan>
    </text>
  </g>
  <g id="mask" display="none">
    <g>
      <path d="M58.047,11.442 L440.395,11.442 C466.134,11.442 487,32.308 487,58.047 L487,440.395 C487,466.134 466.134,487 440.395,487 L58.047,487 C32.308,487 11.442,466.134 11.442,440.395 L11.442,58.047 C11.442,32.308 32.308,11.442 58.047,11.442 z" fill="#0A0A0A" fill-opacity="0.223"/>
      <path d="M58.047,11.442 L440.395,11.442 C466.134,11.442 487,32.308 487,58.047 L487,440.395 C487,466.134 466.134,487 440.395,487 L58.047,487 C32.308,487 11.442,466.134 11.442,440.395 L11.442,58.047 C11.442,32.308 32.308,11.442 58.047,11.442 z" fill-opacity="0" stroke="#CBCBCB" stroke-width="10"/>
    </g>
  </g>
</svg>
