<?xml version="1.0" encoding="UTF-8"?>
<!DOCTYPE svg PUBLIC "-//W3C//DTD SVG 1.1//EN" "http://www.w3.org/Graphics/SVG/1.1/DTD/svg11.dtd">
<svg version="1.1" xmlns="http://www.w3.org/2000/svg" xmlns:xlink="http://www.w3.org/1999/xlink" x="0" y="0" width="500" height="500" viewBox="0, 0, 500, 500">
  <g id="outline_box">
    <g>
      <path d="M58.826,12.221 L441.174,12.221 C466.913,12.221 487.779,33.087 487.779,58.826 L487.779,441.174 C487.779,466.913 466.913,487.779 441.174,487.779 L58.826,487.779 C33.087,487.779 12.221,466.913 12.221,441.174 L12.221,58.826 C12.221,33.087 33.087,12.221 58.826,12.221 z" fill="#FFFFFF"/>
      <path d="M58.826,12.221 L441.174,12.221 C466.913,12.221 487.779,33.087 487.779,58.826 L487.779,441.174 C487.779,466.913 466.913,487.779 441.174,487.779 L58.826,487.779 C33.087,487.779 12.221,466.913 12.221,441.174 L12.221,58.826 C12.221,33.087 33.087,12.221 58.826,12.221 z" fill-opacity="0" stroke="#CBCBCB" stroke-width="10"/>
    </g>
  </g>
  <g id="svg">
    <g>
      <g id="box_jxgBoard1P2" display="none">
        <path d="M87,332 C87,334.209 85.209,336 83,336 C80.791,336 79,334.209 79,332 C79,329.791 80.791,328 83,328 C85.209,328 87,329.791 87,332 z" fill="#FF0000"/>
        <path d="M87,332 C87,334.209 85.209,336 83,336 C80.791,336 79,334.209 79,332 C79,329.791 80.791,328 83,328 C85.209,328 87,329.791 87,332 z" fill-opacity="0" stroke="#0000FF" stroke-width="2"/>
      </g>
      <g id="box_jxgBoard1P3" display="none">
        <path d="M129,332 C129,334.209 127.209,336 125,336 C122.791,336 121,334.209 121,332 C121,329.791 122.791,328 125,328 C127.209,328 129,329.791 129,332 z" fill="#FF0000"/>
        <path d="M129,332 C129,334.209 127.209,336 125,336 C122.791,336 121,334.209 121,332 C121,329.791 122.791,328 125,328 C127.209,328 129,329.791 129,332 z" fill-opacity="0" stroke="#0000FF" stroke-width="2"/>
      </g>
      <g id="box_jxgBoard1P17" display="none">
        <path d="M87,332 C87,334.209 85.209,336 83,336 C80.791,336 79,334.209 79,332 C79,329.791 80.791,328 83,328 C85.209,328 87,329.791 87,332 z" fill="#FF0000"/>
        <path d="M87,332 C87,334.209 85.209,336 83,336 C80.791,336 79,334.209 79,332 C79,329.791 80.791,328 83,328 C85.209,328 87,329.791 87,332 z" fill-opacity="0" stroke="#0000FF" stroke-width="2"/>
      </g>
      <g id="box_jxgBoard1P18" display="none">
        <path d="M87,291 C87,293.209 85.209,295 83,295 C80.791,295 79,293.209 79,291 C79,288.791 80.791,287 83,287 C85.209,287 87,288.791 87,291 z" fill="#FF0000"/>
        <path d="M87,291 C87,293.209 85.209,295 83,295 C80.791,295 79,293.209 79,291 C79,288.791 80.791,287 83,287 C85.209,287 87,288.791 87,291 z" fill-opacity="0" stroke="#0000FF" stroke-width="2"/>
      </g>
    </g>
    <g>
      <g>
        <path d="M4,332.333 L488,332.333" fill-opacity="0" stroke="#666666" stroke-width="1" id="box_jxgBoard1L4"/>
        <path d="M484,328.333 L492,332.333 L484,336.333 z" fill="#666666"/>
      </g>
      <g id="box_jxgBoard1L4_ticks_1">
        <path d="M92,332 L92,337 M100,332 L100,337 M108,332 L108,337 M117,332 L117,337 M125,332 L125,352 M133,332 L133,337 M142,332 L142,337 M150,332 L150,337 M158,332 L158,337 M167,332 L167,352 M175,332 L175,337 M183,332 L183,337 M192,332 L192,337 M200,332 L200,337 M208,332 L208,352 M217,332 L217,337 M225,332 L225,337 M233,332 L233,337 M242,332 L242,337 M250,332 L250,352 M258,332 L258,337 M267,332 L267,337 M275,332 L275,337 M283,332 L283,337 M292,332 L292,352 M300,332 L300,337 M308,332 L308,337 M317,332 L317,337 M325,332 L325,337 M333,332 L333,352 M342,332 L342,337 M350,332 L350,337 M358,332 L358,337 M367,332 L367,337 M375,332 L375,352 M383,332 L383,337 M392,332 L392,337 M400,332 L400,337 M408,332 L408,337 M417,332 L417,352 M425,332 L425,337 M433,332 L433,337 M442,332 L442,337 M450,332 L450,337 M458,332 L458,352 M467,332 L467,337 M475,332 L475,337 M483,332 L483,337 M492,332 L492,337 M75,332 L75,337 M67,332 L67,337 M58,332 L58,337 M50,332 L50,337 M42,332 L42,352 M33,332 L33,337 M25,332 L25,337 M17,332 L17,337 M8,332 L8,337 M-0,332 L-0,352" fill="#000000"/>
        <path d="M92,332 L92,337 M100,332 L100,337 M108,332 L108,337 M117,332 L117,337 M125,332 L125,352 M133,332 L133,337 M142,332 L142,337 M150,332 L150,337 M158,332 L158,337 M167,332 L167,352 M175,332 L175,337 M183,332 L183,337 M192,332 L192,337 M200,332 L200,337 M208,332 L208,352 M217,332 L217,337 M225,332 L225,337 M233,332 L233,337 M242,332 L242,337 M250,332 L250,352 M258,332 L258,337 M267,332 L267,337 M275,332 L275,337 M283,332 L283,337 M292,332 L292,352 M300,332 L300,337 M308,332 L308,337 M317,332 L317,337 M325,332 L325,337 M333,332 L333,352 M342,332 L342,337 M350,332 L350,337 M358,332 L358,337 M367,332 L367,337 M375,332 L375,352 M383,332 L383,337 M392,332 L392,337 M400,332 L400,337 M408,332 L408,337 M417,332 L417,352 M425,332 L425,337 M433,332 L433,337 M442,332 L442,337 M450,332 L450,337 M458,332 L458,352 M467,332 L467,337 M475,332 L475,337 M483,332 L483,337 M492,332 L492,337 M75,332 L75,337 M67,332 L67,337 M58,332 L58,337 M50,332 L50,337 M42,332 L42,352 M33,332 L33,337 M25,332 L25,337 M17,332 L17,337 M8,332 L8,337 M-0,332 L-0,352" fill-opacity="0" stroke="#666666" stroke-width="1" stroke-opacity="0.25" stroke-linecap="round" stroke-linejoin="round"/>
      </g>
      <g>
        <path d="M83.333,495 L83.333,11" fill-opacity="0" stroke="#666666" stroke-width="1" id="box_jxgBoard1L19"/>
        <path d="M79.333,15 L83.333,7 L87.333,15 z" fill="#666666"/>
      </g>
      <g id="box_jxgBoard1L19_ticks_1">
        <path d="M83,324 L88,324 M83,316 L88,316 M83,307 L88,307 M83,299 L88,299 M83,291 L103,291 M83,282 L88,282 M83,274 L88,274 M83,266 L88,266 M83,257 L88,257 M83,249 L103,249 M83,241 L88,241 M83,232 L88,232 M83,224 L88,224 M83,216 L88,216 M83,207 L103,207 M83,199 L88,199 M83,191 L88,191 M83,182 L88,182 M83,174 L88,174 M83,166 L103,166 M83,157 L88,157 M83,149 L88,149 M83,141 L88,141 M83,132 L88,132 M83,124 L103,124 M83,116 L88,116 M83,107 L88,107 M83,99 L88,99 M83,91 L88,91 M83,82 L103,82 M83,74 L88,74 M83,66 L88,66 M83,57 L88,57 M83,49 L88,49 M83,41 L103,41 M83,32 L88,32 M83,24 L88,24 M83,16 L88,16 M83,7 L88,7 M83,341 L88,341 M83,349 L88,349 M83,357 L88,357 M83,366 L88,366 M83,374 L103,374 M83,382 L88,382 M83,391 L88,391 M83,399 L88,399 M83,407 L88,407 M83,416 L103,416 M83,424 L88,424 M83,432 L88,432 M83,441 L88,441 M83,449 L88,449 M83,457 L103,457 M83,466 L88,466 M83,474 L88,474 M83,482 L88,482 M83,491 L88,491 M83,499 L103,499" fill="#000000"/>
        <path d="M83,324 L88,324 M83,316 L88,316 M83,307 L88,307 M83,299 L88,299 M83,291 L103,291 M83,282 L88,282 M83,274 L88,274 M83,266 L88,266 M83,257 L88,257 M83,249 L103,249 M83,241 L88,241 M83,232 L88,232 M83,224 L88,224 M83,216 L88,216 M83,207 L103,207 M83,199 L88,199 M83,191 L88,191 M83,182 L88,182 M83,174 L88,174 M83,166 L103,166 M83,157 L88,157 M83,149 L88,149 M83,141 L88,141 M83,132 L88,132 M83,124 L103,124 M83,116 L88,116 M83,107 L88,107 M83,99 L88,99 M83,91 L88,91 M83,82 L103,82 M83,74 L88,74 M83,66 L88,66 M83,57 L88,57 M83,49 L88,49 M83,41 L103,41 M83,32 L88,32 M83,24 L88,24 M83,16 L88,16 M83,7 L88,7 M83,341 L88,341 M83,349 L88,349 M83,357 L88,357 M83,366 L88,366 M83,374 L103,374 M83,382 L88,382 M83,391 L88,391 M83,399 L88,399 M83,407 L88,407 M83,416 L103,416 M83,424 L88,424 M83,432 L88,432 M83,441 L88,441 M83,449 L88,449 M83,457 L103,457 M83,466 L88,466 M83,474 L88,474 M83,482 L88,482 M83,491 L88,491 M83,499 L103,499" fill-opacity="0" stroke="#666666" stroke-width="1" stroke-opacity="0.25" stroke-linecap="round" stroke-linejoin="round"/>
      </g>
    </g>
    <path d="M0,238.583 L0.469,239.286 L0.944,239.994 L1.419,240.7 L1.894,241.403 L2.369,242.103 L2.85,242.809 L3.33,243.512 L3.811,244.213 L4.297,244.918 L4.784,245.621 L5.27,246.322 L5.762,247.027 L6.254,247.73 L6.752,248.438 L7.25,249.143 L7.748,249.845 L8.251,250.552 L8.755,251.256 L9.258,251.956 L9.768,252.662 L10.277,253.365 L10.792,254.072 L11.307,254.776 L11.822,255.477 L12.342,256.183 L12.863,256.885 L13.39,257.592 L13.916,258.295 L14.442,258.995 L14.975,259.7 L15.507,260.401 L16.045,261.106 L16.582,261.807 L17.126,262.513 L17.67,263.215 L18.219,263.92 L18.768,264.622 L19.323,265.328 L19.878,266.03 L20.439,266.735 L21,267.437 L21.566,268.142 L22.133,268.843 L22.705,269.548 L23.277,270.248 L23.855,270.952 L24.439,271.658 L25.023,272.36 L25.612,273.065 L26.201,273.766 L26.796,274.47 L27.397,275.175 L27.998,275.877 L28.605,276.581 L29.217,277.287 L29.829,277.988 L30.447,278.692 L31.071,279.397 L31.694,280.098 L32.324,280.8 L32.959,281.504 L33.6,282.209 L34.241,282.91 L34.887,283.612 L35.54,284.314 L36.198,285.018 L36.861,285.723 L37.531,286.428 L38.2,287.128 L38.876,287.829 L39.557,288.53 L40.243,289.231 L40.936,289.932 L41.634,290.634 L42.337,291.335 L43.041,292.03 L43.745,292.719 L44.449,293.402 L45.153,294.08 L45.856,294.751 L46.56,295.417 L47.264,296.076 L47.968,296.73 L48.672,297.377 L49.376,298.019 L50.079,298.655 L50.783,299.284 L51.487,299.908 L52.191,300.526 L52.895,301.138 L53.598,301.744 L54.302,302.344 L55.006,302.938 L55.71,303.527 L56.414,304.109 L57.117,304.685 L57.821,305.255 L58.525,305.82 L59.229,306.378 L59.933,306.931 L60.637,307.477 L61.34,308.018 L62.044,308.553 L62.748,309.081 L63.452,309.604 L64.156,310.121 L64.859,310.632 L65.563,311.137 L66.267,311.636 L66.971,312.129 L67.675,312.616 L68.378,313.097 L69.082,313.573 L69.786,314.042 L70.49,314.505 L71.194,314.963 L71.898,315.414 L72.601,315.86 L73.305,316.299 L74.009,316.733 L74.713,317.16 L75.417,317.582 L76.12,317.998 L76.824,318.408 L77.528,318.812 L78.232,319.21 L78.936,319.602 L79.639,319.988 L80.343,320.368 L81.047,320.742 L81.751,321.11 L82.455,321.473 L83.158,321.829 L83.862,322.179 L84.566,322.524 L85.27,322.862 L85.974,323.195 L86.678,323.522 L87.381,323.842 L88.085,324.157 L88.789,324.466 L89.493,324.769 L90.197,325.066 L90.9,325.357 L91.604,325.642 L92.308,325.921 L93.012,326.194 L93.716,326.461 L94.419,326.722 L95.123,326.978 L95.827,327.227 L96.531,327.47 L97.235,327.708 L97.939,327.939 L98.642,328.165 L99.346,328.385 L100.05,328.598 L100.754,328.806 L101.458,329.008 L102.161,329.204 L102.865,329.394 L103.569,329.578 L104.273,329.756 L104.977,329.928 L105.68,330.094 L106.384,330.254 L107.088,330.408 L107.792,330.557 L108.496,330.699 L109.2,330.835 L109.903,330.966 L110.607,331.09 L111.311,331.209 L112.015,331.322 L112.719,331.428 L113.422,331.529 L114.126,331.624 L114.83,331.713 L115.534,331.796 L116.238,331.873 L116.941,331.944 L117.645,332.009 L118.349,332.068 L119.053,332.121 L119.757,332.168 L120.461,332.21 L121.164,332.245 L121.868,332.274 L122.572,332.298 L123.276,332.315 L123.98,332.327 L124.683,332.333 L125.387,332.332 L126.091,332.326 L126.795,332.314 L127.499,332.296 L128.202,332.272 L128.906,332.242 L129.61,332.206 L130.314,332.164 L131.018,332.116 L131.721,332.062 L132.425,332.003 L133.129,331.937 L133.833,331.865 L134.537,331.788 L135.241,331.704 L135.944,331.615 L136.648,331.519 L137.352,331.418 L138.056,331.311 L138.76,331.197 L139.463,331.078 L140.167,330.953 L140.871,330.822 L141.575,330.685 L142.279,330.542 L142.982,330.393 L143.686,330.238 L144.39,330.077 L145.094,329.911 L145.798,329.738 L146.502,329.559 L147.205,329.375 L147.909,329.184 L148.613,328.988 L149.317,328.785 L150.021,328.577 L150.724,328.363 L151.428,328.143 L152.132,327.916 L152.836,327.684 L153.54,327.446 L154.243,327.202 L154.947,326.952 L155.651,326.696 L156.355,326.435 L157.059,326.167 L157.763,325.893 L158.466,325.613 L159.17,325.328 L159.874,325.036 L160.578,324.739 L161.282,324.435 L161.985,324.126 L162.689,323.81 L163.393,323.489 L164.097,323.162 L164.801,322.829 L165.504,322.49 L166.208,322.145 L166.912,321.794 L167.616,321.437 L168.32,321.074 L169.024,320.705 L169.727,320.33 L170.431,319.949 L171.135,319.563 L171.839,319.17 L172.543,318.772 L173.246,318.367 L173.95,317.957 L174.654,317.54 L175.358,317.118 L176.062,316.69 L176.765,316.255 L177.469,315.815 L178.173,315.369 L178.877,314.917 L179.581,314.459 L180.285,313.995 L180.988,313.525 L181.692,313.049 L182.396,312.568 L183.1,312.08 L183.804,311.586 L184.507,311.087 L185.211,310.581 L185.915,310.069 L186.619,309.552 L187.323,309.029 L188.026,308.499 L188.73,307.964 L189.434,307.423 L190.138,306.876 L190.842,306.323 L191.545,305.764 L192.249,305.199 L192.953,304.628 L193.657,304.051 L194.361,303.468 L195.065,302.879 L195.768,302.284 L196.472,301.684 L197.176,301.077 L197.88,300.465 L198.584,299.846 L199.287,299.222 L199.991,298.591 L200.695,297.955 L201.399,297.313 L202.103,296.664 L202.806,296.01 L203.51,295.35 L204.214,294.684 L204.918,294.012 L205.622,293.334 L206.326,292.65 L207.029,291.96 L207.733,291.265 L208.437,290.563 L209.135,289.861 L209.827,289.159 L210.514,288.457 L211.195,287.756 L211.87,287.055 L212.54,286.354 L213.209,285.648 L213.873,284.943 L214.531,284.239 L215.183,283.535 L215.83,282.833 L216.471,282.132 L217.112,281.426 L217.747,280.722 L218.376,280.019 L219,279.317 L219.624,278.612 L220.242,277.908 L220.854,277.206 L221.466,276.499 L222.073,275.795 L222.673,275.093 L223.274,274.386 L223.869,273.682 L224.459,272.981 L225.048,272.276 L225.632,271.573 L226.215,270.866 L226.793,270.162 L227.365,269.461 L227.938,268.756 L228.504,268.055 L229.071,267.349 L229.631,266.647 L230.192,265.941 L230.747,265.238 L231.302,264.532 L231.852,263.83 L232.401,263.124 L232.944,262.421 L233.488,261.715 L234.026,261.013 L234.564,260.308 L235.096,259.607 L235.628,258.902 L236.155,258.201 L236.681,257.497 L237.207,256.79 L237.728,256.088 L238.249,255.382 L238.764,254.68 L239.279,253.975 L239.794,253.268 L240.303,252.565 L240.812,251.858 L241.316,251.157 L241.819,250.453 L242.323,249.745 L242.821,249.043 L243.319,248.338 L243.811,247.637 L244.303,246.934 L244.795,246.228 L245.281,245.528 L245.768,244.824 L246.254,244.118 L246.735,243.417 L247.215,242.714 L247.696,242.008 L248.171,241.307 L248.646,240.604 L249.121,239.898 L249.59,239.197 L250.059,238.495 L250.528,237.789 L250.998,237.081 L251.461,236.379 L251.925,235.674 L252.388,234.967 L252.846,234.266 L253.304,233.563 L253.761,232.856 L254.219,232.148 L254.671,231.446 L255.123,230.741 L255.575,230.034 L256.022,229.334 L256.468,228.631 L256.914,227.925 L257.36,227.218 L257.801,226.517 L258.242,225.813 L258.682,225.108 L259.123,224.4 L259.558,223.699 L259.993,222.995 L260.427,222.29 L260.862,221.582 L261.292,220.881 L261.721,220.178 L262.15,219.473 L262.579,218.765 L263.002,218.065 L263.426,217.363 L263.849,216.659 L264.273,215.952 L264.696,215.243 L265.114,214.542 L265.532,213.839 L265.949,213.133 L266.367,212.426 L266.785,211.716 L267.197,211.014 L267.609,210.31 L268.021,209.604 L268.433,208.896 L268.839,208.196 L269.245,207.493 L269.651,206.789 L270.058,206.083 L270.464,205.375 L270.865,204.675 L271.265,203.973 L271.666,203.269 L272.066,202.563 L272.467,201.855 L272.867,201.145 L273.262,200.444 L273.657,199.74 L274.052,199.035 L274.447,198.328 L274.841,197.619 L275.23,196.918 L275.62,196.216 L276.009,195.512 L276.398,194.806 L276.787,194.098 L277.176,193.388 L277.559,192.687 L277.943,191.985 L278.326,191.28 L278.709,190.574 L279.093,189.866 L279.476,189.156 L279.854,188.455 L280.231,187.752 L280.609,187.048 L280.987,186.342 L281.364,185.634 L281.742,184.925 L282.114,184.224 L282.486,183.522 L282.858,182.819 L283.23,182.113 L283.602,181.406 L283.974,180.698 L284.346,179.987 L284.712,179.286 L285.078,178.583 L285.444,177.879 L285.81,177.173 L286.177,176.466 L286.543,175.757 L286.909,175.046 L287.27,174.345 L287.63,173.642 L287.991,172.938 L288.351,172.232 L288.712,171.524 L289.072,170.816 L289.433,170.105 L289.787,169.404 L290.142,168.702 L290.497,167.998 L290.852,167.293 L291.206,166.586 L291.561,165.878 L291.916,165.168 L292.271,164.456 L292.62,163.755 L292.969,163.052 L293.318,162.348 L293.667,161.642 L294.016,160.935 L294.365,160.226 L294.714,159.516 L295.063,158.805 L295.406,158.103 L295.75,157.401 L296.093,156.696 L296.436,155.991 L296.78,155.284 L297.123,154.575 L297.466,153.866 L297.81,153.154 L298.147,152.454 L298.485,151.751 L298.822,151.048 L299.16,150.343 L299.498,149.637 L299.835,148.929 L300.173,148.22 L300.51,147.51 L300.848,146.798 L301.18,146.097 L301.512,145.395 L301.844,144.691 L302.176,143.986 L302.507,143.28 L302.839,142.572 L303.171,141.864 L303.503,141.153 L303.835,140.442 L304.161,139.741 L304.487,139.039 L304.813,138.336 L305.14,137.632 L305.466,136.926 L305.792,136.219 L306.118,135.511 L306.444,134.801 L306.77,134.091 L307.096,133.379 L307.417,132.678 L307.737,131.976 L308.058,131.272 L308.378,130.568 L308.699,129.862 L309.019,129.155 L309.34,128.447 L309.66,127.738 L309.98,127.027 L310.301,126.315 L310.616,125.615 L310.93,124.913 L311.245,124.21 L311.56,123.506 L311.874,122.801 L312.189,122.095 L312.504,121.387 L312.819,120.679 L313.133,119.969 L313.448,119.258 L313.763,118.545 L314.072,117.845 L314.381,117.143 L314.69,116.44 L314.999,115.736 L315.308,115.031 L315.617,114.325 L315.926,113.618 L316.235,112.909 L316.544,112.2 L316.853,111.489 L317.162,110.777 L317.471,110.064 L317.774,109.363 L318.077,108.661 L318.38,107.958 L318.684,107.253 L318.987,106.548 L319.29,105.841 L319.593,105.134 L319.897,104.425 L320.2,103.715 L320.503,103.004 L320.807,102.292 L321.11,101.579 L321.407,100.878 L321.705,100.176 L322.002,99.474 L322.3,98.77 L322.598,98.065 L322.895,97.359 L323.193,96.651 L323.49,95.943 L323.788,95.234 L324.085,94.524 L324.383,93.812 L324.68,93.1 L324.978,92.386 L325.27,91.686 L325.562,90.984 L325.853,90.281 L326.145,89.577 L326.437,88.872 L326.729,88.166 L327.021,87.459 L327.312,86.751 L327.604,86.042 L327.896,85.332 L328.188,84.621 L328.48,83.909 L328.772,83.196 L329.058,82.496 L329.344,81.795 L329.63,81.093 L329.916,80.39 L330.202,79.686 L330.488,78.981 L330.774,78.275 L331.06,77.568 L331.347,76.86 L331.633,76.151 L331.919,75.441 L332.205,74.73 L332.491,74.018 L332.777,73.306 L333.063,72.592 L333.344,71.891 L333.624,71.19 L333.904,70.487 L334.185,69.784 L334.465,69.08 L334.745,68.375 L335.026,67.668 L335.306,66.961 L335.587,66.253 L335.867,65.544 L336.147,64.834 L336.428,64.123 L336.708,63.411 L336.988,62.699 L337.269,61.985 L337.543,61.285 L337.818,60.584 L338.093,59.882 L338.367,59.179 L338.642,58.476 L338.917,57.771 L339.191,57.065 L339.466,56.359 L339.741,55.652 L340.015,54.944 L340.29,54.234 L340.565,53.524 L340.839,52.813 L341.114,52.102 L341.389,51.389 L341.663,50.675 L341.938,49.961 L342.207,49.26 L342.476,48.559 L342.745,47.856 L343.014,47.153 L343.283,46.449 L343.552,45.744 L343.821,45.039 L344.09,44.332 L344.358,43.625 L344.627,42.916 L344.896,42.207 L345.165,41.497 L345.434,40.786 L345.703,40.074 L345.972,39.361 L346.241,38.648 L346.51,37.933 L346.773,37.233 L347.036,36.532 L347.3,35.831 L347.563,35.128 L347.826,34.425 L348.089,33.721 L348.352,33.015 L348.616,32.31 L348.879,31.603 L349.142,30.895 L349.405,30.187 L349.669,29.478 L349.932,28.768 L350.195,28.057 L350.458,27.345 L350.721,26.633 L350.985,25.919 L351.248,25.205 L351.511,24.49 L351.768,23.79 L352.026,23.089 L352.283,22.387 L352.541,21.684 L352.798,20.98 L353.056,20.276 L353.313,19.571 L353.571,18.865 L353.828,18.159 L354.086,17.451 L354.343,16.743 L354.601,16.034 L354.858,15.324 L355.116,14.613 L355.373,13.902 L355.631,13.19 L355.888,12.477 L356.146,11.763 L356.403,11.048 L356.661,10.333 L356.913,9.633 L357.164,8.932 L357.416,8.23 L357.668,7.527 L357.92,6.824 L358.171,6.12 L358.423,5.415 L358.675,4.709 L358.927,4.003 L359.179,3.296 L359.43,2.588 L359.682,1.879 L359.934,1.17 L360.186,0.46 L360.437,-0.251 L360.689,-0.963 L360.941,-1.675 L361.193,-2.389 L361.444,-3.103 L361.696,-3.817 L361.948,-4.533 L362.2,-5.249 L362.446,-5.95 L362.692,-6.651 L362.938,-7.353 L363.184,-8.056 L363.43,-8.76 L363.676,-9.464 L363.922,-10.169 L364.168,-10.875 L364.414,-11.582 L364.66,-12.289 L364.906,-12.997 L365.152,-13.706 L365.398,-14.415 L365.644,-15.125 L365.891,-15.836 L366.137,-16.548 L366.383,-17.26 L366.629,-17.973 L366.875,-18.687 L367.121,-19.401 L367.367,-20.117 L367.613,-20.833 L367.853,-21.533 L368.094,-22.233 L368.334,-22.935 L368.574,-23.637 L368.814,-24.34 L369.055,-25.043 L369.295,-25.747 L369.535,-26.452 L369.776,-27.158 L370.016,-27.864 L370.256,-28.571 L370.497,-29.279 L370.737,-29.987 L370.977,-30.696 L371.218,-31.406 L371.458,-32.116 L371.698,-32.827 L371.939,-33.539 L372.179,-34.252 L372.419,-34.965 L372.66,-35.679 L372.9,-36.393 L373.14,-37.108 L373.381,-37.824 L373.621,-38.541 L373.856,-39.241 L374.09,-39.942 L374.325,-40.644 L374.559,-41.346 L374.794,-42.049 L375,-42.667" fill-opacity="0" stroke="#CCCCCC" stroke-width="3" stroke-linecap="round" stroke-linejoin="round" id="box_jxgBoard1G32"/>
    <g id="box_jxgBoard1L38">
      <path d="M76.389,499 L409.722,-1" fill="#4488DD"/>
      <path d="M76.389,499 L409.722,-1" fill-opacity="0" stroke="#4488DD" stroke-width="8"/>
    </g>
    <g>
      <text transform="matrix(1, 0, 0, 1, 132.837, 345.033)" id="box_jxgBoard1L4_ticks_15Label1">
        <tspan x="-3.837" y="3.5" font-family="ArialMT" font-size="12" fill="#000000">1</tspan>
      </text>
      <text transform="matrix(1, 0, 0, 1, 174.504, 345.033)" id="box_jxgBoard1L4_ticks_110Label2">
        <tspan x="-3.837" y="3.5" font-family="ArialMT" font-size="12" fill="#000000">2</tspan>
      </text>
      <text transform="matrix(1, 0, 0, 1, 216.17, 345.033)" id="box_jxgBoard1L4_ticks_115Label3">
        <tspan x="-3.837" y="3.5" font-family="ArialMT" font-size="12" fill="#000000">3</tspan>
      </text>
      <text transform="matrix(1, 0, 0, 1, 257.837, 345.033)" id="box_jxgBoard1L4_ticks_120Label4">
        <tspan x="-3.837" y="3.5" font-family="ArialMT" font-size="12" fill="#000000">4</tspan>
      </text>
      <text transform="matrix(1, 0, 0, 1, 299.504, 345.033)" id="box_jxgBoard1L4_ticks_125Label5">
        <tspan x="-3.837" y="3.5" font-family="ArialMT" font-size="12" fill="#000000">5</tspan>
      </text>
      <text transform="matrix(1, 0, 0, 1, 341.17, 345.033)" id="box_jxgBoard1L4_ticks_130Label6">
        <tspan x="-3.837" y="3.5" font-family="ArialMT" font-size="12" fill="#000000">6</tspan>
      </text>
      <text transform="matrix(1, 0, 0, 1, 382.837, 345.033)" id="box_jxgBoard1L4_ticks_135Label7">
        <tspan x="-3.837" y="3.5" font-family="ArialMT" font-size="12" fill="#000000">7</tspan>
      </text>
      <text transform="matrix(1, 0, 0, 1, 424.504, 345.033)" id="box_jxgBoard1L4_ticks_140Label8">
        <tspan x="-3.837" y="3.5" font-family="ArialMT" font-size="12" fill="#000000">8</tspan>
      </text>
      <text transform="matrix(1, 0, 0, 1, 466.17, 345.033)" id="box_jxgBoard1L4_ticks_145Label9">
        <tspan x="-3.837" y="3.5" font-family="ArialMT" font-size="12" fill="#000000">9</tspan>
      </text>
      <text transform="matrix(1, 0, 0, 1, 53.007, 345.033)" id="box_jxgBoard1L4_ticks_154Label10">
        <tspan x="-7.341" y="3.5" font-family="ArialMT" font-size="12" fill="#000000">−1</tspan>
      </text>
      <text transform="matrix(1, 0, 0, 1, 91.17, 303.367)" id="box_jxgBoard1L19_ticks_15Label1">
        <tspan x="-3.837" y="3.5" font-family="ArialMT" font-size="12" fill="#000000">1</tspan>
      </text>
      <text transform="matrix(1, 0, 0, 1, 91.17, 261.7)" id="box_jxgBoard1L19_ticks_110Label2">
        <tspan x="-3.837" y="3.5" font-family="ArialMT" font-size="12" fill="#000000">2</tspan>
      </text>
      <text transform="matrix(1, 0, 0, 1, 91.17, 220.033)" id="box_jxgBoard1L19_ticks_115Label3">
        <tspan x="-3.837" y="3.5" font-family="ArialMT" font-size="12" fill="#000000">3</tspan>
      </text>
      <text transform="matrix(1, 0, 0, 1, 91.17, 178.367)" id="box_jxgBoard1L19_ticks_120Label4">
        <tspan x="-3.837" y="3.5" font-family="ArialMT" font-size="12" fill="#000000">4</tspan>
      </text>
      <text transform="matrix(1, 0, 0, 1, 91.17, 136.7)" id="box_jxgBoard1L19_ticks_125Label5">
        <tspan x="-3.837" y="3.5" font-family="ArialMT" font-size="12" fill="#000000">5</tspan>
      </text>
      <text transform="matrix(1, 0, 0, 1, 91.17, 95.033)" id="box_jxgBoard1L19_ticks_130Label6">
        <tspan x="-3.837" y="3.5" font-family="ArialMT" font-size="12" fill="#000000">6</tspan>
      </text>
      <text transform="matrix(1, 0, 0, 1, 91.17, 53.367)" id="box_jxgBoard1L19_ticks_135Label7">
        <tspan x="-3.837" y="3.5" font-family="ArialMT" font-size="12" fill="#000000">7</tspan>
      </text>
      <text transform="matrix(1, 0, 0, 1, 94.674, 386.7)" id="box_jxgBoard1L19_ticks_144Label8">
        <tspan x="-7.341" y="3.5" font-family="ArialMT" font-size="12" fill="#000000">−1</tspan>
      </text>
      <text transform="matrix(1, 0, 0, 1, 94.674, 428.367)" id="box_jxgBoard1L19_ticks_149Label9">
        <tspan x="-7.341" y="3.5" font-family="ArialMT" font-size="12" fill="#000000">−2</tspan>
      </text>
      <text transform="matrix(1, 0, 0, 1, 94.674, 470.033)" id="box_jxgBoard1L19_ticks_154Label10">
        <tspan x="-7.341" y="3.5" font-family="ArialMT" font-size="12" fill="#000000">−3</tspan>
      </text>
      <g id="box_jxgBoard1P34">
        <path d="M259,239 C259,243.971 254.971,248 250,248 C245.029,248 241,243.971 241,239 C241,234.029 245.029,230 250,230 C254.971,230 259,234.029 259,239 z" fill="#4488DD"/>
        <path d="M259,239 C259,243.971 254.971,248 250,248 C245.029,248 241,243.971 241,239 C241,234.029 245.029,230 250,230 C254.971,230 259,234.029 259,239 z" fill-opacity="0" stroke="#4488DD" stroke-width="2"/>
      </g>
      <g id="box_jxgBoard1P36" display="none">
        <path d="M296,176 C296,178.209 294.209,180 292,180 C289.791,180 288,178.209 288,176 C288,173.791 289.791,172 292,172 C294.209,172 296,173.791 296,176 z" fill="#FF0000"/>
        <path d="M296,176 C296,178.209 294.209,180 292,180 C289.791,180 288,178.209 288,176 C288,173.791 289.791,172 292,172 C294.209,172 296,173.791 296,176 z" fill-opacity="0" stroke="#FF0000" stroke-width="2"/>
      </g>
    </g>
  </g>
  <g id="text">
    <text transform="matrix(1, 0, 0, 1, 250, 434.279)">
      <tspan x="-140.083" y="5.5" font-family="Arial-BoldMT" font-size="60" fill="#000000">derivative</tspan>
    </text>
  </g>
  <g id="mask" display="none">
    <g>
      <path d="M58.047,11.442 L440.395,11.442 C466.134,11.442 487,32.308 487,58.047 L487,440.395 C487,466.134 466.134,487 440.395,487 L58.047,487 C32.308,487 11.442,466.134 11.442,440.395 L11.442,58.047 C11.442,32.308 32.308,11.442 58.047,11.442 z" fill="#0A0A0A" fill-opacity="0.223"/>
      <path d="M58.047,11.442 L440.395,11.442 C466.134,11.442 487,32.308 487,58.047 L487,440.395 C487,466.134 466.134,487 440.395,487 L58.047,487 C32.308,487 11.442,466.134 11.442,440.395 L11.442,58.047 C11.442,32.308 32.308,11.442 58.047,11.442 z" fill-opacity="0" stroke="#CBCBCB" stroke-width="10"/>
    </g>
  </g>
</svg>
