<?xml version="1.0" encoding="UTF-8"?>
<!DOCTYPE svg PUBLIC "-//W3C//DTD SVG 1.1//EN" "http://www.w3.org/Graphics/SVG/1.1/DTD/svg11.dtd">
<svg version="1.1" xmlns="http://www.w3.org/2000/svg" xmlns:xlink="http://www.w3.org/1999/xlink" x="0" y="0" width="500" height="500" viewBox="0, 0, 500, 500">
  <g id="outline_box">
    <g>
      <path d="M58.826,12.221 L441.174,12.221 C466.913,12.221 487.779,33.087 487.779,58.826 L487.779,441.174 C487.779,466.913 466.913,487.779 441.174,487.779 L58.826,487.779 C33.087,487.779 12.221,466.913 12.221,441.174 L12.221,58.826 C12.221,33.087 33.087,12.221 58.826,12.221 z" fill="#FFFFFF"/>
      <path d="M58.826,12.221 L441.174,12.221 C466.913,12.221 487.779,33.087 487.779,58.826 L487.779,441.174 C487.779,466.913 466.913,487.779 441.174,487.779 L58.826,487.779 C33.087,487.779 12.221,466.913 12.221,441.174 L12.221,58.826 C12.221,33.087 33.087,12.221 58.826,12.221 z" fill-opacity="0" stroke="#CBCBCB" stroke-width="10"/>
    </g>
  </g>
  <g id="svg">
    <g>
      <g id="box_jxgBoard1P2" display="none">
        <path d="M87,334 C87,336.209 85.209,338 83,338 C80.791,338 79,336.209 79,334 C79,331.791 80.791,330 83,330 C85.209,330 87,331.791 87,334 z" fill="#FF0000"/>
        <path d="M87,334 C87,336.209 85.209,338 83,338 C80.791,338 79,336.209 79,334 C79,331.791 80.791,330 83,330 C85.209,330 87,331.791 87,334 z" fill-opacity="0" stroke="#0000FF" stroke-width="2"/>
      </g>
      <g id="box_jxgBoard1P3" display="none">
        <path d="M129,334 C129,336.209 127.209,338 125,338 C122.791,338 121,336.209 121,334 C121,331.791 122.791,330 125,330 C127.209,330 129,331.791 129,334 z" fill="#FF0000"/>
        <path d="M129,334 C129,336.209 127.209,338 125,338 C122.791,338 121,336.209 121,334 C121,331.791 122.791,330 125,330 C127.209,330 129,331.791 129,334 z" fill-opacity="0" stroke="#0000FF" stroke-width="2"/>
      </g>
      <g id="box_jxgBoard1P17" display="none">
        <path d="M87,334 C87,336.209 85.209,338 83,338 C80.791,338 79,336.209 79,334 C79,331.791 80.791,330 83,330 C85.209,330 87,331.791 87,334 z" fill="#FF0000"/>
        <path d="M87,334 C87,336.209 85.209,338 83,338 C80.791,338 79,336.209 79,334 C79,331.791 80.791,330 83,330 C85.209,330 87,331.791 87,334 z" fill-opacity="0" stroke="#0000FF" stroke-width="2"/>
      </g>
      <g id="box_jxgBoard1P18" display="none">
        <path d="M87,293 C87,295.209 85.209,297 83,297 C80.791,297 79,295.209 79,293 C79,290.791 80.791,289 83,289 C85.209,289 87,290.791 87,293 z" fill="#FF0000"/>
        <path d="M87,293 C87,295.209 85.209,297 83,297 C80.791,297 79,295.209 79,293 C79,290.791 80.791,289 83,289 C85.209,289 87,290.791 87,293 z" fill-opacity="0" stroke="#0000FF" stroke-width="2"/>
      </g>
    </g>
    <g>
      <g>
        <path d="M4,334.333 L488,334.333" fill-opacity="0" stroke="#666666" stroke-width="1" id="box_jxgBoard1L4"/>
        <path d="M484,330.333 L492,334.333 L484,338.333 z" fill="#666666"/>
      </g>
      <g id="box_jxgBoard1L4_ticks_1">
        <path d="M92,334 L92,339 M100,334 L100,339 M108,334 L108,339 M117,334 L117,339 M125,334 L125,354 M133,334 L133,339 M142,334 L142,339 M150,334 L150,339 M158,334 L158,339 M167,334 L167,354 M175,334 L175,339 M183,334 L183,339 M192,334 L192,339 M200,334 L200,339 M208,334 L208,354 M217,334 L217,339 M225,334 L225,339 M233,334 L233,339 M242,334 L242,339 M250,334 L250,354 M258,334 L258,339 M267,334 L267,339 M275,334 L275,339 M283,334 L283,339 M292,334 L292,354 M300,334 L300,339 M308,334 L308,339 M317,334 L317,339 M325,334 L325,339 M333,334 L333,354 M342,334 L342,339 M350,334 L350,339 M358,334 L358,339 M367,334 L367,339 M375,334 L375,354 M383,334 L383,339 M392,334 L392,339 M400,334 L400,339 M408,334 L408,339 M417,334 L417,354 M425,334 L425,339 M433,334 L433,339 M442,334 L442,339 M450,334 L450,339 M458,334 L458,354 M467,334 L467,339 M475,334 L475,339 M483,334 L483,339 M492,334 L492,339 M75,334 L75,339 M67,334 L67,339 M58,334 L58,339 M50,334 L50,339 M42,334 L42,354 M33,334 L33,339 M25,334 L25,339 M17,334 L17,339 M8,334 L8,339 M-0,334 L-0,354" fill="#000000"/>
        <path d="M92,334 L92,339 M100,334 L100,339 M108,334 L108,339 M117,334 L117,339 M125,334 L125,354 M133,334 L133,339 M142,334 L142,339 M150,334 L150,339 M158,334 L158,339 M167,334 L167,354 M175,334 L175,339 M183,334 L183,339 M192,334 L192,339 M200,334 L200,339 M208,334 L208,354 M217,334 L217,339 M225,334 L225,339 M233,334 L233,339 M242,334 L242,339 M250,334 L250,354 M258,334 L258,339 M267,334 L267,339 M275,334 L275,339 M283,334 L283,339 M292,334 L292,354 M300,334 L300,339 M308,334 L308,339 M317,334 L317,339 M325,334 L325,339 M333,334 L333,354 M342,334 L342,339 M350,334 L350,339 M358,334 L358,339 M367,334 L367,339 M375,334 L375,354 M383,334 L383,339 M392,334 L392,339 M400,334 L400,339 M408,334 L408,339 M417,334 L417,354 M425,334 L425,339 M433,334 L433,339 M442,334 L442,339 M450,334 L450,339 M458,334 L458,354 M467,334 L467,339 M475,334 L475,339 M483,334 L483,339 M492,334 L492,339 M75,334 L75,339 M67,334 L67,339 M58,334 L58,339 M50,334 L50,339 M42,334 L42,354 M33,334 L33,339 M25,334 L25,339 M17,334 L17,339 M8,334 L8,339 M-0,334 L-0,354" fill-opacity="0" stroke="#666666" stroke-width="1" stroke-opacity="0.25" stroke-linecap="round" stroke-linejoin="round"/>
      </g>
      <g>
        <path d="M83.333,497 L83.333,13" fill-opacity="0" stroke="#666666" stroke-width="1" id="box_jxgBoard1L19"/>
        <path d="M79.333,17 L83.333,9 L87.333,17 z" fill="#666666"/>
      </g>
      <g id="box_jxgBoard1L19_ticks_1">
        <path d="M83,326 L88,326 M83,318 L88,318 M83,309 L88,309 M83,301 L88,301 M83,293 L103,293 M83,284 L88,284 M83,276 L88,276 M83,268 L88,268 M83,259 L88,259 M83,251 L103,251 M83,243 L88,243 M83,234 L88,234 M83,226 L88,226 M83,218 L88,218 M83,209 L103,209 M83,201 L88,201 M83,193 L88,193 M83,184 L88,184 M83,176 L88,176 M83,168 L103,168 M83,159 L88,159 M83,151 L88,151 M83,143 L88,143 M83,134 L88,134 M83,126 L103,126 M83,118 L88,118 M83,109 L88,109 M83,101 L88,101 M83,93 L88,93 M83,84 L103,84 M83,76 L88,76 M83,68 L88,68 M83,59 L88,59 M83,51 L88,51 M83,43 L103,43 M83,34 L88,34 M83,26 L88,26 M83,18 L88,18 M83,9 L88,9 M83,343 L88,343 M83,351 L88,351 M83,359 L88,359 M83,368 L88,368 M83,376 L103,376 M83,384 L88,384 M83,393 L88,393 M83,401 L88,401 M83,409 L88,409 M83,418 L103,418 M83,426 L88,426 M83,434 L88,434 M83,443 L88,443 M83,451 L88,451 M83,459 L103,459 M83,468 L88,468 M83,476 L88,476 M83,484 L88,484 M83,493 L88,493 M83,501 L103,501" fill="#000000"/>
        <path d="M83,326 L88,326 M83,318 L88,318 M83,309 L88,309 M83,301 L88,301 M83,293 L103,293 M83,284 L88,284 M83,276 L88,276 M83,268 L88,268 M83,259 L88,259 M83,251 L103,251 M83,243 L88,243 M83,234 L88,234 M83,226 L88,226 M83,218 L88,218 M83,209 L103,209 M83,201 L88,201 M83,193 L88,193 M83,184 L88,184 M83,176 L88,176 M83,168 L103,168 M83,159 L88,159 M83,151 L88,151 M83,143 L88,143 M83,134 L88,134 M83,126 L103,126 M83,118 L88,118 M83,109 L88,109 M83,101 L88,101 M83,93 L88,93 M83,84 L103,84 M83,76 L88,76 M83,68 L88,68 M83,59 L88,59 M83,51 L88,51 M83,43 L103,43 M83,34 L88,34 M83,26 L88,26 M83,18 L88,18 M83,9 L88,9 M83,343 L88,343 M83,351 L88,351 M83,359 L88,359 M83,368 L88,368 M83,376 L103,376 M83,384 L88,384 M83,393 L88,393 M83,401 L88,401 M83,409 L88,409 M83,418 L103,418 M83,426 L88,426 M83,434 L88,434 M83,443 L88,443 M83,451 L88,451 M83,459 L103,459 M83,468 L88,468 M83,476 L88,476 M83,484 L88,484 M83,493 L88,493 M83,501 L103,501" fill-opacity="0" stroke="#666666" stroke-width="1" stroke-opacity="0.25" stroke-linecap="round" stroke-linejoin="round"/>
      </g>
    </g>
    <path d="M0,240.583 L0.469,241.286 L0.944,241.994 L1.419,242.7 L1.894,243.403 L2.369,244.103 L2.85,244.809 L3.33,245.512 L3.811,246.213 L4.297,246.918 L4.784,247.621 L5.27,248.322 L5.762,249.027 L6.254,249.73 L6.752,250.438 L7.25,251.143 L7.748,251.845 L8.251,252.552 L8.755,253.256 L9.258,253.956 L9.768,254.662 L10.277,255.365 L10.792,256.072 L11.307,256.776 L11.822,257.477 L12.342,258.183 L12.863,258.885 L13.39,259.592 L13.916,260.295 L14.442,260.995 L14.975,261.7 L15.507,262.401 L16.045,263.106 L16.582,263.807 L17.126,264.513 L17.67,265.215 L18.219,265.92 L18.768,266.622 L19.323,267.328 L19.878,268.03 L20.439,268.735 L21,269.437 L21.566,270.142 L22.133,270.843 L22.705,271.548 L23.277,272.248 L23.855,272.952 L24.439,273.658 L25.023,274.36 L25.612,275.065 L26.201,275.766 L26.796,276.47 L27.397,277.175 L27.998,277.877 L28.605,278.581 L29.217,279.287 L29.829,279.988 L30.447,280.692 L31.071,281.397 L31.694,282.098 L32.324,282.8 L32.959,283.504 L33.6,284.209 L34.241,284.91 L34.887,285.612 L35.54,286.314 L36.198,287.018 L36.861,287.723 L37.531,288.428 L38.2,289.128 L38.876,289.829 L39.557,290.53 L40.243,291.231 L40.936,291.932 L41.634,292.634 L42.337,293.335 L43.041,294.03 L43.745,294.719 L44.449,295.402 L45.153,296.08 L45.856,296.751 L46.56,297.417 L47.264,298.076 L47.968,298.73 L48.672,299.377 L49.376,300.019 L50.079,300.655 L50.783,301.284 L51.487,301.908 L52.191,302.526 L52.895,303.138 L53.598,303.744 L54.302,304.344 L55.006,304.938 L55.71,305.527 L56.414,306.109 L57.117,306.685 L57.821,307.255 L58.525,307.82 L59.229,308.378 L59.933,308.931 L60.637,309.477 L61.34,310.018 L62.044,310.553 L62.748,311.081 L63.452,311.604 L64.156,312.121 L64.859,312.632 L65.563,313.137 L66.267,313.636 L66.971,314.129 L67.675,314.616 L68.378,315.097 L69.082,315.573 L69.786,316.042 L70.49,316.505 L71.194,316.963 L71.898,317.414 L72.601,317.86 L73.305,318.299 L74.009,318.733 L74.713,319.16 L75.417,319.582 L76.12,319.998 L76.824,320.408 L77.528,320.812 L78.232,321.21 L78.936,321.602 L79.639,321.988 L80.343,322.368 L81.047,322.742 L81.751,323.11 L82.455,323.473 L83.158,323.829 L83.862,324.179 L84.566,324.524 L85.27,324.862 L85.974,325.195 L86.678,325.522 L87.381,325.842 L88.085,326.157 L88.789,326.466 L89.493,326.769 L90.197,327.066 L90.9,327.357 L91.604,327.642 L92.308,327.921 L93.012,328.194 L93.716,328.461 L94.419,328.722 L95.123,328.978 L95.827,329.227 L96.531,329.47 L97.235,329.708 L97.939,329.939 L98.642,330.165 L99.346,330.385 L100.05,330.598 L100.754,330.806 L101.458,331.008 L102.161,331.204 L102.865,331.394 L103.569,331.578 L104.273,331.756 L104.977,331.928 L105.68,332.094 L106.384,332.254 L107.088,332.408 L107.792,332.557 L108.496,332.699 L109.2,332.835 L109.903,332.966 L110.607,333.09 L111.311,333.209 L112.015,333.322 L112.719,333.428 L113.422,333.529 L114.126,333.624 L114.83,333.713 L115.534,333.796 L116.238,333.873 L116.941,333.944 L117.645,334.009 L118.349,334.068 L119.053,334.121 L119.757,334.168 L120.461,334.21 L121.164,334.245 L121.868,334.274 L122.572,334.298 L123.276,334.315 L123.98,334.327 L124.683,334.333 L125.387,334.332 L126.091,334.326 L126.795,334.314 L127.499,334.296 L128.202,334.272 L128.906,334.242 L129.61,334.206 L130.314,334.164 L131.018,334.116 L131.721,334.062 L132.425,334.003 L133.129,333.937 L133.833,333.865 L134.537,333.788 L135.241,333.704 L135.944,333.615 L136.648,333.519 L137.352,333.418 L138.056,333.311 L138.76,333.197 L139.463,333.078 L140.167,332.953 L140.871,332.822 L141.575,332.685 L142.279,332.542 L142.982,332.393 L143.686,332.238 L144.39,332.077 L145.094,331.911 L145.798,331.738 L146.502,331.559 L147.205,331.375 L147.909,331.184 L148.613,330.988 L149.317,330.785 L150.021,330.577 L150.724,330.363 L151.428,330.143 L152.132,329.916 L152.836,329.684 L153.54,329.446 L154.243,329.202 L154.947,328.952 L155.651,328.696 L156.355,328.435 L157.059,328.167 L157.763,327.893 L158.466,327.613 L159.17,327.328 L159.874,327.036 L160.578,326.739 L161.282,326.435 L161.985,326.126 L162.689,325.81 L163.393,325.489 L164.097,325.162 L164.801,324.829 L165.504,324.49 L166.208,324.145 L166.912,323.794 L167.616,323.437 L168.32,323.074 L169.024,322.705 L169.727,322.33 L170.431,321.949 L171.135,321.563 L171.839,321.17 L172.543,320.772 L173.246,320.367 L173.95,319.957 L174.654,319.54 L175.358,319.118 L176.062,318.69 L176.765,318.255 L177.469,317.815 L178.173,317.369 L178.877,316.917 L179.581,316.459 L180.285,315.995 L180.988,315.525 L181.692,315.049 L182.396,314.568 L183.1,314.08 L183.804,313.586 L184.507,313.087 L185.211,312.581 L185.915,312.069 L186.619,311.552 L187.323,311.029 L188.026,310.499 L188.73,309.964 L189.434,309.423 L190.138,308.876 L190.842,308.323 L191.545,307.764 L192.249,307.199 L192.953,306.628 L193.657,306.051 L194.361,305.468 L195.065,304.879 L195.768,304.284 L196.472,303.684 L197.176,303.077 L197.88,302.465 L198.584,301.846 L199.287,301.222 L199.991,300.591 L200.695,299.955 L201.399,299.313 L202.103,298.664 L202.806,298.01 L203.51,297.35 L204.214,296.684 L204.918,296.012 L205.622,295.334 L206.326,294.65 L207.029,293.96 L207.733,293.265 L208.437,292.563 L209.135,291.861 L209.827,291.159 L210.514,290.457 L211.195,289.756 L211.87,289.055 L212.54,288.354 L213.209,287.648 L213.873,286.943 L214.531,286.239 L215.183,285.535 L215.83,284.833 L216.471,284.132 L217.112,283.426 L217.747,282.722 L218.376,282.019 L219,281.317 L219.624,280.612 L220.242,279.908 L220.854,279.206 L221.466,278.499 L222.073,277.795 L222.673,277.093 L223.274,276.386 L223.869,275.682 L224.459,274.981 L225.048,274.276 L225.632,273.573 L226.215,272.866 L226.793,272.162 L227.365,271.461 L227.938,270.756 L228.504,270.055 L229.071,269.349 L229.631,268.647 L230.192,267.941 L230.747,267.238 L231.302,266.532 L231.852,265.83 L232.401,265.124 L232.944,264.421 L233.488,263.715 L234.026,263.013 L234.564,262.308 L235.096,261.607 L235.628,260.902 L236.155,260.201 L236.681,259.497 L237.207,258.79 L237.728,258.088 L238.249,257.382 L238.764,256.68 L239.279,255.975 L239.794,255.268 L240.303,254.565 L240.812,253.858 L241.316,253.157 L241.819,252.453 L242.323,251.745 L242.821,251.043 L243.319,250.338 L243.811,249.637 L244.303,248.934 L244.795,248.228 L245.281,247.528 L245.768,246.824 L246.254,246.118 L246.735,245.417 L247.215,244.714 L247.696,244.008 L248.171,243.307 L248.646,242.604 L249.121,241.898 L249.59,241.197 L250.059,240.495 L250.528,239.789 L250.998,239.081 L251.461,238.379 L251.925,237.674 L252.388,236.967 L252.846,236.266 L253.304,235.563 L253.761,234.856 L254.219,234.148 L254.671,233.446 L255.123,232.741 L255.575,232.034 L256.022,231.334 L256.468,230.631 L256.914,229.925 L257.36,229.218 L257.801,228.517 L258.242,227.813 L258.682,227.108 L259.123,226.4 L259.558,225.699 L259.993,224.995 L260.427,224.29 L260.862,223.582 L261.292,222.881 L261.721,222.178 L262.15,221.473 L262.579,220.765 L263.002,220.065 L263.426,219.363 L263.849,218.659 L264.273,217.952 L264.696,217.243 L265.114,216.542 L265.532,215.839 L265.949,215.133 L266.367,214.426 L266.785,213.716 L267.197,213.014 L267.609,212.31 L268.021,211.604 L268.433,210.896 L268.839,210.196 L269.245,209.493 L269.651,208.789 L270.058,208.083 L270.464,207.375 L270.865,206.675 L271.265,205.973 L271.666,205.269 L272.066,204.563 L272.467,203.855 L272.867,203.145 L273.262,202.444 L273.657,201.74 L274.052,201.035 L274.447,200.328 L274.841,199.619 L275.23,198.918 L275.62,198.216 L276.009,197.512 L276.398,196.806 L276.787,196.098 L277.176,195.388 L277.559,194.687 L277.943,193.985 L278.326,193.28 L278.709,192.574 L279.093,191.866 L279.476,191.156 L279.854,190.455 L280.231,189.752 L280.609,189.048 L280.987,188.342 L281.364,187.634 L281.742,186.925 L282.114,186.224 L282.486,185.522 L282.858,184.819 L283.23,184.113 L283.602,183.406 L283.974,182.698 L284.346,181.987 L284.712,181.286 L285.078,180.583 L285.444,179.879 L285.81,179.173 L286.177,178.466 L286.543,177.757 L286.909,177.046 L287.27,176.345 L287.63,175.642 L287.991,174.938 L288.351,174.232 L288.712,173.524 L289.072,172.816 L289.433,172.105 L289.787,171.404 L290.142,170.702 L290.497,169.998 L290.852,169.293 L291.206,168.586 L291.561,167.878 L291.916,167.168 L292.271,166.456 L292.62,165.755 L292.969,165.052 L293.318,164.348 L293.667,163.642 L294.016,162.935 L294.365,162.226 L294.714,161.516 L295.063,160.805 L295.406,160.103 L295.75,159.401 L296.093,158.696 L296.436,157.991 L296.78,157.284 L297.123,156.575 L297.466,155.866 L297.81,155.154 L298.147,154.454 L298.485,153.751 L298.822,153.048 L299.16,152.343 L299.498,151.637 L299.835,150.929 L300.173,150.22 L300.51,149.51 L300.848,148.798 L301.18,148.097 L301.512,147.395 L301.844,146.691 L302.176,145.986 L302.507,145.28 L302.839,144.572 L303.171,143.864 L303.503,143.153 L303.835,142.442 L304.161,141.741 L304.487,141.039 L304.813,140.336 L305.14,139.632 L305.466,138.926 L305.792,138.219 L306.118,137.511 L306.444,136.801 L306.77,136.091 L307.096,135.379 L307.417,134.678 L307.737,133.976 L308.058,133.272 L308.378,132.568 L308.699,131.862 L309.019,131.155 L309.34,130.447 L309.66,129.738 L309.98,129.027 L310.301,128.315 L310.616,127.615 L310.93,126.913 L311.245,126.21 L311.56,125.506 L311.874,124.801 L312.189,124.095 L312.504,123.387 L312.819,122.679 L313.133,121.969 L313.448,121.258 L313.763,120.545 L314.072,119.845 L314.381,119.143 L314.69,118.44 L314.999,117.736 L315.308,117.031 L315.617,116.325 L315.926,115.618 L316.235,114.909 L316.544,114.2 L316.853,113.489 L317.162,112.777 L317.471,112.064 L317.774,111.363 L318.077,110.661 L318.38,109.958 L318.684,109.253 L318.987,108.548 L319.29,107.841 L319.593,107.134 L319.897,106.425 L320.2,105.715 L320.503,105.004 L320.807,104.292 L321.11,103.579 L321.407,102.878 L321.705,102.176 L322.002,101.474 L322.3,100.77 L322.598,100.065 L322.895,99.359 L323.193,98.651 L323.49,97.943 L323.788,97.234 L324.085,96.524 L324.383,95.812 L324.68,95.1 L324.978,94.386 L325.27,93.686 L325.562,92.984 L325.853,92.281 L326.145,91.577 L326.437,90.872 L326.729,90.166 L327.021,89.459 L327.312,88.751 L327.604,88.042 L327.896,87.332 L328.188,86.621 L328.48,85.909 L328.772,85.196 L329.058,84.496 L329.344,83.795 L329.63,83.093 L329.916,82.39 L330.202,81.686 L330.488,80.981 L330.774,80.275 L331.06,79.568 L331.347,78.86 L331.633,78.151 L331.919,77.441 L332.205,76.73 L332.491,76.018 L332.777,75.306 L333.063,74.592 L333.344,73.891 L333.624,73.19 L333.904,72.487 L334.185,71.784 L334.465,71.08 L334.745,70.375 L335.026,69.668 L335.306,68.961 L335.587,68.253 L335.867,67.544 L336.147,66.834 L336.428,66.123 L336.708,65.411 L336.988,64.699 L337.269,63.985 L337.543,63.285 L337.818,62.584 L338.093,61.882 L338.367,61.179 L338.642,60.476 L338.917,59.771 L339.191,59.065 L339.466,58.359 L339.741,57.652 L340.015,56.944 L340.29,56.234 L340.565,55.524 L340.839,54.813 L341.114,54.102 L341.389,53.389 L341.663,52.675 L341.938,51.961 L342.207,51.26 L342.476,50.559 L342.745,49.856 L343.014,49.153 L343.283,48.449 L343.552,47.744 L343.821,47.039 L344.09,46.332 L344.358,45.625 L344.627,44.916 L344.896,44.207 L345.165,43.497 L345.434,42.786 L345.703,42.074 L345.972,41.361 L346.241,40.648 L346.51,39.933 L346.773,39.233 L347.036,38.532 L347.3,37.831 L347.563,37.128 L347.826,36.425 L348.089,35.721 L348.352,35.015 L348.616,34.31 L348.879,33.603 L349.142,32.895 L349.405,32.187 L349.669,31.478 L349.932,30.768 L350.195,30.057 L350.458,29.345 L350.721,28.633 L350.985,27.919 L351.248,27.205 L351.511,26.49 L351.768,25.79 L352.026,25.089 L352.283,24.387 L352.541,23.684 L352.798,22.98 L353.056,22.276 L353.313,21.571 L353.571,20.865 L353.828,20.159 L354.086,19.451 L354.343,18.743 L354.601,18.034 L354.858,17.324 L355.116,16.613 L355.373,15.902 L355.631,15.19 L355.888,14.477 L356.146,13.763 L356.403,13.048 L356.661,12.333 L356.913,11.633 L357.164,10.932 L357.416,10.23 L357.668,9.527 L357.92,8.824 L358.171,8.12 L358.423,7.415 L358.675,6.709 L358.927,6.003 L359.179,5.296 L359.43,4.588 L359.682,3.879 L359.934,3.17 L360.186,2.46 L360.437,1.749 L360.689,1.037 L360.941,0.325 L361.193,-0.389 L361.444,-1.103 L361.696,-1.817 L361.948,-2.533 L362.2,-3.249 L362.446,-3.95 L362.692,-4.651 L362.938,-5.353 L363.184,-6.056 L363.43,-6.76 L363.676,-7.464 L363.922,-8.169 L364.168,-8.875 L364.414,-9.582 L364.66,-10.289 L364.906,-10.997 L365.152,-11.706 L365.398,-12.415 L365.644,-13.125 L365.891,-13.836 L366.137,-14.548 L366.383,-15.26 L366.629,-15.973 L366.875,-16.687 L367.121,-17.401 L367.367,-18.117 L367.613,-18.833 L367.853,-19.533 L368.094,-20.233 L368.334,-20.935 L368.574,-21.637 L368.814,-22.34 L369.055,-23.043 L369.295,-23.747 L369.535,-24.452 L369.776,-25.158 L370.016,-25.864 L370.256,-26.571 L370.497,-27.279 L370.737,-27.987 L370.977,-28.696 L371.218,-29.406 L371.458,-30.116 L371.698,-30.827 L371.939,-31.539 L372.179,-32.252 L372.419,-32.965 L372.66,-33.679 L372.9,-34.393 L373.14,-35.108 L373.381,-35.824 L373.621,-36.541 L373.856,-37.241 L374.09,-37.942 L374.325,-38.644 L374.559,-39.346 L374.794,-40.049 L375,-40.667" fill-opacity="0" stroke="#CCCCCC" stroke-width="3" stroke-linecap="round" stroke-linejoin="round" id="box_jxgBoard1G32"/>
    <g>
      <text transform="matrix(1, 0, 0, 1, 132.837, 347.033)" id="box_jxgBoard1L4_ticks_15Label1">
        <tspan x="-3.837" y="3.5" font-family="ArialMT" font-size="12" fill="#000000">1</tspan>
      </text>
      <text transform="matrix(1, 0, 0, 1, 174.504, 347.033)" id="box_jxgBoard1L4_ticks_110Label2">
        <tspan x="-3.837" y="3.5" font-family="ArialMT" font-size="12" fill="#000000">2</tspan>
      </text>
      <text transform="matrix(1, 0, 0, 1, 216.17, 347.033)" id="box_jxgBoard1L4_ticks_115Label3">
        <tspan x="-3.837" y="3.5" font-family="ArialMT" font-size="12" fill="#000000">3</tspan>
      </text>
      <text transform="matrix(1, 0, 0, 1, 257.837, 347.033)" id="box_jxgBoard1L4_ticks_120Label4">
        <tspan x="-3.837" y="3.5" font-family="ArialMT" font-size="12" fill="#000000">4</tspan>
      </text>
      <text transform="matrix(1, 0, 0, 1, 299.504, 347.033)" id="box_jxgBoard1L4_ticks_125Label5">
        <tspan x="-3.837" y="3.5" font-family="ArialMT" font-size="12" fill="#000000">5</tspan>
      </text>
      <text transform="matrix(1, 0, 0, 1, 341.17, 347.033)" id="box_jxgBoard1L4_ticks_130Label6">
        <tspan x="-3.837" y="3.5" font-family="ArialMT" font-size="12" fill="#000000">6</tspan>
      </text>
      <text transform="matrix(1, 0, 0, 1, 382.837, 347.033)" id="box_jxgBoard1L4_ticks_135Label7">
        <tspan x="-3.837" y="3.5" font-family="ArialMT" font-size="12" fill="#000000">7</tspan>
      </text>
      <text transform="matrix(1, 0, 0, 1, 424.504, 347.033)" id="box_jxgBoard1L4_ticks_140Label8">
        <tspan x="-3.837" y="3.5" font-family="ArialMT" font-size="12" fill="#000000">8</tspan>
      </text>
      <text transform="matrix(1, 0, 0, 1, 466.17, 347.033)" id="box_jxgBoard1L4_ticks_145Label9">
        <tspan x="-3.837" y="3.5" font-family="ArialMT" font-size="12" fill="#000000">9</tspan>
      </text>
      <text transform="matrix(1, 0, 0, 1, 53.007, 347.033)" id="box_jxgBoard1L4_ticks_154Label10">
        <tspan x="-7.341" y="3.5" font-family="ArialMT" font-size="12" fill="#000000">−1</tspan>
      </text>
      <text transform="matrix(1, 0, 0, 1, 91.17, 305.367)" id="box_jxgBoard1L19_ticks_15Label1">
        <tspan x="-3.837" y="3.5" font-family="ArialMT" font-size="12" fill="#000000">1</tspan>
      </text>
      <text transform="matrix(1, 0, 0, 1, 91.17, 263.7)" id="box_jxgBoard1L19_ticks_110Label2">
        <tspan x="-3.837" y="3.5" font-family="ArialMT" font-size="12" fill="#000000">2</tspan>
      </text>
      <text transform="matrix(1, 0, 0, 1, 91.17, 222.033)" id="box_jxgBoard1L19_ticks_115Label3">
        <tspan x="-3.837" y="3.5" font-family="ArialMT" font-size="12" fill="#000000">3</tspan>
      </text>
      <text transform="matrix(1, 0, 0, 1, 91.17, 180.367)" id="box_jxgBoard1L19_ticks_120Label4">
        <tspan x="-3.837" y="3.5" font-family="ArialMT" font-size="12" fill="#000000">4</tspan>
      </text>
      <text transform="matrix(1, 0, 0, 1, 91.17, 138.7)" id="box_jxgBoard1L19_ticks_125Label5">
        <tspan x="-3.837" y="3.5" font-family="ArialMT" font-size="12" fill="#000000">5</tspan>
      </text>
      <text transform="matrix(1, 0, 0, 1, 91.17, 97.033)" id="box_jxgBoard1L19_ticks_130Label6">
        <tspan x="-3.837" y="3.5" font-family="ArialMT" font-size="12" fill="#000000">6</tspan>
      </text>
      <text transform="matrix(1, 0, 0, 1, 91.17, 55.367)" id="box_jxgBoard1L19_ticks_135Label7">
        <tspan x="-3.837" y="3.5" font-family="ArialMT" font-size="12" fill="#000000">7</tspan>
      </text>
      <text transform="matrix(1, 0, 0, 1, 94.674, 388.7)" id="box_jxgBoard1L19_ticks_144Label8">
        <tspan x="-7.341" y="3.5" font-family="ArialMT" font-size="12" fill="#000000">−1</tspan>
      </text>
      <text transform="matrix(1, 0, 0, 1, 94.674, 430.367)" id="box_jxgBoard1L19_ticks_149Label9">
        <tspan x="-7.341" y="3.5" font-family="ArialMT" font-size="12" fill="#000000">−2</tspan>
      </text>
      <text transform="matrix(1, 0, 0, 1, 94.674, 472.033)" id="box_jxgBoard1L19_ticks_154Label10">
        <tspan x="-7.341" y="3.5" font-family="ArialMT" font-size="12" fill="#000000">−3</tspan>
      </text>
    </g>
    <g>
      <path d="M8.221,175.253 L492,175.253 L492,221.747 L8.221,221.747 L8.221,175.253 z" fill="#DC3BFF" fill-opacity="0.388"/>
      <path d="M8.221,175.253 L492,175.253 L492,221.747 L8.221,221.747 L8.221,175.253 z" fill-opacity="0" stroke="#B405B1" stroke-width="1"/>
    </g>
    <g>
      <path d="M257.136,9 L293.136,9 L293.136,492.333 L257.136,492.333 L257.136,9 z" fill="#3B99FF" fill-opacity="0.136"/>
      <path d="M257.136,9 L293.136,9 L293.136,492.333 L257.136,492.333 L257.136,9 z" fill-opacity="0" stroke="#A3B5FC" stroke-width="2"/>
    </g>
    <path d="M263.002,220.065 L287.27,176.345" fill-opacity="0" stroke="#012BAA" stroke-width="6"/>
    <path d="M264.002,219.065 L262.721,221.178" fill-opacity="0" stroke="#012BAA" stroke-width="6"/>
  </g>
  <g id="text">
    <text transform="matrix(1, 0, 0, 1, 250, 431.033)">
      <tspan x="-201.694" y="5.5" font-family="Arial-BoldMT" font-size="60" fill="#000000">epsilon - delta</tspan>
    </text>
  </g>
  <g id="mask" display="none">
    <g>
      <path d="M58.047,11.442 L440.395,11.442 C466.134,11.442 487,32.308 487,58.047 L487,440.395 C487,466.134 466.134,487 440.395,487 L58.047,487 C32.308,487 11.442,466.134 11.442,440.395 L11.442,58.047 C11.442,32.308 32.308,11.442 58.047,11.442 z" fill="#0A0A0A" fill-opacity="0.223"/>
      <path d="M58.047,11.442 L440.395,11.442 C466.134,11.442 487,32.308 487,58.047 L487,440.395 C487,466.134 466.134,487 440.395,487 L58.047,487 C32.308,487 11.442,466.134 11.442,440.395 L11.442,58.047 C11.442,32.308 32.308,11.442 58.047,11.442 z" fill-opacity="0" stroke="#CBCBCB" stroke-width="10"/>
    </g>
  </g>
</svg>
