<?xml version="1.0" encoding="UTF-8"?>
<!DOCTYPE svg PUBLIC "-//W3C//DTD SVG 1.1//EN" "http://www.w3.org/Graphics/SVG/1.1/DTD/svg11.dtd">
<svg version="1.1" xmlns="http://www.w3.org/2000/svg" xmlns:xlink="http://www.w3.org/1999/xlink" x="0" y="0" width="500" height="500" viewBox="0, 0, 500, 500">
  <g id="outline_box">
    <g>
      <path d="M58.826,12.221 L441.174,12.221 C466.913,12.221 487.779,33.087 487.779,58.826 L487.779,441.174 C487.779,466.913 466.913,487.779 441.174,487.779 L58.826,487.779 C33.087,487.779 12.221,466.913 12.221,441.174 L12.221,58.826 C12.221,33.087 33.087,12.221 58.826,12.221 z" fill="#FFFFFF"/>
      <path d="M58.826,12.221 L441.174,12.221 C466.913,12.221 487.779,33.087 487.779,58.826 L487.779,441.174 C487.779,466.913 466.913,487.779 441.174,487.779 L58.826,487.779 C33.087,487.779 12.221,466.913 12.221,441.174 L12.221,58.826 C12.221,33.087 33.087,12.221 58.826,12.221 z" fill-opacity="0" stroke="#CBCBCB" stroke-width="10"/>
    </g>
  </g>
  <g id="svg">
    <g>
      <g id="box_jxgBoard1P2" display="none">
        <path d="M174,416 C174,418.209 172.209,420 170,420 C167.791,420 166,418.209 166,416 C166,413.791 167.791,412 170,412 C172.209,412 174,413.791 174,416 z" fill="#FF0000"/>
        <path d="M174,416 C174,418.209 172.209,420 170,420 C167.791,420 166,418.209 166,416 C166,413.791 167.791,412 170,412 C172.209,412 174,413.791 174,416 z" fill-opacity="0" stroke="#0000FF" stroke-width="2"/>
      </g>
      <g id="box_jxgBoard1P3" display="none">
        <path d="M257,416 C257,418.209 255.209,420 253,420 C250.791,420 249,418.209 249,416 C249,413.791 250.791,412 253,412 C255.209,412 257,413.791 257,416 z" fill="#FF0000"/>
        <path d="M257,416 C257,418.209 255.209,420 253,420 C250.791,420 249,418.209 249,416 C249,413.791 250.791,412 253,412 C255.209,412 257,413.791 257,416 z" fill-opacity="0" stroke="#0000FF" stroke-width="2"/>
      </g>
      <g id="box_jxgBoard1P17" display="none">
        <path d="M174,416 C174,418.209 172.209,420 170,420 C167.791,420 166,418.209 166,416 C166,413.791 167.791,412 170,412 C172.209,412 174,413.791 174,416 z" fill="#FF0000"/>
        <path d="M174,416 C174,418.209 172.209,420 170,420 C167.791,420 166,418.209 166,416 C166,413.791 167.791,412 170,412 C172.209,412 174,413.791 174,416 z" fill-opacity="0" stroke="#0000FF" stroke-width="2"/>
      </g>
      <g id="box_jxgBoard1P18" display="none">
        <path d="M174,395 C174,397.209 172.209,399 170,399 C167.791,399 166,397.209 166,395 C166,392.791 167.791,391 170,391 C172.209,391 174,392.791 174,395 z" fill="#FF0000"/>
        <path d="M174,395 C174,397.209 172.209,399 170,399 C167.791,399 166,397.209 166,395 C166,392.791 167.791,391 170,391 C172.209,391 174,392.791 174,395 z" fill-opacity="0" stroke="#0000FF" stroke-width="2"/>
      </g>
    </g>
    <g>
      <g>
        <path d="M7,415.667 L491,415.667" fill-opacity="0" stroke="#666666" stroke-width="1" id="box_jxgBoard1L4"/>
        <path d="M487,411.667 L495,415.667 L487,419.667 z" fill="#666666"/>
      </g>
      <g id="box_jxgBoard1L4_ticks_1">
        <path d="M178,416 L178,421 M186,416 L186,421 M195,416 L195,421 M203,416 L203,421 M211,416 L211,436 M220,416 L220,421 M228,416 L228,421 M236,416 L236,421 M245,416 L245,421 M253,416 L253,436 M261,416 L261,421 M270,416 L270,421 M278,416 L278,421 M286,416 L286,421 M295,416 L295,436 M303,416 L303,421 M311,416 L311,421 M320,416 L320,421 M328,416 L328,421 M336,416 L336,436 M345,416 L345,421 M353,416 L353,421 M361,416 L361,421 M370,416 L370,421 M378,416 L378,436 M386,416 L386,421 M395,416 L395,421 M403,416 L403,421 M411,416 L411,421 M420,416 L420,436 M428,416 L428,421 M436,416 L436,421 M445,416 L445,421 M453,416 L453,421 M461,416 L461,436 M470,416 L470,421 M478,416 L478,421 M486,416 L486,421 M495,416 L495,421 M161,416 L161,421 M153,416 L153,421 M145,416 L145,421 M136,416 L136,421 M128,416 L128,436 M120,416 L120,421 M111,416 L111,421 M103,416 L103,421 M95,416 L95,421 M86,416 L86,436 M78,416 L78,421 M70,416 L70,421 M61,416 L61,421 M53,416 L53,421 M45,416 L45,436 M36,416 L36,421 M28,416 L28,421 M20,416 L20,421 M11,416 L11,421" fill="#000000"/>
        <path d="M178,416 L178,421 M186,416 L186,421 M195,416 L195,421 M203,416 L203,421 M211,416 L211,436 M220,416 L220,421 M228,416 L228,421 M236,416 L236,421 M245,416 L245,421 M253,416 L253,436 M261,416 L261,421 M270,416 L270,421 M278,416 L278,421 M286,416 L286,421 M295,416 L295,436 M303,416 L303,421 M311,416 L311,421 M320,416 L320,421 M328,416 L328,421 M336,416 L336,436 M345,416 L345,421 M353,416 L353,421 M361,416 L361,421 M370,416 L370,421 M378,416 L378,436 M386,416 L386,421 M395,416 L395,421 M403,416 L403,421 M411,416 L411,421 M420,416 L420,436 M428,416 L428,421 M436,416 L436,421 M445,416 L445,421 M453,416 L453,421 M461,416 L461,436 M470,416 L470,421 M478,416 L478,421 M486,416 L486,421 M495,416 L495,421 M161,416 L161,421 M153,416 L153,421 M145,416 L145,421 M136,416 L136,421 M128,416 L128,436 M120,416 L120,421 M111,416 L111,421 M103,416 L103,421 M95,416 L95,421 M86,416 L86,436 M78,416 L78,421 M70,416 L70,421 M61,416 L61,421 M53,416 L53,421 M45,416 L45,436 M36,416 L36,421 M28,416 L28,421 M20,416 L20,421 M11,416 L11,421" fill-opacity="0" stroke="#666666" stroke-width="1" stroke-opacity="0.25" stroke-linecap="round" stroke-linejoin="round"/>
      </g>
      <g>
        <path d="M169.667,495 L169.667,11" fill-opacity="0" stroke="#666666" stroke-width="1" id="box_jxgBoard1L19"/>
        <path d="M165.667,15 L169.667,7 L173.667,15 z" fill="#666666"/>
      </g>
      <g id="box_jxgBoard1L19_ticks_1">
        <path d="M170,395 L175,395 M170,374 L175,374 M170,353 L175,353 M170,332 L175,332 M170,312 L190,312 M170,291 L175,291 M170,270 L175,270 M170,249 L175,249 M170,228 L175,228 M170,207 L190,207 M170,186 L175,186 M170,166 L175,166 M170,145 L175,145 M170,124 L175,124 M170,103 L190,103 M170,82 L175,82 M170,62 L175,62 M170,41 L175,41 M170,20 L175,20 M170,436 L175,436 M170,457 L175,457 M170,478 L175,478 M170,499 L175,499" fill="#000000"/>
        <path d="M170,395 L175,395 M170,374 L175,374 M170,353 L175,353 M170,332 L175,332 M170,312 L190,312 M170,291 L175,291 M170,270 L175,270 M170,249 L175,249 M170,228 L175,228 M170,207 L190,207 M170,186 L175,186 M170,166 L175,166 M170,145 L175,145 M170,124 L175,124 M170,103 L190,103 M170,82 L175,82 M170,62 L175,62 M170,41 L175,41 M170,20 L175,20 M170,436 L175,436 M170,457 L175,457 M170,478 L175,478 M170,499 L175,499" fill-opacity="0" stroke="#666666" stroke-width="1" stroke-opacity="0.25" stroke-linecap="round" stroke-linejoin="round"/>
      </g>
    </g>
    <path d="M3,412.847 L3.706,412.823 L4.411,412.799 L5.117,412.775 L5.823,412.75 L6.529,412.725 L7.234,412.7 L7.94,412.675 L8.646,412.65 L9.351,412.624 L10.057,412.598 L10.763,412.572 L11.469,412.546 L12.174,412.519 L12.88,412.492 L13.586,412.465 L14.292,412.438 L14.997,412.411 L15.703,412.383 L16.409,412.355 L17.114,412.327 L17.82,412.298 L18.526,412.27 L19.232,412.241 L19.937,412.212 L20.643,412.182 L21.349,412.153 L22.054,412.123 L22.76,412.093 L23.466,412.062 L24.172,412.032 L24.877,412.001 L25.583,411.97 L26.289,411.938 L26.994,411.906 L27.7,411.874 L28.406,411.842 L29.112,411.81 L29.817,411.777 L30.523,411.744 L31.229,411.71 L31.934,411.677 L32.64,411.643 L33.346,411.609 L34.052,411.574 L34.757,411.539 L35.463,411.504 L36.169,411.469 L36.875,411.433 L37.58,411.397 L38.286,411.361 L38.992,411.324 L39.697,411.287 L40.403,411.25 L41.109,411.212 L41.815,411.175 L42.52,411.136 L43.226,411.098 L43.932,411.059 L44.637,411.02 L45.343,410.98 L46.049,410.94 L46.755,410.9 L47.46,410.86 L48.166,410.819 L48.872,410.778 L49.577,410.736 L50.283,410.694 L50.989,410.652 L51.695,410.609 L52.4,410.566 L53.106,410.523 L53.812,410.479 L54.517,410.435 L55.223,410.39 L55.929,410.345 L56.635,410.3 L57.34,410.255 L58.046,410.209 L58.752,410.162 L59.458,410.115 L60.163,410.068 L60.869,410.02 L61.575,409.972 L62.28,409.924 L62.986,409.875 L63.692,409.826 L64.398,409.776 L65.103,409.726 L65.809,409.676 L66.515,409.625 L67.22,409.573 L67.926,409.521 L68.632,409.469 L69.338,409.417 L70.043,409.363 L70.749,409.31 L71.455,409.256 L72.16,409.201 L72.866,409.146 L73.572,409.091 L74.278,409.035 L74.983,408.978 L75.689,408.922 L76.395,408.864 L77.1,408.806 L77.806,408.748 L78.512,408.689 L79.218,408.63 L79.923,408.57 L80.629,408.51 L81.335,408.449 L82.041,408.387 L82.746,408.325 L83.452,408.263 L84.158,408.2 L84.863,408.137 L85.569,408.072 L86.275,408.008 L86.981,407.943 L87.686,407.877 L88.392,407.811 L89.098,407.744 L89.803,407.677 L90.509,407.609 L91.215,407.54 L91.921,407.471 L92.626,407.401 L93.332,407.331 L94.038,407.26 L94.743,407.189 L95.449,407.117 L96.155,407.044 L96.861,406.971 L97.566,406.897 L98.272,406.822 L98.978,406.747 L99.684,406.671 L100.389,406.594 L101.095,406.517 L101.801,406.439 L102.506,406.361 L103.212,406.282 L103.918,406.202 L104.624,406.121 L105.329,406.04 L106.035,405.958 L106.741,405.876 L107.446,405.793 L108.152,405.709 L108.858,405.624 L109.564,405.539 L110.269,405.452 L110.975,405.366 L111.681,405.278 L112.386,405.19 L113.092,405.1 L113.798,405.011 L114.504,404.92 L115.209,404.829 L115.915,404.736 L116.621,404.643 L117.326,404.55 L118.032,404.455 L118.738,404.36 L119.444,404.264 L120.149,404.167 L120.855,404.069 L121.561,403.97 L122.267,403.871 L122.972,403.77 L123.678,403.669 L124.384,403.567 L125.089,403.464 L125.795,403.361 L126.501,403.256 L127.207,403.15 L127.912,403.044 L128.618,402.937 L129.324,402.828 L130.029,402.719 L130.735,402.609 L131.441,402.498 L132.147,402.386 L132.852,402.273 L133.558,402.159 L134.264,402.044 L134.969,401.928 L135.675,401.812 L136.381,401.694 L137.087,401.575 L137.792,401.455 L138.498,401.334 L139.204,401.212 L139.909,401.089 L140.615,400.965 L141.321,400.84 L142.027,400.714 L142.732,400.587 L143.438,400.459 L144.144,400.329 L144.85,400.199 L145.555,400.068 L146.261,399.935 L146.967,399.801 L147.672,399.666 L148.378,399.53 L149.084,399.393 L149.79,399.254 L150.495,399.115 L151.201,398.974 L151.907,398.832 L152.612,398.689 L153.318,398.545 L154.024,398.399 L154.73,398.252 L155.435,398.104 L156.141,397.955 L156.847,397.804 L157.552,397.652 L158.258,397.499 L158.964,397.344 L159.67,397.189 L160.375,397.031 L161.081,396.873 L161.787,396.713 L162.492,396.552 L163.198,396.389 L163.904,396.225 L164.61,396.06 L165.315,395.893 L166.021,395.725 L166.727,395.555 L167.433,395.384 L168.138,395.212 L168.844,395.038 L169.55,394.863 L170.255,394.686 L170.961,394.507 L171.667,394.327 L172.373,394.146 L173.078,393.963 L173.784,393.778 L174.49,393.592 L175.195,393.404 L175.901,393.215 L176.607,393.024 L177.313,392.831 L178.018,392.637 L178.724,392.441 L179.43,392.244 L180.135,392.045 L180.841,391.844 L181.547,391.641 L182.253,391.437 L182.958,391.231 L183.664,391.023 L184.37,390.813 L185.076,390.602 L185.781,390.389 L186.487,390.174 L187.193,389.957 L187.898,389.738 L188.604,389.518 L189.31,389.295 L190.016,389.071 L190.721,388.845 L191.427,388.617 L192.133,388.387 L192.838,388.155 L193.544,387.921 L194.25,387.685 L194.956,387.447 L195.661,387.207 L196.367,386.965 L197.073,386.721 L197.778,386.475 L198.484,386.226 L199.19,385.976 L199.896,385.724 L200.601,385.469 L201.307,385.212 L202.013,384.953 L202.718,384.692 L203.424,384.428 L204.13,384.163 L204.836,383.895 L205.541,383.625 L206.247,383.352 L206.953,383.077 L207.659,382.8 L208.364,382.521 L209.07,382.239 L209.776,381.954 L210.481,381.668 L211.187,381.379 L211.893,381.087 L212.599,380.793 L213.304,380.496 L214.01,380.197 L214.716,379.895 L215.421,379.591 L216.127,379.284 L216.833,378.975 L217.539,378.663 L218.244,378.348 L218.95,378.031 L219.656,377.711 L220.361,377.388 L221.067,377.062 L221.773,376.734 L222.479,376.403 L223.184,376.069 L223.89,375.732 L224.596,375.393 L225.301,375.05 L226.007,374.705 L226.713,374.356 L227.419,374.005 L228.124,373.651 L228.83,373.294 L229.536,372.933 L230.242,372.57 L230.947,372.203 L231.653,371.834 L232.359,371.461 L233.064,371.085 L233.77,370.706 L234.476,370.323 L235.182,369.938 L235.887,369.549 L236.593,369.157 L237.299,368.761 L238.004,368.362 L238.71,367.96 L239.416,367.554 L240.122,367.145 L240.827,366.732 L241.533,366.316 L242.239,365.896 L242.944,365.473 L243.65,365.046 L244.356,364.616 L245.062,364.182 L245.767,363.744 L246.473,363.302 L247.179,362.857 L247.884,362.408 L248.59,361.955 L249.296,361.498 L250.002,361.037 L250.707,360.573 L251.413,360.104 L252.119,359.631 L252.825,359.155 L253.53,358.674 L254.236,358.19 L254.942,357.701 L255.647,357.208 L256.353,356.711 L257.059,356.209 L257.765,355.704 L258.47,355.194 L259.176,354.679 L259.882,354.161 L260.587,353.638 L261.293,353.11 L261.999,352.578 L262.705,352.042 L263.41,351.5 L264.116,350.955 L264.822,350.404 L265.527,349.849 L266.233,349.29 L266.939,348.725 L267.645,348.156 L268.35,347.582 L269.056,347.003 L269.762,346.419 L270.467,345.83 L271.173,345.236 L271.879,344.637 L272.585,344.033 L273.29,343.423 L273.996,342.809 L274.702,342.189 L275.408,341.565 L276.113,340.934 L276.819,340.299 L277.525,339.658 L278.23,339.011 L278.936,338.359 L279.642,337.702 L280.348,337.039 L281.053,336.37 L281.759,335.696 L282.465,335.016 L283.17,334.33 L283.876,333.638 L284.582,332.94 L285.288,332.237 L285.987,331.534 L286.68,330.831 L287.367,330.129 L288.047,329.428 L288.721,328.728 L289.395,328.022 L290.062,327.317 L290.724,326.613 L291.378,325.911 L292.027,325.209 L292.675,324.503 L293.318,323.798 L293.953,323.094 L294.583,322.392 L295.206,321.692 L295.829,320.987 L296.446,320.284 L297.056,319.582 L297.666,318.876 L298.27,318.172 L298.868,317.47 L299.466,316.764 L300.057,316.059 L300.642,315.358 L301.227,314.651 L301.805,313.947 L302.377,313.247 L302.95,312.541 L303.516,311.838 L304.081,311.131 L304.641,310.427 L305.194,309.726 L305.747,309.02 L306.294,308.318 L306.841,307.612 L307.381,306.908 L307.921,306.201 L308.456,305.497 L308.99,304.789 L309.517,304.084 L310.039,303.384 L310.56,302.68 L311.075,301.979 L311.59,301.274 L312.099,300.574 L312.607,299.869 L313.109,299.169 L313.612,298.465 L314.114,297.757 L314.61,297.053 L315.106,296.345 L315.595,295.642 L316.085,294.935 L316.568,294.233 L317.051,293.526 L317.528,292.826 L318.005,292.121 L318.482,291.412 L318.952,290.708 L319.423,290.001 L319.887,289.299 L320.351,288.593 L320.815,287.883 L321.273,287.179 L321.731,286.472 L322.182,285.77 L322.633,285.064 L323.085,284.355 L323.53,283.652 L323.975,282.945 L324.414,282.245 L324.852,281.54 L325.291,280.832 L325.723,280.131 L326.156,279.426 L326.588,278.717 L327.014,278.016 L327.44,277.31 L327.866,276.601 L328.286,275.899 L328.705,275.193 L329.125,274.484 L329.538,273.782 L329.951,273.077 L330.365,272.368 L330.772,271.667 L331.178,270.962 L331.585,270.254 L331.986,269.553 L332.386,268.849 L332.787,268.142 L333.187,267.431 L333.582,266.728 L333.976,266.022 L334.37,265.312 L334.758,264.611 L335.146,263.906 L335.534,263.198 L335.921,262.487 L336.303,261.784 L336.684,261.078 L337.066,260.369 L337.441,259.668 L337.816,258.965 L338.191,258.258 L338.566,257.548 L338.935,256.846 L339.304,256.142 L339.672,255.434 L340.041,254.724 L340.404,254.022 L340.766,253.318 L341.128,252.61 L341.491,251.9 L341.847,251.199 L342.203,250.494 L342.559,249.787 L342.915,249.077 L343.265,248.376 L343.614,247.673 L343.964,246.967 L344.314,246.257 L344.663,245.545 L345.007,244.843 L345.35,244.137 L345.693,243.429 L346.037,242.718 L346.374,242.017 L346.711,241.314 L347.048,240.607 L347.385,239.898 L347.721,239.186 L348.052,238.484 L348.383,237.78 L348.713,237.073 L349.044,236.363 L349.375,235.65 L349.699,234.948 L350.023,234.244 L350.347,233.537 L350.672,232.827 L350.996,232.114 L351.314,231.412 L351.632,230.708 L351.949,230.001 L352.267,229.291 L352.585,228.579 L352.897,227.878 L353.208,227.175 L353.52,226.469 L353.831,225.76 L354.143,225.049 L354.454,224.335 L354.76,223.633 L355.065,222.929 L355.37,222.222 L355.675,221.512 L355.98,220.8 L356.279,220.1 L356.578,219.397 L356.877,218.692 L357.176,217.984 L357.474,217.274 L357.773,216.562 L358.072,215.846 L358.364,215.144 L358.657,214.439 L358.949,213.731 L359.242,213.021 L359.534,212.309 L359.827,211.594 L360.113,210.892 L360.399,210.188 L360.685,209.481 L360.971,208.772 L361.257,208.061 L361.543,207.347 L361.823,206.646 L362.103,205.943 L362.383,205.238 L362.662,204.531 L362.942,203.821 L363.222,203.108 L363.502,202.394 L363.775,201.693 L364.048,200.99 L364.322,200.284 L364.595,199.576 L364.869,198.866 L365.142,198.154 L365.415,197.439 L365.682,196.739 L365.949,196.036 L366.216,195.331 L366.483,194.624 L366.75,193.915 L367.017,193.203 L367.285,192.489 L367.552,191.773 L367.812,191.071 L368.073,190.368 L368.334,189.662 L368.594,188.954 L368.855,188.243 L369.116,187.531 L369.376,186.816 L369.637,186.099 L369.891,185.397 L370.146,184.694 L370.4,183.988 L370.654,183.28 L370.908,182.569 L371.163,181.857 L371.417,181.142 L371.671,180.425 L371.919,179.725 L372.167,179.021 L372.415,178.316 L372.663,177.609 L372.911,176.9 L373.159,176.188 L373.407,175.474 L373.655,174.759 L373.903,174.041 L374.145,173.339 L374.386,172.636 L374.628,171.93 L374.869,171.222 L375.111,170.513 L375.353,169.801 L375.594,169.087 L375.836,168.371 L376.077,167.653 L376.313,166.952 L376.548,166.249 L376.783,165.544 L377.018,164.837 L377.254,164.128 L377.489,163.417 L377.724,162.704 L377.959,161.989 L378.195,161.271 L378.43,160.552 L378.659,159.851 L378.888,159.147 L379.116,158.442 L379.345,157.734 L379.574,157.025 L379.803,156.313 L380.032,155.6 L380.261,154.885 L380.49,154.168 L380.719,153.448 L380.941,152.747 L381.164,152.044 L381.386,151.339 L381.609,150.633 L381.831,149.924 L382.054,149.213 L382.276,148.501 L382.499,147.786 L382.721,147.07 L382.944,146.352 L383.166,145.632 L383.383,144.931 L383.599,144.227 L383.815,143.522 L384.031,142.815 L384.247,142.107 L384.463,141.396 L384.68,140.684 L384.896,139.97 L385.112,139.254 L385.328,138.536 L385.544,137.816 L385.754,137.115 L385.964,136.413 L386.174,135.709 L386.383,135.003 L386.593,134.296 L386.803,133.587 L387.013,132.876 L387.223,132.163 L387.432,131.448 L387.642,130.732 L387.852,130.013 L388.062,129.293 L388.265,128.593 L388.469,127.891 L388.672,127.188 L388.876,126.483 L389.079,125.776 L389.283,125.067 L389.486,124.357 L389.69,123.645 L389.893,122.931 L390.096,122.216 L390.3,121.498 L390.503,120.779 L390.707,120.058 L390.91,119.336 L391.107,118.634 L391.304,117.931 L391.501,117.226 L391.699,116.519 L391.896,115.811 L392.093,115.101 L392.29,114.389 L392.487,113.676 L392.684,112.96 L392.881,112.244 L393.078,111.525 L393.275,110.805 L393.472,110.083 L393.663,109.383 L393.854,108.681 L394.045,107.978 L394.235,107.273 L394.426,106.566 L394.617,105.858 L394.808,105.148 L394.998,104.436 L395.189,103.723 L395.38,103.008 L395.57,102.292 L395.761,101.574 L395.952,100.854 L396.143,100.133 L396.333,99.41 L396.518,98.709 L396.702,98.007 L396.887,97.303 L397.071,96.598 L397.255,95.892 L397.44,95.183 L397.624,94.473 L397.808,93.762 L397.993,93.049 L398.177,92.334 L398.362,91.618 L398.546,90.9 L398.73,90.181 L398.915,89.46 L399.099,88.738 L399.283,88.013 L399.461,87.313 L399.639,86.611 L399.818,85.907 L399.996,85.202 L400.174,84.495 L400.352,83.787 L400.53,83.077 L400.708,82.366 L400.886,81.653 L401.064,80.939 L401.242,80.223 L401.42,79.506 L401.598,78.787 L401.776,78.066 L401.954,77.344 L402.132,76.621 L402.31,75.896 L402.481,75.195 L402.653,74.493 L402.825,73.789 L402.996,73.085 L403.168,72.378 L403.34,71.67 L403.511,70.961 L403.683,70.25 L403.855,69.538 L404.026,68.824 L404.198,68.109 L404.37,67.392 L404.541,66.674 L404.713,65.954 L404.885,65.233 L405.056,64.511 L405.228,63.786 L405.4,63.061 L405.565,62.361 L405.73,61.659 L405.896,60.956 L406.061,60.252 L406.226,59.546 L406.392,58.839 L406.557,58.131 L406.722,57.421 L406.887,56.709 L407.053,55.997 L407.218,55.282 L407.383,54.567 L407.549,53.85 L407.714,53.131 L407.879,52.412 L408.045,51.69 L408.21,50.968 L408.375,50.243 L408.54,49.518 L408.706,48.791 L408.865,48.09 L409.024,47.389 L409.183,46.686 L409.342,45.981 L409.5,45.275 L409.659,44.568 L409.818,43.86 L409.977,43.15 L410.136,42.439 L410.295,41.726 L410.454,41.012 L410.613,40.297 L410.772,39.58 L410.931,38.862 L411.09,38.143 L411.249,37.422 L411.408,36.7 L411.567,35.976 L411.726,35.252 L411.885,34.525 L412.044,33.798 L412.203,33.069 L412.355,32.367 L412.508,31.665 L412.66,30.961 L412.813,30.256 L412.966,29.55 L413.118,28.842 L413.271,28.133 L413.423,27.423 L413.576,26.711 L413.728,25.998 L413.881,25.284 L414.034,24.569 L414.186,23.852 L414.339,23.134 L414.491,22.415 L414.644,21.694 L414.797,20.972 L414.949,20.248 L415.102,19.524 L415.254,18.798 L415.407,18.07 L415.56,17.342 L415.712,16.612 L415.858,15.911 L416.005,15.209 L416.151,14.505 L416.297,13.801 L416.443,13.095 L416.589,12.388 L416.736,11.68 L416.882,10.97 L417.028,10.259 L417.174,9.547 L417.321,8.834 L417.467,8.12 L417.613,7.404 L417.759,6.687 L417.906,5.968 L418.052,5.249 L418.198,4.528 L418.344,3.806 L418.49,3.083 L418.637,2.358 L418.783,1.632 L418.929,0.905 L419.075,0.177 L419.222,-0.553 L419.368,-1.284 L419.508,-1.985 L419.648,-2.686 L419.667,-2.782" fill-opacity="0" stroke="#CCCCCC" stroke-width="3" stroke-linecap="round" stroke-linejoin="round" id="box_jxgBoard1G25"/>
    <g>
      <text transform="matrix(1, 0, 0, 1, 224.174, 428.367)" id="box_jxgBoard1L4_ticks_15Label1">
        <tspan x="-8.841" y="3.5" font-family="ArialMT" font-size="12" fill="#000000">0.5</tspan>
      </text>
      <text transform="matrix(1, 0, 0, 1, 260.837, 428.367)" id="box_jxgBoard1L4_ticks_110Label2">
        <tspan x="-3.837" y="3.5" font-family="ArialMT" font-size="12" fill="#000000">1</tspan>
      </text>
      <text transform="matrix(1, 0, 0, 1, 307.507, 428.367)" id="box_jxgBoard1L4_ticks_115Label3">
        <tspan x="-8.841" y="3.5" font-family="ArialMT" font-size="12" fill="#000000">1.5</tspan>
      </text>
      <text transform="matrix(1, 0, 0, 1, 344.17, 428.367)" id="box_jxgBoard1L4_ticks_120Label4">
        <tspan x="-3.837" y="3.5" font-family="ArialMT" font-size="12" fill="#000000">2</tspan>
      </text>
      <text transform="matrix(1, 0, 0, 1, 390.841, 428.367)" id="box_jxgBoard1L4_ticks_125Label5">
        <tspan x="-8.841" y="3.5" font-family="ArialMT" font-size="12" fill="#000000">2.5</tspan>
      </text>
      <text transform="matrix(1, 0, 0, 1, 427.504, 428.367)" id="box_jxgBoard1L4_ticks_130Label6">
        <tspan x="-3.837" y="3.5" font-family="ArialMT" font-size="12" fill="#000000">3</tspan>
      </text>
      <text transform="matrix(1, 0, 0, 1, 474.174, 428.367)" id="box_jxgBoard1L4_ticks_135Label7">
        <tspan x="-8.841" y="3.5" font-family="ArialMT" font-size="12" fill="#000000">3.5</tspan>
      </text>
      <text transform="matrix(1, 0, 0, 1, 144.345, 428.367)" id="box_jxgBoard1L4_ticks_144Label8">
        <tspan x="-12.345" y="3.5" font-family="ArialMT" font-size="12" fill="#000000">−0.5</tspan>
      </text>
      <text transform="matrix(1, 0, 0, 1, 97.674, 428.367)" id="box_jxgBoard1L4_ticks_149Label9">
        <tspan x="-7.341" y="3.5" font-family="ArialMT" font-size="12" fill="#000000">−1</tspan>
      </text>
      <text transform="matrix(1, 0, 0, 1, 61.011, 428.367)" id="box_jxgBoard1L4_ticks_154Label10">
        <tspan x="-12.345" y="3.5" font-family="ArialMT" font-size="12" fill="#000000">−1.5</tspan>
      </text>
      <text transform="matrix(1, 0, 0, 1, 177.504, 324.2)" id="box_jxgBoard1L19_ticks_15Label1">
        <tspan x="-3.837" y="3.5" font-family="ArialMT" font-size="12" fill="#000000">5</tspan>
      </text>
      <text transform="matrix(1, 0, 0, 1, 180.84, 220.033)" id="box_jxgBoard1L19_ticks_110Label2">
        <tspan x="-7.174" y="3.5" font-family="ArialMT" font-size="12" fill="#000000">10</tspan>
      </text>
      <text transform="matrix(1, 0, 0, 1, 180.84, 115.867)" id="box_jxgBoard1L19_ticks_115Label3">
        <tspan x="-7.174" y="3.5" font-family="ArialMT" font-size="12" fill="#000000">15</tspan>
      </text>
    </g>
  </g>
  <g id="text">
    <text transform="matrix(1, 0, 0, 1, 380, 299.279)">
      <tspan x="-20.021" y="16.5" font-family="Arial-BoldMT" font-size="72" fill="#000000">e</tspan>
    </text>
    <text transform="matrix(1, 0, 0, 1, 413, 287.221)">
      <tspan x="-13.348" y="-5.5" font-family="Arial-BoldMT" font-size="48" fill="#000000">x</tspan>
    </text>
  </g>
  <g id="mask">
    <g>
      <path d="M58.047,11.442 L440.395,11.442 C466.134,11.442 487,32.308 487,58.047 L487,440.395 C487,466.134 466.134,487 440.395,487 L58.047,487 C32.308,487 11.442,466.134 11.442,440.395 L11.442,58.047 C11.442,32.308 32.308,11.442 58.047,11.442 z" fill="#0A0A0A" fill-opacity="0.223"/>
      <path d="M58.047,11.442 L440.395,11.442 C466.134,11.442 487,32.308 487,58.047 L487,440.395 C487,466.134 466.134,487 440.395,487 L58.047,487 C32.308,487 11.442,466.134 11.442,440.395 L11.442,58.047 C11.442,32.308 32.308,11.442 58.047,11.442 z" fill-opacity="0" stroke="#CBCBCB" stroke-width="10"/>
    </g>
  </g>
</svg>
