<?xml version="1.0" encoding="UTF-8"?>
<!DOCTYPE svg PUBLIC "-//W3C//DTD SVG 1.1//EN" "http://www.w3.org/Graphics/SVG/1.1/DTD/svg11.dtd">
<svg version="1.1" xmlns="http://www.w3.org/2000/svg" xmlns:xlink="http://www.w3.org/1999/xlink" x="0" y="0" width="500" height="500" viewBox="0, 0, 500, 500">
  <g id="Layer_3">
    <g>
      <path d="M59.326,12.721 L441.674,12.721 C467.413,12.721 488.279,33.587 488.279,59.326 L488.279,441.674 C488.279,467.413 467.413,488.279 441.674,488.279 L59.326,488.279 C33.587,488.279 12.721,467.413 12.721,441.674 L12.721,59.326 C12.721,33.587 33.587,12.721 59.326,12.721 z" fill="#FFF4B8"/>
      <path d="M59.326,12.721 L441.674,12.721 C467.413,12.721 488.279,33.587 488.279,59.326 L488.279,441.674 C488.279,467.413 467.413,488.279 441.674,488.279 L59.326,488.279 C33.587,488.279 12.721,467.413 12.721,441.674 L12.721,59.326 C12.721,33.587 33.587,12.721 59.326,12.721 z" fill-opacity="0" stroke="#B8B8B8" stroke-width="16"/>
    </g>
  </g>
  <g id="Boxes">
    <g>
      <path d="M333.405,245.083 L332.534,290.346 L302.245,289.763 L303.116,244.5 L333.405,245.083 z" fill="#FFFFFF"/>
      <path d="M333.405,245.083 L332.534,290.346 L302.245,289.763 L303.116,244.5 L333.405,245.083 z" fill-opacity="0" stroke="#7C4DFF" stroke-width="6"/>
    </g>
    <g>
      <path d="M398,326 C392.477,326 388,321.523 388,316 C388,310.477 392.477,306 398,306 C403.523,306 408,310.477 408,316 C408,321.523 403.523,326 398,326 z" fill="#D051FF"/>
      <path d="M398,326 C392.477,326 388,321.523 388,316 C388,310.477 392.477,306 398,306 C403.523,306 408,310.477 408,316 C408,321.523 403.523,326 398,326 z" fill-opacity="0" stroke="#570D4B" stroke-width="1"/>
    </g>
    <g>
      <path d="M317.825,272.423 C315.063,272.423 312.825,270.184 312.825,267.423 C312.825,264.662 315.063,262.423 317.825,262.423 C320.586,262.423 322.825,264.662 322.825,267.423 C322.825,270.184 320.586,272.423 317.825,272.423 z" fill="#D051FF"/>
      <path d="M317.825,272.423 C315.063,272.423 312.825,270.184 312.825,267.423 C312.825,264.662 315.063,262.423 317.825,262.423 C320.586,262.423 322.825,264.662 322.825,267.423 C322.825,270.184 320.586,272.423 317.825,272.423 z" fill-opacity="0" stroke="#570D4B" stroke-width="1"/>
    </g>
    <g>
      <path d="M369.5,175.5 C360.663,175.5 353.5,168.337 353.5,159.5 C353.5,150.663 360.663,143.5 369.5,143.5 C378.337,143.5 385.5,150.663 385.5,159.5 C385.5,168.337 378.337,175.5 369.5,175.5 z" fill="#D051FF"/>
      <path d="M369.5,175.5 C360.663,175.5 353.5,168.337 353.5,159.5 C353.5,150.663 360.663,143.5 369.5,143.5 C378.337,143.5 385.5,150.663 385.5,159.5 C385.5,168.337 378.337,175.5 369.5,175.5 z" fill-opacity="0" stroke="#570D4B" stroke-width="1"/>
    </g>
    <path d="M31.5,351.5 C31.5,279.718 60.084,210.891 110.935,160.228 C161.786,109.565 230.719,81.236 302.5,81.502" fill-opacity="0" stroke="#F37B00" stroke-width="4"/>
    <path d="M302.5,81.502 C392.521,81.502 465.498,154.479 465.498,244.5" fill-opacity="0" stroke="#F37B00" stroke-width="4"/>
    <path d="M465.498,244.5 C465.498,302.489 418.489,349.498 360.5,349.498" fill-opacity="0" stroke="#F37B00" stroke-width="4"/>
    <path d="M360.5,349.498 C344.723,349.498 329.604,343.179 318.519,331.953 C307.434,320.727 301.307,305.529 301.507,289.754" fill-opacity="0" stroke="#F37B00" stroke-width="4"/>
    <path d="M31.5,81.5 L301.5,81.5 L301.5,351.5 L31.5,351.5 L31.5,81.5 z" fill-opacity="0" stroke="#7C4DFF" stroke-width="6"/>
    <path d="M302.5,81.5 L465.5,81.5 L465.5,244.5 L302.5,244.5 L302.5,81.5 z" fill-opacity="0" stroke="#7C4DFF" stroke-width="6"/>
    <path d="M360.5,244.5 L465.5,244.5 L465.5,351.5 L360.5,351.5 L360.5,244.5 z" fill-opacity="0" stroke="#7C4DFF" stroke-width="6"/>
    <path d="M301.5,290.5 L360.5,290.5 L360.5,351.5 L301.5,351.5 L301.5,290.5 z" fill-opacity="0" stroke="#7C4DFF" stroke-width="6"/>
    <g>
      <path d="M361.405,245.237 L360.622,290.5 L333.405,289.917 L334.187,244.654 L361.405,245.237 z" fill="#FFFFFF"/>
      <path d="M361.405,245.237 L360.622,290.5 L333.405,289.917 L334.187,244.654 L361.405,245.237 z" fill-opacity="0" stroke="#7C4DFF" stroke-width="6"/>
    </g>
  </g>
  <g id="Layer_1">
    <path d="M43.5,235.5 L43.5,235.5" fill-opacity="0" stroke="#383838" stroke-width="1" stroke-linecap="round" stroke-linejoin="round"/>
    <text transform="matrix(1, 0, 0, 1, 250, 445)">
      <tspan x="-101.379" y="-12" font-family="Arial-BoldMT" font-size="48" fill="#000000">Base Phi</tspan>
    </text>
  </g>
</svg>
