<?xml version="1.0" encoding="UTF-8"?>
<!DOCTYPE svg PUBLIC "-//W3C//DTD SVG 1.1//EN" "http://www.w3.org/Graphics/SVG/1.1/DTD/svg11.dtd">
<svg version="1.1" xmlns="http://www.w3.org/2000/svg" xmlns:xlink="http://www.w3.org/1999/xlink" x="0" y="0" width="500" height="500" viewBox="0, 0, 500, 500">
  <g id="outline_box">
    <g>
      <path d="M58.826,12.221 L441.174,12.221 C466.913,12.221 487.779,33.087 487.779,58.826 L487.779,441.174 C487.779,466.913 466.913,487.779 441.174,487.779 L58.826,487.779 C33.087,487.779 12.221,466.913 12.221,441.174 L12.221,58.826 C12.221,33.087 33.087,12.221 58.826,12.221 z" fill="#FFFFFF"/>
      <path d="M58.826,12.221 L441.174,12.221 C466.913,12.221 487.779,33.087 487.779,58.826 L487.779,441.174 C487.779,466.913 466.913,487.779 441.174,487.779 L58.826,487.779 C33.087,487.779 12.221,466.913 12.221,441.174 L12.221,58.826 C12.221,33.087 33.087,12.221 58.826,12.221 z" fill-opacity="0" stroke="#CBCBCB" stroke-width="10"/>
    </g>
  </g>
  <g id="svg">
    <g>
      <g id="box_jxgBoard1P2" display="none">
        <path d="M91,327 C91,329.209 89.209,331 87,331 C84.791,331 83,329.209 83,327 C83,324.791 84.791,323 87,323 C89.209,323 91,324.791 91,327 z" fill="#FF0000"/>
        <path d="M91,327 C91,329.209 89.209,331 87,331 C84.791,331 83,329.209 83,327 C83,324.791 84.791,323 87,323 C89.209,323 91,324.791 91,327 z" fill-opacity="0" stroke="#0000FF" stroke-width="2"/>
      </g>
      <g id="box_jxgBoard1P3" display="none">
        <path d="M133,327 C133,329.209 131.209,331 129,331 C126.791,331 125,329.209 125,327 C125,324.791 126.791,323 129,323 C131.209,323 133,324.791 133,327 z" fill="#FF0000"/>
        <path d="M133,327 C133,329.209 131.209,331 129,331 C126.791,331 125,329.209 125,327 C125,324.791 126.791,323 129,323 C131.209,323 133,324.791 133,327 z" fill-opacity="0" stroke="#0000FF" stroke-width="2"/>
      </g>
      <g id="box_jxgBoard1P17" display="none">
        <path d="M91,327 C91,329.209 89.209,331 87,331 C84.791,331 83,329.209 83,327 C83,324.791 84.791,323 87,323 C89.209,323 91,324.791 91,327 z" fill="#FF0000"/>
        <path d="M91,327 C91,329.209 89.209,331 87,331 C84.791,331 83,329.209 83,327 C83,324.791 84.791,323 87,323 C89.209,323 91,324.791 91,327 z" fill-opacity="0" stroke="#0000FF" stroke-width="2"/>
      </g>
      <g id="box_jxgBoard1P18" display="none">
        <path d="M91,286 C91,288.209 89.209,290 87,290 C84.791,290 83,288.209 83,286 C83,283.791 84.791,282 87,282 C89.209,282 91,283.791 91,286 z" fill="#FF0000"/>
        <path d="M91,286 C91,288.209 89.209,290 87,290 C84.791,290 83,288.209 83,286 C83,283.791 84.791,282 87,282 C89.209,282 91,283.791 91,286 z" fill-opacity="0" stroke="#0000FF" stroke-width="2"/>
      </g>
      <g id="box_jxgBoard1P34" display="none">
        <path d="M91,327 C91,329.209 89.209,331 87,331 C84.791,331 83,329.209 83,327 C83,324.791 84.791,323 87,323 C89.209,323 91,324.791 91,327 z" fill="#FF0000"/>
        <path d="M91,327 C91,329.209 89.209,331 87,331 C84.791,331 83,329.209 83,327 C83,324.791 84.791,323 87,323 C89.209,323 91,324.791 91,327 z" fill-opacity="0" stroke="#0000FF" stroke-width="2"/>
      </g>
      <g id="box_jxgBoard1P35" display="none">
        <path d="M133,327 C133,329.209 131.209,331 129,331 C126.791,331 125,329.209 125,327 C125,324.791 126.791,323 129,323 C131.209,323 133,324.791 133,327 z" fill="#FF0000"/>
        <path d="M133,327 C133,329.209 131.209,331 129,331 C126.791,331 125,329.209 125,327 C125,324.791 126.791,323 129,323 C131.209,323 133,324.791 133,327 z" fill-opacity="0" stroke="#0000FF" stroke-width="2"/>
      </g>
      <g id="box_jxgBoard1P41" display="none">
        <path d="M91,327 C91,329.209 89.209,331 87,331 C84.791,331 83,329.209 83,327 C83,324.791 84.791,323 87,323 C89.209,323 91,324.791 91,327 z" fill="#FF0000"/>
        <path d="M91,327 C91,329.209 89.209,331 87,331 C84.791,331 83,329.209 83,327 C83,324.791 84.791,323 87,323 C89.209,323 91,324.791 91,327 z" fill-opacity="0" stroke="#0000FF" stroke-width="2"/>
      </g>
      <g id="box_jxgBoard1P42" display="none">
        <path d="M91,327 C91,329.209 89.209,331 87,331 C84.791,331 83,329.209 83,327 C83,324.791 84.791,323 87,323 C89.209,323 91,324.791 91,327 z" fill="#FF0000"/>
        <path d="M91,327 C91,329.209 89.209,331 87,331 C84.791,331 83,329.209 83,327 C83,324.791 84.791,323 87,323 C89.209,323 91,324.791 91,327 z" fill-opacity="0" stroke="#0000FF" stroke-width="2"/>
      </g>
      <g id="box_jxgBoard1P46" display="none">
        <path d="M91,327 C91,329.209 89.209,331 87,331 C84.791,331 83,329.209 83,327 C83,324.791 84.791,323 87,323 C89.209,323 91,324.791 91,327 z" fill="#FF0000"/>
        <path d="M91,327 C91,329.209 89.209,331 87,331 C84.791,331 83,329.209 83,327 C83,324.791 84.791,323 87,323 C89.209,323 91,324.791 91,327 z" fill-opacity="0" stroke="#0000FF" stroke-width="2"/>
      </g>
      <g id="box_jxgBoard1P47" display="none">
        <path d="M91,327 C91,329.209 89.209,331 87,331 C84.791,331 83,329.209 83,327 C83,324.791 84.791,323 87,323 C89.209,323 91,324.791 91,327 z" fill="#FF0000"/>
        <path d="M91,327 C91,329.209 89.209,331 87,331 C84.791,331 83,329.209 83,327 C83,324.791 84.791,323 87,323 C89.209,323 91,324.791 91,327 z" fill-opacity="0" stroke="#0000FF" stroke-width="2"/>
      </g>
      <g id="box_jxgBoard1P51" display="none">
        <path d="M91,327 C91,329.209 89.209,331 87,331 C84.791,331 83,329.209 83,327 C83,324.791 84.791,323 87,323 C89.209,323 91,324.791 91,327 z" fill="#FF0000"/>
        <path d="M91,327 C91,329.209 89.209,331 87,331 C84.791,331 83,329.209 83,327 C83,324.791 84.791,323 87,323 C89.209,323 91,324.791 91,327 z" fill-opacity="0" stroke="#0000FF" stroke-width="2"/>
      </g>
      <g id="box_jxgBoard1P52" display="none">
        <path d="M91,327 C91,329.209 89.209,331 87,331 C84.791,331 83,329.209 83,327 C83,324.791 84.791,323 87,323 C89.209,323 91,324.791 91,327 z" fill="#FF0000"/>
        <path d="M91,327 C91,329.209 89.209,331 87,331 C84.791,331 83,329.209 83,327 C83,324.791 84.791,323 87,323 C89.209,323 91,324.791 91,327 z" fill-opacity="0" stroke="#0000FF" stroke-width="2"/>
      </g>
    </g>
    <g>
      <g>
        <path d="M8,327.333 L492,327.333" fill-opacity="0" stroke="#666666" stroke-width="1" id="box_jxgBoard1L4"/>
        <path d="M488,323.333 L496,327.333 L488,331.333 z" fill="#666666"/>
      </g>
      <g id="box_jxgBoard1L4_ticks_1">
        <path d="M96,327 L96,332 M104,327 L104,332 M112,327 L112,332 M121,327 L121,332 M129,327 L129,347 M137,327 L137,332 M146,327 L146,332 M154,327 L154,332 M162,327 L162,332 M171,327 L171,347 M179,327 L179,332 M187,327 L187,332 M196,327 L196,332 M204,327 L204,332 M212,327 L212,347 M221,327 L221,332 M229,327 L229,332 M237,327 L237,332 M246,327 L246,332 M254,327 L254,347 M262,327 L262,332 M271,327 L271,332 M279,327 L279,332 M287,327 L287,332 M296,327 L296,347 M304,327 L304,332 M312,327 L312,332 M321,327 L321,332 M329,327 L329,332 M337,327 L337,347 M346,327 L346,332 M354,327 L354,332 M362,327 L362,332 M371,327 L371,332 M379,327 L379,347 M387,327 L387,332 M396,327 L396,332 M404,327 L404,332 M412,327 L412,332 M421,327 L421,347 M429,327 L429,332 M437,327 L437,332 M446,327 L446,332 M454,327 L454,332 M462,327 L462,347 M471,327 L471,332 M479,327 L479,332 M487,327 L487,332 M496,327 L496,332 M79,327 L79,332 M71,327 L71,332 M62,327 L62,332 M54,327 L54,332 M46,327 L46,347 M37,327 L37,332 M29,327 L29,332 M21,327 L21,332 M12,327 L12,332 M4,327 L4,347" fill="#000000"/>
        <path d="M96,327 L96,332 M104,327 L104,332 M112,327 L112,332 M121,327 L121,332 M129,327 L129,347 M137,327 L137,332 M146,327 L146,332 M154,327 L154,332 M162,327 L162,332 M171,327 L171,347 M179,327 L179,332 M187,327 L187,332 M196,327 L196,332 M204,327 L204,332 M212,327 L212,347 M221,327 L221,332 M229,327 L229,332 M237,327 L237,332 M246,327 L246,332 M254,327 L254,347 M262,327 L262,332 M271,327 L271,332 M279,327 L279,332 M287,327 L287,332 M296,327 L296,347 M304,327 L304,332 M312,327 L312,332 M321,327 L321,332 M329,327 L329,332 M337,327 L337,347 M346,327 L346,332 M354,327 L354,332 M362,327 L362,332 M371,327 L371,332 M379,327 L379,347 M387,327 L387,332 M396,327 L396,332 M404,327 L404,332 M412,327 L412,332 M421,327 L421,347 M429,327 L429,332 M437,327 L437,332 M446,327 L446,332 M454,327 L454,332 M462,327 L462,347 M471,327 L471,332 M479,327 L479,332 M487,327 L487,332 M496,327 L496,332 M79,327 L79,332 M71,327 L71,332 M62,327 L62,332 M54,327 L54,332 M46,327 L46,347 M37,327 L37,332 M29,327 L29,332 M21,327 L21,332 M12,327 L12,332 M4,327 L4,347" fill-opacity="0" stroke="#666666" stroke-width="1" stroke-opacity="0.25" stroke-linecap="round" stroke-linejoin="round"/>
      </g>
      <g>
        <path d="M87.333,490 L87.333,6" fill-opacity="0" stroke="#666666" stroke-width="1" id="box_jxgBoard1L19"/>
        <path d="M83.333,10 L87.333,2 L91.333,10 z" fill="#666666"/>
      </g>
      <g id="box_jxgBoard1L19_ticks_1">
        <path d="M87,319 L92,319 M87,311 L92,311 M87,302 L92,302 M87,294 L92,294 M87,286 L107,286 M87,277 L92,277 M87,269 L92,269 M87,261 L92,261 M87,252 L92,252 M87,244 L107,244 M87,236 L92,236 M87,227 L92,227 M87,219 L92,219 M87,211 L92,211 M87,202 L107,202 M87,194 L92,194 M87,186 L92,186 M87,177 L92,177 M87,169 L92,169 M87,161 L107,161 M87,152 L92,152 M87,144 L92,144 M87,136 L92,136 M87,127 L92,127 M87,119 L107,119 M87,111 L92,111 M87,102 L92,102 M87,94 L92,94 M87,86 L92,86 M87,77 L107,77 M87,69 L92,69 M87,61 L92,61 M87,52 L92,52 M87,44 L92,44 M87,36 L107,36 M87,27 L92,27 M87,19 L92,19 M87,11 L92,11 M87,2 L92,2 M87,336 L92,336 M87,344 L92,344 M87,352 L92,352 M87,361 L92,361 M87,369 L107,369 M87,377 L92,377 M87,386 L92,386 M87,394 L92,394 M87,402 L92,402 M87,411 L107,411 M87,419 L92,419 M87,427 L92,427 M87,436 L92,436 M87,444 L92,444 M87,452 L107,452 M87,461 L92,461 M87,469 L92,469 M87,477 L92,477 M87,486 L92,486 M87,494 L107,494" fill="#000000"/>
        <path d="M87,319 L92,319 M87,311 L92,311 M87,302 L92,302 M87,294 L92,294 M87,286 L107,286 M87,277 L92,277 M87,269 L92,269 M87,261 L92,261 M87,252 L92,252 M87,244 L107,244 M87,236 L92,236 M87,227 L92,227 M87,219 L92,219 M87,211 L92,211 M87,202 L107,202 M87,194 L92,194 M87,186 L92,186 M87,177 L92,177 M87,169 L92,169 M87,161 L107,161 M87,152 L92,152 M87,144 L92,144 M87,136 L92,136 M87,127 L92,127 M87,119 L107,119 M87,111 L92,111 M87,102 L92,102 M87,94 L92,94 M87,86 L92,86 M87,77 L107,77 M87,69 L92,69 M87,61 L92,61 M87,52 L92,52 M87,44 L92,44 M87,36 L107,36 M87,27 L92,27 M87,19 L92,19 M87,11 L92,11 M87,2 L92,2 M87,336 L92,336 M87,344 L92,344 M87,352 L92,352 M87,361 L92,361 M87,369 L107,369 M87,377 L92,377 M87,386 L92,386 M87,394 L92,394 M87,402 L92,402 M87,411 L107,411 M87,419 L92,419 M87,427 L92,427 M87,436 L92,436 M87,444 L92,444 M87,452 L107,452 M87,461 L92,461 M87,469 L92,469 M87,477 L92,477 M87,486 L92,486 M87,494 L107,494" fill-opacity="0" stroke="#666666" stroke-width="1" stroke-opacity="0.25" stroke-linecap="round" stroke-linejoin="round"/>
      </g>
    </g>
    <path d="M170.667,327.333 L170.667,296.083 L379,296.083 L379,327.333 z" fill="#66AAFF" fill-opacity="0.5" id="box_jxgBoard1Py63"/>
    <g>
      <path d="M4,230.111 L4.706,230.346 L5.413,230.578 L6.119,230.808 L6.825,231.037 L7.532,231.263 L8.238,231.488 L8.944,231.71 L9.651,231.931 L10.357,232.149 L11.064,232.366 L11.77,232.58 L12.476,232.793 L13.183,233.003 L13.889,233.212 L14.595,233.418 L15.302,233.623 L16.008,233.825 L16.714,234.026 L17.421,234.224 L18.127,234.421 L18.833,234.616 L19.54,234.808 L20.246,234.999 L20.953,235.187 L21.659,235.374 L22.365,235.558 L23.072,235.741 L23.778,235.921 L24.484,236.1 L25.191,236.277 L25.897,236.451 L26.603,236.624 L27.31,236.794 L28.016,236.963 L28.722,237.13 L29.429,237.294 L30.135,237.457 L30.841,237.617 L31.548,237.776 L32.254,237.933 L32.961,238.087 L33.667,238.24 L34.373,238.39 L35.08,238.539 L35.786,238.686 L36.492,238.83 L37.199,238.973 L37.905,239.114 L38.611,239.252 L39.318,239.389 L40.024,239.524 L40.73,239.656 L41.437,239.787 L42.143,239.916 L42.85,240.042 L43.556,240.167 L44.262,240.29 L44.969,240.41 L45.675,240.529 L46.381,240.646 L47.088,240.761 L47.794,240.873 L48.5,240.984 L49.207,241.093 L49.913,241.199 L50.619,241.304 L51.326,241.407 L52.032,241.508 L52.738,241.606 L53.445,241.703 L54.151,241.798 L54.858,241.891 L55.564,241.981 L56.27,242.07 L56.977,242.157 L57.683,242.242 L58.389,242.324 L59.096,242.405 L59.802,242.484 L60.508,242.561 L61.215,242.636 L61.921,242.708 L62.627,242.779 L63.334,242.848 L64.04,242.915 L64.746,242.98 L65.453,243.042 L66.159,243.103 L66.866,243.162 L67.572,243.219 L68.278,243.274 L68.985,243.327 L69.691,243.378 L70.397,243.426 L71.104,243.473 L71.81,243.518 L72.516,243.561 L73.223,243.602 L73.929,243.641 L74.635,243.678 L75.342,243.712 L76.048,243.745 L76.755,243.776 L77.461,243.805 L78.167,243.832 L78.874,243.857 L79.58,243.88 L80.286,243.901 L80.993,243.92 L81.699,243.937 L82.405,243.951 L83.112,243.964 L83.818,243.975 L84.524,243.984 L85.231,243.991 L85.937,243.996 L86.644,243.999 L87.35,244 L88.056,243.999 L88.763,243.996 L89.469,243.991 L90.175,243.984 L90.882,243.975 L91.588,243.964 L92.294,243.951 L93.001,243.936 L93.707,243.919 L94.413,243.9 L95.12,243.879 L95.826,243.856 L96.532,243.831 L97.239,243.804 L97.945,243.775 L98.652,243.744 L99.358,243.711 L100.064,243.676 L100.771,243.639 L101.477,243.6 L102.183,243.559 L102.89,243.516 L103.596,243.471 L104.302,243.424 L105.009,243.375 L105.715,243.324 L106.421,243.271 L107.128,243.216 L107.834,243.159 L108.54,243.101 L109.247,243.04 L109.953,242.977 L110.66,242.912 L111.366,242.845 L112.072,242.776 L112.779,242.705 L113.485,242.632 L114.191,242.557 L114.898,242.48 L115.604,242.402 L116.31,242.321 L117.017,242.238 L117.723,242.153 L118.429,242.066 L119.136,241.977 L119.842,241.886 L120.549,241.794 L121.255,241.699 L121.961,241.602 L122.668,241.503 L123.374,241.402 L124.08,241.299 L124.787,241.194 L125.493,241.088 L126.199,240.979 L126.906,240.868 L127.612,240.755 L128.318,240.64 L129.025,240.524 L129.731,240.405 L130.438,240.284 L131.144,240.161 L131.85,240.036 L132.557,239.91 L133.263,239.781 L133.969,239.65 L134.676,239.517 L135.382,239.383 L136.088,239.246 L136.795,239.107 L137.501,238.966 L138.207,238.824 L138.914,238.679 L139.62,238.532 L140.326,238.383 L141.033,238.233 L141.739,238.08 L142.446,237.925 L143.152,237.769 L143.858,237.61 L144.565,237.449 L145.271,237.286 L145.977,237.122 L146.684,236.955 L147.39,236.786 L148.096,236.616 L148.803,236.443 L149.509,236.268 L150.215,236.092 L150.922,235.913 L151.628,235.732 L152.334,235.55 L153.041,235.365 L153.747,235.178 L154.454,234.99 L155.16,234.799 L155.866,234.606 L156.573,234.412 L157.279,234.215 L157.985,234.017 L158.692,233.816 L159.398,233.613 L160.104,233.409 L160.811,233.202 L161.517,232.994 L162.223,232.783 L162.93,232.57 L163.636,232.356 L164.343,232.139 L165.049,231.921 L165.755,231.7 L166.462,231.477 L167.168,231.253 L167.874,231.026 L168.581,230.798 L169.287,230.567 L169.993,230.335 L170.7,230.1 L171.406,229.864 L172.112,229.625 L172.819,229.384 L173.525,229.142 L174.231,228.897 L174.938,228.651 L175.644,228.402 L176.351,228.152 L177.057,227.899 L177.763,227.645 L178.47,227.388 L179.176,227.13 L179.882,226.869 L180.589,226.607 L181.295,226.342 L182.001,226.076 L182.708,225.807 L183.414,225.537 L184.12,225.264 L184.827,224.99 L185.533,224.714 L186.24,224.435 L186.946,224.155 L187.652,223.872 L188.359,223.588 L189.065,223.301 L189.771,223.013 L190.478,222.722 L191.184,222.43 L191.89,222.136 L192.597,221.839 L193.303,221.541 L194.009,221.24 L194.716,220.938 L195.422,220.634 L196.128,220.327 L196.835,220.019 L197.541,219.708 L198.248,219.396 L198.954,219.082 L199.66,218.765 L200.367,218.447 L201.073,218.127 L201.779,217.804 L202.486,217.48 L203.192,217.154 L203.898,216.825 L204.605,216.495 L205.311,216.162 L206.017,215.828 L206.724,215.492 L207.43,215.154 L208.137,214.813 L208.843,214.471 L209.549,214.127 L210.256,213.78 L210.962,213.432 L211.668,213.082 L212.375,212.729 L213.081,212.375 L213.787,212.019 L214.494,211.66 L215.2,211.3 L215.906,210.938 L216.613,210.574 L217.319,210.207 L218.025,209.839 L218.732,209.469 L219.438,209.097 L220.145,208.722 L220.851,208.346 L221.557,207.968 L222.264,207.588 L222.97,207.205 L223.676,206.821 L224.383,206.435 L225.089,206.047 L225.795,205.657 L226.502,205.264 L227.208,204.87 L227.914,204.474 L228.621,204.076 L229.327,203.675 L230.034,203.273 L230.74,202.869 L231.446,202.463 L232.153,202.055 L232.859,201.645 L233.565,201.232 L234.272,200.818 L234.978,200.402 L235.684,199.984 L236.391,199.564 L237.097,199.142 L237.803,198.717 L238.51,198.291 L239.216,197.863 L239.922,197.433 L240.629,197.001 L241.335,196.567 L242.042,196.131 L242.748,195.693 L243.454,195.253 L244.161,194.81 L244.867,194.366 L245.573,193.92 L246.28,193.472 L246.986,193.022 L247.692,192.57 L248.399,192.116 L249.105,191.66 L249.811,191.202 L250.518,190.742 L251.224,190.28 L251.931,189.816 L252.637,189.349 L253.343,188.881 L254.05,188.411 L254.756,187.939 L255.462,187.465 L256.169,186.989 L256.875,186.511 L257.581,186.031 L258.288,185.549 L258.994,185.065 L259.7,184.579 L260.407,184.091 L261.113,183.601 L261.819,183.109 L262.526,182.615 L263.232,182.119 L263.939,181.621 L264.645,181.121 L265.351,180.619 L266.058,180.115 L266.764,179.609 L267.47,179.101 L268.177,178.591 L268.883,178.079 L269.589,177.565 L270.296,177.05 L271.002,176.532 L271.708,176.012 L272.415,175.49 L273.121,174.966 L273.828,174.44 L274.534,173.912 L275.24,173.382 L275.947,172.85 L276.653,172.316 L277.359,171.78 L278.066,171.242 L278.772,170.702 L279.478,170.161 L280.185,169.617 L280.891,169.071 L281.597,168.523 L282.304,167.973 L283.01,167.421 L283.716,166.867 L284.423,166.311 L285.129,165.754 L285.836,165.194 L286.542,164.632 L287.248,164.068 L287.955,163.502 L288.661,162.934 L289.367,162.365 L290.074,161.793 L290.78,161.219 L291.486,160.643 L292.193,160.065 L292.899,159.485 L293.605,158.904 L294.312,158.32 L295.018,157.734 L295.725,157.146 L296.431,156.556 L297.137,155.965 L297.844,155.371 L298.55,154.775 L299.256,154.177 L299.963,153.578 L300.669,152.976 L301.375,152.372 L302.082,151.766 L302.788,151.159 L303.494,150.549 L304.201,149.937 L304.907,149.323 L305.613,148.708 L306.32,148.09 L307.026,147.47 L307.733,146.848 L308.439,146.225 L309.145,145.599 L309.852,144.971 L310.558,144.342 L311.264,143.71 L311.971,143.076 L312.677,142.44 L313.383,141.803 L314.09,141.163 L314.796,140.521 L315.502,139.878 L316.209,139.232 L316.915,138.584 L317.622,137.935 L318.328,137.283 L319.034,136.629 L319.741,135.974 L320.447,135.316 L321.153,134.656 L321.86,133.995 L322.566,133.331 L323.272,132.666 L323.979,131.998 L324.685,131.328 L325.391,130.657 L326.098,129.983 L326.804,129.307 L327.51,128.63 L328.217,127.95 L328.923,127.269 L329.63,126.585 L330.336,125.899 L331.042,125.212 L331.749,124.522 L332.455,123.831 L333.161,123.137 L333.868,122.442 L334.574,121.744 L335.28,121.045 L335.987,120.343 L336.693,119.639 L337.399,118.934 L338.099,118.233 L338.798,117.531 L339.498,116.826 L340.197,116.12 L340.889,115.419 L341.582,114.716 L342.274,114.011 L342.966,113.304 L343.652,112.602 L344.337,111.898 L345.022,111.193 L345.701,110.492 L346.379,109.79 L347.058,109.087 L347.736,108.381 L348.407,107.681 L349.079,106.979 L349.75,106.275 L350.422,105.569 L351.086,104.869 L351.75,104.167 L352.415,103.464 L353.079,102.758 L353.744,102.051 L354.401,101.35 L355.058,100.647 L355.716,99.942 L356.373,99.235 L357.024,98.534 L357.674,97.832 L358.324,97.128 L358.975,96.422 L359.625,95.714 L360.269,95.013 L360.912,94.309 L361.555,93.605 L362.199,92.898 L362.835,92.197 L363.472,91.495 L364.108,90.792 L364.744,90.086 L365.381,89.379 L366.01,88.678 L366.64,87.976 L367.269,87.272 L367.899,86.566 L368.528,85.859 L369.15,85.158 L369.773,84.456 L370.395,83.752 L371.018,83.046 L371.64,82.339 L372.256,81.639 L372.871,80.936 L373.486,80.233 L374.102,79.528 L374.717,78.821 L375.326,78.121 L375.934,77.419 L376.543,76.716 L377.151,76.011 L377.76,75.305 L378.368,74.598 L378.969,73.897 L379.571,73.194 L380.172,72.491 L380.774,71.785 L381.375,71.079 L381.977,70.371 L382.571,69.669 L383.166,68.966 L383.76,68.262 L384.355,67.557 L384.949,66.85 L385.536,66.15 L386.124,65.448 L386.711,64.746 L387.299,64.041 L387.886,63.336 L388.474,62.629 L389.061,61.921 L389.642,61.219 L390.222,60.517 L390.803,59.813 L391.383,59.107 L391.964,58.401 L392.544,57.693 L393.118,56.992 L393.691,56.29 L394.264,55.587 L394.838,54.882 L395.411,54.176 L395.985,53.468 L396.551,52.768 L397.118,52.067 L397.684,51.364 L398.251,50.661 L398.817,49.955 L399.384,49.249 L399.95,48.541 L400.51,47.841 L401.069,47.139 L401.629,46.437 L402.188,45.733 L402.748,45.027 L403.307,44.321 L403.867,43.613 L404.419,42.913 L404.972,42.212 L405.524,41.509 L406.077,40.805 L406.629,40.1 L407.182,39.394 L407.734,38.687 L408.287,37.978 L408.832,37.277 L409.378,36.575 L409.923,35.872 L410.469,35.167 L411.014,34.461 L411.56,33.755 L412.105,33.046 L412.644,32.346 L413.182,31.645 L413.721,30.943 L414.259,30.239 L414.798,29.534 L415.336,28.828 L415.875,28.121 L416.413,27.413 L416.945,26.713 L417.476,26.011 L418.008,25.309 L418.539,24.605 L419.071,23.9 L419.602,23.195 L420.134,22.488 L420.665,21.779 L421.197,21.07 L421.721,20.369 L422.246,19.667 L422.77,18.964 L423.295,18.26 L423.82,17.554 L424.344,16.848 L424.869,16.14 L425.393,15.431 L425.911,14.731 L426.428,14.029 L426.946,13.327 L427.463,12.623 L427.981,11.919 L428.498,11.213 L429.016,10.506 L429.533,9.798 L430.051,9.089 L430.561,8.389 L431.072,7.688 L431.582,6.985 L432.093,6.282 L432.603,5.577 L433.114,4.871 L433.625,4.165 L434.135,3.457 L434.646,2.748 L435.149,2.048 L435.653,1.347 L436.156,0.645 L436.66,-0.058 L437.163,-0.762 L437.667,-1.467 L438.17,-2.173 L438.674,-2.88 L439.177,-3.589 L439.681,-4.298 L440.178,-4.998 L440.674,-5.699 L441.171,-6.402 L441.667,-7.105 L442.164,-7.809 L442.66,-8.515 L443.157,-9.221 L443.653,-9.928 L444.15,-10.636 L444.646,-11.345 L445.136,-12.046 L445.626,-12.747 L446.115,-13.449 L446.605,-14.152 L447.094,-14.856 L447.584,-15.561 L448.073,-16.267 L448.563,-16.974 L449.052,-17.681 L449.542,-18.39 L450.032,-19.1 L450.514,-19.801 L450.997,-20.502 L451.479,-21.204 L451.962,-21.908 L452.444,-22.612 L452.927,-23.317 L453.409,-24.023 L453.892,-24.731 L454.375,-25.439 L454.857,-26.148 L455.34,-26.857 L455.815,-27.558 L456.291,-28.259 L456.766,-28.962 L457.242,-29.665 L457.718,-30.369 L458.193,-31.074 L458.669,-31.78 L459.144,-32.487 L459.62,-33.194 L460.095,-33.903 L460.571,-34.613 L461.047,-35.323 L461.515,-36.024 L461.984,-36.726 L462.333,-37.25" fill-opacity="0" stroke="#CCCCCC" stroke-width="3" stroke-linecap="round" stroke-linejoin="round" id="box_jxgBoard1G32"/>
      <g id="box_jxgBoard1L59">
        <path d="M171,296 L379,296" fill="#FF0000"/>
        <path d="M171,296 L379,296" fill-opacity="0" stroke="#4488DD" stroke-width="8"/>
      </g>
      <g id="box_jxgBoard1L60">
        <path d="M379,296 L379,327" fill="#FF0000"/>
        <path d="M379,296 L379,327" fill-opacity="0" stroke="#4488DD" stroke-width="8"/>
      </g>
      <g id="box_jxgBoard1L61">
        <path d="M379,327 L171,327" fill="#FF0000"/>
        <path d="M379,327 L171,327" fill-opacity="0" stroke="#4488DD" stroke-width="8"/>
      </g>
      <g id="box_jxgBoard1L62">
        <path d="M171,327 L171,296" fill="#FF0000"/>
        <path d="M171,327 L171,296" fill-opacity="0" stroke="#4488DD" stroke-width="8"/>
      </g>
    </g>
    <g>
      <path d="M3,-6 L3,-6" fill-opacity="0" stroke="#0000FF" stroke-width="2" id="box_jxgBoard1L36" display="none"/>
      <path d="M3,-6 L3,-6" fill-opacity="0" stroke="#0000FF" stroke-width="2" id="box_jxgBoard1L43" display="none"/>
      <path d="M176,317 L206,317" fill-opacity="0" stroke="#000000" stroke-width="1" id="box_jxgBoard1L48" display="none"/>
      <path d="M176,317 L178,317" fill-opacity="0" stroke="#000000" stroke-width="3" id="box_jxgBoard1L53" display="none"/>
      <g display="none">
        <path d="M384,302 L384,321" fill-opacity="0" stroke="#888888" stroke-width="2" id="box_jxgBoard1L69"/>
        <path d="M385.5,303.5 L384,300.5 L382.5,303.5 z" fill="#888888"/>
        <path d="M385.5,319.5 L384,322.5 L382.5,319.5 z" fill="#888888"/>
      </g>
      <g display="none">
        <path d="M177,286 L373,286" fill-opacity="0" stroke="#888888" stroke-width="2" id="box_jxgBoard1L75"/>
        <path d="M178.5,284.5 L175.5,286 L178.5,287.5 z" fill="#888888"/>
        <path d="M371.5,284.5 L374.5,286 L371.5,287.5 z" fill="#888888"/>
      </g>
      <path d="M3,-6 L3,-6" fill-opacity="0" stroke="#CCCCCC" stroke-width="1" id="box_jxgBoard1L81" display="none"/>
      <path d="M171,230 L379,74" fill-opacity="0" stroke="#3344AA" stroke-width="12" id="box_jxgBoard1L82"/>
      <g display="none">
        <path d="M379,224 L379,80" fill-opacity="0" stroke="#888888" stroke-width="2" id="box_jxgBoard1L86"/>
        <path d="M377.5,222.5 L379,225.5 L380.5,222.5 z" fill="#888888"/>
        <path d="M377.5,81.5 L379,78.5 L380.5,81.5 z" fill="#888888"/>
      </g>
      <g display="none">
        <path d="M373,230 L177,230" fill-opacity="0" stroke="#888888" stroke-width="2" id="box_jxgBoard1L88"/>
        <path d="M371.5,231.5 L374.5,230 L371.5,228.5 z" fill="#888888"/>
        <path d="M178.5,231.5 L175.5,230 L178.5,228.5 z" fill="#888888"/>
      </g>
    </g>
    <g>
      <text transform="matrix(1, 0, 0, 1, 136.837, 340.033)" id="box_jxgBoard1L4_ticks_15Label1">
        <tspan x="-3.837" y="3.5" font-family="ArialMT" font-size="12" fill="#000000">1</tspan>
      </text>
      <text transform="matrix(1, 0, 0, 1, 178.504, 340.033)" id="box_jxgBoard1L4_ticks_110Label2">
        <tspan x="-3.837" y="3.5" font-family="ArialMT" font-size="12" fill="#000000">2</tspan>
      </text>
      <text transform="matrix(1, 0, 0, 1, 220.17, 340.033)" id="box_jxgBoard1L4_ticks_115Label3">
        <tspan x="-3.837" y="3.5" font-family="ArialMT" font-size="12" fill="#000000">3</tspan>
      </text>
      <text transform="matrix(1, 0, 0, 1, 261.837, 340.033)" id="box_jxgBoard1L4_ticks_120Label4">
        <tspan x="-3.837" y="3.5" font-family="ArialMT" font-size="12" fill="#000000">4</tspan>
      </text>
      <text transform="matrix(1, 0, 0, 1, 303.504, 340.033)" id="box_jxgBoard1L4_ticks_125Label5">
        <tspan x="-3.837" y="3.5" font-family="ArialMT" font-size="12" fill="#000000">5</tspan>
      </text>
      <text transform="matrix(1, 0, 0, 1, 345.17, 340.033)" id="box_jxgBoard1L4_ticks_130Label6">
        <tspan x="-3.837" y="3.5" font-family="ArialMT" font-size="12" fill="#000000">6</tspan>
      </text>
      <text transform="matrix(1, 0, 0, 1, 386.837, 340.033)" id="box_jxgBoard1L4_ticks_135Label7">
        <tspan x="-3.837" y="3.5" font-family="ArialMT" font-size="12" fill="#000000">7</tspan>
      </text>
      <text transform="matrix(1, 0, 0, 1, 428.504, 340.033)" id="box_jxgBoard1L4_ticks_140Label8">
        <tspan x="-3.837" y="3.5" font-family="ArialMT" font-size="12" fill="#000000">8</tspan>
      </text>
      <text transform="matrix(1, 0, 0, 1, 470.17, 340.033)" id="box_jxgBoard1L4_ticks_145Label9">
        <tspan x="-3.837" y="3.5" font-family="ArialMT" font-size="12" fill="#000000">9</tspan>
      </text>
      <text transform="matrix(1, 0, 0, 1, 57.007, 340.033)" id="box_jxgBoard1L4_ticks_154Label10">
        <tspan x="-7.341" y="3.5" font-family="ArialMT" font-size="12" fill="#000000">−1</tspan>
      </text>
      <text transform="matrix(1, 0, 0, 1, 95.17, 298.367)" id="box_jxgBoard1L19_ticks_15Label1">
        <tspan x="-3.837" y="3.5" font-family="ArialMT" font-size="12" fill="#000000">1</tspan>
      </text>
      <text transform="matrix(1, 0, 0, 1, 95.17, 256.7)" id="box_jxgBoard1L19_ticks_110Label2">
        <tspan x="-3.837" y="3.5" font-family="ArialMT" font-size="12" fill="#000000">2</tspan>
      </text>
      <text transform="matrix(1, 0, 0, 1, 95.17, 215.033)" id="box_jxgBoard1L19_ticks_115Label3">
        <tspan x="-3.837" y="3.5" font-family="ArialMT" font-size="12" fill="#000000">3</tspan>
      </text>
      <text transform="matrix(1, 0, 0, 1, 95.17, 173.367)" id="box_jxgBoard1L19_ticks_120Label4">
        <tspan x="-3.837" y="3.5" font-family="ArialMT" font-size="12" fill="#000000">4</tspan>
      </text>
      <text transform="matrix(1, 0, 0, 1, 95.17, 131.7)" id="box_jxgBoard1L19_ticks_125Label5">
        <tspan x="-3.837" y="3.5" font-family="ArialMT" font-size="12" fill="#000000">5</tspan>
      </text>
      <text transform="matrix(1, 0, 0, 1, 95.17, 90.033)" id="box_jxgBoard1L19_ticks_130Label6">
        <tspan x="-3.837" y="3.5" font-family="ArialMT" font-size="12" fill="#000000">6</tspan>
      </text>
      <text transform="matrix(1, 0, 0, 1, 95.17, 48.367)" id="box_jxgBoard1L19_ticks_135Label7">
        <tspan x="-3.837" y="3.5" font-family="ArialMT" font-size="12" fill="#000000">7</tspan>
      </text>
      <text transform="matrix(1, 0, 0, 1, 98.674, 381.7)" id="box_jxgBoard1L19_ticks_144Label8">
        <tspan x="-7.341" y="3.5" font-family="ArialMT" font-size="12" fill="#000000">−1</tspan>
      </text>
      <text transform="matrix(1, 0, 0, 1, 98.674, 423.367)" id="box_jxgBoard1L19_ticks_149Label9">
        <tspan x="-7.341" y="3.5" font-family="ArialMT" font-size="12" fill="#000000">−2</tspan>
      </text>
      <text transform="matrix(1, 0, 0, 1, 98.674, 465.033)" id="box_jxgBoard1L19_ticks_154Label10">
        <tspan x="-7.341" y="3.5" font-family="ArialMT" font-size="12" fill="#000000">−3</tspan>
      </text>
      <g id="box_jxgBoard1P37">
        <path d="M183.667,327.333 C183.667,334.513 177.846,340.333 170.667,340.333 C163.487,340.333 157.667,334.513 157.667,327.333 C157.667,320.154 163.487,314.333 170.667,314.333 C177.846,314.333 183.667,320.154 183.667,327.333 z" fill="#008000"/>
        <path d="M183.667,327.333 C183.667,334.513 177.846,340.333 170.667,340.333 C163.487,340.333 157.667,334.513 157.667,327.333 C157.667,320.154 163.487,314.333 170.667,314.333 C177.846,314.333 183.667,320.154 183.667,327.333 z" fill-opacity="0" stroke="#008000" stroke-width="2"/>
      </g>
      <g id="box_jxgBoard1P39">
        <path d="M392,327.333 C392,334.513 386.18,340.333 379,340.333 C371.82,340.333 366,334.513 366,327.333 C366,320.154 371.82,314.333 379,314.333 C386.18,314.333 392,320.154 392,327.333 z" fill="#FF0000"/>
        <path d="M392,327.333 C392,334.513 386.18,340.333 379,340.333 C371.82,340.333 366,334.513 366,327.333 C366,320.154 371.82,314.333 379,314.333 C386.18,314.333 392,320.154 392,327.333 z" fill-opacity="0" stroke="#FF0000" stroke-width="2"/>
      </g>
      <g id="box_jxgBoard1P44">
        <path d="M279.833,327.333 C279.833,330.095 277.595,332.333 274.833,332.333 C272.072,332.333 269.833,330.095 269.833,327.333 C269.833,324.572 272.072,322.333 274.833,322.333 C277.595,322.333 279.833,324.572 279.833,327.333 z" fill="#3344AA"/>
        <path d="M279.833,327.333 C279.833,330.095 277.595,332.333 274.833,332.333 C272.072,332.333 269.833,330.095 269.833,327.333 C269.833,324.572 272.072,322.333 274.833,322.333 C277.595,322.333 279.833,324.572 279.833,327.333 z" fill-opacity="0" stroke="#3344AA" stroke-width="2"/>
      </g>
      <g id="box_jxgBoard1P49" display="none">
        <path d="M182.667,317.333 C182.667,321.199 179.533,324.333 175.667,324.333 C171.801,324.333 168.667,321.199 168.667,317.333 C168.667,313.467 171.801,310.333 175.667,310.333 C179.533,310.333 182.667,313.467 182.667,317.333 z" fill="#FFFFFF"/>
        <path d="M182.667,317.333 C182.667,321.199 179.533,324.333 175.667,324.333 C171.801,324.333 168.667,321.199 168.667,317.333 C168.667,313.467 171.801,310.333 175.667,310.333 C179.533,310.333 182.667,313.467 182.667,317.333 z" fill-opacity="0" stroke="#000000" stroke-width="2"/>
      </g>
      <text transform="matrix(1, 0, 0, 1, 228.861, 321.033)" id="box_jxgBoard1T54" display="none">
        <tspan x="-43.194" y="3.5" font-family="ArialMT" font-size="12" fill="#000000">attach rectangle</tspan>
      </text>
      <g id="box_jxgBoard1P55">
        <path d="M183.667,296.083 C183.667,303.263 177.846,309.083 170.667,309.083 C163.487,309.083 157.667,303.263 157.667,296.083 C157.667,288.904 163.487,283.083 170.667,283.083 C177.846,283.083 183.667,288.904 183.667,296.083 z" fill="#3344AA"/>
        <path d="M183.667,296.083 C183.667,303.263 177.846,309.083 170.667,309.083 C163.487,309.083 157.667,303.263 157.667,296.083 C157.667,288.904 163.487,283.083 170.667,283.083 C177.846,283.083 183.667,288.904 183.667,296.083 z" fill-opacity="0" stroke="#3344AA" stroke-width="2"/>
      </g>
      <g id="box_jxgBoard1P57">
        <path d="M392,296.083 C392,303.263 386.18,309.083 379,309.083 C371.82,309.083 366,303.263 366,296.083 C366,288.904 371.82,283.083 379,283.083 C386.18,283.083 392,288.904 392,296.083 z" fill="#3344AA"/>
        <path d="M392,296.083 C392,303.263 386.18,309.083 379,309.083 C371.82,309.083 366,303.263 366,296.083 C366,288.904 371.82,283.083 379,283.083 C386.18,283.083 392,288.904 392,296.083 z" fill-opacity="0" stroke="#3344AA" stroke-width="2"/>
      </g>
      <g id="box_jxgBoard1P65" display="none">
        <path d="M91,327 C91,329.209 89.209,331 87,331 C84.791,331 83,329.209 83,327 C83,324.791 84.791,323 87,323 C89.209,323 91,324.791 91,327 z" fill="#FF0000"/>
        <path d="M91,327 C91,329.209 89.209,331 87,331 C84.791,331 83,329.209 83,327 C83,324.791 84.791,323 87,323 C89.209,323 91,324.791 91,327 z" fill-opacity="0" stroke="#FF0000" stroke-width="2"/>
      </g>
      <g id="box_jxgBoard1P67" display="none">
        <path d="M91,327 C91,329.209 89.209,331 87,331 C84.791,331 83,329.209 83,327 C83,324.791 84.791,323 87,323 C89.209,323 91,324.791 91,327 z" fill="#FF0000"/>
        <path d="M91,327 C91,329.209 89.209,331 87,331 C84.791,331 83,329.209 83,327 C83,324.791 84.791,323 87,323 C89.209,323 91,324.791 91,327 z" fill-opacity="0" stroke="#FF0000" stroke-width="2"/>
      </g>
      <g id="box_jxgBoard1P71" display="none">
        <path d="M91,327 C91,329.209 89.209,331 87,331 C84.791,331 83,329.209 83,327 C83,324.791 84.791,323 87,323 C89.209,323 91,324.791 91,327 z" fill="#FF0000"/>
        <path d="M91,327 C91,329.209 89.209,331 87,331 C84.791,331 83,329.209 83,327 C83,324.791 84.791,323 87,323 C89.209,323 91,324.791 91,327 z" fill-opacity="0" stroke="#FF0000" stroke-width="2"/>
      </g>
      <g id="box_jxgBoard1P73" display="none">
        <path d="M91,327 C91,329.209 89.209,331 87,331 C84.791,331 83,329.209 83,327 C83,324.791 84.791,323 87,323 C89.209,323 91,324.791 91,327 z" fill="#FF0000"/>
        <path d="M91,327 C91,329.209 89.209,331 87,331 C84.791,331 83,329.209 83,327 C83,324.791 84.791,323 87,323 C89.209,323 91,324.791 91,327 z" fill-opacity="0" stroke="#FF0000" stroke-width="2"/>
      </g>
      <g id="box_jxgBoard1P77">
        <path d="M183.667,230.111 C183.667,237.291 177.846,243.111 170.667,243.111 C163.487,243.111 157.667,237.291 157.667,230.111 C157.667,222.931 163.487,217.111 170.667,217.111 C177.846,217.111 183.667,222.931 183.667,230.111 z" fill="#3344AA"/>
        <path d="M183.667,230.111 C183.667,237.291 177.846,243.111 170.667,243.111 C163.487,243.111 157.667,237.291 157.667,230.111 C157.667,222.931 163.487,217.111 170.667,217.111 C177.846,217.111 183.667,222.931 183.667,230.111 z" fill-opacity="0" stroke="#3344AA" stroke-width="2"/>
      </g>
      <g id="box_jxgBoard1P79">
        <path d="M392,73.861 C392,81.041 386.18,86.861 379,86.861 C371.82,86.861 366,81.041 366,73.861 C366,66.681 371.82,60.861 379,60.861 C386.18,60.861 392,66.681 392,73.861 z" fill="#3344AA"/>
        <path d="M392,73.861 C392,81.041 386.18,86.861 379,86.861 C371.82,86.861 366,81.041 366,73.861 C366,66.681 371.82,60.861 379,60.861 C386.18,60.861 392,66.681 392,73.861 z" fill-opacity="0" stroke="#3344AA" stroke-width="2"/>
      </g>
      <g id="box_jxgBoard1P84" display="none">
        <path d="M91,327 C91,329.209 89.209,331 87,331 C84.791,331 83,329.209 83,327 C83,324.791 84.791,323 87,323 C89.209,323 91,324.791 91,327 z" fill="#FF0000"/>
        <path d="M91,327 C91,329.209 89.209,331 87,331 C84.791,331 83,329.209 83,327 C83,324.791 84.791,323 87,323 C89.209,323 91,324.791 91,327 z" fill-opacity="0" stroke="#FF0000" stroke-width="2"/>
      </g>
    </g>
  </g>
  <g id="text">
    <text transform="matrix(1, 0, 0, 1, 250, 469.279)">
      <tspan x="-189.422" y="-25.5" font-family="Arial-BoldMT" font-size="48" fill="#000000">secant rectangle</tspan>
    </text>
  </g>
</svg>
