<?xml version="1.0" encoding="UTF-8"?>
<!DOCTYPE svg PUBLIC "-//W3C//DTD SVG 1.1//EN" "http://www.w3.org/Graphics/SVG/1.1/DTD/svg11.dtd">
<svg version="1.1" xmlns="http://www.w3.org/2000/svg" xmlns:xlink="http://www.w3.org/1999/xlink" x="0" y="0" width="500" height="500" viewBox="0, 0, 500, 500">
  <g id="outline_box">
    <g>
      <path d="M58.826,12.221 L441.174,12.221 C466.913,12.221 487.779,33.087 487.779,58.826 L487.779,441.174 C487.779,466.913 466.913,487.779 441.174,487.779 L58.826,487.779 C33.087,487.779 12.221,466.913 12.221,441.174 L12.221,58.826 C12.221,33.087 33.087,12.221 58.826,12.221 z" fill="#FFFFFF"/>
      <path d="M58.826,12.221 L441.174,12.221 C466.913,12.221 487.779,33.087 487.779,58.826 L487.779,441.174 C487.779,466.913 466.913,487.779 441.174,487.779 L58.826,487.779 C33.087,487.779 12.221,466.913 12.221,441.174 L12.221,58.826 C12.221,33.087 33.087,12.221 58.826,12.221 z" fill-opacity="0" stroke="#CBCBCB" stroke-width="10"/>
    </g>
  </g>
  <g id="svg">
    <g>
      <g id="box_jxgBoard1P2" display="none">
        <path d="M89,287.08 C89,289.29 87.209,291.08 85,291.08 C82.791,291.08 81,289.29 81,287.08 C81,284.871 82.791,283.08 85,283.08 C87.209,283.08 89,284.871 89,287.08 z" fill="#FF0000"/>
        <path d="M89,287.08 C89,289.29 87.209,291.08 85,291.08 C82.791,291.08 81,289.29 81,287.08 C81,284.871 82.791,283.08 85,283.08 C87.209,283.08 89,284.871 89,287.08 z" fill-opacity="0" stroke="#0000FF" stroke-width="2"/>
      </g>
      <g id="box_jxgBoard1P3" display="none">
        <path d="M131,287.08 C131,289.29 129.209,291.08 127,291.08 C124.791,291.08 123,289.29 123,287.08 C123,284.871 124.791,283.08 127,283.08 C129.209,283.08 131,284.871 131,287.08 z" fill="#FF0000"/>
        <path d="M131,287.08 C131,289.29 129.209,291.08 127,291.08 C124.791,291.08 123,289.29 123,287.08 C123,284.871 124.791,283.08 127,283.08 C129.209,283.08 131,284.871 131,287.08 z" fill-opacity="0" stroke="#0000FF" stroke-width="2"/>
      </g>
      <g id="box_jxgBoard1P17" display="none">
        <path d="M89,287.08 C89,289.29 87.209,291.08 85,291.08 C82.791,291.08 81,289.29 81,287.08 C81,284.871 82.791,283.08 85,283.08 C87.209,283.08 89,284.871 89,287.08 z" fill="#FF0000"/>
        <path d="M89,287.08 C89,289.29 87.209,291.08 85,291.08 C82.791,291.08 81,289.29 81,287.08 C81,284.871 82.791,283.08 85,283.08 C87.209,283.08 89,284.871 89,287.08 z" fill-opacity="0" stroke="#0000FF" stroke-width="2"/>
      </g>
      <g id="box_jxgBoard1P18" display="none">
        <path d="M89,251.08 C89,253.29 87.209,255.08 85,255.08 C82.791,255.08 81,253.29 81,251.08 C81,248.871 82.791,247.08 85,247.08 C87.209,247.08 89,248.871 89,251.08 z" fill="#FF0000"/>
        <path d="M89,251.08 C89,253.29 87.209,255.08 85,255.08 C82.791,255.08 81,253.29 81,251.08 C81,248.871 82.791,247.08 85,247.08 C87.209,247.08 89,248.871 89,251.08 z" fill-opacity="0" stroke="#0000FF" stroke-width="2"/>
      </g>
      <g id="box_jxgBoard1P36" display="none">
        <path d="M89,287.08 C89,289.29 87.209,291.08 85,291.08 C82.791,291.08 81,289.29 81,287.08 C81,284.871 82.791,283.08 85,283.08 C87.209,283.08 89,284.871 89,287.08 z" fill="#FF0000"/>
        <path d="M89,287.08 C89,289.29 87.209,291.08 85,291.08 C82.791,291.08 81,289.29 81,287.08 C81,284.871 82.791,283.08 85,283.08 C87.209,283.08 89,284.871 89,287.08 z" fill-opacity="0" stroke="#0000FF" stroke-width="2"/>
      </g>
      <g id="box_jxgBoard1P37" display="none">
        <path d="M131,287.08 C131,289.29 129.209,291.08 127,291.08 C124.791,291.08 123,289.29 123,287.08 C123,284.871 124.791,283.08 127,283.08 C129.209,283.08 131,284.871 131,287.08 z" fill="#FF0000"/>
        <path d="M131,287.08 C131,289.29 129.209,291.08 127,291.08 C124.791,291.08 123,289.29 123,287.08 C123,284.871 124.791,283.08 127,283.08 C129.209,283.08 131,284.871 131,287.08 z" fill-opacity="0" stroke="#0000FF" stroke-width="2"/>
      </g>
      <g id="box_jxgBoard1P43" display="none">
        <path d="M89,287.08 C89,289.29 87.209,291.08 85,291.08 C82.791,291.08 81,289.29 81,287.08 C81,284.871 82.791,283.08 85,283.08 C87.209,283.08 89,284.871 89,287.08 z" fill="#FF0000"/>
        <path d="M89,287.08 C89,289.29 87.209,291.08 85,291.08 C82.791,291.08 81,289.29 81,287.08 C81,284.871 82.791,283.08 85,283.08 C87.209,283.08 89,284.871 89,287.08 z" fill-opacity="0" stroke="#0000FF" stroke-width="2"/>
      </g>
      <g id="box_jxgBoard1P44" display="none">
        <path d="M89,287.08 C89,289.29 87.209,291.08 85,291.08 C82.791,291.08 81,289.29 81,287.08 C81,284.871 82.791,283.08 85,283.08 C87.209,283.08 89,284.871 89,287.08 z" fill="#FF0000"/>
        <path d="M89,287.08 C89,289.29 87.209,291.08 85,291.08 C82.791,291.08 81,289.29 81,287.08 C81,284.871 82.791,283.08 85,283.08 C87.209,283.08 89,284.871 89,287.08 z" fill-opacity="0" stroke="#0000FF" stroke-width="2"/>
      </g>
      <g id="box_jxgBoard1P48" display="none">
        <path d="M89,287.08 C89,289.29 87.209,291.08 85,291.08 C82.791,291.08 81,289.29 81,287.08 C81,284.871 82.791,283.08 85,283.08 C87.209,283.08 89,284.871 89,287.08 z" fill="#FF0000"/>
        <path d="M89,287.08 C89,289.29 87.209,291.08 85,291.08 C82.791,291.08 81,289.29 81,287.08 C81,284.871 82.791,283.08 85,283.08 C87.209,283.08 89,284.871 89,287.08 z" fill-opacity="0" stroke="#0000FF" stroke-width="2"/>
      </g>
      <g id="box_jxgBoard1P49" display="none">
        <path d="M89,287.08 C89,289.29 87.209,291.08 85,291.08 C82.791,291.08 81,289.29 81,287.08 C81,284.871 82.791,283.08 85,283.08 C87.209,283.08 89,284.871 89,287.08 z" fill="#FF0000"/>
        <path d="M89,287.08 C89,289.29 87.209,291.08 85,291.08 C82.791,291.08 81,289.29 81,287.08 C81,284.871 82.791,283.08 85,283.08 C87.209,283.08 89,284.871 89,287.08 z" fill-opacity="0" stroke="#0000FF" stroke-width="2"/>
      </g>
      <g id="box_jxgBoard1P53" display="none">
        <path d="M89,287.08 C89,289.29 87.209,291.08 85,291.08 C82.791,291.08 81,289.29 81,287.08 C81,284.871 82.791,283.08 85,283.08 C87.209,283.08 89,284.871 89,287.08 z" fill="#FF0000"/>
        <path d="M89,287.08 C89,289.29 87.209,291.08 85,291.08 C82.791,291.08 81,289.29 81,287.08 C81,284.871 82.791,283.08 85,283.08 C87.209,283.08 89,284.871 89,287.08 z" fill-opacity="0" stroke="#0000FF" stroke-width="2"/>
      </g>
      <g id="box_jxgBoard1P54" display="none">
        <path d="M89,287.08 C89,289.29 87.209,291.08 85,291.08 C82.791,291.08 81,289.29 81,287.08 C81,284.871 82.791,283.08 85,283.08 C87.209,283.08 89,284.871 89,287.08 z" fill="#FF0000"/>
        <path d="M89,287.08 C89,289.29 87.209,291.08 85,291.08 C82.791,291.08 81,289.29 81,287.08 C81,284.871 82.791,283.08 85,283.08 C87.209,283.08 89,284.871 89,287.08 z" fill-opacity="0" stroke="#0000FF" stroke-width="2"/>
      </g>
      <g id="box_jxgBoard1P57" display="none">
        <path d="M89,287.08 C89,289.29 87.209,291.08 85,291.08 C82.791,291.08 81,289.29 81,287.08 C81,284.871 82.791,283.08 85,283.08 C87.209,283.08 89,284.871 89,287.08 z" fill="#FF0000"/>
        <path d="M89,287.08 C89,289.29 87.209,291.08 85,291.08 C82.791,291.08 81,289.29 81,287.08 C81,284.871 82.791,283.08 85,283.08 C87.209,283.08 89,284.871 89,287.08 z" fill-opacity="0" stroke="#0000FF" stroke-width="2"/>
      </g>
      <g id="box_jxgBoard1P58" display="none">
        <path d="M89,287.08 C89,289.29 87.209,291.08 85,291.08 C82.791,291.08 81,289.29 81,287.08 C81,284.871 82.791,283.08 85,283.08 C87.209,283.08 89,284.871 89,287.08 z" fill="#FF0000"/>
        <path d="M89,287.08 C89,289.29 87.209,291.08 85,291.08 C82.791,291.08 81,289.29 81,287.08 C81,284.871 82.791,283.08 85,283.08 C87.209,283.08 89,284.871 89,287.08 z" fill-opacity="0" stroke="#0000FF" stroke-width="2"/>
      </g>
      <g id="box_jxgBoard1P62" display="none">
        <path d="M89,287.08 C89,289.29 87.209,291.08 85,291.08 C82.791,291.08 81,289.29 81,287.08 C81,284.871 82.791,283.08 85,283.08 C87.209,283.08 89,284.871 89,287.08 z" fill="#FF0000"/>
        <path d="M89,287.08 C89,289.29 87.209,291.08 85,291.08 C82.791,291.08 81,289.29 81,287.08 C81,284.871 82.791,283.08 85,283.08 C87.209,283.08 89,284.871 89,287.08 z" fill-opacity="0" stroke="#0000FF" stroke-width="2"/>
      </g>
      <g id="box_jxgBoard1P63" display="none">
        <path d="M89,287.08 C89,289.29 87.209,291.08 85,291.08 C82.791,291.08 81,289.29 81,287.08 C81,284.871 82.791,283.08 85,283.08 C87.209,283.08 89,284.871 89,287.08 z" fill="#FF0000"/>
        <path d="M89,287.08 C89,289.29 87.209,291.08 85,291.08 C82.791,291.08 81,289.29 81,287.08 C81,284.871 82.791,283.08 85,283.08 C87.209,283.08 89,284.871 89,287.08 z" fill-opacity="0" stroke="#0000FF" stroke-width="2"/>
      </g>
    </g>
    <g>
      <g>
        <path d="M6,286.795 L490,286.795" fill-opacity="0" stroke="#666666" stroke-width="1" id="box_jxgBoard1L4"/>
        <path d="M486,282.795 L494,286.795 L486,290.795 z" fill="#666666"/>
      </g>
      <g id="box_jxgBoard1L4_ticks_1">
        <path d="M94,287.08 L94,292.08 M102,287.08 L102,292.08 M110,287.08 L110,292.08 M119,287.08 L119,292.08 M127,287.08 L127,307.08 M135,287.08 L135,292.08 M144,287.08 L144,292.08 M152,287.08 L152,292.08 M160,287.08 L160,292.08 M169,287.08 L169,307.08 M177,287.08 L177,292.08 M185,287.08 L185,292.08 M194,287.08 L194,292.08 M202,287.08 L202,292.08 M210,287.08 L210,307.08 M219,287.08 L219,292.08 M227,287.08 L227,292.08 M235,287.08 L235,292.08 M244,287.08 L244,292.08 M252,287.08 L252,307.08 M260,287.08 L260,292.08 M269,287.08 L269,292.08 M277,287.08 L277,292.08 M285,287.08 L285,292.08 M294,287.08 L294,307.08 M302,287.08 L302,292.08 M310,287.08 L310,292.08 M319,287.08 L319,292.08 M327,287.08 L327,292.08 M335,287.08 L335,307.08 M344,287.08 L344,292.08 M352,287.08 L352,292.08 M360,287.08 L360,292.08 M369,287.08 L369,292.08 M377,287.08 L377,307.08 M385,287.08 L385,292.08 M394,287.08 L394,292.08 M402,287.08 L402,292.08 M410,287.08 L410,292.08 M419,287.08 L419,307.08 M427,287.08 L427,292.08 M435,287.08 L435,292.08 M444,287.08 L444,292.08 M452,287.08 L452,292.08 M460,287.08 L460,307.08 M469,287.08 L469,292.08 M477,287.08 L477,292.08 M485,287.08 L485,292.08 M494,287.08 L494,292.08 M77,287.08 L77,292.08 M69,287.08 L69,292.08 M60,287.08 L60,292.08 M52,287.08 L52,292.08 M44,287.08 L44,307.08 M35,287.08 L35,292.08 M27,287.08 L27,292.08 M19,287.08 L19,292.08 M10,287.08 L10,292.08 M2,287.08 L2,307.08" fill="#000000"/>
        <path d="M94,287.08 L94,292.08 M102,287.08 L102,292.08 M110,287.08 L110,292.08 M119,287.08 L119,292.08 M127,287.08 L127,307.08 M135,287.08 L135,292.08 M144,287.08 L144,292.08 M152,287.08 L152,292.08 M160,287.08 L160,292.08 M169,287.08 L169,307.08 M177,287.08 L177,292.08 M185,287.08 L185,292.08 M194,287.08 L194,292.08 M202,287.08 L202,292.08 M210,287.08 L210,307.08 M219,287.08 L219,292.08 M227,287.08 L227,292.08 M235,287.08 L235,292.08 M244,287.08 L244,292.08 M252,287.08 L252,307.08 M260,287.08 L260,292.08 M269,287.08 L269,292.08 M277,287.08 L277,292.08 M285,287.08 L285,292.08 M294,287.08 L294,307.08 M302,287.08 L302,292.08 M310,287.08 L310,292.08 M319,287.08 L319,292.08 M327,287.08 L327,292.08 M335,287.08 L335,307.08 M344,287.08 L344,292.08 M352,287.08 L352,292.08 M360,287.08 L360,292.08 M369,287.08 L369,292.08 M377,287.08 L377,307.08 M385,287.08 L385,292.08 M394,287.08 L394,292.08 M402,287.08 L402,292.08 M410,287.08 L410,292.08 M419,287.08 L419,307.08 M427,287.08 L427,292.08 M435,287.08 L435,292.08 M444,287.08 L444,292.08 M452,287.08 L452,292.08 M460,287.08 L460,307.08 M469,287.08 L469,292.08 M477,287.08 L477,292.08 M485,287.08 L485,292.08 M494,287.08 L494,292.08 M77,287.08 L77,292.08 M69,287.08 L69,292.08 M60,287.08 L60,292.08 M52,287.08 L52,292.08 M44,287.08 L44,307.08 M35,287.08 L35,292.08 M27,287.08 L27,292.08 M19,287.08 L19,292.08 M10,287.08 L10,292.08 M2,287.08 L2,307.08" fill-opacity="0" stroke="#666666" stroke-width="1" stroke-opacity="0.25" stroke-linecap="round" stroke-linejoin="round"/>
      </g>
      <g>
        <path d="M85.333,497.08 L85.333,13.08" fill-opacity="0" stroke="#666666" stroke-width="1" id="box_jxgBoard1L19"/>
        <path d="M81.333,17.08 L85.333,9.08 L89.333,17.08 z" fill="#666666"/>
      </g>
      <g id="box_jxgBoard1L19_ticks_1">
        <path d="M85,280.08 L90,280.08 M85,272.08 L90,272.08 M85,265.08 L90,265.08 M85,258.08 L90,258.08 M85,251.08 L105,251.08 M85,244.08 L90,244.08 M85,237.08 L90,237.08 M85,230.08 L90,230.08 M85,222.08 L90,222.08 M85,215.08 L105,215.08 M85,208.08 L90,208.08 M85,201.08 L90,201.08 M85,194.08 L90,194.08 M85,187.08 L90,187.08 M85,180.08 L105,180.08 M85,172.08 L90,172.08 M85,165.08 L90,165.08 M85,158.08 L90,158.08 M85,151.08 L90,151.08 M85,144.08 L105,144.08 M85,137.08 L90,137.08 M85,130.08 L90,130.08 M85,122.08 L90,122.08 M85,115.08 L90,115.08 M85,108.08 L105,108.08 M85,101.08 L90,101.08 M85,94.08 L90,94.08 M85,87.08 L90,87.08 M85,80.08 L90,80.08 M85,72.08 L105,72.08 M85,65.08 L90,65.08 M85,58.08 L90,58.08 M85,51.08 L90,51.08 M85,44.08 L90,44.08 M85,37.08 L105,37.08 M85,30.08 L90,30.08 M85,22.08 L90,22.08 M85,15.08 L90,15.08 M85,294.08 L90,294.08 M85,301.08 L90,301.08 M85,308.08 L90,308.08 M85,315.08 L90,315.08 M85,322.08 L105,322.08 M85,330.08 L90,330.08 M85,337.08 L90,337.08 M85,344.08 L90,344.08 M85,351.08 L90,351.08 M85,358.08 L105,358.08 M85,365.08 L90,365.08 M85,372.08 L90,372.08 M85,380.08 L90,380.08 M85,387.08 L90,387.08 M85,394.08 L105,394.08 M85,401.08 L90,401.08 M85,408.08 L90,408.08 M85,415.08 L90,415.08 M85,422.08 L90,422.08 M85,430.08 L105,430.08 M85,437.08 L90,437.08 M85,444.08 L90,444.08 M85,451.08 L90,451.08 M85,458.08 L90,458.08 M85,465.08 L105,465.08 M85,472.08 L90,472.08 M85,480.08 L90,480.08 M85,487.08 L90,487.08 M85,494.08 L90,494.08" fill="#000000"/>
        <path d="M85,280.08 L90,280.08 M85,272.08 L90,272.08 M85,265.08 L90,265.08 M85,258.08 L90,258.08 M85,251.08 L105,251.08 M85,244.08 L90,244.08 M85,237.08 L90,237.08 M85,230.08 L90,230.08 M85,222.08 L90,222.08 M85,215.08 L105,215.08 M85,208.08 L90,208.08 M85,201.08 L90,201.08 M85,194.08 L90,194.08 M85,187.08 L90,187.08 M85,180.08 L105,180.08 M85,172.08 L90,172.08 M85,165.08 L90,165.08 M85,158.08 L90,158.08 M85,151.08 L90,151.08 M85,144.08 L105,144.08 M85,137.08 L90,137.08 M85,130.08 L90,130.08 M85,122.08 L90,122.08 M85,115.08 L90,115.08 M85,108.08 L105,108.08 M85,101.08 L90,101.08 M85,94.08 L90,94.08 M85,87.08 L90,87.08 M85,80.08 L90,80.08 M85,72.08 L105,72.08 M85,65.08 L90,65.08 M85,58.08 L90,58.08 M85,51.08 L90,51.08 M85,44.08 L90,44.08 M85,37.08 L105,37.08 M85,30.08 L90,30.08 M85,22.08 L90,22.08 M85,15.08 L90,15.08 M85,294.08 L90,294.08 M85,301.08 L90,301.08 M85,308.08 L90,308.08 M85,315.08 L90,315.08 M85,322.08 L105,322.08 M85,330.08 L90,330.08 M85,337.08 L90,337.08 M85,344.08 L90,344.08 M85,351.08 L90,351.08 M85,358.08 L105,358.08 M85,365.08 L90,365.08 M85,372.08 L90,372.08 M85,380.08 L90,380.08 M85,387.08 L90,387.08 M85,394.08 L105,394.08 M85,401.08 L90,401.08 M85,408.08 L90,408.08 M85,415.08 L90,415.08 M85,422.08 L90,422.08 M85,430.08 L105,430.08 M85,437.08 L90,437.08 M85,444.08 L90,444.08 M85,451.08 L90,451.08 M85,458.08 L90,458.08 M85,465.08 L105,465.08 M85,472.08 L90,472.08 M85,480.08 L90,480.08 M85,487.08 L90,487.08 M85,494.08 L90,494.08" fill-opacity="0" stroke="#666666" stroke-width="1" stroke-opacity="0.25" stroke-linecap="round" stroke-linejoin="round"/>
      </g>
    </g>
    <g>
      <path d="M2,152.866 L2.203,153.582 L2.406,154.296 L2.608,155.007 L2.811,155.717 L3.014,156.424 L3.217,157.129 L3.42,157.831 L3.623,158.532 L3.832,159.254 L4.042,159.974 L4.252,160.692 L4.462,161.407 L4.672,162.12 L4.881,162.831 L5.091,163.539 L5.301,164.245 L5.511,164.948 L5.721,165.65 L5.937,166.372 L6.154,167.092 L6.371,167.809 L6.588,168.523 L6.805,169.236 L7.021,169.945 L7.238,170.653 L7.455,171.358 L7.672,172.06 L7.896,172.782 L8.119,173.502 L8.343,174.219 L8.567,174.934 L8.791,175.646 L9.015,176.355 L9.238,177.062 L9.462,177.766 L9.686,178.468 L9.917,179.188 L10.148,179.906 L10.378,180.621 L10.609,181.334 L10.84,182.044 L11.071,182.751 L11.301,183.455 L11.532,184.156 L11.77,184.876 L12.008,185.593 L12.246,186.307 L12.483,187.018 L12.721,187.727 L12.959,188.432 L13.197,189.135 L13.442,189.855 L13.686,190.572 L13.931,191.286 L14.176,191.997 L14.421,192.705 L14.665,193.41 L14.91,194.112 L15.162,194.831 L15.414,195.547 L15.666,196.259 L15.917,196.969 L16.169,197.675 L16.421,198.378 L16.68,199.097 L16.938,199.813 L17.197,200.525 L17.456,201.235 L17.715,201.941 L17.973,202.643 L18.239,203.361 L18.505,204.076 L18.771,204.787 L19.036,205.494 L19.302,206.199 L19.568,206.899 L19.841,207.615 L20.113,208.327 L20.386,209.035 L20.659,209.739 L20.932,210.44 L21.211,211.155 L21.491,211.867 L21.771,212.574 L22.051,213.278 L22.337,213.995 L22.624,214.709 L22.911,215.418 L23.198,216.124 L23.484,216.825 L23.778,217.54 L24.072,218.25 L24.366,218.956 L24.659,219.658 L24.96,220.373 L25.261,221.083 L25.561,221.789 L25.862,222.491 L26.17,223.205 L26.478,223.914 L26.785,224.618 L27.093,225.318 L27.408,226.03 L27.722,226.737 L28.037,227.439 L28.359,228.152 L28.681,228.86 L29.002,229.563 L29.331,230.277 L29.66,230.986 L29.988,231.689 L30.324,232.403 L30.66,233.111 L30.996,233.814 L31.338,234.527 L31.681,235.234 L32.024,235.935 L32.373,236.646 L32.723,237.351 L33.08,238.064 L33.436,238.771 L33.793,239.473 L34.157,240.182 L34.52,240.886 L34.891,241.597 L35.262,242.302 L35.639,243.014 L36.017,243.719 L36.402,244.431 L36.786,245.136 L37.178,245.848 L37.569,246.553 L37.968,247.263 L38.367,247.966 L38.772,248.675 L39.178,249.376 L39.591,250.082 L40.01,250.792 L40.43,251.495 L40.856,252.202 L41.29,252.912 L41.724,253.614 L42.164,254.319 L42.612,255.027 L43.066,255.737 L43.521,256.438 L43.983,257.141 L44.451,257.846 L44.927,258.551 L45.409,259.257 L45.899,259.964 L46.395,260.67 L46.899,261.376 L47.41,262.081 L47.927,262.784 L48.452,263.486 L48.99,264.194 L49.536,264.9 L50.088,265.602 L50.655,266.31 L51.228,267.012 L51.815,267.719 L52.41,268.419 L53.018,269.121 L53.641,269.825 L54.277,270.528 L54.928,271.23 L55.599,271.937 L56.284,272.641 L56.991,273.347 L57.697,274.034 L58.403,274.702 L59.11,275.35 L59.816,275.98 L60.523,276.59 L61.229,277.182 L61.935,277.755 L62.642,278.309 L63.348,278.845 L64.054,279.363 L64.761,279.862 L65.467,280.343 L66.173,280.805 L66.88,281.25 L67.586,281.676 L68.292,282.085 L68.999,282.476 L69.705,282.85 L70.411,283.206 L71.118,283.544 L71.824,283.865 L72.531,284.169 L73.237,284.455 L73.943,284.725 L74.65,284.977 L75.356,285.213 L76.062,285.432 L76.769,285.634 L77.475,285.819 L78.181,285.989 L78.888,286.141 L79.594,286.278 L80.3,286.398 L81.007,286.502 L81.713,286.59 L82.42,286.663 L83.126,286.719 L83.832,286.76 L84.539,286.785 L85.245,286.795 L85.951,286.789 L86.658,286.768 L87.364,286.731 L88.07,286.68 L88.777,286.614 L89.483,286.532 L90.189,286.436 L90.896,286.325 L91.602,286.2 L92.308,286.06 L93.015,285.905 L93.721,285.736 L94.428,285.553 L95.134,285.356 L95.84,285.145 L96.547,284.92 L97.253,284.681 L97.959,284.428 L98.666,284.162 L99.372,283.882 L100.078,283.589 L100.785,283.282 L101.491,282.962 L102.197,282.629 L102.904,282.283 L103.61,281.923 L104.317,281.551 L105.023,281.167 L105.729,280.769 L106.436,280.359 L107.142,279.937 L107.848,279.502 L108.555,279.055 L109.261,278.595 L109.967,278.124 L110.674,277.641 L111.38,277.145 L112.086,276.638 L112.793,276.12 L113.499,275.589 L114.205,275.047 L114.912,274.494 L115.618,273.93 L116.325,273.354 L117.031,272.767 L117.737,272.169 L118.444,271.561 L119.15,270.941 L119.856,270.311 L120.563,269.67 L121.269,269.019 L121.975,268.357 L122.682,267.685 L123.388,267.002 L124.094,266.31 L124.801,265.607 L125.5,264.902 L126.186,264.202 L126.864,263.499 L127.535,262.795 L128.2,262.09 L128.857,261.384 L129.508,260.678 L130.151,259.971 L130.787,259.265 L131.417,258.559 L132.039,257.854 L132.655,257.15 L133.263,256.448 L133.865,255.747 L134.466,255.04 L135.06,254.335 L135.648,253.632 L136.228,252.932 L136.809,252.226 L137.382,251.524 L137.956,250.816 L138.522,250.111 L139.082,249.41 L139.641,248.704 L140.194,248.002 L140.746,247.295 L141.292,246.593 L141.837,245.886 L142.376,245.184 L142.914,244.477 L143.446,243.775 L143.977,243.069 L144.502,242.368 L145.026,241.664 L145.551,240.955 L146.068,240.252 L146.586,239.546 L147.096,238.845 L147.607,238.14 L148.118,237.433 L148.621,236.731 L149.125,236.026 L149.628,235.318 L150.125,234.616 L150.621,233.911 L151.118,233.203 L151.607,232.502 L152.097,231.798 L152.586,231.091 L153.076,230.381 L153.559,229.678 L154.041,228.973 L154.524,228.265 L154.999,227.564 L155.475,226.861 L155.95,226.156 L156.426,225.447 L156.895,224.747 L157.363,224.044 L157.832,223.339 L158.3,222.632 L158.769,221.922 L159.23,221.221 L159.692,220.517 L160.154,219.811 L160.615,219.103 L161.077,218.393 L161.531,217.692 L161.986,216.989 L162.44,216.283 L162.895,215.576 L163.35,214.867 L163.797,214.167 L164.245,213.465 L164.692,212.761 L165.14,212.055 L165.588,211.348 L166.035,210.639 L166.483,209.928 L166.923,209.227 L167.364,208.525 L167.805,207.82 L168.245,207.114 L168.686,206.407 L169.126,205.698 L169.567,204.988 L170.001,204.287 L170.434,203.585 L170.868,202.882 L171.301,202.177 L171.735,201.471 L172.169,200.764 L172.602,200.056 L173.036,199.346 L173.469,198.635 L173.896,197.934 L174.323,197.233 L174.749,196.53 L175.176,195.826 L175.602,195.121 L176.029,194.415 L176.456,193.707 L176.882,192.999 L177.309,192.29 L177.735,191.58 L178.162,190.869 L178.582,190.169 L179.001,189.467 L179.421,188.765 L179.841,188.062 L180.26,187.359 L180.68,186.654 L181.099,185.949 L181.519,185.243 L181.939,184.536 L182.358,183.829 L182.778,183.121 L183.197,182.412 L183.617,181.703 L184.037,180.992 L184.456,180.282 L184.876,179.571 L185.296,178.859 L185.708,178.158 L186.121,177.457 L186.533,176.756 L186.946,176.054 L187.359,175.351 L187.771,174.649 L188.184,173.945 L188.597,173.242 L189.009,172.538 L189.422,171.833 L189.834,171.129 L190.247,170.424 L190.66,169.718 L191.072,169.013 L191.485,168.307 L191.898,167.601 L192.31,166.895 L192.723,166.188 L193.135,165.481 L193.548,164.775 L193.961,164.068 L194.373,163.361 L194.786,162.654 L195.199,161.946 L195.611,161.239 L196.024,160.532 L196.436,159.824 L196.849,159.117 L197.262,158.41 L197.674,157.702 L198.087,156.995 L198.499,156.288 L198.912,155.581 L199.325,154.874 L199.737,154.167 L200.15,153.46 L200.563,152.754 L200.975,152.048 L201.388,151.342 L201.8,150.636 L202.213,149.93 L202.626,149.225 L203.038,148.52 L203.451,147.815 L203.864,147.111 L204.276,146.407 L204.689,145.703 L205.101,145 L205.514,144.297 L205.927,143.595 L206.339,142.893 L206.752,142.191 L207.165,141.49 L207.577,140.79 L207.997,140.078 L208.416,139.367 L208.836,138.656 L209.256,137.946 L209.675,137.236 L210.095,136.527 L210.515,135.819 L210.934,135.112 L211.354,134.405 L211.773,133.699 L212.193,132.994 L212.613,132.289 L213.032,131.586 L213.452,130.883 L213.871,130.181 L214.291,129.479 L214.711,128.779 L215.137,128.068 L215.564,127.358 L215.991,126.649 L216.417,125.94 L216.844,125.233 L217.27,124.527 L217.697,123.822 L218.124,123.118 L218.55,122.415 L218.977,121.713 L219.403,121.012 L219.837,120.301 L220.271,119.592 L220.704,118.883 L221.138,118.176 L221.571,117.47 L222.005,116.765 L222.439,116.062 L222.872,115.36 L223.306,114.659 L223.746,113.949 L224.187,113.24 L224.628,112.533 L225.068,111.827 L225.509,111.122 L225.949,110.419 L226.39,109.718 L226.838,109.007 L227.285,108.298 L227.733,107.591 L228.18,106.885 L228.628,106.182 L229.076,105.48 L229.523,104.779 L229.978,104.07 L230.432,103.363 L230.887,102.657 L231.341,101.954 L231.796,101.253 L232.258,100.542 L232.719,99.834 L233.181,99.129 L233.642,98.425 L234.104,97.723 L234.573,97.014 L235.041,96.306 L235.51,95.601 L235.978,94.898 L236.447,94.198 L236.922,93.489 L237.398,92.784 L237.874,92.08 L238.349,91.38 L238.832,90.672 L239.314,89.966 L239.797,89.263 L240.286,88.553 L240.776,87.846 L241.265,87.142 L241.755,86.441 L242.252,85.733 L242.748,85.028 L243.245,84.326 L243.748,83.618 L244.252,82.913 L244.755,82.211 L245.266,81.503 L245.776,80.798 L246.287,80.098 L246.804,79.391 L247.322,78.688 L247.846,77.979 L248.371,77.274 L248.895,76.573 L249.427,75.867 L249.958,75.165 L250.497,74.459 L251.036,73.756 L251.581,73.049 L252.127,72.346 L252.679,71.639 L253.232,70.937 L253.791,70.231 L254.35,69.53 L254.917,68.825 L255.49,68.117 L256.064,67.414 L256.644,66.709 L257.225,66.008 L257.812,65.306 L258.407,64.6 L259.008,63.893 L259.61,63.192 L260.218,62.489 L260.834,61.785 L261.456,61.08 L262.085,60.374 L262.722,59.668 L263.365,58.961 L264.016,58.254 L264.673,57.548 L265.337,56.843 L266.009,56.139 L266.687,55.436 L267.373,54.735 L268.072,54.03 L268.778,53.327 L269.485,52.634 L270.191,51.952 L270.897,51.28 L271.604,50.617 L272.31,49.966 L273.016,49.325 L273.723,48.694 L274.429,48.075 L275.135,47.466 L275.842,46.867 L276.548,46.28 L277.255,45.704 L277.961,45.14 L278.667,44.586 L279.374,44.044 L280.08,43.513 L280.786,42.994 L281.493,42.487 L282.199,41.992 L282.905,41.508 L283.612,41.036 L284.318,40.577 L285.024,40.129 L285.731,39.694 L286.437,39.271 L287.144,38.861 L287.85,38.463 L288.556,38.078 L289.263,37.706 L289.969,37.347 L290.675,37 L291.382,36.667 L292.088,36.346 L292.794,36.039 L293.501,35.746 L294.207,35.465 L294.913,35.199 L295.62,34.946 L296.326,34.706 L297.033,34.481 L297.739,34.269 L298.445,34.072 L299.152,33.889 L299.858,33.719 L300.564,33.565 L301.271,33.424 L301.977,33.299 L302.683,33.187 L303.39,33.091 L304.096,33.009 L304.802,32.942 L305.509,32.891 L306.215,32.854 L306.921,32.833 L307.628,32.826 L308.334,32.836 L309.041,32.861 L309.747,32.901 L310.453,32.957 L311.16,33.029 L311.866,33.117 L312.572,33.221 L313.279,33.34 L313.985,33.476 L314.691,33.629 L315.398,33.798 L316.104,33.983 L316.81,34.185 L317.517,34.403 L318.223,34.638 L318.93,34.89 L319.636,35.16 L320.342,35.446 L321.049,35.749 L321.755,36.07 L322.461,36.408 L323.168,36.763 L323.874,37.136 L324.58,37.527 L325.287,37.935 L325.993,38.361 L326.699,38.806 L327.406,39.268 L328.112,39.748 L328.818,40.247 L329.525,40.764 L330.231,41.299 L330.938,41.853 L331.644,42.426 L332.35,43.017 L333.057,43.627 L333.763,44.256 L334.469,44.904 L335.176,45.572 L335.882,46.258 L336.588,46.964 L337.274,47.667 L337.945,48.374 L338.596,49.076 L339.232,49.778 L339.854,50.481 L340.463,51.183 L341.057,51.883 L341.645,52.589 L342.218,53.292 L342.785,53.998 L343.337,54.7 L343.883,55.406 L344.421,56.114 L344.946,56.815 L345.463,57.518 L345.974,58.223 L346.477,58.928 L346.974,59.634 L347.463,60.34 L347.946,61.046 L348.422,61.751 L348.89,62.456 L349.352,63.158 L349.806,63.859 L350.261,64.569 L350.708,65.277 L351.149,65.981 L351.583,66.683 L352.016,67.393 L352.443,68.099 L352.862,68.802 L353.282,69.512 L353.695,70.217 L354.1,70.918 L354.506,71.627 L354.905,72.33 L355.303,73.04 L355.695,73.744 L356.087,74.455 L356.471,75.16 L356.856,75.872 L357.233,76.577 L357.611,77.289 L357.982,77.993 L358.352,78.704 L358.716,79.407 L359.08,80.117 L359.436,80.818 L359.793,81.525 L360.15,82.238 L360.5,82.943 L360.849,83.653 L361.192,84.354 L361.535,85.061 L361.877,85.773 L362.213,86.476 L362.549,87.184 L362.884,87.897 L363.213,88.601 L363.542,89.309 L363.87,90.022 L364.192,90.726 L364.514,91.434 L364.836,92.146 L365.15,92.848 L365.465,93.555 L365.78,94.266 L366.094,94.982 L366.402,95.686 L366.71,96.395 L367.018,97.109 L367.318,97.81 L367.619,98.516 L367.92,99.226 L368.22,99.941 L368.514,100.643 L368.808,101.349 L369.102,102.059 L369.395,102.774 L369.682,103.475 L369.969,104.18 L370.256,104.89 L370.542,105.603 L370.829,106.32 L371.109,107.024 L371.389,107.731 L371.668,108.442 L371.948,109.157 L372.221,109.858 L372.494,110.563 L372.766,111.271 L373.039,111.983 L373.312,112.698 L373.578,113.398 L373.843,114.102 L374.109,114.81 L374.375,115.521 L374.641,116.235 L374.906,116.953 L375.165,117.656 L375.424,118.361 L375.683,119.071 L375.941,119.783 L376.2,120.499 L376.459,121.218 L376.711,121.921 L376.962,122.627 L377.214,123.336 L377.466,124.048 L377.718,124.764 L377.97,125.483 L378.214,126.185 L378.459,126.889 L378.704,127.597 L378.949,128.308 L379.193,129.022 L379.438,129.739 L379.683,130.459 L379.921,131.162 L380.159,131.867 L380.396,132.575 L380.634,133.286 L380.872,134 L381.11,134.717 L381.347,135.437 L381.578,136.138 L381.809,136.843 L382.04,137.549 L382.271,138.259 L382.501,138.971 L382.732,139.687 L382.963,140.404 L383.194,141.125 L383.418,141.826 L383.641,142.53 L383.865,143.237 L384.089,143.946 L384.313,144.658 L384.537,145.373 L384.76,146.09 L384.984,146.809 L385.208,147.532 L385.425,148.234 L385.642,148.939 L385.858,149.646 L386.075,150.355 L386.292,151.068 L386.509,151.782 L386.726,152.499 L386.942,153.219 L387.159,153.941 L387.369,154.642 L387.579,155.346 L387.789,156.051 L387.998,156.76 L388.208,157.47 L388.418,158.183 L388.628,158.898 L388.838,159.616 L389.047,160.335 L389.257,161.058 L389.46,161.758 L389.663,162.461 L389.866,163.165 L390.069,163.873 L390.271,164.582 L390.474,165.293 L390.677,166.007 L390.88,166.723 L391.083,167.441 L391.285,168.161 L391.488,168.884 L391.691,169.609 L391.887,170.31 L392.083,171.014 L392.279,171.72 L392.474,172.429 L392.67,173.139 L392.866,173.851 L393.062,174.566 L393.258,175.282 L393.453,176.001 L393.649,176.721 L393.845,177.444 L394.041,178.169 L394.23,178.87 L394.419,179.573 L394.607,180.278 L394.796,180.985 L394.985,181.694 L395.174,182.405 L395.363,183.118 L395.552,183.832 L395.74,184.549 L395.929,185.268 L396.118,185.988 L396.307,186.711 L396.496,187.436 L396.684,188.162 L396.866,188.864 L397.048,189.567 L397.23,190.273 L397.412,190.98 L397.594,191.689 L397.775,192.4 L397.957,193.112 L398.139,193.827 L398.321,194.543 L398.503,195.261 L398.685,195.981 L398.866,196.703 L399.048,197.427 L399.23,198.153 L399.412,198.88 L399.587,199.581 L399.762,200.285 L399.936,200.989 L400.111,201.696 L400.286,202.404 L400.461,203.114 L400.636,203.825 L400.811,204.539 L400.986,205.254 L401.16,205.971 L401.335,206.689 L401.51,207.41 L401.685,208.132 L401.86,208.856 L402.035,209.581 L402.209,210.308 L402.384,211.038 L402.552,211.739 L402.72,212.442 L402.888,213.147 L403.056,213.853 L403.223,214.561 L403.391,215.271 L403.559,215.982 L403.727,216.695 L403.895,217.41 L404.063,218.126 L404.231,218.843 L404.398,219.563 L404.566,220.284 L404.734,221.006 L404.902,221.73 L405.07,222.456 L405.238,223.184 L405.405,223.913 L405.566,224.613 L405.727,225.315 L405.888,226.018 L406.049,226.723 L406.21,227.429 L406.371,228.137 L406.531,228.846 L406.692,229.557 L406.853,230.27 L407.014,230.984 L407.175,231.699 L407.336,232.416 L407.497,233.134 L407.657,233.854 L407.818,234.575 L407.979,235.298 L408.14,236.023 L408.301,236.749 L408.462,237.476 L408.623,238.205 L408.783,238.936 L408.937,239.636 L409.091,240.338 L409.245,241.041 L409.399,241.745 L409.553,242.451 L409.707,243.158 L409.86,243.867 L410.014,244.577 L410.168,245.288 L410.322,246.001 L410.476,246.715 L410.63,247.431 L410.784,248.148 L410.937,248.866 L411.091,249.586 L411.245,250.308 L411.399,251.03 L411.553,251.754 L411.707,252.48 L411.861,253.207 L412.014,253.935 L412.168,254.665 L412.322,255.396 L412.476,256.129 L412.623,256.829 L412.77,257.531 L412.917,258.235 L413.064,258.939 L413.21,259.645 L413.357,260.352 L413.504,261.06 L413.651,261.77 L413.798,262.481 L413.945,263.193 L414.092,263.907 L414.238,264.622 L414.385,265.338 L414.532,266.056 L414.679,266.775 L414.826,267.495 L414.973,268.216 L415.12,268.939 L415.266,269.663 L415.413,270.388 L415.56,271.115 L415.707,271.843 L415.854,272.572 L416.001,273.303 L416.148,274.035 L416.295,274.768 L416.441,275.503 L416.581,276.204 L416.721,276.906 L416.861,277.609 L417.001,278.313 L417.141,279.019 L417.281,279.726 L417.421,280.434 L417.56,281.143 L417.7,281.853 L417.84,282.565 L417.98,283.278 L418.12,283.992 L418.26,284.707 L418.4,285.424 L418.539,286.141 L418.679,286.86 L418.819,287.58 L418.959,288.301 L419.099,289.024 L419.239,289.748 L419.379,290.472 L419.519,291.199 L419.658,291.926 L419.798,292.654 L419.938,293.384 L420.078,294.115 L420.218,294.847 L420.358,295.581 L420.498,296.315 L420.638,297.051 L420.77,297.751 L420.903,298.452 L421.036,299.155 L421.169,299.858 L421.302,300.563 L421.435,301.269 L421.568,301.975 L421.701,302.683 L421.833,303.392 L421.966,304.102 L422.099,304.813 L422.232,305.526 L422.365,306.239 L422.498,306.954 L422.631,307.669 L422.764,308.386 L422.897,309.104 L423.029,309.823 L423.162,310.543 L423.295,311.264 L423.428,311.986 L423.561,312.71 L423.694,313.434 L423.827,314.16 L423.96,314.887 L424.092,315.614 L424.225,316.343 L424.358,317.073 L424.491,317.805 L424.624,318.537 L424.757,319.27 L424.89,320.005 L425.023,320.741 L425.155,321.477 L425.288,322.215 L425.414,322.916 L425.54,323.617 L425.666,324.319 L425.792,325.022 L425.918,325.726 L426.044,326.431 L426.17,327.137 L426.295,327.845 L426.421,328.553 L426.547,329.262 L426.673,329.972 L426.799,330.684 L426.925,331.396 L427.051,332.109 L427.177,332.823 L427.302,333.539 L427.428,334.255 L427.554,334.972 L427.68,335.691 L427.806,336.41 L427.932,337.13 L428.058,337.852 L428.184,338.574 L428.31,339.298 L428.435,340.022 L428.561,340.748 L428.687,341.474 L428.813,342.202 L428.939,342.93 L429.065,343.66 L429.191,344.39 L429.317,345.122 L429.443,345.855 L429.568,346.588 L429.694,347.323 L429.82,348.059 L429.946,348.795 L430.072,349.533 L430.198,350.272 L430.324,351.012 L430.45,351.753 L430.569,352.453 L430.687,353.155 L430.806,353.857 L430.925,354.561 L431.044,355.265 L431.163,355.97 L431.282,356.676 L431.401,357.384 L431.52,358.092 L431.639,358.801 L431.757,359.51 L431.876,360.221 L431.995,360.933 L432.114,361.646 L432.233,362.359 L432.352,363.074 L432.471,363.789 L432.59,364.505 L432.709,365.223 L432.827,365.941 L432.946,366.66 L433.065,367.38 L433.184,368.101 L433.303,368.823 L433.422,369.546 L433.541,370.269 L433.66,370.994 L433.779,371.72 L433.897,372.446 L434.016,373.174 L434.135,373.902 L434.254,374.632 L434.373,375.362 L434.492,376.093 L434.611,376.825 L434.73,377.558 L434.849,378.292 L434.967,379.027 L435.086,379.763 L435.205,380.5 L435.324,381.238 L435.443,381.977 L435.562,382.716 L435.681,383.457 L435.8,384.198 L435.919,384.941 L436.038,385.684 L436.149,386.385 L436.261,387.086 L436.373,387.788 L436.485,388.491 L436.597,389.195 L436.709,389.9 L436.821,390.605 L436.933,391.312 L437.045,392.019 L437.156,392.727 L437.268,393.436 L437.38,394.146 L437.492,394.856 L437.604,395.568 L437.716,396.28 L437.828,396.993 L437.94,397.707 L438.052,398.422 L438.164,399.137 L438.275,399.854 L438.387,400.571 L438.499,401.289 L438.611,402.008 L438.723,402.728 L438.835,403.449 L438.947,404.17 L439.059,404.892 L439.171,405.616 L439.283,406.34 L439.394,407.064 L439.506,407.79 L439.618,408.517 L439.73,409.244 L439.842,409.972 L439.954,410.701 L440.066,411.431 L440.178,412.162 L440.29,412.894 L440.402,413.626 L440.513,414.36 L440.625,415.094 L440.737,415.829 L440.849,416.565 L440.961,417.301 L441.073,418.039 L441.185,418.777 L441.297,419.517 L441.409,420.257 L441.521,420.998 L441.632,421.74 L441.744,422.482 L441.856,423.226 L441.968,423.97 L442.08,424.716 L442.192,425.462 L442.297,426.162 L442.402,426.863 L442.507,427.565 L442.612,428.267 L442.716,428.97 L442.821,429.674 L442.926,430.379 L443.031,431.085 L443.136,431.791 L443.241,432.498 L443.346,433.206 L443.451,433.914 L443.556,434.624 L443.661,435.334 L443.765,436.044 L443.87,436.756 L443.975,437.468 L444.08,438.181 L444.185,438.895 L444.29,439.61 L444.395,440.325 L444.5,441.041 L444.605,441.758 L444.71,442.476 L444.815,443.194 L444.919,443.913 L445.024,444.633 L445.129,445.354 L445.234,446.075 L445.339,446.797 L445.444,447.52 L445.549,448.244 L445.654,448.968 L445.759,449.694 L445.864,450.42 L445.968,451.146 L446.073,451.874 L446.178,452.602 L446.283,453.331 L446.388,454.061 L446.493,454.791 L446.598,455.523 L446.703,456.255 L446.808,456.988 L446.913,457.721 L447.017,458.456 L447.122,459.191 L447.227,459.927 L447.332,460.663 L447.437,461.401 L447.542,462.139 L447.647,462.878 L447.752,463.618 L447.857,464.358 L447.962,465.1 L448.067,465.842 L448.171,466.584 L448.276,467.328 L448.381,468.072 L448.486,468.818 L448.591,469.563 L448.696,470.31 L448.801,471.058 L448.906,471.806 L449.011,472.555 L449.116,473.305 L449.213,474.005 L449.311,474.706 L449.409,475.408 L449.507,476.11 L449.605,476.814 L449.703,477.517 L449.801,478.222 L449.899,478.927 L449.997,479.633 L450.095,480.34 L450.193,481.047 L450.29,481.755 L450.388,482.463 L450.486,483.172 L450.584,483.882 L450.682,484.593 L450.78,485.304 L450.878,486.016 L450.976,486.729 L451.074,487.442 L451.172,488.156 L451.27,488.871 L451.368,489.586 L451.465,490.302 L451.563,491.019 L451.661,491.736 L451.759,492.454 L451.857,493.173 L451.955,493.892 L452.053,494.612 L452.151,495.333 L452.249,496.055 L452.347,496.777 L452.445,497.5 L452.542,498.223 L452.64,498.947 L452.738,499.672 L452.836,500.398 L452.934,501.124 L453.032,501.851 L453.13,502.578 L453.228,503.307 L453.326,504.036 L453.424,504.765 L453.522,505.495 L453.619,506.227 L453.717,506.958 L453.815,507.691 L453.913,508.424 L454.011,509.157 L454.109,509.892 L454.207,510.627 L454.305,511.363 L454.403,512.099 L454.501,512.836 L454.599,513.574 L454.696,514.313 L454.794,515.052 L454.892,515.792 L454.99,516.533 L455.088,517.274 L455.186,518.016 L455.284,518.759 L455.382,519.502 L455.48,520.246 L455.578,520.991 L455.676,521.736 L455.773,522.482 L455.871,523.229 L455.969,523.977 L456.067,524.725 L456.165,525.474 L456.263,526.223 L456.361,526.974 L456.459,527.725 L456.557,528.476 L456.655,529.229 L456.753,529.982 L456.85,530.735 L456.941,531.436 L457.032,532.137 L457.123,532.839 L457.214,533.541 L457.305,534.244 L457.396,534.948 L457.487,535.652 L457.578,536.356 L457.669,537.062 L457.76,537.768 L457.851,538.474 L457.941,539.181 L458.032,539.889 L458.123,540.597 L458.214,541.306 L458.305,542.016 L458.396,542.726 L458.487,543.437 L458.578,544.148 L458.669,544.86 L458.76,545.572 L458.851,546.285 L458.942,546.999 L459.033,547.714 L459.123,548.428 L459.214,549.144 L459.305,549.86 L459.396,550.577 L459.487,551.294 L459.578,552.012 L459.669,552.731 L459.76,553.45 L459.851,554.17 L459.942,554.89 L460.033,555.611 L460.124,556.333 L460.214,557.055 L460.305,557.777 L460.333,558" fill-opacity="0" stroke="#CCCCCC" stroke-width="3" stroke-linecap="round" stroke-linejoin="round" id="box_jxgBoard1G34"/>
      <g id="box_jxgBoard1G66">
        <path d="M127,286.795 L127,234.642 L151.306,234.642 L151.306,286.795 L151.306,221.946 L175.611,221.946 L175.611,286.795 L175.611,216.087 L199.917,216.087 L199.917,286.795 L199.917,217.063 L224.222,217.063 L224.222,286.795 L224.222,224.876 L248.528,224.876 L248.528,286.795 L248.528,239.524 L272.833,239.524 L272.833,286.795 L272.833,261.009 L297.139,261.009 L297.139,286.795 L297.139,289.329 L321.444,289.329 L321.444,286.795 L321.444,324.485 L345.75,324.485 L345.75,286.795 L345.75,366.478 L370.056,366.478 L370.056,286.795 L370.056,415.306 L394.361,415.306 L394.361,286.795 L394.361,470.97 L418.667,470.97 L418.667,286.795" fill="#66AAFF" fill-opacity="0.5"/>
        <path d="M127,286.795 L127,234.642 L151.306,234.642 L151.306,286.795 L151.306,221.946 L175.611,221.946 L175.611,286.795 L175.611,216.087 L199.917,216.087 L199.917,286.795 L199.917,217.063 L224.222,217.063 L224.222,286.795 L224.222,224.876 L248.528,224.876 L248.528,286.795 L248.528,239.524 L272.833,239.524 L272.833,286.795 L272.833,261.009 L297.139,261.009 L297.139,286.795 L297.139,289.329 L321.444,289.329 L321.444,286.795 L321.444,324.485 L345.75,324.485 L345.75,286.795 L345.75,366.478 L370.056,366.478 L370.056,286.795 L370.056,415.306 L394.361,415.306 L394.361,286.795 L394.361,470.97 L418.667,470.97 L418.667,286.795" fill-opacity="0" stroke="#3344AA" stroke-width="1" stroke-linecap="round" stroke-linejoin="round"/>
      </g>
      <path d="M127,263.357 L151.306,232.935 L175.611,195.106 L199.917,153.86 L224.222,113.184 L248.528,77.064 L272.833,49.49 L297.139,34.448 L321.444,35.927 L345.75,57.913 L370.056,104.394 L394.361,179.359 L418.667,286.795" fill-opacity="0" stroke="#3344AA" stroke-width="4" stroke-linecap="round" stroke-linejoin="round" id="box_jxgBoard1G68"/>
    </g>
    <g>
      <path d="M1,1.08 L1,1.08" fill-opacity="0" stroke="#0000FF" stroke-width="2" id="box_jxgBoard1L38" display="none"/>
      <path d="M1,1.08 L1,1.08" fill-opacity="0" stroke="#0000FF" stroke-width="2" id="box_jxgBoard1L45" display="none"/>
      <path d="M424,277.08 L454,277.08" fill-opacity="0" stroke="#000000" stroke-width="1" id="box_jxgBoard1L50"/>
      <path d="M424,277.08 L427,277.08" fill-opacity="0" stroke="#000000" stroke-width="3" id="box_jxgBoard1L55"/>
      <path d="M132,277.08 L162,277.08" fill-opacity="0" stroke="#000000" stroke-width="1" id="box_jxgBoard1L59" display="none"/>
      <path d="M132,277.08 L135,277.08" fill-opacity="0" stroke="#000000" stroke-width="3" id="box_jxgBoard1L64" display="none"/>
      <g display="none">
        <path d="M419,287.08 L419,287.08" fill-opacity="0" stroke="#333333" stroke-width="2" id="box_jxgBoard1L73"/>
        <path d="M424,282.08 L414,287.08 L424,292.08 z" fill="#333333" display="none"/>
        <path d="M414,282.08 L424,287.08 L414,292.08 z" fill="#333333" display="none"/>
      </g>
    </g>
    <g>
      <text transform="matrix(1, 0, 0, 1, 134.837, 299.495)" id="box_jxgBoard1L4_ticks_15Label1">
        <tspan x="-3.837" y="3.5" font-family="ArialMT" font-size="12" fill="#000000">1</tspan>
      </text>
      <text transform="matrix(1, 0, 0, 1, 176.504, 299.495)" id="box_jxgBoard1L4_ticks_110Label2">
        <tspan x="-3.837" y="3.5" font-family="ArialMT" font-size="12" fill="#000000">2</tspan>
      </text>
      <text transform="matrix(1, 0, 0, 1, 218.17, 299.495)" id="box_jxgBoard1L4_ticks_115Label3">
        <tspan x="-3.837" y="3.5" font-family="ArialMT" font-size="12" fill="#000000">3</tspan>
      </text>
      <text transform="matrix(1, 0, 0, 1, 259.837, 299.495)" id="box_jxgBoard1L4_ticks_120Label4">
        <tspan x="-3.837" y="3.5" font-family="ArialMT" font-size="12" fill="#000000">4</tspan>
      </text>
      <text transform="matrix(1, 0, 0, 1, 301.504, 299.495)" id="box_jxgBoard1L4_ticks_125Label5">
        <tspan x="-3.837" y="3.5" font-family="ArialMT" font-size="12" fill="#000000">5</tspan>
      </text>
      <text transform="matrix(1, 0, 0, 1, 343.17, 299.495)" id="box_jxgBoard1L4_ticks_130Label6">
        <tspan x="-3.837" y="3.5" font-family="ArialMT" font-size="12" fill="#000000">6</tspan>
      </text>
      <text transform="matrix(1, 0, 0, 1, 384.837, 299.495)" id="box_jxgBoard1L4_ticks_135Label7">
        <tspan x="-3.837" y="3.5" font-family="ArialMT" font-size="12" fill="#000000">7</tspan>
      </text>
      <text transform="matrix(1, 0, 0, 1, 426.504, 299.495)" id="box_jxgBoard1L4_ticks_140Label8">
        <tspan x="-3.837" y="3.5" font-family="ArialMT" font-size="12" fill="#000000">8</tspan>
      </text>
      <text transform="matrix(1, 0, 0, 1, 468.17, 299.495)" id="box_jxgBoard1L4_ticks_145Label9">
        <tspan x="-3.837" y="3.5" font-family="ArialMT" font-size="12" fill="#000000">9</tspan>
      </text>
      <text transform="matrix(1, 0, 0, 1, 55.007, 299.495)" id="box_jxgBoard1L4_ticks_154Label10">
        <tspan x="-7.341" y="3.5" font-family="ArialMT" font-size="12" fill="#000000">−1</tspan>
      </text>
      <text transform="matrix(1, 0, 0, 1, 93.17, 263.78)" id="box_jxgBoard1L19_ticks_15Label1">
        <tspan x="-3.837" y="3.5" font-family="ArialMT" font-size="12" fill="#000000">1</tspan>
      </text>
      <text transform="matrix(1, 0, 0, 1, 93.17, 228.066)" id="box_jxgBoard1L19_ticks_110Label2">
        <tspan x="-3.837" y="3.5" font-family="ArialMT" font-size="12" fill="#000000">2</tspan>
      </text>
      <text transform="matrix(1, 0, 0, 1, 93.17, 192.352)" id="box_jxgBoard1L19_ticks_115Label3">
        <tspan x="-3.837" y="3.5" font-family="ArialMT" font-size="12" fill="#000000">3</tspan>
      </text>
      <text transform="matrix(1, 0, 0, 1, 93.17, 156.638)" id="box_jxgBoard1L19_ticks_120Label4">
        <tspan x="-3.837" y="3.5" font-family="ArialMT" font-size="12" fill="#000000">4</tspan>
      </text>
      <text transform="matrix(1, 0, 0, 1, 93.17, 120.923)" id="box_jxgBoard1L19_ticks_125Label5">
        <tspan x="-3.837" y="3.5" font-family="ArialMT" font-size="12" fill="#000000">5</tspan>
      </text>
      <text transform="matrix(1, 0, 0, 1, 93.17, 85.209)" id="box_jxgBoard1L19_ticks_130Label6">
        <tspan x="-3.837" y="3.5" font-family="ArialMT" font-size="12" fill="#000000">6</tspan>
      </text>
      <text transform="matrix(1, 0, 0, 1, 93.17, 49.495)" id="box_jxgBoard1L19_ticks_135Label7">
        <tspan x="-3.837" y="3.5" font-family="ArialMT" font-size="12" fill="#000000">7</tspan>
      </text>
      <text transform="matrix(1, 0, 0, 1, 96.674, 335.209)" id="box_jxgBoard1L19_ticks_143Label8">
        <tspan x="-7.341" y="3.5" font-family="ArialMT" font-size="12" fill="#000000">−1</tspan>
      </text>
      <text transform="matrix(1, 0, 0, 1, 96.674, 370.923)" id="box_jxgBoard1L19_ticks_148Label9">
        <tspan x="-7.341" y="3.5" font-family="ArialMT" font-size="12" fill="#000000">−2</tspan>
      </text>
      <text transform="matrix(1, 0, 0, 1, 96.674, 406.638)" id="box_jxgBoard1L19_ticks_153Label10">
        <tspan x="-7.341" y="3.5" font-family="ArialMT" font-size="12" fill="#000000">−3</tspan>
      </text>
      <text transform="matrix(1, 0, 0, 1, 96.674, 442.352)" id="box_jxgBoard1L19_ticks_158Label11">
        <tspan x="-7.341" y="3.5" font-family="ArialMT" font-size="12" fill="#000000">−4</tspan>
      </text>
      <text transform="matrix(1, 0, 0, 1, 96.674, 478.066)" id="box_jxgBoard1L19_ticks_163Label12">
        <tspan x="-7.341" y="3.5" font-family="ArialMT" font-size="12" fill="#000000">−5</tspan>
      </text>
      <g id="box_jxgBoard1P39">
        <path d="M134,286.795 C134,290.661 130.866,293.795 127,293.795 C123.134,293.795 120,290.661 120,286.795 C120,282.929 123.134,279.795 127,279.795 C130.866,279.795 134,282.929 134,286.795 z" fill="#008000"/>
        <path d="M134,286.795 C134,290.661 130.866,293.795 127,293.795 C123.134,293.795 120,290.661 120,286.795 C120,282.929 123.134,279.795 127,279.795 C130.866,279.795 134,282.929 134,286.795 z" fill-opacity="0" stroke="#008000" stroke-width="2"/>
      </g>
      <g id="box_jxgBoard1P41">
        <path d="M425.667,286.795 C425.667,290.661 422.533,293.795 418.667,293.795 C414.801,293.795 411.667,290.661 411.667,286.795 C411.667,282.929 414.801,279.795 418.667,279.795 C422.533,279.795 425.667,282.929 425.667,286.795 z" fill="#FF0000"/>
        <path d="M425.667,286.795 C425.667,290.661 422.533,293.795 418.667,293.795 C414.801,293.795 411.667,290.661 411.667,286.795 C411.667,282.929 414.801,279.795 418.667,279.795 C422.533,279.795 425.667,282.929 425.667,286.795 z" fill-opacity="0" stroke="#FF0000" stroke-width="2"/>
      </g>
      <g id="box_jxgBoard1P46">
        <path d="M277.833,286.795 C277.833,289.556 275.595,291.795 272.833,291.795 C270.072,291.795 267.833,289.556 267.833,286.795 C267.833,284.033 270.072,281.795 272.833,281.795 C275.595,281.795 277.833,284.033 277.833,286.795 z" fill="#3344AA"/>
        <path d="M277.833,286.795 C277.833,289.556 275.595,291.795 272.833,291.795 C270.072,291.795 267.833,289.556 267.833,286.795 C267.833,284.033 270.072,281.795 272.833,281.795 C275.595,281.795 277.833,284.033 277.833,286.795 z" fill-opacity="0" stroke="#3344AA" stroke-width="2"/>
      </g>
      <g id="box_jxgBoard1P51">
        <path d="M434,276.795 C434,280.661 430.866,283.795 427,283.795 C423.134,283.795 420,280.661 420,276.795 C420,272.929 423.134,269.795 427,269.795 C430.866,269.795 434,272.929 434,276.795 z" fill="#FFFFFF"/>
        <path d="M434,276.795 C434,280.661 430.866,283.795 427,283.795 C423.134,283.795 420,280.661 420,276.795 C420,272.929 423.134,269.795 427,269.795 C430.866,269.795 434,272.929 434,276.795 z" fill-opacity="0" stroke="#000000" stroke-width="2"/>
      </g>
      <text transform="matrix(1, 0, 0, 1, 476.84, 280.495)" id="box_jxgBoard1T56">
        <tspan x="-13.174" y="3.5" font-family="ArialMT" font-size="12" fill="#000000">N 12</tspan>
      </text>
      <g id="box_jxgBoard1P60" display="none">
        <path d="M139,276.795 C139,280.661 135.866,283.795 132,283.795 C128.134,283.795 125,280.661 125,276.795 C125,272.929 128.134,269.795 132,269.795 C135.866,269.795 139,272.929 139,276.795 z" fill="#FFFFFF"/>
        <path d="M139,276.795 C139,280.661 135.866,283.795 132,283.795 C128.134,283.795 125,280.661 125,276.795 C125,272.929 128.134,269.795 132,269.795 C135.866,269.795 139,272.929 139,276.795 z" fill-opacity="0" stroke="#000000" stroke-width="2"/>
      </g>
      <text transform="matrix(1, 0, 0, 1, 185.194, 280.495)" id="box_jxgBoard1T65" display="none">
        <tspan x="-43.194" y="3.5" font-family="ArialMT" font-size="12" fill="#000000">attach rectangle</tspan>
      </text>
      <g id="box_jxgBoard1P69" display="none">
        <path d="M89,287.08 C89,289.29 87.209,291.08 85,291.08 C82.791,291.08 81,289.29 81,287.08 C81,284.871 82.791,283.08 85,283.08 C87.209,283.08 89,284.871 89,287.08 z" fill="#FF0000"/>
        <path d="M89,287.08 C89,289.29 87.209,291.08 85,291.08 C82.791,291.08 81,289.29 81,287.08 C81,284.871 82.791,283.08 85,283.08 C87.209,283.08 89,284.871 89,287.08 z" fill-opacity="0" stroke="#FF0000" stroke-width="2"/>
      </g>
      <g id="box_jxgBoard1P71" display="none">
        <path d="M89,287.08 C89,289.29 87.209,291.08 85,291.08 C82.791,291.08 81,289.29 81,287.08 C81,284.871 82.791,283.08 85,283.08 C87.209,283.08 89,284.871 89,287.08 z" fill="#FF0000"/>
        <path d="M89,287.08 C89,289.29 87.209,291.08 85,291.08 C82.791,291.08 81,289.29 81,287.08 C81,284.871 82.791,283.08 85,283.08 C87.209,283.08 89,284.871 89,287.08 z" fill-opacity="0" stroke="#FF0000" stroke-width="2"/>
      </g>
    </g>
  </g>
  <g id="text">
    <text transform="matrix(1, 0, 0, 1, 250, 431.279)">
      <tspan x="-58.315" y="5.5" font-family="Arial-BoldMT" font-size="60" fill="#000000">FTC</tspan>
    </text>
  </g>
</svg>
