<?xml version="1.0" encoding="UTF-8"?>
<!DOCTYPE svg PUBLIC "-//W3C//DTD SVG 1.1//EN" "http://www.w3.org/Graphics/SVG/1.1/DTD/svg11.dtd">
<svg version="1.1" xmlns="http://www.w3.org/2000/svg" xmlns:xlink="http://www.w3.org/1999/xlink" x="0" y="0" width="500" height="500" viewBox="0, 0, 500, 500">
  <g id="outline_box">
    <g>
      <path d="M58.826,12.221 L441.174,12.221 C466.913,12.221 487.779,33.087 487.779,58.826 L487.779,441.174 C487.779,466.913 466.913,487.779 441.174,487.779 L58.826,487.779 C33.087,487.779 12.221,466.913 12.221,441.174 L12.221,58.826 C12.221,33.087 33.087,12.221 58.826,12.221 z" fill="#FFFFFF"/>
      <path d="M58.826,12.221 L441.174,12.221 C466.913,12.221 487.779,33.087 487.779,58.826 L487.779,441.174 C487.779,466.913 466.913,487.779 441.174,487.779 L58.826,487.779 C33.087,487.779 12.221,466.913 12.221,441.174 L12.221,58.826 C12.221,33.087 33.087,12.221 58.826,12.221 z" fill-opacity="0" stroke="#CBCBCB" stroke-width="10"/>
    </g>
  </g>
  <g id="svg">
    <g>
      <g id="box_jxgBoard1P2" display="none">
        <path d="M149,353 C149,355.209 147.209,357 145,357 C142.791,357 141,355.209 141,353 C141,350.791 142.791,349 145,349 C147.209,349 149,350.791 149,353 z" fill="#FF0000"/>
        <path d="M149,353 C149,355.209 147.209,357 145,357 C142.791,357 141,355.209 141,353 C141,350.791 142.791,349 145,349 C147.209,349 149,350.791 149,353 z" fill-opacity="0" stroke="#0000FF" stroke-width="2"/>
      </g>
      <g id="box_jxgBoard1P3" display="none">
        <path d="M220,353 C220,355.209 218.209,357 216,357 C213.791,357 212,355.209 212,353 C212,350.791 213.791,349 216,349 C218.209,349 220,350.791 220,353 z" fill="#FF0000"/>
        <path d="M220,353 C220,355.209 218.209,357 216,357 C213.791,357 212,355.209 212,353 C212,350.791 213.791,349 216,349 C218.209,349 220,350.791 220,353 z" fill-opacity="0" stroke="#0000FF" stroke-width="2"/>
      </g>
      <g id="box_jxgBoard1P12" display="none">
        <path d="M149,353 C149,355.209 147.209,357 145,357 C142.791,357 141,355.209 141,353 C141,350.791 142.791,349 145,349 C147.209,349 149,350.791 149,353 z" fill="#FF0000"/>
        <path d="M149,353 C149,355.209 147.209,357 145,357 C142.791,357 141,355.209 141,353 C141,350.791 142.791,349 145,349 C147.209,349 149,350.791 149,353 z" fill-opacity="0" stroke="#0000FF" stroke-width="2"/>
      </g>
      <g id="box_jxgBoard1P13" display="none">
        <path d="M149,282 C149,284.209 147.209,286 145,286 C142.791,286 141,284.209 141,282 C141,279.791 142.791,278 145,278 C147.209,278 149,279.791 149,282 z" fill="#FF0000"/>
        <path d="M149,282 C149,284.209 147.209,286 145,286 C142.791,286 141,284.209 141,282 C141,279.791 142.791,278 145,278 C147.209,278 149,279.791 149,282 z" fill-opacity="0" stroke="#0000FF" stroke-width="2"/>
      </g>
      <g id="box_jxgBoard1P24" display="none">
        <path d="M149,353 C149,355.209 147.209,357 145,357 C142.791,357 141,355.209 141,353 C141,350.791 142.791,349 145,349 C147.209,349 149,350.791 149,353 z" fill="#FF0000"/>
        <path d="M149,353 C149,355.209 147.209,357 145,357 C142.791,357 141,355.209 141,353 C141,350.791 142.791,349 145,349 C147.209,349 149,350.791 149,353 z" fill-opacity="0" stroke="#0000FF" stroke-width="2"/>
      </g>
      <g id="box_jxgBoard1P25" display="none">
        <path d="M220,353 C220,355.209 218.209,357 216,357 C213.791,357 212,355.209 212,353 C212,350.791 213.791,349 216,349 C218.209,349 220,350.791 220,353 z" fill="#FF0000"/>
        <path d="M220,353 C220,355.209 218.209,357 216,357 C213.791,357 212,355.209 212,353 C212,350.791 213.791,349 216,349 C218.209,349 220,350.791 220,353 z" fill-opacity="0" stroke="#0000FF" stroke-width="2"/>
      </g>
    </g>
    <g>
      <g>
        <path d="M7,352.714 L489,352.714" fill-opacity="0" stroke="#666666" stroke-width="1" id="box_jxgBoard1L4"/>
        <path d="M485,348.714 L493,352.714 L485,356.714 z" fill="#666666"/>
      </g>
      <g id="box_jxgBoard1L4_ticks_1">
        <path d="M160,353 L160,358 M174,353 L174,358 M188,353 L188,358 M202,353 L202,358 M216,353 L216,373 M231,353 L231,358 M245,353 L245,358 M259,353 L259,358 M273,353 L273,358 M288,353 L288,373 M302,353 L302,358 M316,353 L316,358 M330,353 L330,358 M344,353 L344,358 M359,353 L359,373 M373,353 L373,358 M387,353 L387,358 M401,353 L401,358 M416,353 L416,358 M430,353 L430,373 M444,353 L444,358 M458,353 L458,358 M473,353 L473,358 M487,353 L487,358 M131,353 L131,358 M117,353 L117,358 M103,353 L103,358 M88,353 L88,358 M74,353 L74,373 M60,353 L60,358 M46,353 L46,358 M31,353 L31,358 M17,353 L17,358 M3,353 L3,373" fill="#000000"/>
        <path d="M160,353 L160,358 M174,353 L174,358 M188,353 L188,358 M202,353 L202,358 M216,353 L216,373 M231,353 L231,358 M245,353 L245,358 M259,353 L259,358 M273,353 L273,358 M288,353 L288,373 M302,353 L302,358 M316,353 L316,358 M330,353 L330,358 M344,353 L344,358 M359,353 L359,373 M373,353 L373,358 M387,353 L387,358 M401,353 L401,358 M416,353 L416,358 M430,353 L430,373 M444,353 L444,358 M458,353 L458,358 M473,353 L473,358 M487,353 L487,358 M131,353 L131,358 M117,353 L117,358 M103,353 L103,358 M88,353 L88,358 M74,353 L74,373 M60,353 L60,358 M46,353 L46,358 M31,353 L31,358 M17,353 L17,358 M3,353 L3,373" fill-opacity="0" stroke="#666666" stroke-width="1" stroke-opacity="0.25" stroke-linecap="round" stroke-linejoin="round"/>
      </g>
      <g>
        <path d="M145.286,491 L145.286,9" fill-opacity="0" stroke="#666666" stroke-width="1" id="box_jxgBoard1L14"/>
        <path d="M141.286,13 L145.286,5 L149.286,13 z" fill="#666666"/>
      </g>
      <g id="box_jxgBoard1L14_ticks_1">
        <path d="M145,338 L150,338 M145,324 L150,324 M145,310 L150,310 M145,296 L150,296 M145,282 L165,282 M145,267 L150,267 M145,253 L150,253 M145,239 L150,239 M145,225 L150,225 M145,210 L165,210 M145,196 L150,196 M145,182 L150,182 M145,168 L150,168 M145,154 L150,154 M145,139 L165,139 M145,125 L150,125 M145,111 L150,111 M145,97 L150,97 M145,82 L150,82 M145,68 L165,68 M145,54 L150,54 M145,40 L150,40 M145,25 L150,25 M145,11 L150,11 M145,367 L150,367 M145,381 L150,381 M145,395 L150,395 M145,410 L150,410 M145,424 L165,424 M145,438 L150,438 M145,452 L150,452 M145,467 L150,467 M145,481 L150,481 M145,495 L165,495" fill="#000000"/>
        <path d="M145,338 L150,338 M145,324 L150,324 M145,310 L150,310 M145,296 L150,296 M145,282 L165,282 M145,267 L150,267 M145,253 L150,253 M145,239 L150,239 M145,225 L150,225 M145,210 L165,210 M145,196 L150,196 M145,182 L150,182 M145,168 L150,168 M145,154 L150,154 M145,139 L165,139 M145,125 L150,125 M145,111 L150,111 M145,97 L150,97 M145,82 L150,82 M145,68 L165,68 M145,54 L150,54 M145,40 L150,40 M145,25 L150,25 M145,11 L150,11 M145,367 L150,367 M145,381 L150,381 M145,395 L150,395 M145,410 L150,410 M145,424 L165,424 M145,438 L150,438 M145,452 L150,452 M145,467 L150,467 M145,481 L150,481 M145,495 L165,495" fill-opacity="0" stroke="#666666" stroke-width="1" stroke-opacity="0.25" stroke-linecap="round" stroke-linejoin="round"/>
      </g>
    </g>
    <path d="M3,423.857 L3.707,423.15 L4.413,422.444 L5.12,421.737 L5.827,421.03 L6.533,420.324 L7.24,419.617 L7.947,418.91 L8.654,418.204 L9.36,417.497 L10.067,416.79 L10.774,416.083 L11.48,415.377 L12.187,414.67 L12.894,413.963 L13.6,413.257 L14.307,412.55 L15.014,411.843 L15.721,411.137 L16.427,410.43 L17.134,409.723 L17.841,409.017 L18.547,408.31 L19.254,407.603 L19.961,406.896 L20.667,406.19 L21.374,405.483 L22.081,404.776 L22.787,404.07 L23.494,403.363 L24.201,402.656 L24.908,401.95 L25.614,401.243 L26.321,400.536 L27.028,399.829 L27.734,399.123 L28.441,398.416 L29.148,397.709 L29.854,397.003 L30.561,396.296 L31.268,395.589 L31.975,394.883 L32.681,394.176 L33.388,393.469 L34.095,392.763 L34.801,392.056 L35.508,391.349 L36.215,390.642 L36.921,389.936 L37.628,389.229 L38.335,388.522 L39.041,387.816 L39.748,387.109 L40.455,386.402 L41.162,385.696 L41.868,384.989 L42.575,384.282 L43.282,383.576 L43.988,382.869 L44.695,382.162 L45.402,381.455 L46.108,380.749 L46.815,380.042 L47.522,379.335 L48.229,378.629 L48.935,377.922 L49.642,377.215 L50.349,376.509 L51.055,375.802 L51.762,375.095 L52.469,374.388 L53.175,373.682 L53.882,372.975 L54.589,372.268 L55.295,371.562 L56.002,370.855 L56.709,370.148 L57.416,369.442 L58.122,368.735 L58.829,368.028 L59.536,367.321 L60.242,366.615 L60.949,365.908 L61.656,365.201 L62.362,364.495 L63.069,363.788 L63.776,363.081 L64.483,362.375 L65.189,361.668 L65.896,360.961 L66.603,360.255 L67.309,359.548 L68.016,358.841 L68.723,358.134 L69.429,357.428 L70.136,356.721 L70.843,356.014 L71.549,355.308 L72.256,354.601 L72.963,353.894 L73.67,353.188 L74.376,352.481 L75.083,351.774 L75.79,351.068 L76.496,350.361 L77.203,349.654 L77.91,348.947 L78.616,348.241 L79.323,347.534 L80.03,346.827 L80.737,346.121 L81.443,345.414 L82.15,344.707 L82.857,344.001 L83.563,343.294 L84.27,342.587 L84.977,341.88 L85.683,341.174 L86.39,340.467 L87.097,339.76 L87.803,339.054 L88.51,338.347 L89.217,337.64 L89.924,336.934 L90.63,336.227 L91.337,335.52 L92.044,334.813 L92.75,334.107 L93.457,333.4 L94.164,332.693 L94.87,331.987 L95.577,331.28 L96.284,330.573 L96.991,329.867 L97.697,329.16 L98.404,328.453 L99.111,327.747 L99.817,327.04 L100.524,326.333 L101.231,325.626 L101.937,324.92 L102.644,324.213 L103.351,323.506 L104.057,322.8 L104.764,322.093 L105.471,321.386 L106.178,320.68 L106.884,319.973 L107.591,319.266 L108.298,318.56 L109.004,317.853 L109.711,317.146 L110.418,316.439 L111.124,315.733 L111.831,315.026 L112.538,314.319 L113.245,313.613 L113.951,312.906 L114.658,312.199 L115.365,311.493 L116.071,310.786 L116.778,310.079 L117.485,309.372 L118.191,308.666 L118.898,307.959 L119.605,307.252 L120.311,306.546 L121.018,305.839 L121.725,305.132 L122.432,304.426 L123.138,303.719 L123.845,303.012 L124.552,302.305 L125.258,301.599 L125.965,300.892 L126.672,300.185 L127.378,299.479 L128.085,298.772 L128.792,298.065 L129.499,297.359 L130.205,296.652 L130.912,295.945 L131.619,295.239 L132.325,294.532 L133.032,293.825 L133.739,293.118 L134.445,292.412 L135.152,291.705 L135.859,290.998 L136.565,290.292 L137.272,289.585 L137.979,288.878 L138.686,288.172 L139.392,287.465 L140.099,286.758 L140.806,286.052 L141.512,285.345 L142.219,284.638 L142.926,283.931 L143.632,283.225 L144.339,282.518 L145.046,281.811 L145.753,281.105 L146.459,280.398 L147.166,279.691 L147.873,278.985 L148.579,278.278 L149.286,277.571 L149.993,276.864 L150.699,276.158 L151.406,275.451 L152.113,274.744 L152.819,274.038 L153.526,273.331 L154.233,272.624 L154.94,271.918 L155.646,271.211 L156.353,270.504 L157.06,269.797 L157.766,269.091 L158.473,268.384 L159.18,267.677 L159.886,266.971 L160.593,266.264 L161.3,265.557 L162.007,264.851 L162.713,264.144 L163.42,263.437 L164.127,262.731 L164.833,262.024 L165.54,261.317 L166.247,260.61 L166.953,259.904 L167.66,259.197 L168.367,258.49 L169.073,257.784 L169.78,257.077 L170.487,256.37 L171.194,255.664 L171.9,254.957 L172.607,254.25 L173.314,253.544 L174.02,252.837 L174.727,252.13 L175.434,251.423 L176.14,250.717 L176.847,250.01 L177.554,249.303 L178.26,248.597 L178.967,247.89 L179.674,247.183 L180.381,246.477 L181.087,245.77 L181.794,245.063 L182.501,244.356 L183.207,243.65 L183.914,242.943 L184.621,242.236 L185.327,241.53 L186.034,240.823 L186.741,240.116 L187.448,239.41 L188.154,238.703 L188.861,237.996 L189.568,237.29 L190.274,236.583 L190.981,235.876 L191.688,235.169 L192.394,234.463 L193.101,233.756 L193.808,233.049 L194.514,232.343 L195.221,231.636 L195.928,230.929 L196.635,230.223 L197.341,229.516 L198.048,228.809 L198.755,228.102 L199.461,227.396 L200.168,226.689 L200.875,225.982 L201.581,225.276 L202.288,224.569 L202.995,223.862 L203.702,223.156 L204.408,222.449 L205.115,221.742 L205.822,221.036 L206.528,220.329 L207.235,219.622 L207.942,218.915 L208.648,218.209 L209.355,217.502 L210.062,216.795 L210.768,216.089 L211.475,215.382 L212.182,214.675 L212.889,213.969 L213.595,213.262 L214.302,212.555 L215.009,211.848 L215.715,211.142 L216.422,210.435 L217.129,209.728 L217.835,209.022 L218.542,208.315 L219.249,207.608 L219.956,206.902 L220.662,206.195 L221.369,205.488 L222.076,204.782 L222.782,204.075 L223.489,203.368 L224.196,202.661 L224.902,201.955 L225.609,201.248 L226.316,200.541 L227.022,199.835 L227.729,199.128 L228.436,198.421 L229.143,197.715 L229.849,197.008 L230.556,196.301 L231.263,195.594 L231.969,194.888 L232.676,194.181 L233.383,193.474 L234.089,192.768 L234.796,192.061 L235.503,191.354 L236.21,190.648 L236.916,189.941 L237.623,189.234 L238.33,188.528 L239.036,187.821 L239.743,187.114 L240.45,186.407 L241.156,185.701 L241.863,184.994 L242.57,184.287 L243.276,183.581 L243.983,182.874 L244.69,182.167 L245.397,181.461 L246.103,180.754 L246.81,180.047 L247.517,179.34 L248.223,178.634 L248.93,177.927 L249.637,177.22 L250.343,176.514 L251.05,175.807 L251.757,175.1 L252.464,174.394 L253.17,173.687 L253.877,172.98 L254.584,172.274 L255.29,171.567 L255.997,170.86 L256.704,170.153 L257.41,169.447 L258.117,168.74 L258.824,168.033 L259.53,167.327 L260.237,166.62 L260.944,165.913 L261.651,165.207 L262.357,164.5 L263.064,163.793 L263.771,163.086 L264.477,162.38 L265.184,161.673 L265.891,160.966 L266.597,160.26 L267.304,159.553 L268.011,158.846 L268.718,158.14 L269.424,157.433 L270.131,156.726 L270.838,156.02 L271.544,155.313 L272.251,154.606 L272.958,153.899 L273.664,153.193 L274.371,152.486 L275.078,151.779 L275.784,151.073 L276.491,150.366 L277.198,149.659 L277.905,148.953 L278.611,148.246 L279.318,147.539 L280.025,146.832 L280.731,146.126 L281.438,145.419 L282.145,144.712 L282.851,144.006 L283.558,143.299 L284.265,142.592 L284.972,141.886 L285.678,141.179 L286.385,140.472 L287.092,139.766 L287.798,139.059 L288.505,138.352 L289.212,137.645 L289.918,136.939 L290.625,136.232 L291.332,135.525 L292.038,134.819 L292.745,134.112 L293.452,133.405 L294.159,132.699 L294.865,131.992 L295.572,131.285 L296.279,130.578 L296.985,129.872 L297.692,129.165 L298.399,128.458 L299.105,127.752 L299.812,127.045 L300.519,126.338 L301.226,125.632 L301.932,124.925 L302.639,124.218 L303.346,123.512 L304.052,122.805 L304.759,122.098 L305.466,121.391 L306.172,120.685 L306.879,119.978 L307.586,119.271 L308.292,118.565 L308.999,117.858 L309.706,117.151 L310.413,116.445 L311.119,115.738 L311.826,115.031 L312.533,114.324 L313.239,113.618 L313.946,112.911 L314.653,112.204 L315.359,111.498 L316.066,110.791 L316.773,110.084 L317.48,109.378 L318.186,108.671 L318.893,107.964 L319.6,107.258 L320.306,106.551 L321.013,105.844 L321.72,105.137 L322.426,104.431 L323.133,103.724 L323.84,103.017 L324.546,102.311 L325.253,101.604 L325.96,100.897 L326.667,100.191 L327.373,99.484 L328.08,98.777 L328.787,98.07 L329.493,97.364 L330.2,96.657 L330.907,95.95 L331.613,95.244 L332.32,94.537 L333.027,93.83 L333.734,93.124 L334.44,92.417 L335.147,91.71 L335.854,91.004 L336.56,90.297 L337.267,89.59 L337.974,88.883 L338.68,88.177 L339.387,87.47 L340.094,86.763 L340.8,86.057 L341.507,85.35 L342.214,84.643 L342.921,83.937 L343.627,83.23 L344.334,82.523 L345.041,81.816 L345.747,81.11 L346.454,80.403 L347.161,79.696 L347.867,78.99 L348.574,78.283 L349.281,77.576 L349.988,76.87 L350.694,76.163 L351.401,75.456 L352.108,74.75 L352.814,74.043 L353.521,73.336 L354.228,72.629 L354.934,71.923 L355.641,71.216 L356.348,70.509 L357.054,69.803 L357.761,69.096 L358.468,68.389 L359.175,67.683 L359.881,66.976 L360.588,66.269 L361.295,65.562 L362.001,64.856 L362.708,64.149 L363.415,63.442 L364.121,62.736 L364.828,62.029 L365.535,61.322 L366.242,60.616 L366.948,59.909 L367.655,59.202 L368.362,58.496 L369.068,57.789 L369.775,57.082 L370.482,56.375 L371.188,55.669 L371.895,54.962 L372.602,54.255 L373.308,53.549 L374.015,52.842 L374.722,52.135 L375.429,51.429 L376.135,50.722 L376.842,50.015 L377.549,49.308 L378.255,48.602 L378.962,47.895 L379.669,47.188 L380.375,46.482 L381.082,45.775 L381.789,45.068 L382.496,44.362 L383.202,43.655 L383.909,42.948 L384.616,42.242 L385.322,41.535 L386.029,40.828 L386.736,40.121 L387.442,39.415 L388.149,38.708 L388.856,38.001 L389.562,37.295 L390.269,36.588 L390.976,35.881 L391.683,35.175 L392.389,34.468 L393.096,33.761 L393.803,33.054 L394.509,32.348 L395.216,31.641 L395.923,30.934 L396.629,30.228 L397.336,29.521 L398.043,28.814 L398.75,28.108 L399.456,27.401 L400.163,26.694 L400.87,25.988 L401.576,25.281 L402.283,24.574 L402.99,23.867 L403.696,23.161 L404.403,22.454 L405.11,21.747 L405.816,21.041 L406.523,20.334 L407.23,19.627 L407.937,18.921 L408.643,18.214 L409.35,17.507 L410.057,16.8 L410.763,16.094 L411.47,15.387 L412.177,14.68 L412.883,13.974 L413.59,13.267 L414.297,12.56 L415.004,11.854 L415.71,11.147 L416.417,10.44 L417.124,9.734 L417.83,9.027 L418.537,8.32 L419.244,7.613 L419.95,6.907 L420.657,6.2 L421.364,5.493 L422.07,4.787 L422.777,4.08 L423.484,3.373 L424.191,2.667 L424.897,1.96 L425.604,1.253 L426.311,0.546 L427.017,-0.16 L427.724,-0.867 L428.431,-1.574 L429.137,-2.28 L429.844,-2.987 L430.551,-3.694 L431.258,-4.4 L431.964,-5.107 L432.671,-5.814 L433.378,-6.52 L434.084,-7.227 L434.791,-7.934 L435.498,-8.641 L436.204,-9.347 L436.911,-10.054 L437.618,-10.761 L438.324,-11.467 L439.031,-12.174 L439.738,-12.881 L440.445,-13.587 L441.151,-14.294 L441.858,-15.001 L442.565,-15.708 L443.271,-16.414 L443.978,-17.121 L444.685,-17.828 L445.391,-18.534 L446.098,-19.241 L446.805,-19.948 L447.512,-20.654 L448.218,-21.361 L448.925,-22.068 L449.632,-22.774 L450.338,-23.481 L451.045,-24.188 L451.752,-24.895 L452.458,-25.601 L453.165,-26.308 L453.872,-27.015 L454.578,-27.721 L455.285,-28.428 L455.992,-29.135 L456.699,-29.841 L457.405,-30.548 L458.112,-31.255 L458.819,-31.962 L459.525,-32.668 L460.232,-33.375 L460.939,-34.082 L461.645,-34.788 L462.352,-35.495 L463.059,-36.202 L463.766,-36.908 L464.472,-37.615 L465.179,-38.322 L465.886,-39.028 L466.592,-39.735 L467.299,-40.442 L468.006,-41.149 L468.712,-41.855 L469.419,-42.562 L470.126,-43.269 L470.832,-43.975 L471.539,-44.682 L472.246,-45.389 L472.953,-46.095 L473.659,-46.802 L474.366,-47.509 L475.073,-48.215 L475.779,-48.922 L476.486,-49.629 L477.193,-50.336 L477.899,-51.042 L478.606,-51.749 L479.313,-52.456 L480.02,-53.162 L480.726,-53.869 L481.433,-54.576 L482.14,-55.282 L482.846,-55.989 L483.553,-56.696 L484.26,-57.403 L484.966,-58.109 L485.673,-58.816 L486.38,-59.523 L487.086,-60.229 L487.793,-60.936 L488.5,-61.643 L489.207,-62.349 L489.913,-63.056 L490.62,-63.763 L491.327,-64.469 L492.033,-65.176 L492.74,-65.883 L493.447,-66.59 L494.153,-67.296 L494.86,-68.003 L495.567,-68.71 L496.273,-69.416 L496.98,-70.123 L497.687,-70.83 L498.394,-71.536 L499.1,-72.243 L499.807,-72.95 L500.514,-73.657 L501,-74.143" fill-opacity="0" stroke="#CCCCCC" stroke-width="3" stroke-linecap="round" stroke-linejoin="round" id="box_jxgBoard1G22"/>
    <g>
      <text transform="matrix(1, 0, 0, 1, 224.265, 365.414)" id="box_jxgBoard1L4_ticks_15Label1">
        <tspan x="-3.837" y="3.5" font-family="ArialMT" font-size="12" fill="#000000">1</tspan>
      </text>
      <text transform="matrix(1, 0, 0, 1, 295.408, 365.414)" id="box_jxgBoard1L4_ticks_110Label2">
        <tspan x="-3.837" y="3.5" font-family="ArialMT" font-size="12" fill="#000000">2</tspan>
      </text>
      <text transform="matrix(1, 0, 0, 1, 366.551, 365.414)" id="box_jxgBoard1L4_ticks_115Label3">
        <tspan x="-3.837" y="3.5" font-family="ArialMT" font-size="12" fill="#000000">3</tspan>
      </text>
      <text transform="matrix(1, 0, 0, 1, 437.694, 365.414)" id="box_jxgBoard1L4_ticks_120Label4">
        <tspan x="-3.837" y="3.5" font-family="ArialMT" font-size="12" fill="#000000">4</tspan>
      </text>
      <text transform="matrix(1, 0, 0, 1, 85.484, 365.414)" id="box_jxgBoard1L4_ticks_129Label5">
        <tspan x="-7.341" y="3.5" font-family="ArialMT" font-size="12" fill="#000000">−1</tspan>
      </text>
      <text transform="matrix(1, 0, 0, 1, 153.123, 294.271)" id="box_jxgBoard1L14_ticks_15Label1">
        <tspan x="-3.837" y="3.5" font-family="ArialMT" font-size="12" fill="#000000">1</tspan>
      </text>
      <text transform="matrix(1, 0, 0, 1, 153.123, 223.129)" id="box_jxgBoard1L14_ticks_110Label2">
        <tspan x="-3.837" y="3.5" font-family="ArialMT" font-size="12" fill="#000000">2</tspan>
      </text>
      <text transform="matrix(1, 0, 0, 1, 153.123, 151.986)" id="box_jxgBoard1L14_ticks_115Label3">
        <tspan x="-3.837" y="3.5" font-family="ArialMT" font-size="12" fill="#000000">3</tspan>
      </text>
      <text transform="matrix(1, 0, 0, 1, 153.123, 80.843)" id="box_jxgBoard1L14_ticks_120Label4">
        <tspan x="-3.837" y="3.5" font-family="ArialMT" font-size="12" fill="#000000">4</tspan>
      </text>
      <text transform="matrix(1, 0, 0, 1, 156.627, 436.557)" id="box_jxgBoard1L14_ticks_129Label5">
        <tspan x="-7.341" y="3.5" font-family="ArialMT" font-size="12" fill="#000000">−1</tspan>
      </text>
      <g id="box_jxgBoard1P27">
        <path d="M145.286,340.714 L134.893,358.714 L155.678,358.714 z" fill="#66AAFF"/>
        <path d="M145.286,340.714 L134.893,358.714 L155.678,358.714 z" fill-opacity="0" stroke="#66AAFF" stroke-width="2" stroke-linecap="round" stroke-linejoin="round"/>
      </g>
      <g id="box_jxgBoard1P29">
        <path d="M221,210 C221,212.761 218.761,215 216,215 C213.239,215 211,212.761 211,210 C211,207.239 213.239,205 216,205 C218.761,205 221,207.239 221,210 z" fill="#FFFFFF" fill-opacity="0.6"/>
        <path d="M221,210 C221,212.761 218.761,215 216,215 C213.239,215 211,212.761 211,210 C211,207.239 213.239,205 216,205 C218.761,205 221,207.239 221,210 z" fill-opacity="0" stroke="#CCCCCC" stroke-width="2"/>
      </g>
      <g id="box_jxgBoard1P31">
        <path d="M150.286,281.571 C150.286,284.333 148.047,286.571 145.286,286.571 C142.524,286.571 140.286,284.333 140.286,281.571 C140.286,278.81 142.524,276.571 145.286,276.571 C148.047,276.571 150.286,278.81 150.286,281.571 z" fill="#3344AA"/>
        <path d="M150.286,281.571 C150.286,284.333 148.047,286.571 145.286,286.571 C142.524,286.571 140.286,284.333 140.286,281.571 C140.286,278.81 142.524,276.571 145.286,276.571 C148.047,276.571 150.286,278.81 150.286,281.571 z" fill-opacity="0" stroke="#3344AA" stroke-width="2"/>
      </g>
      <text transform="matrix(1, 0, 0, 1, 184.621, 280.491)" id="box_jxgBoard1T33">
        <tspan x="-34.355" y="4.5" font-family="ArialMT" font-size="14" fill="#000000">(0.00,1.00)</tspan>
      </text>
    </g>
  </g>
  <g id="text">
    <text transform="matrix(1, 0, 0, 1, 250, 434.279)">
      <tspan x="-61.67" y="5.5" font-family="Arial-BoldMT" font-size="60" fill="#000000">limit</tspan>
    </text>
  </g>
  <g id="mask" display="none">
    <g>
      <path d="M58.047,11.442 L440.395,11.442 C466.134,11.442 487,32.308 487,58.047 L487,440.395 C487,466.134 466.134,487 440.395,487 L58.047,487 C32.308,487 11.442,466.134 11.442,440.395 L11.442,58.047 C11.442,32.308 32.308,11.442 58.047,11.442 z" fill="#0A0A0A" fill-opacity="0.223"/>
      <path d="M58.047,11.442 L440.395,11.442 C466.134,11.442 487,32.308 487,58.047 L487,440.395 C487,466.134 466.134,487 440.395,487 L58.047,487 C32.308,487 11.442,466.134 11.442,440.395 L11.442,58.047 C11.442,32.308 32.308,11.442 58.047,11.442 z" fill-opacity="0" stroke="#CBCBCB" stroke-width="10"/>
    </g>
  </g>
</svg>
