<?xml version="1.0" encoding="UTF-8"?>
<!DOCTYPE svg PUBLIC "-//W3C//DTD SVG 1.1//EN" "http://www.w3.org/Graphics/SVG/1.1/DTD/svg11.dtd">
<svg version="1.1" xmlns="http://www.w3.org/2000/svg" xmlns:xlink="http://www.w3.org/1999/xlink" x="0" y="0" width="500" height="500" viewBox="0, 0, 500, 500">
  <defs>
    <radialGradient id="Gradient_1" gradientUnits="userSpaceOnUse" cx="220.759" cy="253.089" r="245.833">
      <stop offset="0.027" stop-color="#C8FF64"/>
      <stop offset="0.601" stop-color="#6ECF78"/>
      <stop offset="1" stop-color="#14A082"/>
    </radialGradient>
  </defs>
  <g id="Layer_3">
    <g>
      <path d="M59.326,12.721 L441.674,12.721 C467.413,12.721 488.279,33.587 488.279,59.326 L488.279,441.674 C488.279,467.413 467.413,488.279 441.674,488.279 L59.326,488.279 C33.587,488.279 12.721,467.413 12.721,441.674 L12.721,59.326 C12.721,33.587 33.587,12.721 59.326,12.721 z" fill="url(#Gradient_1)"/>
      <path d="M59.326,12.721 L441.674,12.721 C467.413,12.721 488.279,33.587 488.279,59.326 L488.279,441.674 C488.279,467.413 467.413,488.279 441.674,488.279 L59.326,488.279 C33.587,488.279 12.721,467.413 12.721,441.674 L12.721,59.326 C12.721,33.587 33.587,12.721 59.326,12.721 z" fill-opacity="0" stroke="#B8B8B8" stroke-width="16"/>
    </g>
  </g>
  <g id="Layer_1">
    <path d="M43.5,235.5 L43.5,235.5" fill-opacity="0" stroke="#383838" stroke-width="1" stroke-linecap="round" stroke-linejoin="round"/>
    <path d="M298.216,103.713 L410.584,103.713 C429.26,103.713 444.4,118.111 444.4,135.872 L444.4,271.554 C444.4,289.315 429.26,303.713 410.584,303.713 L298.216,303.713 C279.54,303.713 264.4,289.315 264.4,271.554 L264.4,135.872 C264.4,118.111 279.54,103.713 298.216,103.713 z" fill="#FFFFFF"/>
    <path d="M89.416,103.713 L201.784,103.713 C220.46,103.713 235.6,118.111 235.6,135.872 L235.6,271.554 C235.6,289.315 220.46,303.713 201.784,303.713 L89.416,303.713 C70.74,303.713 55.6,289.315 55.6,271.554 L55.6,135.872 C55.6,118.111 70.74,103.713 89.416,103.713 z" fill="#FFFFFF"/>
    <g>
      <path d="M114.395,188.774 C102.921,188.774 93.619,179.655 93.619,168.406 C93.619,157.157 102.921,148.038 114.395,148.038 C125.869,148.038 135.17,157.157 135.17,168.406 C135.17,179.655 125.869,188.774 114.395,188.774 z" fill="#30B5FF"/>
      <path d="M114.395,188.774 C102.921,188.774 93.619,179.655 93.619,168.406 C93.619,157.157 102.921,148.038 114.395,148.038 C125.869,148.038 135.17,157.157 135.17,168.406 C135.17,179.655 125.869,188.774 114.395,188.774 z" fill-opacity="0" stroke="#006CAA" stroke-width="4"/>
    </g>
    <g>
      <path d="M182.353,279.159 C170.878,279.159 161.577,270.04 161.577,258.791 C161.577,247.542 170.878,238.423 182.353,238.423 C193.827,238.423 203.128,247.542 203.128,258.791 C203.128,270.04 193.827,279.159 182.353,279.159 z" fill="#9F2DCF"/>
      <path d="M182.353,279.159 C170.878,279.159 161.577,270.04 161.577,258.791 C161.577,247.542 170.878,238.423 182.353,238.423 C193.827,238.423 203.128,247.542 203.128,258.791 C203.128,270.04 193.827,279.159 182.353,279.159 z" fill-opacity="0" stroke="#400D56" stroke-width="4"/>
    </g>
    <g>
      <path d="M386.605,180.577 C375.131,180.577 365.83,171.458 365.83,160.209 C365.83,148.96 375.131,139.841 386.605,139.841 C398.079,139.841 407.381,148.96 407.381,160.209 C407.381,171.458 398.079,180.577 386.605,180.577 z" fill="#9F2DCF"/>
      <path d="M386.605,180.577 C375.131,180.577 365.83,171.458 365.83,160.209 C365.83,148.96 375.131,139.841 386.605,139.841 C398.079,139.841 407.381,148.96 407.381,160.209 C407.381,171.458 398.079,180.577 386.605,180.577 z" fill-opacity="0" stroke="#400D56" stroke-width="4"/>
    </g>
    <g>
      <path d="M102.833,262.424 C91.359,262.424 82.058,253.305 82.058,242.056 C82.058,230.807 91.359,221.688 102.833,221.688 C114.307,221.688 123.609,230.807 123.609,242.056 C123.609,253.305 114.307,262.424 102.833,262.424 z" fill="#9F2DCF"/>
      <path d="M102.833,262.424 C91.359,262.424 82.058,253.305 82.058,242.056 C82.058,230.807 91.359,221.688 102.833,221.688 C114.307,221.688 123.609,230.807 123.609,242.056 C123.609,253.305 114.307,262.424 102.833,262.424 z" fill-opacity="0" stroke="#400D56" stroke-width="4"/>
    </g>
    <text transform="matrix(1, 0, 0, 1, 250, 384.213)">
      <tspan x="-121.714" y="-14.5" font-family="Arial-BoldMT" font-size="60" fill="#000000">negative </tspan>
      <tspan x="-90.029" y="54.5" font-family="Arial-BoldMT" font-size="60" fill="#000000">binary</tspan>
    </text>
  </g>
</svg>
