<?xml version="1.0" encoding="UTF-8"?>
<!DOCTYPE svg PUBLIC "-//W3C//DTD SVG 1.1//EN" "http://www.w3.org/Graphics/SVG/1.1/DTD/svg11.dtd">
<svg version="1.1" xmlns="http://www.w3.org/2000/svg" xmlns:xlink="http://www.w3.org/1999/xlink" x="0" y="0" width="800" height="150" viewBox="0, 0, 800, 150">
  <g id="Layer_1">
    <g>
      <path d="M0.5,0.5 L800.5,0.5 L800.5,150.5 L0.5,150.5 L0.5,0.5 z" fill="#88EEDD"/>
      <path d="M0.5,0.5 L800.5,0.5 L800.5,150.5 L0.5,150.5 L0.5,0.5 z" fill-opacity="0" stroke="#000000" stroke-width="1"/>
    </g>
  </g>
  <g id="Layer_2">
    <path d="M50.787,25 L113.213,25 C123.589,25 132,32.199 132,41.079 L132,108.921 C132,117.801 123.589,125 113.213,125 L50.787,125 C40.411,125 32,117.801 32,108.921 L32,41.079 C32,32.199 40.411,25 50.787,25 z" fill="#FFFFFF"/>
    <path d="M167.787,25 L230.213,25 C240.589,25 249,32.199 249,41.079 L249,108.921 C249,117.801 240.589,125 230.213,125 L167.787,125 C157.411,125 149,117.801 149,108.921 L149,41.079 C149,32.199 157.411,25 167.787,25 z" fill="#FFFFFF"/>
    <path d="M282.787,25 L345.213,25 C355.589,25 364,32.199 364,41.079 L364,108.921 C364,117.801 355.589,125 345.213,125 L282.787,125 C272.411,125 264,117.801 264,108.921 L264,41.079 C264,32.199 272.411,25 282.787,25 z" fill="#FFFFFF"/>
    <path d="M447.787,25 L510.213,25 C520.589,25 529,32.199 529,41.079 L529,108.921 C529,117.801 520.589,125 510.213,125 L447.787,125 C437.411,125 429,117.801 429,108.921 L429,41.079 C429,32.199 437.411,25 447.787,25 z" fill="#FFFFFF"/>
    <path d="M564.787,25 L627.213,25 C637.589,25 646,32.199 646,41.079 L646,108.921 C646,117.801 637.589,125 627.213,125 L564.787,125 C554.411,125 546,117.801 546,108.921 L546,41.079 C546,32.199 554.411,25 564.787,25 z" fill="#FFFFFF"/>
    <path d="M682.787,25 L745.213,25 C755.589,25 764,32.199 764,41.079 L764,108.921 C764,117.801 755.589,125 745.213,125 L682.787,125 C672.411,125 664,117.801 664,108.921 L664,41.079 C664,32.199 672.411,25 682.787,25 z" fill="#FFFFFF"/>
    <path d="M400,23.5 L398.5,120.5" fill-opacity="0" stroke="#00CDCF" stroke-width="6"/>
    <path d="M645.5,227.5 L644.5,227.5" fill-opacity="0" stroke="#007F50" stroke-width="6"/>
    <g>
      <text transform="matrix(1, 0, 0, 1, 314, 52.5)">
        <tspan x="-12" y="39.5" font-family="Times-Roman" font-size="48" fill="#C4A9DC">1</tspan>
      </text>
      <path d="M316.203,59.797 Q316.297,59.914 316.309,59.973 Q316.32,60.031 316.32,60.242 L316.32,88.461 Q316.32,90.266 317.281,90.758 Q318.242,91.25 320.867,91.344 L320.867,92 L307.648,92 L307.648,91.297 Q310.484,91.156 311.352,90.523 Q312.219,89.891 312.219,87.781 L312.219,66.078 Q312.219,64.953 311.938,64.367 Q311.656,63.781 310.719,63.781 Q310.109,63.781 309.137,64.121 Q308.164,64.461 307.32,64.836 L307.32,64.18 L315.922,59.797 z" fill-opacity="0" stroke="#C4A8DC" stroke-width="1"/>
    </g>
    <g>
      <text transform="matrix(1, 0, 0, 1, 199, 50.5)">
        <tspan x="-10.652" y="40" font-family="Times-Italic" font-size="48" fill="#C4A9DC">x</tspan>
      </text>
      <path d="M187.012,88.906 Q187.012,87.992 187.574,87.605 Q188.137,87.219 188.723,87.219 Q189.004,87.219 189.285,87.301 Q189.566,87.383 189.895,87.57 L190.715,88.016 Q190.879,88.109 191.031,88.145 Q191.184,88.18 191.371,88.18 Q191.957,88.18 192.273,87.887 Q192.59,87.594 193.902,85.836 Q194.77,84.688 197.84,80.234 Q197.84,80.07 197.301,77.715 Q196.762,75.359 196.316,73.719 Q195.871,72.055 195.52,71.527 Q195.168,71 194.207,71 Q193.879,71 192.918,71.234 Q192.309,71.375 191.605,71.562 L191.395,70.836 L193.996,69.945 Q195.004,69.594 195.859,69.383 Q196.715,69.172 197.324,69.172 Q198.309,69.172 198.801,69.758 Q199.551,70.695 200.066,73.461 L200.559,76.133 Q202.668,72.898 203.84,71.586 Q204.895,70.391 205.832,69.805 Q206.77,69.219 207.613,69.219 Q208.41,69.219 208.902,69.453 Q209.793,69.875 209.793,71.047 Q209.793,71.844 209.348,72.289 Q208.902,72.734 208.199,72.734 Q207.941,72.734 207.707,72.676 Q207.473,72.617 207.215,72.5 L206.605,72.242 Q206.348,72.125 206.113,72.043 Q205.879,71.961 205.762,71.961 Q204.707,71.961 202.832,74.691 Q200.957,77.422 200.957,77.844 Q200.957,78.195 201.391,80.129 Q201.824,82.062 202.34,84.219 Q202.809,86.258 203.137,87.031 Q203.676,88.297 204.355,88.297 Q204.988,88.297 205.645,87.594 Q206.301,86.891 207.613,85.062 L208.27,85.461 Q207.262,87.289 206.184,88.578 Q204.145,91.016 202.293,91.016 Q201.121,91.016 200.441,89.891 Q200.043,89.234 199.668,87.734 L198.215,81.945 L193.41,88.25 Q192.004,89.891 191.242,90.453 Q190.48,91.016 189.355,91.016 Q187.855,91.016 187.316,90.078 Q187.012,89.586 187.012,88.906 z" fill-opacity="0" stroke="#C4A8DC" stroke-width="1"/>
    </g>
    <g>
      <text transform="matrix(1, 0, 0, 1, 82, 79.5)">
        <tspan x="-10.652" y="11" font-family="Times-Italic" font-size="48" fill="#C4A9DC">x</tspan>
      </text>
      <path d="M70.012,88.906 Q70.012,87.992 70.574,87.605 Q71.137,87.219 71.723,87.219 Q72.004,87.219 72.285,87.301 Q72.566,87.383 72.895,87.57 L73.715,88.016 Q73.879,88.109 74.031,88.145 Q74.184,88.18 74.371,88.18 Q74.957,88.18 75.273,87.887 Q75.59,87.594 76.902,85.836 Q77.77,84.688 80.84,80.234 Q80.84,80.07 80.301,77.715 Q79.762,75.359 79.316,73.719 Q78.871,72.055 78.52,71.527 Q78.168,71 77.207,71 Q76.879,71 75.918,71.234 Q75.309,71.375 74.605,71.562 L74.395,70.836 L76.996,69.945 Q78.004,69.594 78.859,69.383 Q79.715,69.172 80.324,69.172 Q81.309,69.172 81.801,69.758 Q82.551,70.695 83.066,73.461 L83.559,76.133 Q85.668,72.898 86.84,71.586 Q87.895,70.391 88.832,69.805 Q89.77,69.219 90.613,69.219 Q91.41,69.219 91.902,69.453 Q92.793,69.875 92.793,71.047 Q92.793,71.844 92.348,72.289 Q91.902,72.734 91.199,72.734 Q90.941,72.734 90.707,72.676 Q90.473,72.617 90.215,72.5 L89.605,72.242 Q89.348,72.125 89.113,72.043 Q88.879,71.961 88.762,71.961 Q87.707,71.961 85.832,74.691 Q83.957,77.422 83.957,77.844 Q83.957,78.195 84.391,80.129 Q84.824,82.062 85.34,84.219 Q85.809,86.258 86.137,87.031 Q86.676,88.297 87.355,88.297 Q87.988,88.297 88.645,87.594 Q89.301,86.891 90.613,85.062 L91.27,85.461 Q90.262,87.289 89.184,88.578 Q87.145,91.016 85.293,91.016 Q84.121,91.016 83.441,89.891 Q83.043,89.234 82.668,87.734 L81.215,81.945 L76.41,88.25 Q75.004,89.891 74.242,90.453 Q73.48,91.016 72.355,91.016 Q70.855,91.016 70.316,90.078 Q70.012,89.586 70.012,88.906 z" fill-opacity="0" stroke="#C4A8DC" stroke-width="1"/>
    </g>
    <g>
      <text transform="matrix(1, 0, 0, 1, 104, 40)">
        <tspan x="-9" y="28" font-family="Times-Roman" font-size="36" fill="#C4A9DC">2</tspan>
      </text>
      <path d="M96.072,67.596 Q102.506,60.916 104.809,57.787 Q107.111,54.658 107.111,51.688 Q107.111,49.086 105.705,47.724 Q104.299,46.361 102.348,46.361 Q99.939,46.361 98.445,48.119 Q97.619,49.086 96.863,51.09 L96.107,50.932 Q96.986,46.889 99.087,45.315 Q101.188,43.742 103.596,43.742 Q106.566,43.742 108.403,45.614 Q110.24,47.486 110.24,50.193 Q110.24,53.076 108.254,55.748 Q106.268,58.42 99.623,65.258 L107.691,65.258 Q109.379,65.258 110.064,64.854 Q110.75,64.449 111.611,62.885 L112.068,63.096 L110.117,68 L96.072,68 z" fill-opacity="0" stroke="#C4A8DC" stroke-width="1"/>
    </g>
    <g>
      <text transform="matrix(1, 0, 0, 1, 479, 89)">
        <tspan x="-7.989" y="15" font-family="Times-Italic" font-size="36" fill="#C4A9DC">x</tspan>
      </text>
      <path d="M470.009,102.805 Q470.009,102.119 470.431,101.829 Q470.853,101.539 471.292,101.539 Q471.503,101.539 471.714,101.601 Q471.925,101.662 472.171,101.803 L472.786,102.137 Q472.909,102.207 473.023,102.233 Q473.138,102.26 473.278,102.26 Q473.718,102.26 473.955,102.04 Q474.192,101.82 475.177,100.502 Q475.827,99.641 478.13,96.301 Q478.13,96.178 477.726,94.411 Q477.321,92.645 476.987,91.414 Q476.653,90.166 476.39,89.771 Q476.126,89.375 475.405,89.375 Q475.159,89.375 474.438,89.551 Q473.981,89.656 473.454,89.797 L473.296,89.252 L475.247,88.584 Q476.003,88.32 476.645,88.162 Q477.286,88.004 477.743,88.004 Q478.481,88.004 478.851,88.443 Q479.413,89.146 479.8,91.221 L480.169,93.225 Q481.751,90.799 482.63,89.814 Q483.421,88.918 484.124,88.479 Q484.827,88.039 485.46,88.039 Q486.058,88.039 486.427,88.215 Q487.095,88.531 487.095,89.41 Q487.095,90.008 486.761,90.342 Q486.427,90.676 485.899,90.676 Q485.706,90.676 485.53,90.632 Q485.354,90.588 485.161,90.5 L484.704,90.307 Q484.511,90.219 484.335,90.157 Q484.159,90.096 484.071,90.096 Q483.28,90.096 481.874,92.144 Q480.468,94.191 480.468,94.508 Q480.468,94.771 480.793,96.222 Q481.118,97.672 481.505,99.289 Q481.856,100.818 482.103,101.398 Q482.507,102.348 483.017,102.348 Q483.491,102.348 483.983,101.82 Q484.476,101.293 485.46,99.922 L485.952,100.221 Q485.196,101.592 484.388,102.559 Q482.858,104.387 481.47,104.387 Q480.591,104.387 480.081,103.543 Q479.782,103.051 479.501,101.926 L478.411,97.584 L474.808,102.312 Q473.753,103.543 473.182,103.965 Q472.61,104.387 471.767,104.387 Q470.642,104.387 470.237,103.684 Q470.009,103.314 470.009,102.805 z" fill-opacity="0" stroke="#C4A8DC" stroke-width="1"/>
    </g>
    <g>
      <text transform="matrix(1, 0, 0, 1, 596, 89)">
        <tspan x="-7.989" y="15" font-family="Times-Italic" font-size="36" fill="#C4A9DC">x</tspan>
      </text>
      <path d="M587.009,102.805 Q587.009,102.119 587.431,101.829 Q587.853,101.539 588.292,101.539 Q588.503,101.539 588.714,101.601 Q588.925,101.662 589.171,101.803 L589.786,102.137 Q589.909,102.207 590.023,102.233 Q590.138,102.26 590.278,102.26 Q590.718,102.26 590.955,102.04 Q591.192,101.82 592.177,100.502 Q592.827,99.641 595.13,96.301 Q595.13,96.178 594.726,94.411 Q594.321,92.645 593.987,91.414 Q593.653,90.166 593.39,89.771 Q593.126,89.375 592.405,89.375 Q592.159,89.375 591.438,89.551 Q590.981,89.656 590.454,89.797 L590.296,89.252 L592.247,88.584 Q593.003,88.32 593.645,88.162 Q594.286,88.004 594.743,88.004 Q595.481,88.004 595.851,88.443 Q596.413,89.146 596.8,91.221 L597.169,93.225 Q598.751,90.799 599.63,89.814 Q600.421,88.918 601.124,88.479 Q601.827,88.039 602.46,88.039 Q603.058,88.039 603.427,88.215 Q604.095,88.531 604.095,89.41 Q604.095,90.008 603.761,90.342 Q603.427,90.676 602.899,90.676 Q602.706,90.676 602.53,90.632 Q602.354,90.588 602.161,90.5 L601.704,90.307 Q601.511,90.219 601.335,90.157 Q601.159,90.096 601.071,90.096 Q600.28,90.096 598.874,92.144 Q597.468,94.191 597.468,94.508 Q597.468,94.771 597.793,96.222 Q598.118,97.672 598.505,99.289 Q598.856,100.818 599.103,101.398 Q599.507,102.348 600.017,102.348 Q600.491,102.348 600.983,101.82 Q601.476,101.293 602.46,99.922 L602.952,100.221 Q602.196,101.592 601.388,102.559 Q599.858,104.387 598.47,104.387 Q597.591,104.387 597.081,103.543 Q596.782,103.051 596.501,101.926 L595.411,97.584 L591.808,102.312 Q590.753,103.543 590.182,103.965 Q589.61,104.387 588.767,104.387 Q587.642,104.387 587.237,103.684 Q587.009,103.314 587.009,102.805 z" fill-opacity="0" stroke="#C4A8DC" stroke-width="1"/>
    </g>
    <g>
      <text transform="matrix(1, 0, 0, 1, 714, 89)">
        <tspan x="-7.989" y="15" font-family="Times-Italic" font-size="36" fill="#C4A9DC">x</tspan>
      </text>
      <path d="M705.009,102.805 Q705.009,102.119 705.431,101.829 Q705.853,101.539 706.292,101.539 Q706.503,101.539 706.714,101.601 Q706.925,101.662 707.171,101.803 L707.786,102.137 Q707.909,102.207 708.023,102.233 Q708.138,102.26 708.278,102.26 Q708.718,102.26 708.955,102.04 Q709.192,101.82 710.177,100.502 Q710.827,99.641 713.13,96.301 Q713.13,96.178 712.726,94.411 Q712.321,92.645 711.987,91.414 Q711.653,90.166 711.39,89.771 Q711.126,89.375 710.405,89.375 Q710.159,89.375 709.438,89.551 Q708.981,89.656 708.454,89.797 L708.296,89.252 L710.247,88.584 Q711.003,88.32 711.645,88.162 Q712.286,88.004 712.743,88.004 Q713.481,88.004 713.851,88.443 Q714.413,89.146 714.8,91.221 L715.169,93.225 Q716.751,90.799 717.63,89.814 Q718.421,88.918 719.124,88.479 Q719.827,88.039 720.46,88.039 Q721.058,88.039 721.427,88.215 Q722.095,88.531 722.095,89.41 Q722.095,90.008 721.761,90.342 Q721.427,90.676 720.899,90.676 Q720.706,90.676 720.53,90.632 Q720.354,90.588 720.161,90.5 L719.704,90.307 Q719.511,90.219 719.335,90.157 Q719.159,90.096 719.071,90.096 Q718.28,90.096 716.874,92.144 Q715.468,94.191 715.468,94.508 Q715.468,94.771 715.793,96.222 Q716.118,97.672 716.505,99.289 Q716.856,100.818 717.103,101.398 Q717.507,102.348 718.017,102.348 Q718.491,102.348 718.983,101.82 Q719.476,101.293 720.46,99.922 L720.952,100.221 Q720.196,101.592 719.388,102.559 Q717.858,104.387 716.47,104.387 Q715.591,104.387 715.081,103.543 Q714.782,103.051 714.501,101.926 L713.411,97.584 L709.808,102.312 Q708.753,103.543 708.182,103.965 Q707.61,104.387 706.767,104.387 Q705.642,104.387 705.237,103.684 Q705.009,103.314 705.009,102.805 z" fill-opacity="0" stroke="#C4A8DC" stroke-width="1"/>
    </g>
    <g>
      <text transform="matrix(1, 0, 0, 1, 613.695, 77)">
        <tspan x="-6" y="17" font-family="Times-Roman" font-size="24" fill="#C4A9DC">2</tspan>
      </text>
      <path d="M608.41,93.73 Q612.699,89.277 614.234,87.191 Q615.77,85.105 615.77,83.125 Q615.77,81.391 614.832,80.482 Q613.895,79.574 612.594,79.574 Q610.988,79.574 609.992,80.746 Q609.441,81.391 608.938,82.727 L608.434,82.621 Q609.02,79.926 610.42,78.877 Q611.82,77.828 613.426,77.828 Q615.406,77.828 616.631,79.076 Q617.855,80.324 617.855,82.129 Q617.855,84.051 616.531,85.832 Q615.207,87.613 610.777,92.172 L616.156,92.172 Q617.281,92.172 617.738,91.902 Q618.195,91.633 618.77,90.59 L619.074,90.73 L617.773,94 L608.41,94 z" fill-opacity="0" stroke="#C4A8DC" stroke-width="1"/>
    </g>
    <g>
      <text transform="matrix(1, 0, 0, 1, 734.652, 77)">
        <tspan x="-6" y="17" font-family="Times-Roman" font-size="24" fill="#C4A9DC">3</tspan>
      </text>
      <path d="M730.516,91.961 Q731.16,91.961 732.221,92.629 Q733.281,93.297 734.02,93.297 Q735.66,93.297 736.457,92.189 Q737.254,91.082 737.254,89.781 Q737.254,88.527 736.609,87.578 Q735.52,85.973 732.93,85.973 Q732.777,85.973 732.637,85.979 Q732.496,85.984 732.309,86.008 L732.285,85.703 Q734.16,85.023 735.238,84.145 Q736.316,83.266 736.316,81.824 Q736.316,80.547 735.467,79.879 Q734.617,79.211 733.527,79.211 Q732.238,79.211 731.254,80.16 Q730.715,80.676 730.094,81.754 L729.73,81.672 Q730.199,79.891 731.477,78.824 Q732.754,77.758 734.43,77.758 Q736.223,77.758 737.201,78.742 Q738.18,79.727 738.18,81.016 Q738.18,82.152 737.371,83.102 Q736.914,83.641 735.953,84.309 Q737.078,84.789 737.758,85.434 Q739.035,86.664 739.035,88.551 Q739.035,90.777 737.283,92.477 Q735.531,94.176 732.297,94.176 Q730.855,94.176 730.275,93.748 Q729.695,93.32 729.695,92.828 Q729.695,92.523 729.889,92.242 Q730.082,91.961 730.516,91.961 z" fill-opacity="0" stroke="#C4A8DC" stroke-width="1"/>
    </g>
    <g>
      <text transform="matrix(1, 0, 0, 1, 479, 58.5)">
        <tspan x="-9" y="14.5" font-family="Times-Roman" font-size="36" fill="#C4A9DC">1</tspan>
      </text>
      <path d="M480.652,48.848 Q480.723,48.936 480.731,48.979 Q480.74,49.023 480.74,49.182 L480.74,70.346 Q480.74,71.699 481.461,72.068 Q482.182,72.438 484.15,72.508 L484.15,73 L474.236,73 L474.236,72.473 Q476.363,72.367 477.014,71.893 Q477.664,71.418 477.664,69.836 L477.664,53.559 Q477.664,52.715 477.453,52.275 Q477.242,51.836 476.539,51.836 Q476.082,51.836 475.353,52.091 Q474.623,52.346 473.99,52.627 L473.99,52.135 L480.441,48.848 z" fill-opacity="0" stroke="#C4A8DC" stroke-width="1"/>
    </g>
    <path d="M459.5,80.5 L499.5,80.5" fill-opacity="0" stroke="#C4A8DC" stroke-width="1.5"/>
    <path d="M576.5,75.5 L616.5,75.5" fill-opacity="0" stroke="#C4A8DC" stroke-width="1.5"/>
    <path d="M694.5,75.5 L734.5,75.5" fill-opacity="0" stroke="#C4A8DC" stroke-width="1.5"/>
    <g>
      <text transform="matrix(1, 0, 0, 1, 596, 51)">
        <tspan x="-9" y="14.5" font-family="Times-Roman" font-size="36" fill="#C4A9DC">1</tspan>
      </text>
      <path d="M597.652,41.348 Q597.723,41.436 597.731,41.479 Q597.74,41.523 597.74,41.682 L597.74,62.846 Q597.74,64.199 598.461,64.568 Q599.182,64.938 601.15,65.008 L601.15,65.5 L591.236,65.5 L591.236,64.973 Q593.363,64.867 594.014,64.393 Q594.664,63.918 594.664,62.336 L594.664,46.059 Q594.664,45.215 594.453,44.775 Q594.242,44.336 593.539,44.336 Q593.082,44.336 592.353,44.591 Q591.623,44.846 590.99,45.127 L590.99,44.635 L597.441,41.348 z" fill-opacity="0" stroke="#C4A8DC" stroke-width="1"/>
    </g>
    <g>
      <text transform="matrix(1, 0, 0, 1, 714, 51)">
        <tspan x="-9" y="14.5" font-family="Times-Roman" font-size="36" fill="#C4A9DC">1</tspan>
      </text>
      <path d="M715.652,41.348 Q715.723,41.436 715.731,41.479 Q715.74,41.523 715.74,41.682 L715.74,62.846 Q715.74,64.199 716.461,64.568 Q717.182,64.938 719.15,65.008 L719.15,65.5 L709.236,65.5 L709.236,64.973 Q711.363,64.867 712.014,64.393 Q712.664,63.918 712.664,62.336 L712.664,46.059 Q712.664,45.215 712.453,44.775 Q712.242,44.336 711.539,44.336 Q711.082,44.336 710.353,44.591 Q709.623,44.846 708.99,45.127 L708.99,44.635 L715.441,41.348 z" fill-opacity="0" stroke="#C4A8DC" stroke-width="1"/>
    </g>
  </g>
</svg>
