<?xml version="1.0" encoding="UTF-8"?>
<!DOCTYPE svg PUBLIC "-//W3C//DTD SVG 1.1//EN" "http://www.w3.org/Graphics/SVG/1.1/DTD/svg11.dtd">
<svg version="1.1" xmlns="http://www.w3.org/2000/svg" xmlns:xlink="http://www.w3.org/1999/xlink" x="0" y="0" width="800" height="150" viewBox="0, 0, 800, 150">
  <g id="Layer_1">
    <g>
      <path d="M0.5,0.5 L800.5,0.5 L800.5,150.5 L0.5,150.5 L0.5,0.5 z" fill="#88EEDD"/>
      <path d="M0.5,0.5 L800.5,0.5 L800.5,150.5 L0.5,150.5 L0.5,0.5 z" fill-opacity="0" stroke="#000000" stroke-width="1"/>
    </g>
  </g>
  <g id="Layer_2">
    <path d="M38.787,25 L101.213,25 C111.589,25 120,32.199 120,41.079 L120,108.921 C120,117.801 111.589,125 101.213,125 L38.787,125 C28.411,125 20,117.801 20,108.921 L20,41.079 C20,32.199 28.411,25 38.787,25 z" fill="#FFFFFF"/>
    <path d="M155.787,25 L218.213,25 C228.589,25 237,32.199 237,41.079 L237,108.921 C237,117.801 228.589,125 218.213,125 L155.787,125 C145.411,125 137,117.801 137,108.921 L137,41.079 C137,32.199 145.411,25 155.787,25 z" fill="#FFFFFF"/>
    <path d="M270.787,25 L333.213,25 C343.589,25 352,32.199 352,41.079 L352,108.921 C352,117.801 343.589,125 333.213,125 L270.787,125 C260.411,125 252,117.801 252,108.921 L252,41.079 C252,32.199 260.411,25 270.787,25 z" fill="#FFFFFF"/>
    <path d="M464.787,25 L527.213,25 C537.589,25 546,32.199 546,41.079 L546,108.921 C546,117.801 537.589,125 527.213,125 L464.787,125 C454.411,125 446,117.801 446,108.921 L446,41.079 C446,32.199 454.411,25 464.787,25 z" fill="#FFFFFF"/>
    <path d="M581.787,25 L644.213,25 C654.589,25 663,32.199 663,41.079 L663,108.921 C663,117.801 654.589,125 644.213,125 L581.787,125 C571.411,125 563,117.801 563,108.921 L563,41.079 C563,32.199 571.411,25 581.787,25 z" fill="#FFFFFF"/>
    <path d="M696.787,25 L759.213,25 C769.589,25 778,32.199 778,41.079 L778,108.921 C778,117.801 769.589,125 759.213,125 L696.787,125 C686.411,125 678,117.801 678,108.921 L678,41.079 C678,32.199 686.411,25 696.787,25 z" fill="#FFFFFF"/>
    <g>
      <path d="M378.1,73.5 L417.9,73.5" fill-opacity="0" stroke="#000000" stroke-width="4"/>
      <path d="M378.1,73.5 L381.3,68.7 L368.5,73.5 L381.3,78.3 z" fill="#000000" fill-opacity="1" stroke="#000000" stroke-width="4" stroke-opacity="1"/>
      <path d="M417.9,73.5 L414.7,78.3 L427.5,73.5 L414.7,68.7 z" fill="#000000" fill-opacity="1" stroke="#000000" stroke-width="4" stroke-opacity="1"/>
    </g>
    <g>
      <path d="M70.5,90.5 C62.216,90.5 55.5,83.784 55.5,75.5 C55.5,67.216 62.216,60.5 70.5,60.5 C78.784,60.5 85.5,67.216 85.5,75.5 C85.5,83.784 78.784,90.5 70.5,90.5 z" fill="#9F2DCF"/>
      <path d="M70.5,90.5 C62.216,90.5 55.5,83.784 55.5,75.5 C55.5,67.216 62.216,60.5 70.5,60.5 C78.784,60.5 85.5,67.216 85.5,75.5 C85.5,83.784 78.784,90.5 70.5,90.5 z" fill-opacity="0" stroke="#400D56" stroke-width="2"/>
    </g>
    <g>
      <path d="M613.5,90.5 C605.216,90.5 598.5,83.784 598.5,75.5 C598.5,67.216 605.216,60.5 613.5,60.5 C621.784,60.5 628.5,67.216 628.5,75.5 C628.5,83.784 621.784,90.5 613.5,90.5 z" fill="#9F2DCF"/>
      <path d="M613.5,90.5 C605.216,90.5 598.5,83.784 598.5,75.5 C598.5,67.216 605.216,60.5 613.5,60.5 C621.784,60.5 628.5,67.216 628.5,75.5 C628.5,83.784 621.784,90.5 613.5,90.5 z" fill-opacity="0" stroke="#400D56" stroke-width="2"/>
    </g>
    <g>
      <path d="M728.5,90.5 C720.216,90.5 713.5,83.784 713.5,75.5 C713.5,67.216 720.216,60.5 728.5,60.5 C736.784,60.5 743.5,67.216 743.5,75.5 C743.5,83.784 736.784,90.5 728.5,90.5 z" fill="#9F2DCF"/>
      <path d="M728.5,90.5 C720.216,90.5 713.5,83.784 713.5,75.5 C713.5,67.216 720.216,60.5 728.5,60.5 C736.784,60.5 743.5,67.216 743.5,75.5 C743.5,83.784 736.784,90.5 728.5,90.5 z" fill-opacity="0" stroke="#400D56" stroke-width="2"/>
    </g>
  </g>
</svg>
