<?xml version="1.0" encoding="UTF-8"?>
<!DOCTYPE svg PUBLIC "-//W3C//DTD SVG 1.1//EN" "http://www.w3.org/Graphics/SVG/1.1/DTD/svg11.dtd">
<svg version="1.1" xmlns="http://www.w3.org/2000/svg" xmlns:xlink="http://www.w3.org/1999/xlink" x="0" y="0" width="500" height="500" viewBox="0, 0, 500, 500">
  <g id="outline_box">
    <g>
      <path d="M58.826,12.221 L441.174,12.221 C466.913,12.221 487.779,33.087 487.779,58.826 L487.779,441.174 C487.779,466.913 466.913,487.779 441.174,487.779 L58.826,487.779 C33.087,487.779 12.221,466.913 12.221,441.174 L12.221,58.826 C12.221,33.087 33.087,12.221 58.826,12.221 z" fill="#FFFFFF"/>
      <path d="M58.826,12.221 L441.174,12.221 C466.913,12.221 487.779,33.087 487.779,58.826 L487.779,441.174 C487.779,466.913 466.913,487.779 441.174,487.779 L58.826,487.779 C33.087,487.779 12.221,466.913 12.221,441.174 L12.221,58.826 C12.221,33.087 33.087,12.221 58.826,12.221 z" fill-opacity="0" stroke="#CBCBCB" stroke-width="10"/>
    </g>
  </g>
  <g id="svg">
    <g>
      <g id="box_jxgBoard1P2" display="none">
        <path d="M91,333 C91,335.209 89.209,337 87,337 C84.791,337 83,335.209 83,333 C83,330.791 84.791,329 87,329 C89.209,329 91,330.791 91,333 z" fill="#FF0000"/>
        <path d="M91,333 C91,335.209 89.209,337 87,337 C84.791,337 83,335.209 83,333 C83,330.791 84.791,329 87,329 C89.209,329 91,330.791 91,333 z" fill-opacity="0" stroke="#0000FF" stroke-width="2"/>
      </g>
      <g id="box_jxgBoard1P3" display="none">
        <path d="M133,333 C133,335.209 131.209,337 129,337 C126.791,337 125,335.209 125,333 C125,330.791 126.791,329 129,329 C131.209,329 133,330.791 133,333 z" fill="#FF0000"/>
        <path d="M133,333 C133,335.209 131.209,337 129,337 C126.791,337 125,335.209 125,333 C125,330.791 126.791,329 129,329 C131.209,329 133,330.791 133,333 z" fill-opacity="0" stroke="#0000FF" stroke-width="2"/>
      </g>
      <g id="box_jxgBoard1P17" display="none">
        <path d="M91,333 C91,335.209 89.209,337 87,337 C84.791,337 83,335.209 83,333 C83,330.791 84.791,329 87,329 C89.209,329 91,330.791 91,333 z" fill="#FF0000"/>
        <path d="M91,333 C91,335.209 89.209,337 87,337 C84.791,337 83,335.209 83,333 C83,330.791 84.791,329 87,329 C89.209,329 91,330.791 91,333 z" fill-opacity="0" stroke="#0000FF" stroke-width="2"/>
      </g>
      <g id="box_jxgBoard1P18" display="none">
        <path d="M91,292 C91,294.209 89.209,296 87,296 C84.791,296 83,294.209 83,292 C83,289.791 84.791,288 87,288 C89.209,288 91,289.791 91,292 z" fill="#FF0000"/>
        <path d="M91,292 C91,294.209 89.209,296 87,296 C84.791,296 83,294.209 83,292 C83,289.791 84.791,288 87,288 C89.209,288 91,289.791 91,292 z" fill-opacity="0" stroke="#0000FF" stroke-width="2"/>
      </g>
      <g id="box_jxgBoard1P34" display="none">
        <path d="M91,333 C91,335.209 89.209,337 87,337 C84.791,337 83,335.209 83,333 C83,330.791 84.791,329 87,329 C89.209,329 91,330.791 91,333 z" fill="#FF0000"/>
        <path d="M91,333 C91,335.209 89.209,337 87,337 C84.791,337 83,335.209 83,333 C83,330.791 84.791,329 87,329 C89.209,329 91,330.791 91,333 z" fill-opacity="0" stroke="#0000FF" stroke-width="2"/>
      </g>
      <g id="box_jxgBoard1P35" display="none">
        <path d="M133,333 C133,335.209 131.209,337 129,337 C126.791,337 125,335.209 125,333 C125,330.791 126.791,329 129,329 C131.209,329 133,330.791 133,333 z" fill="#FF0000"/>
        <path d="M133,333 C133,335.209 131.209,337 129,337 C126.791,337 125,335.209 125,333 C125,330.791 126.791,329 129,329 C131.209,329 133,330.791 133,333 z" fill-opacity="0" stroke="#0000FF" stroke-width="2"/>
      </g>
      <g id="box_jxgBoard1P41" display="none">
        <path d="M91,333 C91,335.209 89.209,337 87,337 C84.791,337 83,335.209 83,333 C83,330.791 84.791,329 87,329 C89.209,329 91,330.791 91,333 z" fill="#FF0000"/>
        <path d="M91,333 C91,335.209 89.209,337 87,337 C84.791,337 83,335.209 83,333 C83,330.791 84.791,329 87,329 C89.209,329 91,330.791 91,333 z" fill-opacity="0" stroke="#0000FF" stroke-width="2"/>
      </g>
      <g id="box_jxgBoard1P42" display="none">
        <path d="M91,333 C91,335.209 89.209,337 87,337 C84.791,337 83,335.209 83,333 C83,330.791 84.791,329 87,329 C89.209,329 91,330.791 91,333 z" fill="#FF0000"/>
        <path d="M91,333 C91,335.209 89.209,337 87,337 C84.791,337 83,335.209 83,333 C83,330.791 84.791,329 87,329 C89.209,329 91,330.791 91,333 z" fill-opacity="0" stroke="#0000FF" stroke-width="2"/>
      </g>
    </g>
    <g>
      <g>
        <path d="M8,333.333 L492,333.333" fill-opacity="0" stroke="#666666" stroke-width="1" id="box_jxgBoard1L4"/>
        <path d="M488,329.333 L496,333.333 L488,337.333 z" fill="#666666"/>
      </g>
      <g id="box_jxgBoard1L4_ticks_1">
        <path d="M96,333 L96,338 M104,333 L104,338 M112,333 L112,338 M121,333 L121,338 M129,333 L129,353 M137,333 L137,338 M146,333 L146,338 M154,333 L154,338 M162,333 L162,338 M171,333 L171,353 M179,333 L179,338 M187,333 L187,338 M196,333 L196,338 M204,333 L204,338 M212,333 L212,353 M221,333 L221,338 M229,333 L229,338 M237,333 L237,338 M246,333 L246,338 M254,333 L254,353 M262,333 L262,338 M271,333 L271,338 M279,333 L279,338 M287,333 L287,338 M296,333 L296,353 M304,333 L304,338 M312,333 L312,338 M321,333 L321,338 M329,333 L329,338 M337,333 L337,353 M346,333 L346,338 M354,333 L354,338 M362,333 L362,338 M371,333 L371,338 M379,333 L379,353 M387,333 L387,338 M396,333 L396,338 M404,333 L404,338 M412,333 L412,338 M421,333 L421,353 M429,333 L429,338 M437,333 L437,338 M446,333 L446,338 M454,333 L454,338 M462,333 L462,353 M471,333 L471,338 M479,333 L479,338 M487,333 L487,338 M496,333 L496,338 M79,333 L79,338 M71,333 L71,338 M62,333 L62,338 M54,333 L54,338 M46,333 L46,353 M37,333 L37,338 M29,333 L29,338 M21,333 L21,338 M12,333 L12,338 M4,333 L4,353" fill="#000000"/>
        <path d="M96,333 L96,338 M104,333 L104,338 M112,333 L112,338 M121,333 L121,338 M129,333 L129,353 M137,333 L137,338 M146,333 L146,338 M154,333 L154,338 M162,333 L162,338 M171,333 L171,353 M179,333 L179,338 M187,333 L187,338 M196,333 L196,338 M204,333 L204,338 M212,333 L212,353 M221,333 L221,338 M229,333 L229,338 M237,333 L237,338 M246,333 L246,338 M254,333 L254,353 M262,333 L262,338 M271,333 L271,338 M279,333 L279,338 M287,333 L287,338 M296,333 L296,353 M304,333 L304,338 M312,333 L312,338 M321,333 L321,338 M329,333 L329,338 M337,333 L337,353 M346,333 L346,338 M354,333 L354,338 M362,333 L362,338 M371,333 L371,338 M379,333 L379,353 M387,333 L387,338 M396,333 L396,338 M404,333 L404,338 M412,333 L412,338 M421,333 L421,353 M429,333 L429,338 M437,333 L437,338 M446,333 L446,338 M454,333 L454,338 M462,333 L462,353 M471,333 L471,338 M479,333 L479,338 M487,333 L487,338 M496,333 L496,338 M79,333 L79,338 M71,333 L71,338 M62,333 L62,338 M54,333 L54,338 M46,333 L46,353 M37,333 L37,338 M29,333 L29,338 M21,333 L21,338 M12,333 L12,338 M4,333 L4,353" fill-opacity="0" stroke="#666666" stroke-width="1" stroke-opacity="0.25" stroke-linecap="round" stroke-linejoin="round"/>
      </g>
      <g>
        <path d="M87.333,496 L87.333,12" fill-opacity="0" stroke="#666666" stroke-width="1" id="box_jxgBoard1L19"/>
        <path d="M83.333,16 L87.333,8 L91.333,16 z" fill="#666666"/>
      </g>
      <g id="box_jxgBoard1L19_ticks_1">
        <path d="M87,325 L92,325 M87,317 L92,317 M87,308 L92,308 M87,300 L92,300 M87,292 L107,292 M87,283 L92,283 M87,275 L92,275 M87,267 L92,267 M87,258 L92,258 M87,250 L107,250 M87,242 L92,242 M87,233 L92,233 M87,225 L92,225 M87,217 L92,217 M87,208 L107,208 M87,200 L92,200 M87,192 L92,192 M87,183 L92,183 M87,175 L92,175 M87,167 L107,167 M87,158 L92,158 M87,150 L92,150 M87,142 L92,142 M87,133 L92,133 M87,125 L107,125 M87,117 L92,117 M87,108 L92,108 M87,100 L92,100 M87,92 L92,92 M87,83 L107,83 M87,75 L92,75 M87,67 L92,67 M87,58 L92,58 M87,50 L92,50 M87,42 L107,42 M87,33 L92,33 M87,25 L92,25 M87,17 L92,17 M87,8 L92,8 M87,342 L92,342 M87,350 L92,350 M87,358 L92,358 M87,367 L92,367 M87,375 L107,375 M87,383 L92,383 M87,392 L92,392 M87,400 L92,400 M87,408 L92,408 M87,417 L107,417 M87,425 L92,425 M87,433 L92,433 M87,442 L92,442 M87,450 L92,450 M87,458 L107,458 M87,467 L92,467 M87,475 L92,475 M87,483 L92,483 M87,492 L92,492 M87,500 L107,500" fill="#000000"/>
        <path d="M87,325 L92,325 M87,317 L92,317 M87,308 L92,308 M87,300 L92,300 M87,292 L107,292 M87,283 L92,283 M87,275 L92,275 M87,267 L92,267 M87,258 L92,258 M87,250 L107,250 M87,242 L92,242 M87,233 L92,233 M87,225 L92,225 M87,217 L92,217 M87,208 L107,208 M87,200 L92,200 M87,192 L92,192 M87,183 L92,183 M87,175 L92,175 M87,167 L107,167 M87,158 L92,158 M87,150 L92,150 M87,142 L92,142 M87,133 L92,133 M87,125 L107,125 M87,117 L92,117 M87,108 L92,108 M87,100 L92,100 M87,92 L92,92 M87,83 L107,83 M87,75 L92,75 M87,67 L92,67 M87,58 L92,58 M87,50 L92,50 M87,42 L107,42 M87,33 L92,33 M87,25 L92,25 M87,17 L92,17 M87,8 L92,8 M87,342 L92,342 M87,350 L92,350 M87,358 L92,358 M87,367 L92,367 M87,375 L107,375 M87,383 L92,383 M87,392 L92,392 M87,400 L92,400 M87,408 L92,408 M87,417 L107,417 M87,425 L92,425 M87,433 L92,433 M87,442 L92,442 M87,450 L92,450 M87,458 L107,458 M87,467 L92,467 M87,475 L92,475 M87,483 L92,483 M87,492 L92,492 M87,500 L107,500" fill-opacity="0" stroke="#666666" stroke-width="1" stroke-opacity="0.25" stroke-linecap="round" stroke-linejoin="round"/>
      </g>
    </g>
    <path d="M170.667,333.333 L170.667,122.396 L379,122.396 L379,333.333 z" fill="#66AAFF" fill-opacity="0.5" id="box_jxgBoard1Py54"/>
    <g>
      <path d="M4,291.667 L4.702,292.366 L5.404,293.059 L6.106,293.746 L6.808,294.427 L7.51,295.102 L8.211,295.772 L8.913,296.435 L9.615,297.093 L10.317,297.744 L11.019,298.39 L11.721,299.03 L12.423,299.664 L13.125,300.292 L13.827,300.914 L14.529,301.53 L15.23,302.14 L15.932,302.745 L16.634,303.343 L17.336,303.936 L18.038,304.522 L18.74,305.103 L19.442,305.678 L20.144,306.247 L20.846,306.81 L21.548,307.367 L22.25,307.918 L22.951,308.463 L23.653,309.002 L24.355,309.536 L25.057,310.063 L25.759,310.585 L26.461,311.101 L27.163,311.61 L27.865,312.114 L28.567,312.612 L29.269,313.104 L29.97,313.59 L30.672,314.071 L31.374,314.545 L32.076,315.013 L32.778,315.476 L33.48,315.932 L34.182,316.383 L34.884,316.828 L35.586,317.266 L36.288,317.699 L36.989,318.126 L37.691,318.547 L38.393,318.963 L39.095,319.372 L39.797,319.775 L40.499,320.173 L41.201,320.564 L41.903,320.95 L42.605,321.329 L43.307,321.703 L44.009,322.071 L44.71,322.433 L45.412,322.789 L46.114,323.139 L46.816,323.483 L47.518,323.822 L48.22,324.154 L48.922,324.481 L49.624,324.801 L50.326,325.116 L51.028,325.425 L51.729,325.728 L52.431,326.024 L53.133,326.315 L53.835,326.601 L54.537,326.88 L55.239,327.153 L55.941,327.42 L56.643,327.682 L57.345,327.937 L58.047,328.187 L58.749,328.431 L59.45,328.669 L60.152,328.9 L60.854,329.126 L61.556,329.347 L62.258,329.561 L62.96,329.769 L63.662,329.971 L64.364,330.168 L65.066,330.358 L65.768,330.543 L66.469,330.722 L67.171,330.894 L67.873,331.061 L68.575,331.222 L69.277,331.377 L69.979,331.526 L70.681,331.669 L71.383,331.807 L72.085,331.938 L72.787,332.064 L73.489,332.183 L74.19,332.297 L74.892,332.405 L75.594,332.506 L76.296,332.602 L76.998,332.692 L77.7,332.777 L78.402,332.855 L79.104,332.927 L79.806,332.993 L80.508,333.054 L81.209,333.108 L81.911,333.157 L82.613,333.2 L83.315,333.236 L84.017,333.267 L84.719,333.292 L85.421,333.311 L86.123,333.325 L86.825,333.332 L87.527,333.333 L88.229,333.329 L88.93,333.318 L89.632,333.302 L90.334,333.279 L91.036,333.251 L91.738,333.217 L92.44,333.177 L93.142,333.131 L93.844,333.079 L94.546,333.021 L95.248,332.958 L95.949,332.888 L96.651,332.812 L97.353,332.731 L98.055,332.644 L98.757,332.55 L99.459,332.451 L100.161,332.346 L100.863,332.235 L101.565,332.118 L102.267,331.995 L102.969,331.867 L103.67,331.732 L104.372,331.591 L105.074,331.445 L105.776,331.293 L106.478,331.134 L107.18,330.97 L107.882,330.8 L108.584,330.624 L109.286,330.442 L109.988,330.254 L110.689,330.06 L111.391,329.861 L112.093,329.655 L112.795,329.443 L113.497,329.226 L114.199,329.003 L114.901,328.773 L115.603,328.538 L116.305,328.297 L117.007,328.05 L117.708,327.797 L118.41,327.539 L119.112,327.274 L119.814,327.003 L120.516,326.727 L121.218,326.444 L121.92,326.156 L122.622,325.862 L123.324,325.561 L124.026,325.255 L124.728,324.943 L125.429,324.625 L126.131,324.302 L126.833,323.972 L127.535,323.636 L128.237,323.295 L128.939,322.947 L129.641,322.594 L130.343,322.234 L131.045,321.869 L131.747,321.498 L132.448,321.121 L133.15,320.738 L133.852,320.349 L134.554,319.954 L135.256,319.554 L135.958,319.147 L136.66,318.735 L137.362,318.316 L138.064,317.892 L138.766,317.462 L139.468,317.025 L140.169,316.583 L140.871,316.135 L141.573,315.682 L142.275,315.222 L142.977,314.756 L143.679,314.284 L144.381,313.807 L145.083,313.323 L145.785,312.834 L146.487,312.339 L147.188,311.837 L147.89,311.33 L148.592,310.817 L149.294,310.298 L149.996,309.774 L150.698,309.243 L151.4,308.706 L152.102,308.164 L152.804,307.615 L153.506,307.061 L154.208,306.5 L154.909,305.934 L155.611,305.362 L156.313,304.784 L157.015,304.2 L157.717,303.61 L158.419,303.014 L159.121,302.413 L159.823,301.805 L160.525,301.191 L161.227,300.572 L161.928,299.947 L162.63,299.315 L163.332,298.678 L164.034,298.035 L164.736,297.386 L165.438,296.731 L166.14,296.07 L166.842,295.404 L167.544,294.731 L168.246,294.053 L168.948,293.368 L169.649,292.678 L170.351,291.981 L171.053,291.279 L171.75,290.576 L172.442,289.873 L173.128,289.169 L173.81,288.464 L174.486,287.759 L175.158,287.054 L175.824,286.35 L176.485,285.645 L177.141,284.94 L177.793,284.236 L178.438,283.532 L179.079,282.829 L179.715,282.127 L180.346,281.425 L180.971,280.725 L181.597,280.019 L182.218,279.315 L182.833,278.612 L183.443,277.91 L184.049,277.21 L184.654,276.506 L185.254,275.802 L185.849,275.101 L186.444,274.395 L187.034,273.692 L187.619,272.99 L188.204,272.284 L188.784,271.58 L189.359,270.878 L189.933,270.173 L190.503,269.469 L191.068,268.768 L191.632,268.064 L192.192,267.362 L192.751,266.656 L193.306,265.953 L193.855,265.252 L194.404,264.548 L194.948,263.847 L195.493,263.143 L196.032,262.441 L196.571,261.736 L197.105,261.034 L197.639,260.329 L198.168,259.627 L198.697,258.922 L199.221,258.22 L199.745,257.515 L200.264,256.814 L200.782,256.109 L201.296,255.408 L201.81,254.704 L202.318,254.004 L202.827,253.3 L203.336,252.594 L203.839,251.892 L204.343,251.186 L204.841,250.485 L205.34,249.78 L205.833,249.08 L206.326,248.377 L206.82,247.671 L207.308,246.97 L207.796,246.265 L208.285,245.558 L208.768,244.855 L209.251,244.15 L209.729,243.449 L210.207,242.745 L210.685,242.039 L211.158,241.337 L211.631,240.633 L212.104,239.926 L212.572,239.224 L213.04,238.52 L213.508,237.813 L213.971,237.111 L214.434,236.406 L214.897,235.699 L215.355,234.997 L215.812,234.292 L216.27,233.585 L216.723,232.884 L217.175,232.179 L217.628,231.473 L218.076,230.772 L218.523,230.068 L218.971,229.363 L219.413,228.662 L219.856,227.96 L220.298,227.255 L220.741,226.548 L221.178,225.846 L221.616,225.143 L222.053,224.437 L222.486,223.737 L222.918,223.034 L223.35,222.33 L223.783,221.623 L224.21,220.922 L224.637,220.22 L225.064,219.514 L225.491,218.807 L225.914,218.106 L226.336,217.403 L226.758,216.698 L227.18,215.991 L227.597,215.29 L228.014,214.587 L228.431,213.881 L228.848,213.174 L229.26,212.474 L229.672,211.771 L230.084,211.066 L230.496,210.359 L230.903,209.659 L231.31,208.957 L231.717,208.253 L232.124,207.547 L232.531,206.839 L232.933,206.138 L233.335,205.435 L233.736,204.73 L234.138,204.023 L234.54,203.315 L234.937,202.613 L235.333,201.909 L235.73,201.204 L236.127,200.496 L236.519,199.796 L236.91,199.094 L237.302,198.39 L237.693,197.684 L238.085,196.977 L238.472,196.277 L238.858,195.575 L239.245,194.871 L239.631,194.165 L240.018,193.458 L240.404,192.749 L240.786,192.047 L241.167,191.344 L241.549,190.639 L241.93,189.932 L242.312,189.223 L242.688,188.523 L243.065,187.82 L243.441,187.116 L243.817,186.41 L244.194,185.702 L244.57,184.993 L244.941,184.292 L245.313,183.589 L245.684,182.884 L246.055,182.177 L246.427,181.469 L246.798,180.76 L247.164,180.058 L247.53,179.355 L247.896,178.65 L248.263,177.944 L248.629,177.236 L248.995,176.526 L249.356,175.825 L249.717,175.122 L250.078,174.417 L250.44,173.711 L250.801,173.004 L251.162,172.295 L251.518,171.594 L251.874,170.892 L252.23,170.188 L252.586,169.483 L252.942,168.776 L253.298,168.068 L253.654,167.358 L254.005,166.656 L254.356,165.954 L254.707,165.25 L255.058,164.544 L255.409,163.837 L255.76,163.128 L256.111,162.418 L256.457,161.717 L256.803,161.014 L257.148,160.31 L257.494,159.605 L257.84,158.898 L258.186,158.19 L258.532,157.48 L258.873,156.779 L259.213,156.077 L259.554,155.373 L259.895,154.668 L260.236,153.962 L260.577,153.254 L260.917,152.545 L261.258,151.834 L261.594,151.133 L261.929,150.43 L262.265,149.726 L262.601,149.021 L262.937,148.314 L263.272,147.606 L263.608,146.897 L263.944,146.186 L264.274,145.485 L264.605,144.782 L264.935,144.078 L265.266,143.373 L265.597,142.666 L265.927,141.959 L266.258,141.249 L266.589,140.539 L266.914,139.838 L267.24,139.136 L267.565,138.432 L267.891,137.728 L268.216,137.022 L268.542,136.315 L268.867,135.606 L269.193,134.896 L269.518,134.185 L269.839,133.484 L270.159,132.782 L270.479,132.078 L270.8,131.373 L271.12,130.667 L271.441,129.96 L271.761,129.251 L272.082,128.542 L272.402,127.831 L272.717,127.13 L273.033,126.428 L273.348,125.724 L273.663,125.02 L273.979,124.314 L274.294,123.607 L274.61,122.899 L274.925,122.19 L275.24,121.479 L275.551,120.779 L275.861,120.078 L276.171,119.375 L276.481,118.672 L276.792,117.967 L277.102,117.261 L277.412,116.554 L277.722,115.845 L278.033,115.136 L278.343,114.425 L278.648,113.725 L278.953,113.024 L279.258,112.322 L279.564,111.619 L279.869,110.914 L280.174,110.208 L280.479,109.502 L280.784,108.794 L281.089,108.085 L281.395,107.375 L281.7,106.663 L282,105.963 L282.3,105.261 L282.6,104.559 L282.9,103.855 L283.2,103.15 L283.5,102.444 L283.8,101.737 L284.1,101.029 L284.401,100.32 L284.701,99.61 L285.001,98.899 L285.296,98.199 L285.591,97.497 L285.886,96.795 L286.181,96.091 L286.476,95.387 L286.771,94.682 L287.066,93.975 L287.361,93.267 L287.656,92.559 L287.951,91.849 L288.246,91.138 L288.541,90.427 L288.831,89.726 L289.121,89.025 L289.411,88.322 L289.7,87.619 L289.99,86.914 L290.28,86.208 L290.57,85.502 L290.86,84.794 L291.15,84.086 L291.44,83.376 L291.73,82.666 L292.02,81.954 L292.305,81.254 L292.589,80.553 L292.874,79.851 L293.159,79.148 L293.444,78.444 L293.729,77.739 L294.014,77.033 L294.298,76.326 L294.583,75.618 L294.868,74.909 L295.153,74.199 L295.438,73.489 L295.723,72.777 L296.002,72.077 L296.282,71.376 L296.562,70.674 L296.842,69.971 L297.121,69.267 L297.401,68.563 L297.681,67.857 L297.961,67.15 L298.24,66.443 L298.52,65.734 L298.8,65.025 L299.08,64.315 L299.359,63.603 L299.639,62.891 L299.914,62.191 L300.188,61.49 L300.463,60.788 L300.738,60.085 L301.012,59.381 L301.287,58.676 L301.562,57.971 L301.836,57.264 L302.111,56.557 L302.386,55.848 L302.66,55.139 L302.935,54.429 L303.21,53.718 L303.484,53.006 L303.759,52.293 L304.028,51.593 L304.298,50.891 L304.568,50.189 L304.837,49.486 L305.107,48.782 L305.376,48.077 L305.646,47.371 L305.915,46.664 L306.185,45.957 L306.455,45.248 L306.724,44.539 L306.994,43.829 L307.263,43.118 L307.533,42.406 L307.802,41.693 L308.067,40.993 L308.331,40.292 L308.596,39.59 L308.86,38.888 L309.125,38.184 L309.389,37.48 L309.654,36.775 L309.918,36.069 L310.183,35.362 L310.447,34.654 L310.712,33.946 L310.976,33.236 L311.241,32.526 L311.505,31.815 L311.77,31.103 L312.034,30.39 L312.299,29.677 L312.558,28.976 L312.818,28.275 L313.077,27.572 L313.336,26.869 L313.596,26.165 L313.855,25.461 L314.115,24.755 L314.374,24.049 L314.633,23.342 L314.893,22.634 L315.152,21.925 L315.412,21.215 L315.671,20.505 L315.93,19.794 L316.19,19.082 L316.449,18.369 L316.709,17.655 L316.963,16.955 L317.217,16.254 L317.471,15.552 L317.726,14.849 L317.98,14.146 L318.234,13.441 L318.489,12.736 L318.743,12.031 L318.997,11.324 L319.252,10.617 L319.506,9.908 L319.76,9.2 L320.015,8.49 L320.269,7.779 L320.523,7.068 L320.778,6.356 L321.032,5.643 L321.286,4.93 L321.535,4.23 L321.785,3.529 L322.034,2.827 L322.283,2.125 L322.532,1.422 L322.782,0.718 L323.031,0.014 L323.28,-0.692 L323.529,-1.398 L323.778,-2.104 L324.028,-2.812 L324.277,-3.52 L324.526,-4.229 L324.775,-4.939 L325.025,-5.649 L325.274,-6.361 L325.523,-7.073 L325.772,-7.785 L326.021,-8.499 L326.271,-9.213 L326.515,-9.913 L326.759,-10.615 L327.003,-11.316 L327.247,-12.019 L327.491,-12.722 L327.736,-13.426 L327.98,-14.131 L328.224,-14.836 L328.468,-15.542 L328.712,-16.249 L328.956,-16.957 L329.2,-17.665 L329.445,-18.374 L329.689,-19.083 L329.933,-19.794 L330.177,-20.505 L330.421,-21.217 L330.665,-21.929 L330.909,-22.642 L331.154,-23.356 L331.398,-24.071 L331.637,-24.772 L331.876,-25.473 L332.115,-26.175 L332.354,-26.877 L332.593,-27.58 L332.832,-28.284 L333.071,-28.989 L333.31,-29.694 L333.549,-30.4 L333.788,-31.107 L334.027,-31.814 L334.266,-32.522 L334.505,-33.231 L334.744,-33.94 L334.983,-34.65 L335.223,-35.361 L335.462,-36.072 L335.701,-36.785 L335.94,-37.497 L336.179,-38.211 L336.418,-38.925 L336.657,-39.64 L336.891,-40.34 L337.125,-41.041 L337.333,-41.667" fill-opacity="0" stroke="#CCCCCC" stroke-width="3" stroke-linecap="round" stroke-linejoin="round" id="box_jxgBoard1G32"/>
      <g id="box_jxgBoard1L50">
        <path d="M171,122 L379,122" fill="#FF0000"/>
        <path d="M171,122 L379,122" fill-opacity="0" stroke="#4488DD" stroke-width="8"/>
      </g>
      <g id="box_jxgBoard1L51">
        <path d="M379,122 L379,333" fill="#FF0000"/>
        <path d="M379,122 L379,333" fill-opacity="0" stroke="#4488DD" stroke-width="8"/>
      </g>
      <g id="box_jxgBoard1L52">
        <path d="M379,333 L171,333" fill="#FF0000"/>
        <path d="M379,333 L171,333" fill-opacity="0" stroke="#4488DD" stroke-width="8"/>
      </g>
      <g id="box_jxgBoard1L53">
        <path d="M171,333 L171,122" fill="#FF0000"/>
        <path d="M171,333 L171,122" fill-opacity="0" stroke="#4488DD" stroke-width="8"/>
      </g>
    </g>
    <g>
      <path d="M3,-0 L3,-0" fill-opacity="0" stroke="#0000FF" stroke-width="2" id="box_jxgBoard1L36" display="none"/>
      <path d="M3,-0 L3,-0" fill-opacity="0" stroke="#0000FF" stroke-width="2" id="box_jxgBoard1L43" display="none"/>
      <g display="none">
        <path d="M384,128 L384,327" fill-opacity="0" stroke="#888888" stroke-width="2" id="box_jxgBoard1L60"/>
        <path d="M385.5,129.5 L384,126.5 L382.5,129.5 z" fill="#888888"/>
        <path d="M385.5,325.5 L384,328.5 L382.5,325.5 z" fill="#888888"/>
      </g>
      <g display="none">
        <path d="M177,112 L373,112" fill-opacity="0" stroke="#888888" stroke-width="2" id="box_jxgBoard1L66"/>
        <path d="M178.5,110.5 L175.5,112 L178.5,113.5 z" fill="#888888"/>
        <path d="M371.5,110.5 L374.5,112 L371.5,113.5 z" fill="#888888"/>
      </g>
    </g>
    <g>
      <text transform="matrix(1, 0, 0, 1, 136.837, 346.033)" id="box_jxgBoard1L4_ticks_15Label1">
        <tspan x="-3.837" y="3.5" font-family="ArialMT" font-size="12" fill="#000000">1</tspan>
      </text>
      <text transform="matrix(1, 0, 0, 1, 178.504, 346.033)" id="box_jxgBoard1L4_ticks_110Label2">
        <tspan x="-3.837" y="3.5" font-family="ArialMT" font-size="12" fill="#000000">2</tspan>
      </text>
      <text transform="matrix(1, 0, 0, 1, 220.17, 346.033)" id="box_jxgBoard1L4_ticks_115Label3">
        <tspan x="-3.837" y="3.5" font-family="ArialMT" font-size="12" fill="#000000">3</tspan>
      </text>
      <text transform="matrix(1, 0, 0, 1, 261.837, 346.033)" id="box_jxgBoard1L4_ticks_120Label4">
        <tspan x="-3.837" y="3.5" font-family="ArialMT" font-size="12" fill="#000000">4</tspan>
      </text>
      <text transform="matrix(1, 0, 0, 1, 303.504, 346.033)" id="box_jxgBoard1L4_ticks_125Label5">
        <tspan x="-3.837" y="3.5" font-family="ArialMT" font-size="12" fill="#000000">5</tspan>
      </text>
      <text transform="matrix(1, 0, 0, 1, 345.17, 346.033)" id="box_jxgBoard1L4_ticks_130Label6">
        <tspan x="-3.837" y="3.5" font-family="ArialMT" font-size="12" fill="#000000">6</tspan>
      </text>
      <text transform="matrix(1, 0, 0, 1, 386.837, 346.033)" id="box_jxgBoard1L4_ticks_135Label7">
        <tspan x="-3.837" y="3.5" font-family="ArialMT" font-size="12" fill="#000000">7</tspan>
      </text>
      <text transform="matrix(1, 0, 0, 1, 428.504, 346.033)" id="box_jxgBoard1L4_ticks_140Label8">
        <tspan x="-3.837" y="3.5" font-family="ArialMT" font-size="12" fill="#000000">8</tspan>
      </text>
      <text transform="matrix(1, 0, 0, 1, 470.17, 346.033)" id="box_jxgBoard1L4_ticks_145Label9">
        <tspan x="-3.837" y="3.5" font-family="ArialMT" font-size="12" fill="#000000">9</tspan>
      </text>
      <text transform="matrix(1, 0, 0, 1, 57.007, 346.033)" id="box_jxgBoard1L4_ticks_154Label10">
        <tspan x="-7.341" y="3.5" font-family="ArialMT" font-size="12" fill="#000000">−1</tspan>
      </text>
      <text transform="matrix(1, 0, 0, 1, 95.17, 304.367)" id="box_jxgBoard1L19_ticks_15Label1">
        <tspan x="-3.837" y="3.5" font-family="ArialMT" font-size="12" fill="#000000">1</tspan>
      </text>
      <text transform="matrix(1, 0, 0, 1, 95.17, 262.7)" id="box_jxgBoard1L19_ticks_110Label2">
        <tspan x="-3.837" y="3.5" font-family="ArialMT" font-size="12" fill="#000000">2</tspan>
      </text>
      <text transform="matrix(1, 0, 0, 1, 95.17, 221.033)" id="box_jxgBoard1L19_ticks_115Label3">
        <tspan x="-3.837" y="3.5" font-family="ArialMT" font-size="12" fill="#000000">3</tspan>
      </text>
      <text transform="matrix(1, 0, 0, 1, 95.17, 179.367)" id="box_jxgBoard1L19_ticks_120Label4">
        <tspan x="-3.837" y="3.5" font-family="ArialMT" font-size="12" fill="#000000">4</tspan>
      </text>
      <text transform="matrix(1, 0, 0, 1, 95.17, 137.7)" id="box_jxgBoard1L19_ticks_125Label5">
        <tspan x="-3.837" y="3.5" font-family="ArialMT" font-size="12" fill="#000000">5</tspan>
      </text>
      <text transform="matrix(1, 0, 0, 1, 95.17, 96.033)" id="box_jxgBoard1L19_ticks_130Label6">
        <tspan x="-3.837" y="3.5" font-family="ArialMT" font-size="12" fill="#000000">6</tspan>
      </text>
      <text transform="matrix(1, 0, 0, 1, 95.17, 54.367)" id="box_jxgBoard1L19_ticks_135Label7">
        <tspan x="-3.837" y="3.5" font-family="ArialMT" font-size="12" fill="#000000">7</tspan>
      </text>
      <text transform="matrix(1, 0, 0, 1, 98.674, 387.7)" id="box_jxgBoard1L19_ticks_144Label8">
        <tspan x="-7.341" y="3.5" font-family="ArialMT" font-size="12" fill="#000000">−1</tspan>
      </text>
      <text transform="matrix(1, 0, 0, 1, 98.674, 429.367)" id="box_jxgBoard1L19_ticks_149Label9">
        <tspan x="-7.341" y="3.5" font-family="ArialMT" font-size="12" fill="#000000">−2</tspan>
      </text>
      <text transform="matrix(1, 0, 0, 1, 98.674, 471.033)" id="box_jxgBoard1L19_ticks_154Label10">
        <tspan x="-7.341" y="3.5" font-family="ArialMT" font-size="12" fill="#000000">−3</tspan>
      </text>
      <g id="box_jxgBoard1P37">
        <path d="M183.667,333.333 C183.667,340.513 177.846,346.333 170.667,346.333 C163.487,346.333 157.667,340.513 157.667,333.333 C157.667,326.154 163.487,320.333 170.667,320.333 C177.846,320.333 183.667,326.154 183.667,333.333 z" fill="#008000"/>
        <path d="M183.667,333.333 C183.667,340.513 177.846,346.333 170.667,346.333 C163.487,346.333 157.667,340.513 157.667,333.333 C157.667,326.154 163.487,320.333 170.667,320.333 C177.846,320.333 183.667,326.154 183.667,333.333 z" fill-opacity="0" stroke="#008000" stroke-width="2"/>
      </g>
      <g id="box_jxgBoard1P39">
        <path d="M392,333.333 C392,340.513 386.18,346.333 379,346.333 C371.82,346.333 366,340.513 366,333.333 C366,326.154 371.82,320.333 379,320.333 C386.18,320.333 392,326.154 392,333.333 z" fill="#FF0000"/>
        <path d="M392,333.333 C392,340.513 386.18,346.333 379,346.333 C371.82,346.333 366,340.513 366,333.333 C366,326.154 371.82,320.333 379,320.333 C386.18,320.333 392,326.154 392,333.333 z" fill-opacity="0" stroke="#FF0000" stroke-width="2"/>
      </g>
      <g id="box_jxgBoard1P44" display="none">
        <path d="M280,333 C280,335.761 277.761,338 275,338 C272.239,338 270,335.761 270,333 C270,330.239 272.239,328 275,328 C277.761,328 280,330.239 280,333 z" fill="#3344AA"/>
        <path d="M280,333 C280,335.761 277.761,338 275,338 C272.239,338 270,335.761 270,333 C270,330.239 272.239,328 275,328 C277.761,328 280,330.239 280,333 z" fill-opacity="0" stroke="#3344AA" stroke-width="2"/>
      </g>
      <g id="box_jxgBoard1P46">
        <path d="M183.667,122.396 C183.667,129.576 177.846,135.396 170.667,135.396 C163.487,135.396 157.667,129.576 157.667,122.396 C157.667,115.216 163.487,109.396 170.667,109.396 C177.846,109.396 183.667,115.216 183.667,122.396 z" fill="#3344AA"/>
        <path d="M183.667,122.396 C183.667,129.576 177.846,135.396 170.667,135.396 C163.487,135.396 157.667,129.576 157.667,122.396 C157.667,115.216 163.487,109.396 170.667,109.396 C177.846,109.396 183.667,115.216 183.667,122.396 z" fill-opacity="0" stroke="#3344AA" stroke-width="2"/>
      </g>
      <g id="box_jxgBoard1P48">
        <path d="M392,122.396 C392,129.576 386.18,135.396 379,135.396 C371.82,135.396 366,129.576 366,122.396 C366,115.216 371.82,109.396 379,109.396 C386.18,109.396 392,115.216 392,122.396 z" fill="#3344AA"/>
        <path d="M392,122.396 C392,129.576 386.18,135.396 379,135.396 C371.82,135.396 366,129.576 366,122.396 C366,115.216 371.82,109.396 379,109.396 C386.18,109.396 392,115.216 392,122.396 z" fill-opacity="0" stroke="#3344AA" stroke-width="2"/>
      </g>
      <g id="box_jxgBoard1P56" display="none">
        <path d="M91,333 C91,335.209 89.209,337 87,337 C84.791,337 83,335.209 83,333 C83,330.791 84.791,329 87,329 C89.209,329 91,330.791 91,333 z" fill="#FF0000"/>
        <path d="M91,333 C91,335.209 89.209,337 87,337 C84.791,337 83,335.209 83,333 C83,330.791 84.791,329 87,329 C89.209,329 91,330.791 91,333 z" fill-opacity="0" stroke="#FF0000" stroke-width="2"/>
      </g>
      <g id="box_jxgBoard1P58" display="none">
        <path d="M91,333 C91,335.209 89.209,337 87,337 C84.791,337 83,335.209 83,333 C83,330.791 84.791,329 87,329 C89.209,329 91,330.791 91,333 z" fill="#FF0000"/>
        <path d="M91,333 C91,335.209 89.209,337 87,337 C84.791,337 83,335.209 83,333 C83,330.791 84.791,329 87,329 C89.209,329 91,330.791 91,333 z" fill-opacity="0" stroke="#FF0000" stroke-width="2"/>
      </g>
      <g id="box_jxgBoard1P62" display="none">
        <path d="M91,333 C91,335.209 89.209,337 87,337 C84.791,337 83,335.209 83,333 C83,330.791 84.791,329 87,329 C89.209,329 91,330.791 91,333 z" fill="#FF0000"/>
        <path d="M91,333 C91,335.209 89.209,337 87,337 C84.791,337 83,335.209 83,333 C83,330.791 84.791,329 87,329 C89.209,329 91,330.791 91,333 z" fill-opacity="0" stroke="#FF0000" stroke-width="2"/>
      </g>
      <g id="box_jxgBoard1P64" display="none">
        <path d="M91,333 C91,335.209 89.209,337 87,337 C84.791,337 83,335.209 83,333 C83,330.791 84.791,329 87,329 C89.209,329 91,330.791 91,333 z" fill="#FF0000"/>
        <path d="M91,333 C91,335.209 89.209,337 87,337 C84.791,337 83,335.209 83,333 C83,330.791 84.791,329 87,329 C89.209,329 91,330.791 91,333 z" fill-opacity="0" stroke="#FF0000" stroke-width="2"/>
      </g>
    </g>
  </g>
  <g id="text">
    <text transform="matrix(1, 0, 0, 1, 268.833, 417.5)">
      <tspan x="-133.389" y="13" font-family="Arial-BoldMT" font-size="60" fill="#000000">rectangle</tspan>
    </text>
  </g>
</svg>
