<?xml version="1.0" encoding="UTF-8"?>
<!DOCTYPE svg PUBLIC "-//W3C//DTD SVG 1.1//EN" "http://www.w3.org/Graphics/SVG/1.1/DTD/svg11.dtd">
<svg version="1.1" xmlns="http://www.w3.org/2000/svg" xmlns:xlink="http://www.w3.org/1999/xlink" x="0" y="0" width="500" height="500" viewBox="0, 0, 500, 500">
  <g id="outline_box">
    <g>
      <path d="M58.826,12.221 L441.174,12.221 C466.913,12.221 487.779,33.087 487.779,58.826 L487.779,441.174 C487.779,466.913 466.913,487.779 441.174,487.779 L58.826,487.779 C33.087,487.779 12.221,466.913 12.221,441.174 L12.221,58.826 C12.221,33.087 33.087,12.221 58.826,12.221 z" fill="#FFFFFF"/>
      <path d="M58.826,12.221 L441.174,12.221 C466.913,12.221 487.779,33.087 487.779,58.826 L487.779,441.174 C487.779,466.913 466.913,487.779 441.174,487.779 L58.826,487.779 C33.087,487.779 12.221,466.913 12.221,441.174 L12.221,58.826 C12.221,33.087 33.087,12.221 58.826,12.221 z" fill-opacity="0" stroke="#CBCBCB" stroke-width="10"/>
    </g>
  </g>
  <g id="svg">
    <g>
      <g id="box_jxgBoard1P2" display="none">
        <path d="M87,332.417 C87,334.626 85.209,336.417 83,336.417 C80.791,336.417 79,334.626 79,332.417 C79,330.208 80.791,328.417 83,328.417 C85.209,328.417 87,330.208 87,332.417 z" fill="#FF0000"/>
        <path d="M87,332.417 C87,334.626 85.209,336.417 83,336.417 C80.791,336.417 79,334.626 79,332.417 C79,330.208 80.791,328.417 83,328.417 C85.209,328.417 87,330.208 87,332.417 z" fill-opacity="0" stroke="#0000FF" stroke-width="2"/>
      </g>
      <g id="box_jxgBoard1P3" display="none">
        <path d="M129,332.417 C129,334.626 127.209,336.417 125,336.417 C122.791,336.417 121,334.626 121,332.417 C121,330.208 122.791,328.417 125,328.417 C127.209,328.417 129,330.208 129,332.417 z" fill="#FF0000"/>
        <path d="M129,332.417 C129,334.626 127.209,336.417 125,336.417 C122.791,336.417 121,334.626 121,332.417 C121,330.208 122.791,328.417 125,328.417 C127.209,328.417 129,330.208 129,332.417 z" fill-opacity="0" stroke="#0000FF" stroke-width="2"/>
      </g>
      <g id="box_jxgBoard1P17" display="none">
        <path d="M87,332.417 C87,334.626 85.209,336.417 83,336.417 C80.791,336.417 79,334.626 79,332.417 C79,330.208 80.791,328.417 83,328.417 C85.209,328.417 87,330.208 87,332.417 z" fill="#FF0000"/>
        <path d="M87,332.417 C87,334.626 85.209,336.417 83,336.417 C80.791,336.417 79,334.626 79,332.417 C79,330.208 80.791,328.417 83,328.417 C85.209,328.417 87,330.208 87,332.417 z" fill-opacity="0" stroke="#0000FF" stroke-width="2"/>
      </g>
      <g id="box_jxgBoard1P18" display="none">
        <path d="M87,291.417 C87,293.626 85.209,295.417 83,295.417 C80.791,295.417 79,293.626 79,291.417 C79,289.208 80.791,287.417 83,287.417 C85.209,287.417 87,289.208 87,291.417 z" fill="#FF0000"/>
        <path d="M87,291.417 C87,293.626 85.209,295.417 83,295.417 C80.791,295.417 79,293.626 79,291.417 C79,289.208 80.791,287.417 83,287.417 C85.209,287.417 87,289.208 87,291.417 z" fill-opacity="0" stroke="#0000FF" stroke-width="2"/>
      </g>
      <g id="box_jxgBoard1P34" display="none">
        <path d="M87,332.417 C87,334.626 85.209,336.417 83,336.417 C80.791,336.417 79,334.626 79,332.417 C79,330.208 80.791,328.417 83,328.417 C85.209,328.417 87,330.208 87,332.417 z" fill="#FF0000"/>
        <path d="M87,332.417 C87,334.626 85.209,336.417 83,336.417 C80.791,336.417 79,334.626 79,332.417 C79,330.208 80.791,328.417 83,328.417 C85.209,328.417 87,330.208 87,332.417 z" fill-opacity="0" stroke="#0000FF" stroke-width="2"/>
      </g>
      <g id="box_jxgBoard1P35" display="none">
        <path d="M129,332.417 C129,334.626 127.209,336.417 125,336.417 C122.791,336.417 121,334.626 121,332.417 C121,330.208 122.791,328.417 125,328.417 C127.209,328.417 129,330.208 129,332.417 z" fill="#FF0000"/>
        <path d="M129,332.417 C129,334.626 127.209,336.417 125,336.417 C122.791,336.417 121,334.626 121,332.417 C121,330.208 122.791,328.417 125,328.417 C127.209,328.417 129,330.208 129,332.417 z" fill-opacity="0" stroke="#0000FF" stroke-width="2"/>
      </g>
      <g id="box_jxgBoard1P41" display="none">
        <path d="M87,332.417 C87,334.626 85.209,336.417 83,336.417 C80.791,336.417 79,334.626 79,332.417 C79,330.208 80.791,328.417 83,328.417 C85.209,328.417 87,330.208 87,332.417 z" fill="#FF0000"/>
        <path d="M87,332.417 C87,334.626 85.209,336.417 83,336.417 C80.791,336.417 79,334.626 79,332.417 C79,330.208 80.791,328.417 83,328.417 C85.209,328.417 87,330.208 87,332.417 z" fill-opacity="0" stroke="#0000FF" stroke-width="2"/>
      </g>
      <g id="box_jxgBoard1P42" display="none">
        <path d="M87,332.417 C87,334.626 85.209,336.417 83,336.417 C80.791,336.417 79,334.626 79,332.417 C79,330.208 80.791,328.417 83,328.417 C85.209,328.417 87,330.208 87,332.417 z" fill="#FF0000"/>
        <path d="M87,332.417 C87,334.626 85.209,336.417 83,336.417 C80.791,336.417 79,334.626 79,332.417 C79,330.208 80.791,328.417 83,328.417 C85.209,328.417 87,330.208 87,332.417 z" fill-opacity="0" stroke="#0000FF" stroke-width="2"/>
      </g>
    </g>
    <g>
      <g>
        <path d="M4,332.75 L488,332.75" fill-opacity="0" stroke="#666666" stroke-width="1" id="box_jxgBoard1L4"/>
        <path d="M484,328.75 L492,332.75 L484,336.75 z" fill="#666666"/>
      </g>
      <g id="box_jxgBoard1L4_ticks_1">
        <path d="M92,332.417 L92,337.417 M100,332.417 L100,337.417 M108,332.417 L108,337.417 M117,332.417 L117,337.417 M125,332.417 L125,352.417 M133,332.417 L133,337.417 M142,332.417 L142,337.417 M150,332.417 L150,337.417 M158,332.417 L158,337.417 M167,332.417 L167,352.417 M175,332.417 L175,337.417 M183,332.417 L183,337.417 M192,332.417 L192,337.417 M200,332.417 L200,337.417 M208,332.417 L208,352.417 M217,332.417 L217,337.417 M225,332.417 L225,337.417 M233,332.417 L233,337.417 M242,332.417 L242,337.417 M250,332.417 L250,352.417 M258,332.417 L258,337.417 M267,332.417 L267,337.417 M275,332.417 L275,337.417 M283,332.417 L283,337.417 M292,332.417 L292,352.417 M300,332.417 L300,337.417 M308,332.417 L308,337.417 M317,332.417 L317,337.417 M325,332.417 L325,337.417 M333,332.417 L333,352.417 M342,332.417 L342,337.417 M350,332.417 L350,337.417 M358,332.417 L358,337.417 M367,332.417 L367,337.417 M375,332.417 L375,352.417 M383,332.417 L383,337.417 M392,332.417 L392,337.417 M400,332.417 L400,337.417 M408,332.417 L408,337.417 M417,332.417 L417,352.417 M425,332.417 L425,337.417 M433,332.417 L433,337.417 M442,332.417 L442,337.417 M450,332.417 L450,337.417 M458,332.417 L458,352.417 M467,332.417 L467,337.417 M475,332.417 L475,337.417 M483,332.417 L483,337.417 M492,332.417 L492,337.417 M75,332.417 L75,337.417 M67,332.417 L67,337.417 M58,332.417 L58,337.417 M50,332.417 L50,337.417 M42,332.417 L42,352.417 M33,332.417 L33,337.417 M25,332.417 L25,337.417 M17,332.417 L17,337.417 M8,332.417 L8,337.417 M-0,332.417 L-0,352.417" fill="#000000"/>
        <path d="M92,332.417 L92,337.417 M100,332.417 L100,337.417 M108,332.417 L108,337.417 M117,332.417 L117,337.417 M125,332.417 L125,352.417 M133,332.417 L133,337.417 M142,332.417 L142,337.417 M150,332.417 L150,337.417 M158,332.417 L158,337.417 M167,332.417 L167,352.417 M175,332.417 L175,337.417 M183,332.417 L183,337.417 M192,332.417 L192,337.417 M200,332.417 L200,337.417 M208,332.417 L208,352.417 M217,332.417 L217,337.417 M225,332.417 L225,337.417 M233,332.417 L233,337.417 M242,332.417 L242,337.417 M250,332.417 L250,352.417 M258,332.417 L258,337.417 M267,332.417 L267,337.417 M275,332.417 L275,337.417 M283,332.417 L283,337.417 M292,332.417 L292,352.417 M300,332.417 L300,337.417 M308,332.417 L308,337.417 M317,332.417 L317,337.417 M325,332.417 L325,337.417 M333,332.417 L333,352.417 M342,332.417 L342,337.417 M350,332.417 L350,337.417 M358,332.417 L358,337.417 M367,332.417 L367,337.417 M375,332.417 L375,352.417 M383,332.417 L383,337.417 M392,332.417 L392,337.417 M400,332.417 L400,337.417 M408,332.417 L408,337.417 M417,332.417 L417,352.417 M425,332.417 L425,337.417 M433,332.417 L433,337.417 M442,332.417 L442,337.417 M450,332.417 L450,337.417 M458,332.417 L458,352.417 M467,332.417 L467,337.417 M475,332.417 L475,337.417 M483,332.417 L483,337.417 M492,332.417 L492,337.417 M75,332.417 L75,337.417 M67,332.417 L67,337.417 M58,332.417 L58,337.417 M50,332.417 L50,337.417 M42,332.417 L42,352.417 M33,332.417 L33,337.417 M25,332.417 L25,337.417 M17,332.417 L17,337.417 M8,332.417 L8,337.417 M-0,332.417 L-0,352.417" fill-opacity="0" stroke="#666666" stroke-width="1" stroke-opacity="0.25" stroke-linecap="round" stroke-linejoin="round"/>
      </g>
      <g>
        <path d="M83.333,495.417 L83.333,11.417" fill-opacity="0" stroke="#666666" stroke-width="1" id="box_jxgBoard1L19"/>
        <path d="M79.333,15.417 L83.333,7.417 L87.333,15.417 z" fill="#666666"/>
      </g>
      <g id="box_jxgBoard1L19_ticks_1">
        <path d="M83,324.417 L88,324.417 M83,316.417 L88,316.417 M83,307.417 L88,307.417 M83,299.417 L88,299.417 M83,291.417 L103,291.417 M83,282.417 L88,282.417 M83,274.417 L88,274.417 M83,266.417 L88,266.417 M83,257.417 L88,257.417 M83,249.417 L103,249.417 M83,241.417 L88,241.417 M83,232.417 L88,232.417 M83,224.417 L88,224.417 M83,216.417 L88,216.417 M83,207.417 L103,207.417 M83,199.417 L88,199.417 M83,191.417 L88,191.417 M83,182.417 L88,182.417 M83,174.417 L88,174.417 M83,166.417 L103,166.417 M83,157.417 L88,157.417 M83,149.417 L88,149.417 M83,141.417 L88,141.417 M83,132.417 L88,132.417 M83,124.417 L103,124.417 M83,116.417 L88,116.417 M83,107.417 L88,107.417 M83,99.417 L88,99.417 M83,91.417 L88,91.417 M83,82.417 L103,82.417 M83,74.417 L88,74.417 M83,66.417 L88,66.417 M83,57.417 L88,57.417 M83,49.417 L88,49.417 M83,41.417 L103,41.417 M83,32.417 L88,32.417 M83,24.417 L88,24.417 M83,16.417 L88,16.417 M83,7.417 L88,7.417 M83,341.417 L88,341.417 M83,349.417 L88,349.417 M83,357.417 L88,357.417 M83,366.417 L88,366.417 M83,374.417 L103,374.417 M83,382.417 L88,382.417 M83,391.417 L88,391.417 M83,399.417 L88,399.417 M83,407.417 L88,407.417 M83,416.417 L103,416.417 M83,424.417 L88,424.417 M83,432.417 L88,432.417 M83,441.417 L88,441.417 M83,449.417 L88,449.417 M83,457.417 L103,457.417 M83,466.417 L88,466.417 M83,474.417 L88,474.417 M83,482.417 L88,482.417 M83,491.417 L88,491.417 M83,499.417 L103,499.417" fill="#000000"/>
        <path d="M83,324.417 L88,324.417 M83,316.417 L88,316.417 M83,307.417 L88,307.417 M83,299.417 L88,299.417 M83,291.417 L103,291.417 M83,282.417 L88,282.417 M83,274.417 L88,274.417 M83,266.417 L88,266.417 M83,257.417 L88,257.417 M83,249.417 L103,249.417 M83,241.417 L88,241.417 M83,232.417 L88,232.417 M83,224.417 L88,224.417 M83,216.417 L88,216.417 M83,207.417 L103,207.417 M83,199.417 L88,199.417 M83,191.417 L88,191.417 M83,182.417 L88,182.417 M83,174.417 L88,174.417 M83,166.417 L103,166.417 M83,157.417 L88,157.417 M83,149.417 L88,149.417 M83,141.417 L88,141.417 M83,132.417 L88,132.417 M83,124.417 L103,124.417 M83,116.417 L88,116.417 M83,107.417 L88,107.417 M83,99.417 L88,99.417 M83,91.417 L88,91.417 M83,82.417 L103,82.417 M83,74.417 L88,74.417 M83,66.417 L88,66.417 M83,57.417 L88,57.417 M83,49.417 L88,49.417 M83,41.417 L103,41.417 M83,32.417 L88,32.417 M83,24.417 L88,24.417 M83,16.417 L88,16.417 M83,7.417 L88,7.417 M83,341.417 L88,341.417 M83,349.417 L88,349.417 M83,357.417 L88,357.417 M83,366.417 L88,366.417 M83,374.417 L103,374.417 M83,382.417 L88,382.417 M83,391.417 L88,391.417 M83,399.417 L88,399.417 M83,407.417 L88,407.417 M83,416.417 L103,416.417 M83,424.417 L88,424.417 M83,432.417 L88,432.417 M83,441.417 L88,441.417 M83,449.417 L88,449.417 M83,457.417 L103,457.417 M83,466.417 L88,466.417 M83,474.417 L88,474.417 M83,482.417 L88,482.417 M83,491.417 L88,491.417 M83,499.417 L103,499.417" fill-opacity="0" stroke="#666666" stroke-width="1" stroke-opacity="0.25" stroke-linecap="round" stroke-linejoin="round"/>
      </g>
    </g>
    <path d="M83.333,332.75 L84.039,332.741 L84.745,332.714 L85.451,332.67 L86.156,332.608 L86.862,332.528 L87.568,332.431 L88.273,332.317 L88.979,332.186 L89.685,332.038 L90.391,331.873 L91.096,331.691 L91.802,331.492 L92.508,331.277 L93.213,331.045 L93.919,330.797 L94.625,330.533 L95.331,330.253 L96.036,329.956 L96.742,329.644 L97.448,329.316 L98.153,328.972 L98.859,328.613 L99.565,328.239 L100.271,327.849 L100.976,327.444 L101.682,327.024 L102.388,326.588 L103.093,326.138 L103.799,325.674 L104.505,325.194 L105.211,324.7 L105.916,324.192 L106.622,323.67 L107.328,323.133 L108.034,322.582 L108.739,322.017 L109.445,321.439 L110.151,320.847 L110.856,320.241 L111.562,319.621 L112.268,318.989 L112.974,318.343 L113.679,317.683 L114.385,317.011 L115.091,316.326 L115.796,315.628 L116.496,314.924 L117.182,314.221 L117.856,313.519 L118.524,312.813 L119.179,312.109 L119.827,311.402 L120.463,310.699 L121.092,309.994 L121.709,309.293 L122.32,308.591 L122.924,307.888 L123.521,307.184 L124.112,306.479 L124.697,305.774 L125.276,305.069 L125.848,304.365 L126.414,303.661 L126.973,302.958 L127.527,302.256 L128.073,301.556 L128.62,300.849 L129.161,300.145 L129.695,299.442 L130.229,298.734 L130.756,298.028 L131.278,297.325 L131.799,296.617 L132.314,295.912 L132.823,295.21 L133.331,294.503 L133.834,293.8 L134.336,293.092 L134.832,292.388 L135.328,291.679 L135.817,290.975 L136.307,290.266 L136.79,289.562 L137.273,288.854 L137.75,288.15 L138.227,287.443 L138.697,286.741 L139.168,286.035 L139.632,285.334 L140.096,284.63 L140.56,283.922 L141.018,283.22 L141.476,282.514 L141.933,281.805 L142.385,281.102 L142.836,280.396 L143.288,279.686 L143.733,278.983 L144.178,278.277 L144.623,277.567 L145.062,276.865 L145.5,276.159 L145.939,275.45 L146.371,274.749 L146.804,274.045 L147.236,273.338 L147.668,272.628 L148.094,271.925 L148.52,271.22 L148.946,270.513 L149.372,269.802 L149.792,269.1 L150.211,268.395 L150.631,267.687 L151.051,266.977 L151.464,266.276 L151.877,265.572 L152.29,264.865 L152.704,264.157 L153.111,263.456 L153.517,262.754 L153.924,262.05 L154.331,261.343 L154.738,260.634 L155.145,259.923 L155.546,259.221 L155.946,258.517 L156.347,257.812 L156.747,257.104 L157.148,256.394 L157.542,255.693 L157.936,254.991 L158.33,254.287 L158.724,253.581 L159.119,252.873 L159.513,252.163 L159.907,251.452 L160.295,250.751 L160.683,250.047 L161.071,249.343 L161.458,248.636 L161.846,247.928 L162.234,247.218 L162.622,246.507 L163.003,245.806 L163.385,245.103 L163.766,244.399 L164.148,243.694 L164.529,242.987 L164.911,242.279 L165.292,241.569 L165.674,240.858 L166.049,240.157 L166.424,239.455 L166.799,238.752 L167.174,238.048 L167.549,237.342 L167.924,236.635 L168.299,235.927 L168.674,235.218 L169.05,234.507 L169.425,233.796 L169.793,233.095 L170.162,232.393 L170.531,231.691 L170.9,230.987 L171.268,230.282 L171.637,229.576 L172.006,228.869 L172.375,228.161 L172.743,227.452 L173.112,226.742 L173.481,226.031 L173.85,225.32 L174.212,224.619 L174.575,223.918 L174.937,223.216 L175.299,222.513 L175.662,221.81 L176.024,221.105 L176.387,220.4 L176.749,219.694 L177.111,218.987 L177.474,218.28 L177.836,217.571 L178.199,216.862 L178.561,216.153 L178.923,215.442 L179.286,214.731 L179.648,214.02 L180.01,213.308 L180.367,212.607 L180.723,211.906 L181.079,211.205 L181.435,210.503 L181.791,209.8 L182.147,209.097 L182.503,208.393 L182.859,207.689 L183.215,206.985 L183.571,206.28 L183.927,205.574 L184.283,204.868 L184.639,204.162 L184.995,203.455 L185.351,202.748 L185.707,202.041 L186.063,201.333 L186.419,200.625 L186.775,199.916 L187.131,199.207 L187.487,198.498 L187.843,197.789 L188.199,197.079 L188.555,196.369 L188.911,195.659 L189.268,194.948 L189.624,194.238 L189.98,193.527 L190.336,192.816 L190.692,192.105 L191.048,191.393 L191.404,190.682 L191.76,189.97 L192.116,189.259 L192.472,188.547 L192.828,187.835 L193.184,187.123 L193.54,186.411 L193.896,185.699 L194.252,184.987 L194.608,184.275 L194.964,183.563 L195.32,182.851 L195.676,182.139 L196.032,181.427 L196.388,180.715 L196.744,180.003 L197.1,179.291 L197.456,178.58 L197.812,177.868 L198.168,177.157 L198.524,176.446 L198.881,175.735 L199.237,175.024 L199.593,174.313 L199.949,173.603 L200.305,172.892 L200.661,172.182 L201.017,171.473 L201.373,170.763 L201.729,170.054 L202.085,169.345 L202.441,168.637 L202.797,167.928 L203.153,167.221 L203.509,166.513 L203.865,165.806 L204.221,165.099 L204.577,164.393 L204.933,163.687 L205.289,162.981 L205.645,162.276 L206.001,161.572 L206.357,160.868 L206.713,160.164 L207.069,159.461 L207.425,158.758 L207.781,158.056 L208.138,157.354 L208.494,156.654 L208.85,155.953 L209.212,155.241 L209.574,154.529 L209.937,153.818 L210.299,153.108 L210.662,152.398 L211.024,151.689 L211.386,150.981 L211.749,150.273 L212.111,149.566 L212.474,148.86 L212.836,148.155 L213.198,147.45 L213.561,146.747 L213.923,146.044 L214.286,145.342 L214.648,144.64 L215.01,143.94 L215.379,143.228 L215.748,142.517 L216.117,141.807 L216.485,141.098 L216.854,140.39 L217.223,139.683 L217.592,138.977 L217.96,138.272 L218.329,137.568 L218.698,136.866 L219.067,136.164 L219.435,135.463 L219.811,134.751 L220.186,134.041 L220.561,133.331 L220.936,132.623 L221.311,131.916 L221.686,131.21 L222.061,130.506 L222.436,129.803 L222.811,129.101 L223.187,128.4 L223.568,127.689 L223.949,126.979 L224.331,126.271 L224.712,125.564 L225.094,124.858 L225.475,124.154 L225.857,123.451 L226.238,122.75 L226.626,122.038 L227.014,121.329 L227.402,120.62 L227.79,119.914 L228.177,119.209 L228.565,118.506 L228.953,117.804 L229.347,117.092 L229.741,116.383 L230.136,115.675 L230.53,114.969 L230.924,114.264 L231.318,113.562 L231.712,112.861 L232.113,112.151 L232.513,111.443 L232.914,110.737 L233.315,110.033 L233.715,109.331 L234.122,108.62 L234.529,107.911 L234.936,107.204 L235.343,106.5 L235.75,105.797 L236.156,105.097 L236.57,104.388 L236.983,103.682 L237.396,102.977 L237.81,102.276 L238.229,101.565 L238.649,100.858 L239.068,100.153 L239.488,99.45 L239.908,98.75 L240.334,98.042 L240.76,97.337 L241.186,96.634 L241.618,95.924 L242.05,95.217 L242.483,94.512 L242.915,93.81 L243.354,93.102 L243.792,92.396 L244.231,91.693 L244.676,90.983 L245.121,90.277 L245.566,89.573 L246.011,88.873 L246.463,88.167 L246.914,87.463 L247.372,86.754 L247.829,86.048 L248.287,85.345 L248.751,84.637 L249.215,83.932 L249.68,83.232 L250.15,82.525 L250.621,81.823 L251.097,81.115 L251.574,80.411 L252.057,79.703 L252.541,78.998 L253.03,78.289 L253.52,77.584 L254.009,76.884 L254.505,76.18 L255.007,75.471 L255.51,74.768 L256.018,74.06 L256.527,73.358 L257.042,72.652 L257.557,71.952 L258.078,71.249 L258.606,70.542 L259.134,69.842 L259.668,69.139 L260.208,68.433 L260.755,67.726 L261.302,67.025 L261.855,66.323 L262.414,65.619 L262.98,64.914 L263.552,64.209 L264.131,63.503 L264.716,62.797 L265.307,62.092 L265.905,61.387 L266.509,60.683 L267.119,59.98 L267.736,59.279 L268.365,58.572 L269.001,57.868 L269.643,57.167 L270.298,56.463 L270.959,55.762 L271.633,55.059 L272.32,54.354 L273.019,53.649 L273.725,52.95 L274.431,52.263 L275.136,51.59 L275.842,50.929 L276.548,50.282 L277.253,49.648 L277.959,49.027 L278.665,48.42 L279.371,47.826 L280.076,47.246 L280.782,46.68 L281.488,46.128 L282.194,45.589 L282.899,45.065 L283.605,44.556 L284.311,44.06 L285.016,43.579 L285.722,43.113 L286.428,42.662 L287.134,42.225 L287.839,41.803 L288.545,41.397 L289.251,41.005 L289.956,40.629 L290.662,40.268 L291.368,39.923 L292.074,39.593 L292.779,39.279 L293.485,38.981 L294.191,38.699 L294.896,38.434 L295.602,38.184 L296.308,37.95 L297.014,37.734 L297.719,37.533 L298.425,37.349 L299.131,37.183 L299.836,37.032 L300.542,36.899 L301.248,36.784 L301.954,36.685 L302.659,36.604 L303.365,36.54 L304.071,36.493 L304.777,36.465 L305.482,36.454 L306.188,36.461 L306.894,36.486 L307.599,36.529 L308.305,36.591 L309.011,36.671 L309.717,36.769 L310.422,36.886 L311.128,37.022 L311.834,37.177 L312.539,37.35 L313.245,37.543 L313.951,37.754 L314.657,37.985 L315.362,38.236 L316.068,38.506 L316.774,38.795 L317.479,39.105 L318.185,39.434 L318.891,39.783 L319.597,40.152 L320.302,40.541 L321.008,40.951 L321.714,41.381 L322.419,41.832 L323.125,42.303 L323.831,42.795 L324.537,43.308 L325.242,43.842 L325.948,44.397 L326.654,44.973 L327.36,45.571 L328.065,46.19 L328.771,46.831 L329.477,47.493 L330.182,48.177 L330.888,48.883 L331.568,49.584 L332.23,50.286 L332.878,50.993 L333.508,51.697 L334.124,52.404 L334.722,53.106 L335.307,53.808 L335.879,54.511 L336.439,55.212 L336.992,55.919 L337.532,56.624 L338.06,57.326 L338.581,58.031 L339.09,58.732 L339.592,59.436 L340.088,60.142 L340.577,60.851 L341.054,61.552 L341.525,62.255 L341.989,62.958 L342.447,63.662 L342.898,64.366 L343.343,65.07 L343.782,65.773 L344.214,66.474 L344.64,67.175 L345.066,67.884 L345.486,68.591 L345.899,69.296 L346.306,69.999 L346.713,70.709 L347.113,71.416 L347.508,72.12 L347.895,72.82 L348.283,73.528 L348.665,74.231 L349.046,74.941 L349.421,75.647 L349.79,76.348 L350.159,77.055 L350.521,77.757 L350.884,78.466 L351.24,79.169 L351.596,79.878 L351.945,80.581 L352.295,81.29 L352.638,81.992 L352.982,82.7 L353.319,83.401 L353.656,84.108 L353.992,84.821 L354.323,85.526 L354.654,86.236 L354.978,86.939 L355.302,87.647 L355.626,88.36 L355.944,89.065 L356.262,89.775 L356.574,90.476 L356.885,91.182 L357.197,91.893 L357.502,92.595 L357.807,93.302 L358.112,94.013 L358.411,94.715 L358.71,95.421 L359.009,96.132 L359.301,96.832 L359.594,97.537 L359.886,98.247 L360.179,98.961 L360.465,99.664 L360.751,100.371 L361.037,101.083 L361.317,101.784 L361.596,102.488 L361.876,103.197 L362.156,103.91 L362.429,104.611 L362.703,105.316 L362.976,106.025 L363.249,106.739 L363.517,107.439 L363.784,108.144 L364.051,108.852 L364.318,109.564 L364.585,110.28 L364.845,110.983 L365.106,111.69 L365.367,112.401 L365.627,113.115 L365.882,113.815 L366.136,114.519 L366.39,115.227 L366.645,115.938 L366.899,116.653 L367.147,117.353 L367.395,118.057 L367.643,118.765 L367.891,119.475 L368.139,120.19 L368.387,120.907 L368.628,121.61 L368.87,122.316 L369.111,123.025 L369.353,123.738 L369.595,124.453 L369.83,125.154 L370.065,125.857 L370.3,126.563 L370.536,127.273 L370.771,127.986 L371.006,128.702 L371.241,129.421 L371.47,130.124 L371.699,130.829 L371.928,131.538 L372.157,132.25 L372.386,132.965 L372.615,133.682 L372.837,134.383 L373.06,135.087 L373.282,135.793 L373.505,136.502 L373.727,137.215 L373.95,137.93 L374.172,138.648 L374.388,139.348 L374.605,140.051 L374.821,140.757 L375.037,141.465 L375.253,142.176 L375.469,142.89 L375.685,143.607 L375.902,144.326 L376.111,145.027 L376.321,145.73 L376.531,146.436 L376.741,147.145 L376.951,147.856 L377.16,148.57 L377.37,149.286 L377.58,150.005 L377.79,150.727 L377.993,151.429 L378.197,152.134 L378.4,152.841 L378.604,153.551 L378.807,154.263 L379.011,154.977 L379.214,155.694 L379.417,156.414 L379.621,157.136 L379.818,157.838 L380.015,158.542 L380.212,159.249 L380.409,159.957 L380.606,160.669 L380.803,161.382 L381.001,162.098 L381.198,162.816 L381.395,163.537 L381.592,164.26 L381.783,164.961 L381.973,165.666 L382.164,166.372 L382.355,167.08 L382.546,167.791 L382.736,168.504 L382.927,169.219 L383.118,169.936 L383.308,170.656 L383.499,171.378 L383.69,172.102 L383.874,172.804 L384.059,173.508 L384.243,174.214 L384.427,174.922 L384.612,175.633 L384.796,176.345 L384.981,177.06 L385.165,177.776 L385.349,178.495 L385.534,179.216 L385.718,179.939 L385.896,180.639 L386.074,181.341 L386.252,182.045 L386.43,182.751 L386.608,183.459 L386.786,184.169 L386.964,184.881 L387.142,185.594 L387.32,186.31 L387.498,187.028 L387.676,187.748 L387.854,188.47 L388.032,189.193 L388.21,189.919 L388.382,190.621 L388.554,191.324 L388.725,192.03 L388.897,192.737 L389.069,193.446 L389.24,194.157 L389.412,194.87 L389.584,195.585 L389.755,196.301 L389.927,197.02 L390.099,197.74 L390.27,198.462 L390.442,199.186 L390.614,199.912 L390.779,200.613 L390.944,201.315 L391.109,202.02 L391.275,202.726 L391.44,203.433 L391.605,204.143 L391.771,204.854 L391.936,205.567 L392.101,206.282 L392.267,206.998 L392.432,207.717 L392.597,208.437 L392.763,209.158 L392.928,209.882 L393.093,210.607 L393.258,211.334 L393.417,212.035 L393.576,212.737 L393.735,213.441 L393.894,214.147 L394.053,214.854 L394.212,215.563 L394.371,216.273 L394.53,216.985 L394.689,217.699 L394.848,218.415 L395.007,219.132 L395.166,219.85 L395.325,220.571 L395.484,221.293 L395.643,222.016 L395.802,222.742 L395.961,223.469 L396.119,224.197 L396.272,224.898 L396.425,225.601 L396.577,226.305 L396.73,227.01 L396.882,227.717 L397.035,228.426 L397.188,229.136 L397.34,229.848 L397.493,230.561 L397.645,231.276 L397.798,231.992 L397.951,232.71 L398.103,233.429 L398.256,234.15 L398.408,234.872 L398.561,235.596 L398.713,236.322 L398.866,237.049 L399.019,237.777 L399.171,238.507 L399.317,239.209 L399.464,239.911 L399.61,240.615 L399.756,241.32 L399.902,242.027 L400.049,242.736 L400.195,243.445 L400.341,244.156 L400.487,244.869 L400.634,245.583 L400.78,246.298 L400.926,247.015 L401.072,247.733 L401.218,248.453 L401.365,249.174 L401.511,249.897 L401.657,250.62 L401.803,251.346 L401.95,252.073 L402.096,252.801 L402.242,253.531 L402.388,254.262 L402.528,254.963 L402.668,255.665 L402.808,256.368 L402.948,257.073 L403.088,257.779 L403.228,258.486 L403.367,259.195 L403.507,259.905 L403.647,260.616 L403.787,261.329 L403.927,262.042 L404.067,262.758 L404.207,263.474 L404.346,264.192 L404.486,264.912 L404.626,265.632 L404.766,266.354 L404.906,267.077 L405.046,267.802 L405.186,268.528 L405.326,269.255 L405.465,269.984 L405.605,270.714 L405.745,271.445 L405.885,272.178 L406.019,272.878 L406.152,273.58 L406.286,274.283 L406.419,274.987 L406.553,275.693 L406.686,276.399 L406.82,277.107 L406.953,277.816 L407.087,278.527 L407.22,279.238 L407.354,279.951 L407.487,280.665 L407.621,281.38 L407.754,282.097 L407.888,282.815 L408.021,283.534 L408.155,284.254 L408.288,284.975 L408.422,285.698 L408.555,286.422 L408.689,287.147 L408.822,287.874 L408.956,288.601 L409.089,289.33 L409.223,290.06 L409.356,290.791 L409.49,291.524 L409.623,292.258 L409.751,292.958 L409.878,293.659 L410.005,294.361 L410.132,295.065 L410.259,295.769 L410.386,296.475 L410.514,297.182 L410.641,297.89 L410.768,298.599 L410.895,299.309 L411.022,300.021 L411.149,300.733 L411.277,301.447 L411.404,302.161 L411.531,302.877 L411.658,303.594 L411.785,304.312 L411.912,305.032 L412.039,305.752 L412.167,306.474 L412.294,307.197 L412.421,307.92 L412.548,308.645 L412.675,309.372 L412.802,310.099 L412.93,310.827 L413.057,311.557 L413.184,312.288 L413.311,313.02 L413.438,313.753 L413.565,314.487 L413.693,315.222 L413.82,315.958 L413.94,316.659 L414.061,317.361 L414.182,318.064 L414.303,318.768 L414.424,319.472 L414.544,320.178 L414.665,320.885 L414.786,321.593 L414.907,322.302 L415.028,323.012 L415.148,323.723 L415.269,324.436 L415.39,325.149 L415.511,325.863 L415.632,326.578 L415.752,327.295 L415.873,328.012 L415.994,328.73 L416.115,329.45 L416.236,330.17 L416.356,330.892 L416.477,331.615 L416.598,332.338 L416.719,333.063 L416.84,333.789 L416.96,334.516 L417.081,335.243 L417.202,335.972 L417.323,336.702 L417.444,337.433 L417.564,338.166 L417.685,338.899 L417.806,339.633 L417.927,340.368 L418.048,341.104 L418.168,341.842 L418.289,342.58 L418.404,343.281 L418.518,343.982 L418.633,344.685 L418.747,345.388 L418.861,346.092 L418.976,346.798 L419.09,347.504 L419.205,348.211 L419.319,348.919 L419.434,349.628 L419.548,350.339 L419.663,351.05 L419.777,351.762 L419.891,352.474 L420.006,353.188 L420.12,353.903 L420.235,354.619 L420.349,355.336 L420.464,356.053 L420.578,356.772 L420.692,357.492 L420.807,358.212 L420.921,358.934 L421.036,359.656 L421.15,360.38 L421.265,361.104 L421.379,361.83 L421.494,362.556 L421.608,363.283 L421.722,364.012 L421.837,364.741 L421.951,365.471 L422.066,366.202 L422.18,366.935 L422.295,367.668 L422.409,368.402 L422.524,369.137 L422.638,369.873 L422.752,370.61 L422.867,371.348 L422.981,372.087 L423.096,372.827 L423.21,373.568 L423.318,374.268 L423.426,374.97 L423.534,375.672 L423.642,376.375 L423.751,377.079 L423.859,377.784 L423.967,378.49 L424.075,379.197 L424.183,379.904 L424.291,380.613 L424.399,381.322 L424.507,382.032 L424.615,382.743 L424.723,383.455 L424.831,384.168 L424.939,384.881 L425.048,385.596 L425.156,386.311 L425.264,387.028 L425.372,387.745 L425.48,388.463 L425.588,389.182 L425.696,389.901 L425.804,390.622 L425.912,391.343 L426.02,392.066 L426.128,392.789 L426.236,393.513 L426.345,394.238 L426.453,394.964 L426.561,395.691 L426.669,396.419 L426.777,397.147 L426.885,397.876 L426.993,398.607 L427.101,399.338 L427.209,400.07 L427.317,400.803 L427.425,401.537 L427.533,402.271 L427.642,403.007 L427.75,403.743 L427.858,404.481 L427.966,405.219 L428.074,405.958 L428.182,406.698 L428.29,407.439 L428.398,408.181 L428.506,408.923 L428.614,409.667 L428.716,410.367 L428.818,411.069 L428.919,411.771 L429.021,412.474 L429.123,413.178 L429.225,413.882 L429.326,414.588 L429.428,415.294 L429.53,416.001 L429.632,416.708 L429.733,417.417 L429.835,418.126 L429.937,418.836 L430.038,419.547 L430.14,420.259 L430.242,420.971 L430.344,421.684 L430.445,422.398 L430.547,423.113 L430.649,423.829 L430.751,424.545 L430.852,425.262 L430.954,425.98 L431.056,426.699 L431.157,427.418 L431.259,428.139 L431.361,428.86 L431.463,429.582 L431.564,430.305 L431.666,431.028 L431.768,431.752 L431.87,432.477 L431.971,433.203 L432.073,433.93 L432.175,434.658 L432.276,435.386 L432.378,436.115 L432.48,436.845 L432.582,437.576 L432.683,438.307 L432.785,439.039 L432.887,439.772 L432.988,440.506 L433.09,441.241 L433.192,441.976 L433.294,442.713 L433.395,443.45 L433.497,444.188 L433.599,444.926 L433.701,445.666 L433.802,446.406 L433.904,447.147 L434.006,447.889 L434.107,448.632 L434.209,449.375 L434.311,450.12 L434.413,450.865 L434.514,451.611 L434.61,452.311 L434.705,453.012 L434.8,453.713 L434.896,454.415 L434.991,455.118 L435.087,455.822 L435.182,456.526 L435.277,457.231 L435.373,457.937 L435.468,458.643 L435.563,459.35 L435.659,460.058 L435.754,460.766 L435.85,461.476 L435.945,462.186 L436.04,462.896 L436.136,463.608 L436.231,464.32 L436.326,465.033 L436.422,465.746 L436.517,466.46 L436.612,467.175 L436.708,467.891 L436.803,468.607 L436.899,469.324 L436.994,470.042 L437.089,470.761 L437.185,471.48 L437.28,472.2 L437.375,472.921 L437.471,473.642 L437.566,474.364 L437.661,475.087 L437.757,475.81 L437.852,476.535 L437.948,477.26 L438.043,477.985 L438.138,478.712 L438.234,479.439 L438.329,480.167 L438.424,480.895 L438.52,481.625 L438.615,482.355 L438.711,483.085 L438.806,483.817 L438.901,484.549 L438.997,485.282 L439.092,486.015 L439.187,486.75 L439.283,487.485 L439.378,488.22 L439.473,488.957 L439.569,489.694 L439.664,490.432 L439.76,491.171 L439.855,491.91 L439.95,492.65 L440.046,493.391 L440.141,494.133 L440.236,494.875 L440.332,495.618 L440.427,496.362 L440.523,497.106 L440.618,497.851 L440.713,498.597 L440.809,499.344 L440.904,500.091 L440.999,500.839 L441.095,501.588 L441.19,502.337 L441.279,503.038 L441.368,503.738 L441.457,504.44 L441.546,505.142 L441.635,505.845 L441.724,506.548 L441.813,507.252 L441.902,507.957 L441.991,508.662 L442.08,509.368 L442.169,510.075 L442.258,510.782 L442.347,511.49 L442.436,512.198 L442.525,512.907 L442.614,513.617 L442.703,514.327 L442.792,515.038 L442.881,515.75 L442.97,516.462 L443.059,517.175 L443.148,517.889 L443.237,518.603 L443.326,519.318 L443.415,520.033 L443.504,520.749 L443.593,521.466 L443.682,522.183 L443.771,522.902 L443.86,523.62 L443.949,524.34 L444.038,525.059 L444.127,525.78 L444.216,526.501 L444.305,527.223 L444.394,527.946 L444.483,528.669 L444.572,529.393 L444.661,530.117 L444.75,530.842 L444.84,531.568 L444.928,532.294 L445.018,533.021 L445.107,533.749 L445.196,534.477 L445.285,535.206 L445.374,535.936 L445.463,536.666 L445.552,537.397 L445.641,538.128 L445.73,538.861 L445.819,539.594 L445.908,540.327 L445.997,541.061 L446.086,541.796 L446.175,542.531 L446.264,543.267 L446.353,544.004 L446.442,544.741 L446.531,545.479 L446.62,546.218 L446.709,546.957 L446.798,547.697 L446.887,548.438 L446.976,549.179 L447.065,549.921 L447.154,550.663 L447.243,551.406 L447.332,552.15 L447.421,552.895 L447.51,553.64 L447.599,554.386 L447.688,555.132 L447.777,555.879 L447.866,556.627 L447.955,557.375 L448.044,558.124 L448.133,558.874 L448.222,559.624 L448.311,560.375 L448.4,561.127 L448.489,561.879 L448.578,562.632 L448.667,563.385 L448.75,564.086 L448.832,564.787 L448.915,565.488 L448.998,566.19 L449.08,566.893 L449.163,567.596 L449.245,568.3 L449.328,569.004 L449.411,569.709 L449.493,570.414 L449.576,571.12 L449.659,571.827 L449.741,572.534 L449.824,573.241 L449.907,573.95 L449.989,574.659 L450.072,575.368 L450.155,576.078 L450.237,576.788 L450.32,577.499 L450.403,578.211 L450.485,578.923 L450.568,579.636 L450.651,580.349 L450.733,581.063 L450.816,581.778 L450.898,582.493 L450.981,583.208 L451.064,583.924 L451.146,584.641 L451.229,585.358 L451.312,586.076 L451.394,586.795 L451.477,587.514 L451.56,588.233 L451.642,588.953 L451.725,589.674 L451.808,590.395 L451.89,591.117 L451.973,591.84 L452.056,592.563 L452.138,593.286 L452.221,594.01 L452.304,594.735 L452.386,595.46 L452.469,596.186 L452.552,596.913 L452.634,597.64 L452.717,598.367 L452.799,599.095 L452.882,599.824 L452.965,600.553 L453.047,601.283 L453.13,602.014 L453.213,602.745 L453.295,603.476 L453.378,604.208 L453.461,604.941 L453.543,605.674 L453.626,606.408 L453.709,607.143 L453.791,607.878 L453.874,608.613 L453.957,609.349 L454.039,610.086 L454.122,610.823 L454.205,611.561 L454.287,612.3 L454.37,613.039 L454.453,613.778 L454.535,614.518 L454.618,615.259 L454.701,616 L454.783,616.742 L454.866,617.485 L454.948,618.228 L455.031,618.972 L455.114,619.716 L455.196,620.461 L455.279,621.206 L455.362,621.952 L455.444,622.698 L455.527,623.445 L455.61,624.193 L455.692,624.941 L455.775,625.69 L455.858,626.44 L455.94,627.19 L456.023,627.94 L456.106,628.691 L456.188,629.443 L456.271,630.195 L456.354,630.948 L456.436,631.702 L456.519,632.456 L456.601,633.21 L456.684,633.966 L456.767,634.721 L456.849,635.478 L456.932,636.235 L457.015,636.992 L457.097,637.75 L457.174,638.451 L457.25,639.151 L457.326,639.853 L457.403,640.555 L457.479,641.257 L457.555,641.96 L457.631,642.663 L457.708,643.367 L457.784,644.071 L457.86,644.776 L457.937,645.481 L458.013,646.187 L458.089,646.893 L458.165,647.6 L458.242,648.307 L458.318,649.015 L458.394,649.723 L458.471,650.432 L458.547,651.141 L458.623,651.851 L458.7,652.561 L458.776,653.272 L458.852,653.983 L458.928,654.695 L459.005,655.407 L459.081,656.12 L459.157,656.833 L459.234,657.547 L459.31,658.261 L459.386,658.976 L459.462,659.691 L459.539,660.407 L459.615,661.123 L459.691,661.84 L459.768,662.557 L459.844,663.275 L459.92,663.993 L459.997,664.712 L460.073,665.431 L460.149,666.151 L460.225,666.871 L460.302,667.591 L460.378,668.313 L460.454,669.034 L460.531,669.757 L460.607,670.479 L460.683,671.203 L460.759,671.926 L460.836,672.651 L460.912,673.375 L460.988,674.101 L461.065,674.826 L461.141,675.553 L461.217,676.28 L461.294,677.007 L461.37,677.735 L461.446,678.463 L461.522,679.192 L461.599,679.921 L461.675,680.651 L461.751,681.381 L461.828,682.112 L461.904,682.843 L461.98,683.575 L462.056,684.307 L462.133,685.04 L462.209,685.773 L462.285,686.507 L462.362,687.241 L462.438,687.976 L462.514,688.712 L462.591,689.448 L462.667,690.184 L462.743,690.921 L462.819,691.658 L462.896,692.396 L462.972,693.134 L463.048,693.873 L463.125,694.613 L463.201,695.352 L463.277,696.093 L463.353,696.834 L463.43,697.575 L463.506,698.317 L463.582,699.06 L463.659,699.802 L463.735,700.546 L463.811,701.29 L463.888,702.034 L463.964,702.779 L464.04,703.525 L464.116,704.271 L464.193,705.017 L464.269,705.764 L464.345,706.512 L464.422,707.26 L464.498,708.008 L464.574,708.757 L464.65,709.507 L464.727,710.257 L464.803,711.008 L464.879,711.759 L464.956,712.51 L465.032,713.262 L465.108,714.015 L465.185,714.768 L465.261,715.522 L465.337,716.276 L465.413,717.03 L465.49,717.786 L465.566,718.541 L465.642,719.297 L465.719,720.054 L465.795,720.811 L465.871,721.569 L465.947,722.327 L466.024,723.086 L466.1,723.845 L466.176,724.605 L466.253,725.365 L466.329,726.126 L466.405,726.888 L466.482,727.649 L466.558,728.412 L466.634,729.174 L466.71,729.938 L466.78,730.638 L466.85,731.339 L466.92,732.04 L466.99,732.741 L467.06,733.443 L467.13,734.146 L467.2,734.848 L467.27,735.552 L467.34,736.255 L467.41,736.959 L467.48,737.664 L467.55,738.369 L467.62,739.074 L467.69,739.78 L467.759,740.486 L467.829,741.193 L467.899,741.9 L467.969,742.607 L468.039,743.315 L468.109,744.024 L468.179,744.733 L468.249,745.442 L468.319,746.152 L468.389,746.862 L468.459,747.573 L468.529,748.284 L468.599,748.995 L468.669,749.707 L468.739,750.419 L468.809,751.132 L468.878,751.845 L468.948,752.559 L469.018,753.273 L469.088,753.987 L469.158,754.702 L469.228,755.418 L469.298,756.133 L469.368,756.85 L469.438,757.566 L469.508,758.283 L469.578,759.001 L469.648,759.719 L469.718,760.437 L469.788,761.156 L469.858,761.876 L469.927,762.595 L469.997,763.315 L470.067,764.036 L470.137,764.757 L470.207,765.479 L470.277,766.2 L470.347,766.923 L470.417,767.646 L470.487,768.369 L470.557,769.092 L470.627,769.817 L470.697,770.541 L470.767,771.266 L470.837,771.991 L470.907,772.717 L470.977,773.444 L471.046,774.17 L471.116,774.897 L471.186,775.625 L471.256,776.353 L471.326,777.082 L471.396,777.811 L471.466,778.54 L471.536,779.27 L471.606,780 L471.676,780.731 L471.746,781.462 L471.816,782.193 L471.886,782.925 L471.956,783.658 L472.026,784.391 L472.096,785.124 L472.165,785.858 L472.235,786.592 L472.305,787.326 L472.375,788.062 L472.445,788.797 L472.515,789.533 L472.585,790.269 L472.655,791.006 L472.725,791.743 L472.795,792.481 L472.865,793.219 L472.935,793.958 L473.005,794.697 L473.075,795.436 L473.145,796.176 L473.214,796.917 L473.284,797.658 L473.354,798.399 L473.424,799.141 L473.494,799.883 L473.564,800.625 L473.634,801.368 L473.704,802.112 L473.774,802.856 L473.844,803.6 L473.914,804.345 L473.984,805.09 L474.054,805.836 L474.124,806.582 L474.194,807.328 L474.264,808.075 L474.333,808.823 L474.403,809.571 L474.473,810.319 L474.543,811.068 L474.613,811.817 L474.683,812.567 L474.753,813.317 L474.823,814.067 L474.893,814.818 L474.963,815.57 L475.033,816.322 L475.103,817.074 L475.173,817.827 L475.243,818.58 L475.313,819.334 L475.383,820.088 L475.452,820.842 L475.522,821.597 L475.592,822.353 L475.662,823.109 L475.732,823.865 L475.802,824.622 L475.872,825.379 L475.942,826.137 L476.012,826.895 L476.082,827.653 L476.152,828.412 L476.222,829.172 L476.292,829.932 L476.362,830.692 L476.432,831.453 L476.501,832.214 L476.571,832.976 L476.641,833.738 L476.711,834.501 L476.781,835.264 L476.851,836.027 L476.921,836.791 L476.991,837.555 L477.061,838.32 L477.131,839.086 L477.201,839.851 L477.271,840.617 L477.341,841.384 L477.411,842.151 L477.481,842.919 L477.551,843.687 L477.62,844.455 L477.69,845.224 L477.76,845.993 L477.83,846.763 L477.894,847.463 L477.957,848.164 L478.021,848.865 L478.085,849.566 L478.148,850.267 L478.212,850.969 L478.275,851.672 L478.339,852.375 L478.402,853.078 L478.466,853.781 L478.53,854.485 L478.593,855.189 L478.657,855.894 L478.72,856.599 L478.784,857.305 L478.848,858.01 L478.911,858.716 L478.975,859.423 L479.038,860.13 L479.102,860.837 L479.165,861.545 L479.229,862.253 L479.293,862.961 L479.356,863.67 L479.42,864.379 L479.483,865.088 L479.547,865.798 L479.61,866.508 L479.674,867.219 L479.738,867.93 L479.801,868.641 L479.865,869.353 L479.928,870.065 L479.992,870.777 L480.056,871.49 L480.119,872.204 L480.183,872.917 L480.246,873.631 L480.31,874.345 L480.373,875.06 L480.437,875.775 L480.501,876.491 L480.564,877.206 L480.628,877.923 L480.691,878.639 L480.755,879.356 L480.818,880.074 L480.882,880.791 L480.946,881.509 L481.009,882.228 L481.073,882.947 L481.136,883.666 L481.2,884.385 L481.263,885.105 L481.327,885.826 L481.391,886.547 L481.454,887.268 L481.518,887.989 L481.581,888.711 L481.645,889.433 L481.709,890.156 L481.772,890.879 L481.836,891.602 L481.899,892.326 L481.963,893.05 L482.026,893.774 L482.09,894.499 L482.154,895.224 L482.217,895.95 L482.281,896.676 L482.344,897.402 L482.408,898.129 L482.471,898.856 L482.535,899.584 L482.599,900.312 L482.662,901.04 L482.726,901.768 L482.789,902.497 L482.853,903.227 L482.917,903.956 L482.98,904.687 L483.044,905.417 L483.107,906.148 L483.171,906.879 L483.234,907.611 L483.298,908.343 L483.362,909.075 L483.425,909.808 L483.489,910.541 L483.552,911.275 L483.616,912.009 L483.679,912.743 L483.743,913.478 L483.807,914.213 L483.87,914.948 L483.934,915.684 L483.997,916.42 L484.061,917.157 L484.125,917.894 L484.188,918.631 L484.252,919.369 L484.315,920.107 L484.379,920.845 L484.442,921.584 L484.506,922.323 L484.57,923.063 L484.633,923.803 L484.697,924.543 L484.76,925.284 L484.824,926.025 L484.887,926.767 L484.951,927.509 L485.015,928.251 L485.078,928.993 L485.142,929.737 L485.205,930.48 L485.269,931.224 L485.333,931.968 L485.396,932.712 L485.46,933.457 L485.523,934.203 L485.587,934.948 L485.65,935.694 L485.714,936.441 L485.778,937.188 L485.841,937.935 L485.905,938.683 L485.968,939.431 L486.032,940.179 L486.095,940.928 L486.159,941.677 L486.223,942.426 L486.286,943.176 L486.35,943.926 L486.413,944.677 L486.477,945.428 L486.54,946.18 L486.604,946.931 L486.668,947.684 L486.731,948.436 L486.795,949.189 L486.858,949.942 L486.922,950.696 L486.986,951.45 L487.049,952.205 L487.113,952.96 L487.176,953.715 L487.24,954.47 L487.303,955.227 L487.367,955.983 L487.431,956.74 L487.494,957.497 L487.558,958.254 L487.621,959.012 L487.685,959.771 L487.748,960.529 L487.812,961.288 L487.876,962.048 L487.939,962.808 L488.003,963.568 L488.066,964.329 L488.13,965.09 L488.194,965.851 L488.257,966.613 L488.321,967.375 L488.384,968.138 L488.448,968.901 L488.511,969.664 L488.575,970.428 L488.639,971.192 L488.702,971.956 L488.766,972.721 L488.829,973.486 L488.893,974.252 L488.956,975.018 L489.02,975.784 L489.084,976.551 L489.147,977.318 L489.211,978.086 L489.274,978.854 L489.338,979.622 L489.402,980.391 L489.465,981.16 L489.529,981.929 L489.592,982.699 L489.656,983.469 L489.719,984.24 L489.783,985.011 L489.847,985.783 L489.91,986.554 L489.974,987.327 L490.037,988.099 L490.101,988.872 L490.164,989.646 L490.228,990.419 L490.292,991.193 L490.355,991.968 L490.419,992.743 L490.482,993.518 L490.546,994.294 L490.609,995.07 L490.673,995.846 L490.737,996.623 L490.8,997.4 L490.864,998.178 L490.921,998.878 L490.966,999.423 L490.972,999.501 L490.997,999.812 L491.048,1000.435 L491.862,1010.438 L493.49,1030.634 L500,1114" fill-opacity="0" stroke="#CCCCCC" stroke-width="3" stroke-linecap="round" stroke-linejoin="round" id="box_jxgBoard1G32"/>
    <g>
      <path d="M-1,-0.583 L-1,-0.583" fill-opacity="0" stroke="#0000FF" stroke-width="2" id="box_jxgBoard1L36" display="none"/>
      <path d="M-1,-0.583 L-1,-0.583" fill-opacity="0" stroke="#0000FF" stroke-width="2" id="box_jxgBoard1L43" display="none"/>
      <path d="M-1,-0.583 L-1,-0.583" fill-opacity="0" stroke="#CCCCCC" stroke-width="1" id="box_jxgBoard1L50" display="none"/>
      <path d="M167,239.417 L375,141.417" fill-opacity="0" stroke="#3344AA" stroke-width="12" id="box_jxgBoard1L51"/>
      <g display="none">
        <path d="M375,233.417 L375,147.417" fill-opacity="0" stroke="#888888" stroke-width="2" id="box_jxgBoard1L55"/>
        <path d="M373.5,231.917 L375,234.917 L376.5,231.917 z" fill="#888888"/>
        <path d="M373.5,148.917 L375,145.917 L376.5,148.917 z" fill="#888888"/>
      </g>
      <g display="none">
        <path d="M369,239.417 L173,239.417" fill-opacity="0" stroke="#888888" stroke-width="2" id="box_jxgBoard1L57"/>
        <path d="M367.5,240.917 L370.5,239.417 L367.5,237.917 z" fill="#888888"/>
        <path d="M174.5,240.917 L171.5,239.417 L174.5,237.917 z" fill="#888888"/>
      </g>
    </g>
    <g>
      <text transform="matrix(1, 0, 0, 1, 132.837, 345.45)" id="box_jxgBoard1L4_ticks_15Label1">
        <tspan x="-3.837" y="3.5" font-family="ArialMT" font-size="12" fill="#000000">1</tspan>
      </text>
      <text transform="matrix(1, 0, 0, 1, 174.504, 345.45)" id="box_jxgBoard1L4_ticks_110Label2">
        <tspan x="-3.837" y="3.5" font-family="ArialMT" font-size="12" fill="#000000">2</tspan>
      </text>
      <text transform="matrix(1, 0, 0, 1, 216.17, 345.45)" id="box_jxgBoard1L4_ticks_115Label3">
        <tspan x="-3.837" y="3.5" font-family="ArialMT" font-size="12" fill="#000000">3</tspan>
      </text>
      <text transform="matrix(1, 0, 0, 1, 257.837, 345.45)" id="box_jxgBoard1L4_ticks_120Label4">
        <tspan x="-3.837" y="3.5" font-family="ArialMT" font-size="12" fill="#000000">4</tspan>
      </text>
      <text transform="matrix(1, 0, 0, 1, 299.504, 345.45)" id="box_jxgBoard1L4_ticks_125Label5">
        <tspan x="-3.837" y="3.5" font-family="ArialMT" font-size="12" fill="#000000">5</tspan>
      </text>
      <text transform="matrix(1, 0, 0, 1, 341.17, 345.45)" id="box_jxgBoard1L4_ticks_130Label6">
        <tspan x="-3.837" y="3.5" font-family="ArialMT" font-size="12" fill="#000000">6</tspan>
      </text>
      <text transform="matrix(1, 0, 0, 1, 382.837, 345.45)" id="box_jxgBoard1L4_ticks_135Label7">
        <tspan x="-3.837" y="3.5" font-family="ArialMT" font-size="12" fill="#000000">7</tspan>
      </text>
      <text transform="matrix(1, 0, 0, 1, 424.504, 345.45)" id="box_jxgBoard1L4_ticks_140Label8">
        <tspan x="-3.837" y="3.5" font-family="ArialMT" font-size="12" fill="#000000">8</tspan>
      </text>
      <text transform="matrix(1, 0, 0, 1, 466.17, 345.45)" id="box_jxgBoard1L4_ticks_145Label9">
        <tspan x="-3.837" y="3.5" font-family="ArialMT" font-size="12" fill="#000000">9</tspan>
      </text>
      <text transform="matrix(1, 0, 0, 1, 53.007, 345.45)" id="box_jxgBoard1L4_ticks_154Label10">
        <tspan x="-7.341" y="3.5" font-family="ArialMT" font-size="12" fill="#000000">−1</tspan>
      </text>
      <text transform="matrix(1, 0, 0, 1, 91.17, 303.783)" id="box_jxgBoard1L19_ticks_15Label1">
        <tspan x="-3.837" y="3.5" font-family="ArialMT" font-size="12" fill="#000000">1</tspan>
      </text>
      <text transform="matrix(1, 0, 0, 1, 91.17, 262.117)" id="box_jxgBoard1L19_ticks_110Label2">
        <tspan x="-3.837" y="3.5" font-family="ArialMT" font-size="12" fill="#000000">2</tspan>
      </text>
      <text transform="matrix(1, 0, 0, 1, 91.17, 220.45)" id="box_jxgBoard1L19_ticks_115Label3">
        <tspan x="-3.837" y="3.5" font-family="ArialMT" font-size="12" fill="#000000">3</tspan>
      </text>
      <text transform="matrix(1, 0, 0, 1, 91.17, 178.783)" id="box_jxgBoard1L19_ticks_120Label4">
        <tspan x="-3.837" y="3.5" font-family="ArialMT" font-size="12" fill="#000000">4</tspan>
      </text>
      <text transform="matrix(1, 0, 0, 1, 91.17, 137.117)" id="box_jxgBoard1L19_ticks_125Label5">
        <tspan x="-3.837" y="3.5" font-family="ArialMT" font-size="12" fill="#000000">5</tspan>
      </text>
      <text transform="matrix(1, 0, 0, 1, 91.17, 95.45)" id="box_jxgBoard1L19_ticks_130Label6">
        <tspan x="-3.837" y="3.5" font-family="ArialMT" font-size="12" fill="#000000">6</tspan>
      </text>
      <text transform="matrix(1, 0, 0, 1, 91.17, 53.783)" id="box_jxgBoard1L19_ticks_135Label7">
        <tspan x="-3.837" y="3.5" font-family="ArialMT" font-size="12" fill="#000000">7</tspan>
      </text>
      <text transform="matrix(1, 0, 0, 1, 94.674, 387.117)" id="box_jxgBoard1L19_ticks_144Label8">
        <tspan x="-7.341" y="3.5" font-family="ArialMT" font-size="12" fill="#000000">−1</tspan>
      </text>
      <text transform="matrix(1, 0, 0, 1, 94.674, 428.783)" id="box_jxgBoard1L19_ticks_149Label9">
        <tspan x="-7.341" y="3.5" font-family="ArialMT" font-size="12" fill="#000000">−2</tspan>
      </text>
      <text transform="matrix(1, 0, 0, 1, 94.674, 470.45)" id="box_jxgBoard1L19_ticks_154Label10">
        <tspan x="-7.341" y="3.5" font-family="ArialMT" font-size="12" fill="#000000">−3</tspan>
      </text>
      <g id="box_jxgBoard1P37">
        <path d="M179.667,332.75 C179.667,339.93 173.846,345.75 166.667,345.75 C159.487,345.75 153.667,339.93 153.667,332.75 C153.667,325.57 159.487,319.75 166.667,319.75 C173.846,319.75 179.667,325.57 179.667,332.75 z" fill="#008000"/>
        <path d="M179.667,332.75 C179.667,339.93 173.846,345.75 166.667,345.75 C159.487,345.75 153.667,339.93 153.667,332.75 C153.667,325.57 159.487,319.75 166.667,319.75 C173.846,319.75 179.667,325.57 179.667,332.75 z" fill-opacity="0" stroke="#008000" stroke-width="2"/>
      </g>
      <g id="box_jxgBoard1P39">
        <path d="M388,332.75 C388,339.93 382.18,345.75 375,345.75 C367.82,345.75 362,339.93 362,332.75 C362,325.57 367.82,319.75 375,319.75 C382.18,319.75 388,325.57 388,332.75 z" fill="#FF0000"/>
        <path d="M388,332.75 C388,339.93 382.18,345.75 375,345.75 C367.82,345.75 362,339.93 362,332.75 C362,325.57 367.82,319.75 375,319.75 C382.18,319.75 388,325.57 388,332.75 z" fill-opacity="0" stroke="#FF0000" stroke-width="2"/>
      </g>
      <g id="box_jxgBoard1P44" display="none">
        <path d="M276,332.417 C276,335.178 273.761,337.417 271,337.417 C268.239,337.417 266,335.178 266,332.417 C266,329.655 268.239,327.417 271,327.417 C273.761,327.417 276,329.655 276,332.417 z" fill="#3344AA"/>
        <path d="M276,332.417 C276,335.178 273.761,337.417 271,337.417 C268.239,337.417 266,335.178 266,332.417 C266,329.655 268.239,327.417 271,327.417 C273.761,327.417 276,329.655 276,332.417 z" fill-opacity="0" stroke="#3344AA" stroke-width="2"/>
      </g>
      <g id="box_jxgBoard1P46">
        <path d="M179.667,239 C179.667,246.18 173.846,252 166.667,252 C159.487,252 153.667,246.18 153.667,239 C153.667,231.82 159.487,226 166.667,226 C173.846,226 179.667,231.82 179.667,239 z" fill="#3344AA"/>
        <path d="M179.667,239 C179.667,246.18 173.846,252 166.667,252 C159.487,252 153.667,246.18 153.667,239 C153.667,231.82 159.487,226 166.667,226 C173.846,226 179.667,231.82 179.667,239 z" fill-opacity="0" stroke="#3344AA" stroke-width="2"/>
      </g>
      <g id="box_jxgBoard1P48">
        <path d="M388,141.344 C388,148.523 382.18,154.344 375,154.344 C367.82,154.344 362,148.523 362,141.344 C362,134.164 367.82,128.344 375,128.344 C382.18,128.344 388,134.164 388,141.344 z" fill="#3344AA"/>
        <path d="M388,141.344 C388,148.523 382.18,154.344 375,154.344 C367.82,154.344 362,148.523 362,141.344 C362,134.164 367.82,128.344 375,128.344 C382.18,128.344 388,134.164 388,141.344 z" fill-opacity="0" stroke="#3344AA" stroke-width="2"/>
      </g>
      <g id="box_jxgBoard1P53" display="none">
        <path d="M87,332.417 C87,334.626 85.209,336.417 83,336.417 C80.791,336.417 79,334.626 79,332.417 C79,330.208 80.791,328.417 83,328.417 C85.209,328.417 87,330.208 87,332.417 z" fill="#FF0000"/>
        <path d="M87,332.417 C87,334.626 85.209,336.417 83,336.417 C80.791,336.417 79,334.626 79,332.417 C79,330.208 80.791,328.417 83,328.417 C85.209,328.417 87,330.208 87,332.417 z" fill-opacity="0" stroke="#FF0000" stroke-width="2"/>
      </g>
    </g>
  </g>
  <g id="text">
    <text transform="matrix(1, 0, 0, 1, 272, 414)">
      <tspan x="-95.054" y="15.5" font-family="Arial-BoldMT" font-size="60" fill="#000000">secant</tspan>
    </text>
  </g>
</svg>
