<?xml version="1.0" encoding="UTF-8"?>
<!DOCTYPE svg PUBLIC "-//W3C//DTD SVG 1.1//EN" "http://www.w3.org/Graphics/SVG/1.1/DTD/svg11.dtd">
<svg version="1.1" xmlns="http://www.w3.org/2000/svg" xmlns:xlink="http://www.w3.org/1999/xlink" x="0" y="0" width="500" height="500" viewBox="0, 0, 500, 500">
  <g id="Layer_3">
    <g>
      <path d="M59.326,12.721 L441.674,12.721 C467.413,12.721 488.279,33.587 488.279,59.326 L488.279,441.674 C488.279,467.413 467.413,488.279 441.674,488.279 L59.326,488.279 C33.587,488.279 12.721,467.413 12.721,441.674 L12.721,59.326 C12.721,33.587 33.587,12.721 59.326,12.721 z" fill="#90F4FF" fill-opacity="0.304"/>
      <path d="M59.326,12.721 L441.674,12.721 C467.413,12.721 488.279,33.587 488.279,59.326 L488.279,441.674 C488.279,467.413 467.413,488.279 441.674,488.279 L59.326,488.279 C33.587,488.279 12.721,467.413 12.721,441.674 L12.721,59.326 C12.721,33.587 33.587,12.721 59.326,12.721 z" fill-opacity="0" stroke="#B8B8B8" stroke-width="16"/>
    </g>
  </g>
  <g id="Layer_1">
    <path d="M43.5,235.5 L43.5,235.5" fill-opacity="0" stroke="#383838" stroke-width="1" stroke-linecap="round" stroke-linejoin="round"/>
    <g>
      <path d="M298.716,104.213 L411.084,104.213 C429.76,104.213 444.9,118.611 444.9,136.372 L444.9,272.054 C444.9,289.815 429.76,304.213 411.084,304.213 L298.716,304.213 C280.04,304.213 264.9,289.815 264.9,272.054 L264.9,136.372 C264.9,118.611 280.04,104.213 298.716,104.213 z" fill="#FFFFFF"/>
      <path d="M298.716,104.213 L411.084,104.213 C429.76,104.213 444.9,118.611 444.9,136.372 L444.9,272.054 C444.9,289.815 429.76,304.213 411.084,304.213 L298.716,304.213 C280.04,304.213 264.9,289.815 264.9,272.054 L264.9,136.372 C264.9,118.611 280.04,104.213 298.716,104.213 z" fill-opacity="0" stroke="#929292" stroke-width="4"/>
    </g>
    <g>
      <path d="M89.916,104.213 L202.284,104.213 C220.96,104.213 236.1,118.611 236.1,136.372 L236.1,272.054 C236.1,289.815 220.96,304.213 202.284,304.213 L89.916,304.213 C71.24,304.213 56.1,289.815 56.1,272.054 L56.1,136.372 C56.1,118.611 71.24,104.213 89.916,104.213 z" fill="#FFFFFF"/>
      <path d="M89.916,104.213 L202.284,104.213 C220.96,104.213 236.1,118.611 236.1,136.372 L236.1,272.054 C236.1,289.815 220.96,304.213 202.284,304.213 L89.916,304.213 C71.24,304.213 56.1,289.815 56.1,272.054 L56.1,136.372 C56.1,118.611 71.24,104.213 89.916,104.213 z" fill-opacity="0" stroke="#929292" stroke-width="4"/>
    </g>
    <g>
      <path d="M114.395,188.774 C102.921,188.774 93.619,179.655 93.619,168.406 C93.619,157.157 102.921,148.038 114.395,148.038 C125.869,148.038 135.17,157.157 135.17,168.406 C135.17,179.655 125.869,188.774 114.395,188.774 z" fill="#00EFF2"/>
      <path d="M114.395,188.774 C102.921,188.774 93.619,179.655 93.619,168.406 C93.619,157.157 102.921,148.038 114.395,148.038 C125.869,148.038 135.17,157.157 135.17,168.406 C135.17,179.655 125.869,188.774 114.395,188.774 z" fill-opacity="0" stroke="#00A8AA" stroke-width="4"/>
    </g>
    <g>
      <path d="M182.353,279.159 C170.878,279.159 161.577,270.04 161.577,258.791 C161.577,247.542 170.878,238.423 182.353,238.423 C193.827,238.423 203.128,247.542 203.128,258.791 C203.128,270.04 193.827,279.159 182.353,279.159 z" fill="#FF4437"/>
      <path d="M182.353,279.159 C170.878,279.159 161.577,270.04 161.577,258.791 C161.577,247.542 170.878,238.423 182.353,238.423 C193.827,238.423 203.128,247.542 203.128,258.791 C203.128,270.04 193.827,279.159 182.353,279.159 z" fill-opacity="0" stroke="#83123E" stroke-width="4"/>
    </g>
    <g>
      <path d="M386.605,180.577 C375.131,180.577 365.83,171.458 365.83,160.209 C365.83,148.96 375.131,139.841 386.605,139.841 C398.079,139.841 407.381,148.96 407.381,160.209 C407.381,171.458 398.079,180.577 386.605,180.577 z" fill="#FF4437"/>
      <path d="M386.605,180.577 C375.131,180.577 365.83,171.458 365.83,160.209 C365.83,148.96 375.131,139.841 386.605,139.841 C398.079,139.841 407.381,148.96 407.381,160.209 C407.381,171.458 398.079,180.577 386.605,180.577 z" fill-opacity="0" stroke="#83123E" stroke-width="4"/>
    </g>
    <g>
      <path d="M102.833,262.424 C91.359,262.424 82.058,253.305 82.058,242.056 C82.058,230.807 91.359,221.688 102.833,221.688 C114.307,221.688 123.609,230.807 123.609,242.056 C123.609,253.305 114.307,262.424 102.833,262.424 z" fill="#FF4437"/>
      <path d="M102.833,262.424 C91.359,262.424 82.058,253.305 82.058,242.056 C82.058,230.807 91.359,221.688 102.833,221.688 C114.307,221.688 123.609,230.807 123.609,242.056 C123.609,253.305 114.307,262.424 102.833,262.424 z" fill-opacity="0" stroke="#83123E" stroke-width="4"/>
    </g>
    <text transform="matrix(1, 0, 0, 1, 250, 419.713)">
      <tspan x="-180.059" y="-49" font-family="Arial-BoldMT" font-size="60" fill="#000000">Gödel meets </tspan>
      <tspan x="-66.665" y="20" font-family="Arial-BoldMT" font-size="60" fill="#000000">Dots</tspan>
    </text>
  </g>
</svg>
