<?xml version="1.0" encoding="UTF-8"?>
<!DOCTYPE svg PUBLIC "-//W3C//DTD SVG 1.1//EN" "http://www.w3.org/Graphics/SVG/1.1/DTD/svg11.dtd">
<svg version="1.1" xmlns="http://www.w3.org/2000/svg" xmlns:xlink="http://www.w3.org/1999/xlink" x="0" y="0" width="500" height="500" viewBox="0, 0, 500, 500">
  <defs>
    <radialGradient id="Gradient_1" gradientUnits="userSpaceOnUse" cx="220.759" cy="253.089" r="245.833">
      <stop offset="0.012" stop-color="#E1FC92"/>
      <stop offset="0.859" stop-color="#81B24C"/>
      <stop offset="1" stop-color="#67A125"/>
    </radialGradient>
  </defs>
  <g id="Layer_3">
    <g>
      <path d="M59.326,12.721 L441.674,12.721 C467.413,12.721 488.279,33.587 488.279,59.326 L488.279,441.674 C488.279,467.413 467.413,488.279 441.674,488.279 L59.326,488.279 C33.587,488.279 12.721,467.413 12.721,441.674 L12.721,59.326 C12.721,33.587 33.587,12.721 59.326,12.721 z" fill="url(#Gradient_1)"/>
      <path d="M59.326,12.721 L441.674,12.721 C467.413,12.721 488.279,33.587 488.279,59.326 L488.279,441.674 C488.279,467.413 467.413,488.279 441.674,488.279 L59.326,488.279 C33.587,488.279 12.721,467.413 12.721,441.674 L12.721,59.326 C12.721,33.587 33.587,12.721 59.326,12.721 z" fill-opacity="0" stroke="#B8B8B8" stroke-width="16"/>
    </g>
  </g>
  <g id="Layer_1">
    <path d="M43.5,212.5 L43.5,212.5" fill-opacity="0" stroke="#383838" stroke-width="1" stroke-linecap="round" stroke-linejoin="round"/>
    <path d="M298.791,106.713 L411.159,106.713 C429.835,106.713 444.975,121.111 444.975,138.872 L444.975,274.554 C444.975,292.315 429.835,306.713 411.159,306.713 L298.791,306.713 C280.115,306.713 264.975,292.315 264.975,274.554 L264.975,138.872 C264.975,121.111 280.115,106.713 298.791,106.713 z" fill="#FFFFFF"/>
    <path d="M88.841,106.713 L201.209,106.713 C219.885,106.713 235.025,121.111 235.025,138.872 L235.025,274.554 C235.025,292.315 219.885,306.713 201.209,306.713 L88.841,306.713 C70.165,306.713 55.025,292.315 55.025,274.554 L55.025,138.872 C55.025,121.111 70.165,106.713 88.841,106.713 z" fill="#FFFFFF"/>
    <g>
      <path d="M114.97,191.774 C103.496,191.774 94.194,182.655 94.194,171.406 C94.194,160.157 103.496,151.038 114.97,151.038 C126.444,151.038 135.745,160.157 135.745,171.406 C135.745,182.655 126.444,191.774 114.97,191.774 z" fill="#FF9937"/>
      <path d="M114.97,191.774 C103.496,191.774 94.194,182.655 94.194,171.406 C94.194,160.157 103.496,151.038 114.97,151.038 C126.444,151.038 135.745,160.157 135.745,171.406 C135.745,182.655 126.444,191.774 114.97,191.774 z" fill-opacity="0" stroke="#D06900" stroke-width="4"/>
    </g>
    <g>
      <path d="M181.777,284.163 C170.303,284.163 161.002,275.044 161.002,263.795 C161.002,252.546 170.303,243.426 181.777,243.426 C193.252,243.426 202.553,252.546 202.553,263.795 C202.553,275.044 193.252,284.163 181.777,284.163 z" fill="#FF9937"/>
      <path d="M181.777,284.163 C170.303,284.163 161.002,275.044 161.002,263.795 C161.002,252.546 170.303,243.426 181.777,243.426 C193.252,243.426 202.553,252.546 202.553,263.795 C202.553,275.044 193.252,284.163 181.777,284.163 z" fill-opacity="0" stroke="#D06900" stroke-width="4"/>
    </g>
    <g>
      <path d="M384.97,185.58 C373.496,185.58 364.194,176.461 364.194,165.212 C364.194,153.963 373.496,144.844 384.97,144.844 C396.444,144.844 405.745,153.963 405.745,165.212 C405.745,176.461 396.444,185.58 384.97,185.58 z" fill="#FF9937"/>
      <path d="M384.97,185.58 C373.496,185.58 364.194,176.461 364.194,165.212 C364.194,153.963 373.496,144.844 384.97,144.844 C396.444,144.844 405.745,153.963 405.745,165.212 C405.745,176.461 396.444,185.58 384.97,185.58 z" fill-opacity="0" stroke="#D06900" stroke-width="4"/>
    </g>
    <g>
      <path d="M102.258,265.424 C90.784,265.424 81.483,256.305 81.483,245.056 C81.483,233.807 90.784,224.688 102.258,224.688 C113.732,224.688 123.034,233.807 123.034,245.056 C123.034,256.305 113.732,265.424 102.258,265.424 z" fill="#FF9937"/>
      <path d="M102.258,265.424 C90.784,265.424 81.483,256.305 81.483,245.056 C81.483,233.807 90.784,224.688 102.258,224.688 C113.732,224.688 123.034,233.807 123.034,245.056 C123.034,256.305 113.732,265.424 102.258,265.424 z" fill-opacity="0" stroke="#D06900" stroke-width="4"/>
    </g>
  </g>
  <g id="Layer_2">
    <text transform="matrix(1, 0, 0, 1, 251.15, 387.213)">
      <tspan x="-98.335" y="-14.5" font-family="Arial-BoldMT" font-size="60" fill="#000000">mango </tspan>
      <tspan x="-118.345" y="54.5" font-family="Arial-BoldMT" font-size="60" fill="#000000">problem</tspan>
    </text>
  </g>
</svg>
